<?xml version="1.0" encoding="UTF-8" standalone="no"?>
<!-- Created with Inkscape (http://www.inkscape.org/) -->

<svg
   width="99.197609mm"
   height="94.992821mm"
   viewBox="0 0 99.197609 94.992821"
   version="1.1"
   id="svg1"
   xml:space="preserve"
   inkscape:version="1.4.4 (dcaf3e7d9e, 2026-05-05)"
   sodipodi:docname="machine.svg"
   inkscape:export-filename="machine_frame.png"
   inkscape:export-xdpi="96"
   inkscape:export-ydpi="96"
   xmlns:inkscape="http://www.inkscape.org/namespaces/inkscape"
   xmlns:sodipodi="http://sodipodi.sourceforge.net/DTD/sodipodi-0.dtd"
   xmlns="http://www.w3.org/2000/svg"
   xmlns:svg="http://www.w3.org/2000/svg"><sodipodi:namedview
     id="namedview1"
     pagecolor="#505050"
     bordercolor="#eeeeee"
     borderopacity="1"
     inkscape:showpageshadow="0"
     inkscape:pageopacity="0"
     inkscape:pagecheckerboard="0"
     inkscape:deskcolor="#505050"
     inkscape:document-units="mm"
     inkscape:zoom="3.174838"
     inkscape:cx="541.60243"
     inkscape:cy="193.39569"
     inkscape:window-width="2743"
     inkscape:window-height="1469"
     inkscape:window-x="0"
     inkscape:window-y="0"
     inkscape:window-maximized="1"
     inkscape:current-layer="g7" /><defs
     id="defs1" /><g
     inkscape:label="Machine"
     inkscape:groupmode="layer"
     id="layer1"
     transform="translate(-74.957143,-92.75358)"
     style="display:inline"><path
       style="display:inline;fill:#0c227d;fill-opacity:1;stroke-width:2;stroke-opacity:0.654722"
       d="m 111.92238,157.84138 -15.167444,-7.91707 -1.333403,0.50003 -0.250012,1.16673 4.16688,2.16677 9.500479,5.41695 2.08345,1.25006 2.0001,-0.16668 0.16667,-1.41673 z"
       id="path11"
       inkscape:label="Pedal Spoke"
       inkscape:export-filename="back_pedal_spoke.png"
       inkscape:export-xdpi="96"
       inkscape:export-ydpi="96" /><path
       style="display:inline;fill:#0c227d;fill-opacity:1;stroke-width:2;stroke-opacity:0.654722"
       d="m 95.504872,151.0077 0.500025,-1.3334 1.833425,-0.41669 2.833478,0.83338 3.66686,1.3334 0.0833,1.91677 -0.83337,0.58336 0.0833,3.91686 -1.08338,2.75014 -3.416846,1.33341 -1.66675,-0.83338 0.166674,-8.16708 -0.166674,-1.08339 z"
       id="path12"
       inkscape:label="Pedal"
       inkscape:export-filename="back_pedal.png"
       inkscape:export-xdpi="96"
       inkscape:export-ydpi="96" /><path
       style="display:inline;fill:#f3ea5a;fill-opacity:1;stroke-width:2;stroke-opacity:0.654722"
       d="m 90.087928,126.75647 13.500692,34.66843 -14.417405,14.91743 -5.083593,6.50033 7.667059,-0.33335 0.583361,1.3334 -0.916712,1.41674 6.416992,-7.91707 45.002298,-46.16902 19.25098,49.33585 h 2.0001 l 1.41674,2.75014 0.83338,-1.33341 1.3334,-0.75003 5.66695,0.0833 -4.50023,-7.00035 h -0.75003 l -22.58449,-60.00306 -8.91712,0.0833 4.33355,9.83384 -32.25164,29.75152 -10.167185,-27.58474 z"
       id="path1"
       inkscape:label="Frame" /><path
       style="display:inline;fill:#0c227d;fill-opacity:1;stroke-width:2;stroke-opacity:0.654722"
       d="m 84.120534,182.79643 -0.530357,1.29643 0.353573,1.32589 0.97232,0.55982 1.797322,0.0589 -0.02946,1.29643 0.61875,0.4125 2.416071,-0.0884 1.44375,-0.58928 -0.05893,-1.62054 0.883927,-0.29464 0.353571,-1.20804 -0.618749,-1.47321 z"
       id="path3"
       inkscape:label="Base Cap Back" /><path
       style="display:inline;fill:#0c227d;fill-opacity:1;stroke-width:2;stroke-opacity:0.654722"
       d="m 165.50844,183.15517 0.27085,1.08339 1.14589,0.83338 c 0,0 -0.0833,1.43757 0,1.45841 0.0833,0.0208 1.14589,0.64586 1.14589,0.64586 l 3.08349,0.14585 0.35419,-2.18762 1.91676,-0.0417 0.68754,-0.93754 0.0417,-1.8751 -0.93755,-1.00005 -5.56278,-0.0625 -1.45841,0.83337 z"
       id="path4"
       inkscape:label="Base Cap Front" /><path
       style="display:inline;fill:#0c227d;fill-opacity:1;stroke-width:2;stroke-opacity:0.654722"
       d="m 139.24821,114.32143 -2.0625,-4.86161 -1.53214,0.0589 0.20625,-3.09375 8.13214,0.0295 0.67768,-1.44375 2.8875,-0.47143 9.54643,-3.3 7.48393,-8.132139 1.2375,0.825 0.4125,1.119643 -5.30357,6.717856 -2.53393,1.41429 3.83036,-1.82679 8.13214,-8.426783 1.65,-0.176787 1.17857,1.767856 -9.25179,9.958934 -3.24107,1.23749 2.35715,2.82858 0.58928,3.18214 -4.41964,8.25 -2.23929,1.59107 -3.12321,0.17679 -2.35715,0.11786 -0.23571,0.94285 -5.24464,-0.29464 -0.17679,-3.00536 4.65536,0.11786 0.4125,-1.11965 1.17857,0.11786 2.29822,-2.8875 1.29642,-2.475 -2.8875,-3.88928 -5.95178,0.58928 -1.88572,-0.23571 v -0.58929 l -3.41785,-0.0589 2.18035,5.3625 z"
       id="path5"
       inkscape:label="Handles" /><path
       style="display:inline;fill:#0c227d;fill-opacity:1;stroke-width:2;stroke-opacity:0.654722"
       d="m 92.517856,126.81428 -3.241072,-7.60178 -8.60357,0.35357 -3.241072,-0.47143 -0.412501,-2.41607 0.530357,-1.06071 9.075002,0.11785 0.176784,-1.06071 -1.532141,-0.35357 v -0.70715 l -3.830357,-0.23571 -2.651786,-1.94464 -2.062501,-1.11965 -0.176784,-0.88392 -1.591072,-0.88393 1.473213,-2.23929 5.185714,0.0589 4.419642,1.53214 h 10.253573 l 1.885714,2.0625 -0.05893,1.41429 -5.598215,-0.53036 -3.476787,1.88572 0.235715,2.94642 h 9.546429 l 0.648215,3.35893 -2.828573,0.17679 0.117859,0.58928 -2.298216,0.17679 2.828573,6.89464 z"
       id="path6"
       inkscape:label="Saddle" /><path
       style="display:inline;fill:#0c227d;fill-opacity:1;stroke-width:2;stroke-opacity:0.654722"
       d="m 83.207142,119.2125 -0.05893,2.41607 0.766072,0.11786 -0.294645,2.71071 6.069644,1.29643 0.117856,-0.94286 -4.47857,-1.06071 0.05893,-2.29822 0.117856,-2.12143 z"
       id="path7"
       inkscape:label="Screw" /><path
       style="display:inline;fill:#0c227d;fill-opacity:1;stroke-width:2;stroke-opacity:0.654722"
       d="m 85.505355,130.46786 h -0.942856 l 0.471429,1.41428 3.005357,4.36071 1.826784,-0.47142 L 91.339285,135.3 93.637498,135.18214 92.105357,132 l -1.826786,1.47321 -1.826787,0.58929 z"
       id="path8"
       inkscape:label="Screw" /><g
       id="g25"
       inkscape:label="Wheel"
       style="display:inline"
       inkscape:export-filename="wheel.png"
       inkscape:export-xdpi="96"
       inkscape:export-ydpi="96"><path
         style="display:inline;fill:#4fc4f8;fill-opacity:1;stroke-width:2;stroke-opacity:0.654722"
         d="m 157.42469,139.59045 5.16694,2.41679 3.3335,3.50018 2.83348,4.41689 1.00005,6.08365 -0.41669,5.83363 -2.25011,5.16693 -3.91687,4.08354 -4.25022,2.75014 -5.83363,1.75009 -6.41699,-0.6667 -6.33366,-2.6668 -5.3336,-4.83358 -1.91677,-6.417 0.0833,-7.00035 2.83348,-6.66701 4.08354,-3.3335 5.08359,-2.83348 6.417,-1.75009 z"
         id="path9"
         inkscape:label="Wheel" /><path
         style="fill:#4d32e2;fill-opacity:1;stroke-width:2;stroke-opacity:0.654722"
         d="m 153.6745,158.7581 9.83384,11.7506 -3.66685,2.6668 -1.91677,0.6667 z"
         id="path18"
         inkscape:label="Wheel Decoration 8" /><path
         style="fill:#4d32e2;fill-opacity:1;stroke-width:2;stroke-opacity:0.654722"
         d="m 153.75784,158.50808 -4.6669,16.58418 -3.25017,-0.41668 -2.83347,-1.50008 z"
         id="path19"
         inkscape:label="Wheel Decoration 7" /><path
         style="fill:#4d32e2;fill-opacity:1;stroke-width:2;stroke-opacity:0.654722"
         d="m 152.84113,158.34141 -15.25078,11.7506 -2.33345,-2.33345 -1.3334,-3.08349 z"
         id="path20"
         inkscape:label="Wheel Decoration 6" /><path
         style="fill:#4d32e2;fill-opacity:1;stroke-width:2;stroke-opacity:0.654722"
         d="m 152.75779,157.92472 -19.66767,0.58336 0.16668,-4.6669 1.41674,-3.00015 z"
         id="path21"
         inkscape:label="Wheel Decoration 5" /><path
         style="fill:#4d32e2;fill-opacity:1;stroke-width:2;stroke-opacity:0.654722"
         d="m 152.84113,157.59137 c -1.75009,-1.83343 -12.66731,-13.41735 -12.66731,-13.41735 l 3.83353,-2.25011 2.33345,-0.83338 z"
         id="path22"
         inkscape:label="Wheel Decoration 4" /><path
         style="fill:#4d32e2;fill-opacity:1;stroke-width:2;stroke-opacity:0.654722"
         d="m 153.34116,157.92472 2.0001,-18.33427 2.41679,0.25002 4.33355,2.0001 z"
         id="path23"
         inkscape:label="Wheel Decoration 3" /><path
         style="fill:#4d32e2;fill-opacity:1;stroke-width:2;stroke-opacity:0.654722"
         d="m 153.75784,157.67471 14.33407,-8.58377 1.3334,4.83358 0.25001,2.33345 z"
         id="path24"
         inkscape:label="Wheel Decoration 2" /><path
         style="fill:#4d32e2;fill-opacity:1;stroke-width:2;stroke-opacity:0.654722"
         d="m 153.75784,157.50803 15.0841,4.33356 -0.91671,3.16683 -1.00005,1.75009 z"
         id="path25"
         inkscape:label="Wheel Decoration 1" /></g><path
       style="display:inline;fill:#ff821a;fill-opacity:1;stroke-width:2;stroke-opacity:0.654722"
       d="m 108.08885,147.59086 49.41918,6.08364 1.91677,1.50008 0.91671,2.33345 -0.91671,1.75009 -1.16673,1.50008 -4.41689,1.16673 -42.41883,8.0004 -5.08359,-0.6667 -3.58352,-2.50012 -2.33345,-3.25017 -1.000053,-4.50023 1.166723,-4.83358 2.75014,-4.08354 z"
       id="path2"
       inkscape:label="Chain Protection"
       inkscape:export-filename="chain_protection.png"
       inkscape:export-xdpi="96"
       inkscape:export-ydpi="96" /><path
       style="display:inline;fill:#0c227d;fill-opacity:1;stroke-width:2;stroke-opacity:0.654722"
       d="m 110.83899,153.0078 -2.75014,-0.0833 -1.91677,2.0001 -1.50008,3.00015 0.16668,3.16683 2.0001,2.41679 3.41684,1.16673 3.50018,-0.58337 1.75009,-1.91676 1.25007,-3.50018 -1.08339,-3.08349 -2.08344,-2.08344 z"
       id="path13"
       inkscape:label="Pedals Base"
       inkscape:export-filename="front_pedal_spoke.png"
       inkscape:export-xdpi="96"
       inkscape:export-ydpi="96" /><path
       style="display:inline;fill:#0c227d;fill-opacity:1;stroke-width:2;stroke-opacity:0.654722"
       d="m 111.92238,157.84138 -15.167444,-7.91707 -1.333403,0.50003 -0.250012,1.16673 4.16688,2.16677 9.500479,5.41695 2.08345,1.25006 2.0001,-0.16668 0.16667,-1.41673 z"
       id="path14"
       inkscape:label="Pedal Spoke" /><path
       style="display:inline;fill:#0c227d;fill-opacity:1;stroke-width:2;stroke-opacity:0.654722"
       d="m 95.504872,151.0077 0.500025,-1.3334 1.833425,-0.41669 2.833478,0.83338 3.66686,1.3334 0.0833,1.91677 -0.83337,0.58336 0.0833,3.91686 -1.08338,2.75014 -3.416846,1.33341 -1.66675,-0.83338 0.166674,-8.16708 -0.166674,-1.08339 z"
       id="path15"
       inkscape:label="Pedal"
       inkscape:export-filename="front_pedal.png"
       inkscape:export-xdpi="96"
       inkscape:export-ydpi="96" /><rect
       style="fill:none;stroke:#ff821a;stroke-width:2;stroke-opacity:1"
       id="rect1"
       width="117.00597"
       height="89.337891"
       x="188.62961"
       y="26.083515"
       ry="3.2999997"
       rx="1.8857143" /><g
       id="g7"
       transform="translate(2.5928571)"><rect
         style="fill:none;stroke:#ff821a;stroke-width:2;stroke-opacity:1"
         id="rect2"
         width="9.9000006"
         height="4.007143"
         x="194.7"
         y="99.825005" /><rect
         style="fill:none;stroke:#ff821a;stroke-width:2;stroke-opacity:1"
         id="rect3"
         width="9.9000006"
         height="4.007143"
         x="194.7"
         y="92.187859" /><path
         id="rect44"
         style="fill:#ff821a;stroke:#ff821a;stroke-width:2;fill-opacity:1"
         d="m 199.21455,107.57541 h 1.56624 l 2.50013,4.00715 h -7.06652 z"
         sodipodi:nodetypes="ccccc" /></g><g
       id="g13"
       transform="translate(17.560714)"><rect
         style="fill:none;stroke:#ff821a;stroke-width:2;stroke-opacity:1"
         id="rect8"
         width="9.9000006"
         height="4.007143"
         x="194.7"
         y="99.825005" /><rect
         style="fill:none;stroke:#ff821a;stroke-width:2;stroke-opacity:1"
         id="rect9"
         width="9.9000006"
         height="4.007143"
         x="194.7"
         y="92.187859" /><rect
         style="fill:none;stroke:#ff821a;stroke-width:2;stroke-opacity:1"
         id="rect10"
         width="9.9000006"
         height="4.007143"
         x="194.7"
         y="84.55072" /><rect
         style="fill:none;stroke:#ff821a;stroke-width:2;stroke-opacity:1"
         id="rect11"
         width="9.9000006"
         height="4.007143"
         x="194.7"
         y="76.913574" /><rect
         style="fill:none;stroke:#ff821a;stroke-width:2;stroke-opacity:1"
         id="rect12"
         width="9.9000006"
         height="4.007143"
         x="194.7"
         y="69.276428" /></g><g
       id="g19"
       transform="translate(32.528571)"><rect
         style="fill:none;stroke:#ff821a;stroke-width:2;stroke-opacity:1"
         id="rect14"
         width="9.9000006"
         height="4.007143"
         x="194.7"
         y="99.825005" /><rect
         style="fill:none;stroke:#ff821a;stroke-width:2;stroke-opacity:1"
         id="rect15"
         width="9.9000006"
         height="4.007143"
         x="194.7"
         y="92.187859" /><rect
         style="fill:none;stroke:#ff821a;stroke-width:2;stroke-opacity:1"
         id="rect16"
         width="9.9000006"
         height="4.007143"
         x="194.7"
         y="84.55072" /></g><g
       id="g26"
       transform="translate(47.496428)"><rect
         style="fill:none;stroke:#ff821a;stroke-width:2;stroke-opacity:1"
         id="rect20"
         width="9.9000006"
         height="4.007143"
         x="194.7"
         y="99.825005" /><rect
         style="fill:none;stroke:#ff821a;stroke-width:2;stroke-opacity:1"
         id="rect21"
         width="9.9000006"
         height="4.007143"
         x="194.7"
         y="92.187859" /><rect
         style="fill:none;stroke:#ff821a;stroke-width:2;stroke-opacity:1"
         id="rect22"
         width="9.9000006"
         height="4.007143"
         x="194.7"
         y="84.55072" /><rect
         style="fill:none;stroke:#ff821a;stroke-width:2;stroke-opacity:1"
         id="rect23"
         width="9.9000006"
         height="4.007143"
         x="194.7"
         y="76.913574" /><rect
         style="fill:none;stroke:#ff821a;stroke-width:2;stroke-opacity:1"
         id="rect24"
         width="9.9000006"
         height="4.007143"
         x="194.7"
         y="69.276428" /></g><g
       id="g31"
       transform="translate(62.464285)"><rect
         style="fill:none;stroke:#ff821a;stroke-width:2;stroke-opacity:1"
         id="rect26"
         width="9.9000006"
         height="4.007143"
         x="194.7"
         y="99.825005" /><rect
         style="fill:none;stroke:#ff821a;stroke-width:2;stroke-opacity:1"
         id="rect27"
         width="9.9000006"
         height="4.007143"
         x="194.7"
         y="92.187859" /></g><g
       id="g37"
       transform="translate(77.432142)"><rect
         style="fill:none;stroke:#ff821a;stroke-width:2;stroke-opacity:1"
         id="rect32"
         width="9.9000006"
         height="4.007143"
         x="194.7"
         y="99.825005" /><rect
         style="fill:none;stroke:#ff821a;stroke-width:2;stroke-opacity:1"
         id="rect33"
         width="9.9000006"
         height="4.007143"
         x="194.7"
         y="92.187859" /><rect
         style="fill:none;stroke:#ff821a;stroke-width:2;stroke-opacity:1"
         id="rect34"
         width="9.9000006"
         height="4.007143"
         x="194.7"
         y="84.55072" /><rect
         style="fill:none;stroke:#ff821a;stroke-width:2;stroke-opacity:1"
         id="rect35"
         width="9.9000006"
         height="4.007143"
         x="194.7"
         y="76.913574" /><rect
         style="fill:none;stroke:#ff821a;stroke-width:2;stroke-opacity:1"
         id="rect36"
         width="9.9000006"
         height="4.007143"
         x="194.7"
         y="69.276428" /></g><g
       id="g43"
       transform="translate(92.399999)"><rect
         style="fill:none;stroke:#ff821a;stroke-width:2;stroke-opacity:1"
         id="rect38"
         width="9.9000006"
         height="4.007143"
         x="194.7"
         y="99.825005" /><rect
         style="fill:none;stroke:#ff821a;stroke-width:2;stroke-opacity:1"
         id="rect39"
         width="9.9000006"
         height="4.007143"
         x="194.7"
         y="92.187859" /><rect
         style="fill:none;stroke:#ff821a;stroke-width:2;stroke-opacity:1"
         id="rect40"
         width="9.9000006"
         height="4.007143"
         x="194.7"
         y="84.55072" /></g><rect
       style="fill:#ff821a;fill-opacity:1;stroke:#ff821a;stroke-width:2;stroke-opacity:1"
       id="rect43"
       width="100.88571"
       height="9.4285707"
       x="196.68973"
       y="35.946438"
       ry="2.3571429"
       rx="2.1214285" /></g><g
     inkscape:groupmode="layer"
     id="layer2"
     inkscape:label="Woman"
     style="display:inline"
     transform="matrix(0.58951272,0,0,0.58951272,5.5737167,5.0041388)"><g
       id="g50"
       inkscape:label="Back Arm"
       style="display:inline"><path
         style="display:inline;fill:#ff821a;fill-opacity:1;stroke-width:2;stroke-opacity:0.654722"
         d="m 9.6370767,-70.228229 -8.1196776,2.847135 -3.6901363,3.897614 2.23158927,13.994501 8.86932393,32.602511 1.706266,3.753717 2.415503,0.234174 4.707201,-2.050867 1.840031,-4.744029 -0.906751,-15.085165 -1.515636,-13.78708 0.625564,-8.58808 0.826323,-4.727298 -2.378731,-4.646978 z"
         id="path42"
         inkscape:label="Upper Arm Back"
         inkscape:export-filename="../../character/front_arm_upper.png"
         inkscape:export-xdpi="96"
         inkscape:export-ydpi="96" /><path
         style="display:inline;fill:#ff821a;fill-opacity:1;stroke-width:2;stroke-opacity:0.654722"
         d="m 9.1147578,-16.643004 2.0057952,11.0171887 6.256439,25.8190523 3.470013,9.018296 2.950605,2.536602 5.251191,-1.059418 1.627665,-5.200787 -2.611478,-4.081029 -2.337289,-10.982053 -1.274837,-13.6087996 -3.673196,-12.5165434 -2.297552,-4.281913 -5.924111,-0.545343 -3.4180433,2.541205 z"
         id="path43"
         inkscape:label="Lower Arm Front"
         inkscape:export-filename="../../character/front_arm_lower.png"
         inkscape:export-xdpi="96"
         inkscape:export-ydpi="96" /><path
         style="display:inline;fill:#ff821a;fill-opacity:1;stroke-width:2;stroke-opacity:0.654722"
         d="m 34.213454,36.068132 1.005134,-0.815614 -0.314609,-2.648509 0.0554,-2.309606 -0.830879,-1.967011 -1.994507,-1.470189 -2.03719,-1.884685 -1.966517,-3.232414 -1.910378,-1.059961 -1.989583,0.204869 -1.661021,0.548038 -1.328194,0.932658 -1.354377,1.898804 0.296307,2.063945 1.237498,3.475038 0.120737,1.579354 0.576109,2.747248 1.341082,2.040143 1.028935,0.229162 0.529078,-0.557149 0.237125,0.268808 0.841797,0.03899 0.632085,-0.777202 0.258466,0.476057 0.813152,0.167603 0.836297,-0.421227 0.479091,-0.635781 0.622977,0.354745 1.090493,0.01338 0.474823,-0.677231 0.46752,-0.341362 1.049703,1.651254 z"
         id="path44"
         inkscape:label="Hand Font"
         inkscape:export-filename="../../character/front_hand.png"
         inkscape:export-xdpi="96"
         inkscape:export-ydpi="96" /></g><g
       id="g52"
       inkscape:label="Back Leg"
       style="display:inline"><path
         style="display:inline;fill:#0c227d;stroke-width:2;stroke-opacity:0.654722"
         d="M 11.06226,0.09908936 -0.10192389,2.1007175 -5.3675073,7.2007161 l -2.7000506,6.8325919 0.9000894,8.467404 4.5002296,5.467467 8.1675194,1.700002 17.0008675,-2.333453 21.33442,-5.833631 28.66813,-1.500077 10.500535,-1.833427 5.833631,-4.333554 L 90.33794,10.167185 87.837813,5.000255 80.170757,0.66670067 69.336872,-1.1667262 54.669456,-1.6667517 44.002245,-1.000051 33.001682,0 Z"
         id="path16"
         inkscape:label="Back Upper Leg"
         inkscape:export-filename="../../character/back_leg_upper.png"
         inkscape:export-xdpi="96"
         inkscape:export-ydpi="96"
         sodipodi:nodetypes="cccccccccccccccccccc" /><g
         id="g47"
         inkscape:label="Back Lower Leg"
         style="display:inline"
         inkscape:export-filename="../../character/back_leg_lower.png"
         inkscape:export-xdpi="96"
         inkscape:export-ydpi="96"><path
           style="display:inline;fill:#ff821a;fill-opacity:1;stroke-width:2;stroke-opacity:0.654722"
           d="M 79.504055,65.336665 83.83761,47.335749 87.337788,33.668385 88.837864,29.001479 89.504566,20.00102 V 12.833988 L 90.004592,9.833835 87.837813,5.3336054 83.83761,2.5001275 h -5.000255 l -5.000254,4.1668792 -2.166779,9.5004843 -2.500127,10.500535 -1.500077,12.333965 0.333351,9.833834 -0.666702,10.167184 -0.500025,9.00046 -0.833374,5.333606 0.500025,4.83358 4.333555,1.500077 7.333707,-1.833428 2.500128,-5.000254 z"
           id="path17"
           inkscape:label="Back Lower Leg" /><path
           style="display:inline;fill:#0c227d;stroke-width:2;stroke-opacity:0.654722"
           d="m 66.942858,66.35357 3.918749,0.972323 3.358928,0.20625 4.449109,0.14732 1.738392,-0.383034 L 80.142857,64.114285 80.614286,61.05 83.442856,49.558928 87.096427,35.946429 89.217856,28.875 89.925,17.442857 90.626219,11.314286 90.164901,8.0142857 88.466085,5.1225977 85.141675,2.2553188 79.441638,1.7737798 73.94698,4.6023511 71.3625,11.1375 70.478572,19.8 l -2.239287,11.55 -1.119643,8.957143 0.707144,7.071429 -0.353572,8.485713 -0.500892,7.277677 -0.206251,1.856251 z"
           id="path28"
           inkscape:label="Back Lower Leg Legging"
           sodipodi:nodetypes="cccccccccccccccccccccccccc" /></g><g
         id="g39"
         inkscape:label="Back Shoe and Foot"
         inkscape:export-filename="../../character/back_foot.png"
         inkscape:export-xdpi="96"
         inkscape:export-ydpi="96"
         style="display:inline"><path
           style="display:inline;fill:#ff821a;fill-opacity:1;stroke-width:2;stroke-opacity:0.654722"
           d="m 67.503444,71.003622 -3.500178,3.000153 -1.166728,9.333809 3.833529,2.166779 h 7.000357 l 5.500282,-1.000054 7.333708,0.166677 7.833733,0.500026 6.667003,0.166674 2.83348,-1.666751 -2.4671,-2.867381 -7.482556,-2.016397 -9.051313,-3.116632 -4.50023,-2.166776 -1.500076,-2.500127 -7.167033,-1.66675 z"
           id="path26"
           inkscape:label="Back Foot"
           sodipodi:nodetypes="ccccccccccccccccc" /><path
           style="fill:#4fc4f8;fill-opacity:1;stroke-width:2;stroke-opacity:0.654722"
           d="m 64.586627,71.420309 -1.916763,4.666906 -0.333351,5.916967 0.08334,2.583466 2.916814,1.41674 5.000257,0.583362 5.50028,-0.333349 5.50028,-0.08334 4.083542,0.583364 7.250369,0.500025 6.333657,0.08334 4.666908,-1.666751 0.25001,-2.333453 -0.91672,-2.333453 -3.083485,-1.333399 -4.416891,-1.416741 -3.583517,-0.6667 0.250013,-1.250063 -6.500331,-1.833428 -3.500178,-2.000102 -0.916715,-0.916712 -0.916713,-3.666855 -0.916712,-0.500025 -0.583364,1.00005 0.6667,3.500179 0.750038,1.00005 -0.833374,0.750039 -2.500127,-0.416687 -2.166779,1.66675 -1.666751,1.08339 h -3.083491 l -3.416842,-1.833428 z"
           id="path27"
           inkscape:label="Back Shoe" /></g></g><g
       id="g49"
       inkscape:label="Head With Features"
       style="display:inline"
       inkscape:export-filename="../../character/head.png"
       inkscape:export-xdpi="96"
       inkscape:export-ydpi="96"><path
         style="display:inline;fill:#ff821a;fill-opacity:1;stroke-width:2;stroke-opacity:0.654722"
         d="m 5.775,-74.839284 2.4750001,-3.064288 2.0035709,-3.889285 -0.235714,-5.421429 -1.8857143,-6.364284 -1.2964284,-6.71786 1.7678572,-6.48214 3.6535715,-5.18572 4.596428,-2.23928 h 6.835715 l 4.125,1.76786 3.535714,1.65 3.3,5.42143 2.00357,5.657137 0.412501,3.35893 -0.441965,0.913392 -0.265179,1.679464 0.05893,1.355357 1.001784,2.003571 1.001787,1.944645 -0.324107,1.060712 -1.325893,0.942858 -1.090179,0.353571 0.383035,1.443749 -0.353571,0.825003 -1.149106,0.559821 0.618749,1.266963 -1.915179,1.178573 0.176787,1.355357 -1.119643,2.091963 -4.832143,-0.235715 -1.650001,-0.500893 -1.266964,0.147322 -1.266964,1.65 -0.942857,2.622323 -0.500893,2.504463 0.05893,1.915179 0.235715,1.208034 -2.121429,1.237502 -7.425,-1.355358 -5.9517855,-4.066071 z"
         id="path30"
         inkscape:label="Head" /><path
         style="fill:#4d32e2;fill-opacity:1;stroke-width:2;stroke-opacity:0.654722"
         d="m 19.917857,-95.935714 1.65,1.237501 0.530357,1.001784 1.885715,-0.235715 0.294642,-2.769642 0.05893,-2.887498 0.942857,-1.649996 h 2.828571 l 0.707144,-1.53215 0.825,-1.65 1.178571,-0.70714 1.532143,0.53036 1.119643,-1.29643 0.942856,0.0589 -1.001784,-2.59286 -2.357144,-2.8875 -2.533928,-0.88393 -3.948215,-1.94464 -3.7125,-0.35357 -3.417857,-0.17679 -3.3,1.29643 -2.003571,1.11964 -1.355357,1.65 -0.766072,0.70715 -2.1214284,-0.58929 -2.1803571,-1.94464 -1.1196428,0.58928 -2.1214287,-0.17678 -1.94464285,1.59107 -2.06250005,1.00178 -1.2375001,1.53215 -1.0017855,1.53214 -2.475,1.47321 -1.2964287,1.82679 -1.5910713,2.29821 -0.5892858,1.296432 1.2964286,3.123215 -0.4714284,2.003571 -1.8857149,2.00357 -1.2375,1.473216 1.767858,2.062499 0.4714281,2.887501 0.7071429,3.535714 1.6500001,2.298213 1.1196429,0.883928 -2.0625001,-3.005357 -0.7660714,-2.003571 0.7660714,-0.883927 -0.4714285,-2.533928 0.2946429,-0.707144 1.5321428,-1.178571 2.0035713,-1.060714 -0.942857,2.592856 -0.058929,2.180357 -0.2946429,1.885714 -0.2946429,2.946429 0.530357,1.708928 -0.825,2.121429 0.294643,2.651787 1.1196428,1.767855 v 2.062502 l -0.1767859,2.239285 0.6482144,1.826786 1.5321428,1.885715 0.2946429,0.883928 -1.0017855,0.883928 -1.6500001,1.708927 -0.2357144,1.473216 1.1785716,1.414286 1.1196428,1.17857 0.7071429,-0.471427 -0.8839287,-1.237501 -1.0607143,-1.355357 0.9428572,-1.119643 2.0035714,-1.532143 V -64.35 l -0.2357143,-1.649999 -0.9428571,-1.178571 v -2.003573 l 1.4142857,-1.119643 2.12142855,-0.942856 1.64999995,-0.471429 0.2357143,-0.942859 0.4125,-0.824999 1.1196428,-0.648214 -0.058928,-1.237498 -0.5892858,-0.530358 0.9428572,-0.88393 0.7660714,-0.707141 0.8839288,-0.235715 0.8249999,-1.414285 -1.0607143,-1.708931 -0.3535715,-0.942856 0.8839285,-1.060714 -0.2946426,-1.29643 -0.058929,-0.824999 1.532143,-0.76607 v -1.826786 l -0.4125002,-1.767859 0.058929,-0.707141 1.060714,-0.235715 0.7071429,0.883928 0.4714288,1.591072 -0.2357144,1.237499 0.5892858,0.530357 1.8267861,0.530357 2.769642,-0.05893 c 0,0 1.296429,-0.648213 1.296429,-0.883928 0,-0.235714 -0.648214,-2.82857 -0.648214,-2.82857 l 0.4125,-1.473216 -1.296429,-1.296429 -0.883929,-1.060715 0.471429,-2.121426 0.235714,-1.296429 0.648215,-1.29643 1.473214,-1.296429 1.355357,-0.117856 1.532143,0.766072 1.001786,1.532141 z"
         id="path31"
         inkscape:label="Hair" /><path
         style="fill:#0c227d;stroke-width:2;stroke-opacity:0.654722"
         d="m 34.532144,-95.405357 -1.29643,-0.235714 -1.561607,0.147322 -0.736608,0.412499 1.266965,0.913394 1.237501,0.294643 0.736605,-0.648216 z"
         id="path32"
         inkscape:label="Eye" /><path
         style="fill:#0c227d;stroke-width:2;stroke-opacity:0.654722"
         d="m 30.525,-97.438391 1.149107,-0.707144 2.121429,0.235714 1.03125,0.825 0.265179,1.031251 0.530357,0.383035 0.589285,-0.648214 -0.589285,-1.325893 -1.266965,-1.031251 -1.414285,-0.117856 -1.532144,0.324107 z"
         id="path33"
         inkscape:label="Brow" /><path
         style="fill:#0c227d;stroke-width:2;stroke-opacity:0.654722"
         d="m 36.034821,-84.827678 -1.384821,0.117856 -1.473214,-0.14732 -1.266965,-0.441965 -0.471429,0.05893 1.237501,0.736608 0.913392,0.235714 1.060715,0.500894 0.08839,0.294642 0.913394,-0.176786 0.383035,-0.648214 z"
         id="path34"
         inkscape:label="Upper Lip" /><path
         style="fill:#0c227d;stroke-width:2;stroke-opacity:0.654722"
         d="m 31.379464,-84.150001 0.648213,0.972323 0.766072,1.031251 1.178573,0.589285 0.61875,0.117856 0.589285,-0.500893 -0.324107,-0.589286 -0.441965,-0.471426 -0.766072,-0.412502 -1.296427,-0.471429 -0.707143,-0.324107 z"
         id="path35"
         inkscape:label="Lower Lip" /></g><g
       id="g48"
       inkscape:label="Torso With Shirt"
       style="display:inline"
       inkscape:export-filename="../../character/torso.png"
       inkscape:export-xdpi="96"
       inkscape:export-ydpi="96"><path
         style="display:inline;fill:#ff821a;fill-opacity:1;stroke-width:2;stroke-opacity:0.654722"
         d="M 4.0071428,-73.778572 -1.65,-65.52857 l -1.8857144,14.849999 2.82857156,5.892858 6.36428554,10.842857 2.8285715,10.135713 -2.8285715,12.492857 -6.8357141,9.1928574 -4.9500001,7.7785713 -2.5928571,7.0714283 1.6500002,10.135715 L -1.65,26.4 12.822919,28.026952 23.335714,25.692857 31.585715,11.314286 33.235714,-0.47142857 36.064285,-15.557143 37.242858,-28.05 l 0.235712,-8.249999 2.357144,-3.064286 -0.707141,-5.657143 -8.485717,-13.435713 -8.308383,-10.713054 -7.000357,-4.083542 -6.5836695,-1.750089 -2.3334525,-0.916712 z"
         id="path29"
         inkscape:label="Torso"
         sodipodi:nodetypes="ccccccccccccccccccccccccccc" /><path
         style="display:inline;fill:#0c227d;stroke-width:2;stroke-opacity:0.654722"
         d="m -1.1503338,-2.6626148 0.19302934,0.1889421 -1.70575674,2.64749712 -3.6589247,4.68221938 -2.3884912,6.5346402 -0.3836926,7.503134 1.1892295,4.22759 2.6893062,2.894188 4.37856118,2.121523 8.79545322,0.954797 9.6288296,-1.128643 6.916975,-2.097767 3.537528,-6.054234 2.702417,-6.143494 1.32592,-3.011396 0.271363,-1.7737799 0.660269,-0.1738246 0.333352,-3.0418217 1.250063,-4.0418729 -0.166674,-3.0001531 1.000051,-8.1254144 1.166725,-6.5836694 0.750038,-7.000357 0.666703,-7.833734 0.250012,-5.50028 0.958382,-1.750089 0.750039,-1.291732 -0.625034,-5.666958 -1.833425,-2.541795 -2.916817,-4.666904 -1.583415,-2.416789 -0.833374,-1.666754 0.750039,-1.250063 -4.916919,-4.083542 -5.250268,-5.416942 -6.500331,-4.500229 -5.750293,-3.250165 -4.4168924,-0.666703 -1.0000509,0.916715 -1.4167389,1.75009 -2.5001276,1.916763 -2.6668027,4.83358 -0.5833631,2.333453 2.33345235,-4.416893 2.33345235,-2.500127 2.9168154,-1.666751 4.0835418,0.833374 4.7502427,3.000153 4.666904,4.916918 2.500128,4.583568 0.666701,4.916916 -2.250115,3.583517 -3.500179,2.500127 -4.666905,2.500127 -6.8336816,1.416741 -3.9168664,-1.000051 -1.83342684,-1.916766 -2.16677716,-3.333501 v -5.083593 l -0.5833631,1.750089 0.1666751,3.666852 1.6667517,4.083542 2.2501148,4.166881 4.3335545,7.750394 2.2501148,6.416995 0.2500127,5.250267 -1.0833886,7.500382 -2.4167901,5.9169688 -2.0834395,2.8334779 z"
         id="path45"
         inkscape:label="Shirt"
         sodipodi:nodetypes="cccccccccccccccccccccccccccccccccccccccccccccccccccccccccccccccccccccc" /></g><g
       id="g51"
       inkscape:label="Front Leg"
       style="display:inline"><path
         style="display:inline;fill:#0c227d;stroke-width:2;stroke-opacity:0.654722"
         d="m 7.897176,1.3323111 -11.2652355,4.3344265 -5.5993697,7.5338484 1.4670466,11.634014 1.0000509,10.333861 -8.6671083,25.667975 -1.166726,3.16683 0.33335,7.16703 2.666803,6.333657 3.500178,1.500076 4.83358,-0.833374 4.66690466,-4.83358 L 7.1670322,64.16994 16.500842,47.835774 23.167849,31.168258 24.8346,25.334626 23.970812,12.800086 17.506779,4.2688031 5.4974461,2.0318236 Z"
         id="path10"
         inkscape:label="Front Upper Leg"
         inkscape:export-filename="../../character/front_leg_upper.png"
         inkscape:export-xdpi="96"
         inkscape:export-ydpi="96"
         sodipodi:nodetypes="cccccccccccccccccccc" /><g
         id="g46"
         inkscape:label="Front Lower Leg"
         style="display:inline"
         inkscape:export-filename="../../character/front_leg_lower.png"
         inkscape:export-xdpi="96"
         inkscape:export-ydpi="96"><path
           style="display:inline;fill:#ff821a;fill-opacity:1;stroke-width:2;stroke-opacity:0.654722"
           d="m -64.731685,65.23829 17.557978,5.876233 13.312882,4.670683 4.519457,1.898612 8.908904,1.443682 7.140103,0.620694 2.945577,0.757972 4.6709743,-1.768896 3.1692666,-3.739781 0.4330448,-4.981467 -3.7181789,-5.342337 -9.2771358,-2.981423 -10.24456,-3.400127 -12.15771,-2.562618 -9.825755,-0.519556 -10.071241,-1.544721 -8.92334,-1.277626 -5.241396,-1.292158 -4.858724,0.07954 -1.869749,4.187359 1.19141,7.464936 5.059593,1.686279 z"
           id="path39"
           inkscape:label="Front Lower Leg"
           sodipodi:nodetypes="ccccccccccccccccccccccc" /><path
           style="display:inline;fill:#0c227d;stroke-width:2;stroke-opacity:0.654722"
           d="m -64.69375,52.47185 -1.329219,3.812503 -0.514829,3.32564 -0.556588,4.416615 0.221243,1.766287 3.193047,0.02912 3.007815,0.751735 11.181609,3.875209 13.218004,4.892147 6.845908,2.763896 11.318373,1.757375 6.037903,1.26286 3.3284667,-0.155328 3.0359008,-1.425182 3.1613612,-3.046109 1.004634,-5.631431 -2.3103202,-5.731885 -6.2692485,-3.175569 -10.341543,-2.591635 -9.497253,-2.380466 -8.815896,-1.9401 -7.106503,0.05265 -8.417049,-1.133853 -7.20058,-1.169252 -1.829353,-0.37639 z"
           id="path46"
           inkscape:label="Front Lower Leg Legging"
           sodipodi:nodetypes="cccccccccccccccccccccccccc" /></g><g
         id="g41"
         inkscape:label="Front Shoe and Foot"
         transform="rotate(92.935948,4.5795178,-5.3317038)"
         style="display:inline"
         inkscape:export-filename="../../character/front_foot.png"
         inkscape:export-xdpi="96"
         inkscape:export-ydpi="96"><path
           style="display:inline;fill:#ff821a;fill-opacity:1;stroke-width:2;stroke-opacity:0.654722"
           d="m 67.503444,71.003622 -3.500178,3.000153 -1.166728,9.333809 3.833529,2.166779 h 7.000357 l 5.500282,-1.000054 7.333708,0.166677 7.833733,0.500026 6.667003,0.166674 2.83348,-1.666751 -3.50258,-3.123403 -8.617429,-2.494355 -6.88096,-2.382652 -4.50023,-2.166776 -1.500076,-2.500127 -7.167033,-1.66675 z"
           id="path40"
           inkscape:label="Back Foot"
           sodipodi:nodetypes="ccccccccccccccccc" /><path
           style="fill:#4fc4f8;fill-opacity:1;stroke-width:2;stroke-opacity:0.654722"
           d="m 64.586627,71.420309 -1.916763,4.666906 -0.333351,5.916967 0.08334,2.583466 2.916814,1.41674 5.000257,0.583362 5.50028,-0.333349 5.50028,-0.08334 4.083542,0.583364 7.250369,0.500025 6.333657,0.08334 4.666908,-1.666751 0.25001,-2.333453 -0.91672,-2.333453 -3.083485,-1.333399 -4.416891,-1.416741 -3.583517,-0.6667 0.250013,-1.250063 -6.500331,-1.833428 -3.500178,-2.000102 -0.916715,-0.916712 -0.916713,-3.666855 -0.916712,-0.500025 -0.583364,1.00005 0.6667,3.500179 0.750038,1.00005 -0.833374,0.750039 -2.500127,-0.416687 -2.166779,1.66675 -1.666751,1.08339 h -3.083491 l -3.416842,-1.833428 z"
           id="path41"
           inkscape:label="Back Shoe" /></g></g><g
       id="g53"
       inkscape:label="Front Arm"
       style="display:inline"><path
         style="display:inline;fill:#ff821a;fill-opacity:1;stroke-width:2;stroke-opacity:0.654722"
         d="m 12.333963,-70.336922 -8.5004342,1.333402 -4.3335543,3.166829 -0.33335034,14.16739 2.83347784,33.668383 1.000051,4.000204 2.3334524,0.666701 5.0002546,-1.166727 2.666803,-4.333554 1.833427,-15.000765 1.000051,-13.834039 2.166777,-8.333758 1.666752,-4.500232 -1.500077,-5.000254 z"
         id="path36"
         inkscape:label="Upper Arm Back"
         inkscape:export-filename="../../character/front_arm_upper.png"
         inkscape:export-xdpi="96"
         inkscape:export-ydpi="96" /><path
         style="display:inline;fill:#ff821a;fill-opacity:1;stroke-width:2;stroke-opacity:0.654722"
         d="m 2.3334524,-18.167593 0.8333759,11.1672359 3.5001784,26.3346771 2.5001276,9.33381 2.6668027,2.833476 5.333605,-0.500025 2.166778,-5.000255 -2.166778,-4.333554 -1.166726,-11.167236 0.166675,-13.6673643 -2.333452,-12.8339877 -1.833427,-4.50023 -5.8336307,-1.166726 -3.6668538,2.166777 z"
         id="path37"
         inkscape:label="Lower Arm Back"
         inkscape:export-filename="../../character/front_arm_lower.png"
         inkscape:export-xdpi="96"
         inkscape:export-ydpi="96" /><path
         style="display:inline;fill:#ff821a;fill-opacity:1;stroke-width:2;stroke-opacity:0.654722"
         d="m 17.383929,22.039286 2.180357,2.8875 5.333035,3.830355 0.707143,1.885715 -0.4125,0.883931 -0.795536,0.265178 -1.325892,-0.500893 -0.265179,0.471429 -0.265178,2.268749 0.206249,1.944643 0.707143,0.972322 0.353572,-0.383037 1.03125,0.67768 -0.972322,1.591069 -1.708928,1.119645 -1.355357,-0.589287 -0.61875,-0.412499 -1.44375,0.353571 -1.001786,-0.235715 -0.353571,-0.677677 -1.119643,0.471429 -1.178572,-0.147323 -1.001785,-0.500893 -0.500893,0.265179 -1.03125,0.294642 -1.384822,-1.001784 -1.060714,-1.65 L 9.2517856,34.473213 9.1044643,31.939285 8.6919643,29.523213 8.3678571,26.19375 8.1910713,24.160714 9.3991072,22.186607 12.7875,20.801786 l 2.533929,0.05893 z"
         id="path38"
         inkscape:label="Hand Back"
         inkscape:export-filename="../../character/front_hand.png"
         inkscape:export-xdpi="96"
         inkscape:export-ydpi="96" /></g></g></svg>
