<?xml version="1.0" encoding="UTF-8" standalone="no"?>
<!-- Created with Inkscape (http://www.inkscape.org/) -->

<svg
   width="99.197609mm"
   height="94.992821mm"
   viewBox="0 0 99.197609 94.992821"
   version="1.1"
   id="svg1"
   xml:space="preserve"
   inkscape:version="1.4.4 (dcaf3e7d9e, 2026-05-05)"
   sodipodi:docname="machine.svg"
   inkscape:export-filename="machine_frame.png"
   inkscape:export-xdpi="96"
   inkscape:export-ydpi="96"
   xmlns:inkscape="http://www.inkscape.org/namespaces/inkscape"
   xmlns:sodipodi="http://sodipodi.sourceforge.net/DTD/sodipodi-0.dtd"
   xmlns="http://www.w3.org/2000/svg"
   xmlns:svg="http://www.w3.org/2000/svg"><sodipodi:namedview
     id="namedview1"
     pagecolor="#505050"
     bordercolor="#eeeeee"
     borderopacity="1"
     inkscape:showpageshadow="0"
     inkscape:pageopacity="0"
     inkscape:pagecheckerboard="0"
     inkscape:deskcolor="#505050"
     inkscape:document-units="mm"
     inkscape:zoom="1.587419"
     inkscape:cx="68.349944"
     inkscape:cy="150.55886"
     inkscape:window-width="2743"
     inkscape:window-height="1469"
     inkscape:window-x="0"
     inkscape:window-y="0"
     inkscape:window-maximized="1"
     inkscape:current-layer="layer1" /><defs
     id="defs1" /><g
     inkscape:label="Layer 1"
     inkscape:groupmode="layer"
     id="layer1"
     transform="translate(-74.957143,-92.75358)"><path
       style="display:inline;fill:#444849;fill-opacity:1;stroke-width:2;stroke-opacity:0.654722"
       d="m 111.92238,157.84138 -15.167444,-7.91707 -1.333403,0.50003 -0.250012,1.16673 4.16688,2.16677 9.500479,5.41695 2.08345,1.25006 2.0001,-0.16668 0.16667,-1.41673 z"
       id="path11"
       inkscape:label="Pedal Spoke"
       inkscape:export-filename="back_pedal_spoke.png"
       inkscape:export-xdpi="96"
       inkscape:export-ydpi="96" /><path
       style="display:inline;fill:#444849;fill-opacity:1;stroke-width:2;stroke-opacity:0.654722"
       d="m 95.504872,151.0077 0.500025,-1.3334 1.833425,-0.41669 2.833478,0.83338 3.66686,1.3334 0.0833,1.91677 -0.83337,0.58336 0.0833,3.91686 -1.08338,2.75014 -3.416846,1.33341 -1.66675,-0.83338 0.166674,-8.16708 -0.166674,-1.08339 z"
       id="path12"
       inkscape:label="Pedal"
       inkscape:export-filename="back_pedal.png"
       inkscape:export-xdpi="96"
       inkscape:export-ydpi="96" /><path
       style="display:inline;fill:#f3ea5a;fill-opacity:1;stroke-width:2;stroke-opacity:0.654722"
       d="m 90.087928,126.75647 13.500692,34.66843 -14.417405,14.91743 -5.083593,6.50033 7.667059,-0.33335 0.583361,1.3334 -0.916712,1.41674 6.416992,-7.91707 45.002298,-46.16902 19.25098,49.33585 h 2.0001 l 1.41674,2.75014 0.83338,-1.33341 1.3334,-0.75003 5.66695,0.0833 -4.50023,-7.00035 h -0.75003 l -22.58449,-60.00306 -8.91712,0.0833 4.33355,9.83384 -32.25164,29.75152 -10.167185,-27.58474 z"
       id="path1"
       inkscape:label="Frame" /><path
       style="display:inline;fill:#0c227d;fill-opacity:1;stroke-width:2;stroke-opacity:0.654722"
       d="m 84.120534,182.79643 -0.530357,1.29643 0.353573,1.32589 0.97232,0.55982 1.797322,0.0589 -0.02946,1.29643 0.61875,0.4125 2.416071,-0.0884 1.44375,-0.58928 -0.05893,-1.62054 0.883927,-0.29464 0.353571,-1.20804 -0.618749,-1.47321 z"
       id="path3"
       inkscape:label="Base Cap Back" /><path
       style="display:inline;fill:#0c227d;fill-opacity:1;stroke-width:2;stroke-opacity:0.654722"
       d="m 165.50844,183.15517 0.27085,1.08339 1.14589,0.83338 c 0,0 -0.0833,1.43757 0,1.45841 0.0833,0.0208 1.14589,0.64586 1.14589,0.64586 l 3.08349,0.14585 0.35419,-2.18762 1.91676,-0.0417 0.68754,-0.93754 0.0417,-1.8751 -0.93755,-1.00005 -5.56278,-0.0625 -1.45841,0.83337 z"
       id="path4"
       inkscape:label="Base Cap Front" /><path
       style="display:inline;fill:#0c227d;fill-opacity:1;stroke-width:2;stroke-opacity:0.654722"
       d="m 139.24821,114.32143 -2.0625,-4.86161 -1.53214,0.0589 0.20625,-3.09375 8.13214,0.0295 0.67768,-1.44375 2.8875,-0.47143 9.54643,-3.3 7.48393,-8.132139 1.2375,0.825 0.4125,1.119643 -5.30357,6.717856 -2.53393,1.41429 3.83036,-1.82679 8.13214,-8.426783 1.65,-0.176787 1.17857,1.767856 -9.25179,9.958934 -3.24107,1.23749 2.35715,2.82858 0.58928,3.18214 -4.41964,8.25 -2.23929,1.59107 -3.12321,0.17679 -2.35715,0.11786 -0.23571,0.94285 -5.24464,-0.29464 -0.17679,-3.00536 4.65536,0.11786 0.4125,-1.11965 1.17857,0.11786 2.29822,-2.8875 1.29642,-2.475 -2.8875,-3.88928 -5.95178,0.58928 -1.88572,-0.23571 v -0.58929 l -3.41785,-0.0589 2.18035,5.3625 z"
       id="path5"
       inkscape:label="Handles" /><path
       style="display:inline;fill:#0c227d;fill-opacity:1;stroke-width:2;stroke-opacity:0.654722"
       d="m 92.517856,126.81428 -3.241072,-7.60178 -8.60357,0.35357 -3.241072,-0.47143 -0.412501,-2.41607 0.530357,-1.06071 9.075002,0.11785 0.176784,-1.06071 -1.532141,-0.35357 v -0.70715 l -3.830357,-0.23571 -2.651786,-1.94464 -2.062501,-1.11965 -0.176784,-0.88392 -1.591072,-0.88393 1.473213,-2.23929 5.185714,0.0589 4.419642,1.53214 h 10.253573 l 1.885714,2.0625 -0.05893,1.41429 -5.598215,-0.53036 -3.476787,1.88572 0.235715,2.94642 h 9.546429 l 0.648215,3.35893 -2.828573,0.17679 0.117859,0.58928 -2.298216,0.17679 2.828573,6.89464 z"
       id="path6"
       inkscape:label="Saddle" /><path
       style="display:inline;fill:#0c227d;fill-opacity:1;stroke-width:2;stroke-opacity:0.654722"
       d="m 83.207142,119.2125 -0.05893,2.41607 0.766072,0.11786 -0.294645,2.71071 6.069644,1.29643 0.117856,-0.94286 -4.47857,-1.06071 0.05893,-2.29822 0.117856,-2.12143 z"
       id="path7"
       inkscape:label="Screw" /><path
       style="display:inline;fill:#0c227d;fill-opacity:1;stroke-width:2;stroke-opacity:0.654722"
       d="m 85.505355,130.46786 h -0.942856 l 0.471429,1.41428 3.005357,4.36071 1.826784,-0.47142 L 91.339285,135.3 93.637498,135.18214 92.105357,132 l -1.826786,1.47321 -1.826787,0.58929 z"
       id="path8"
       inkscape:label="Screw" /><g
       id="g25"
       inkscape:label="Wheel"
       style="display:inline"
       inkscape:export-filename="wheel.png"
       inkscape:export-xdpi="96"
       inkscape:export-ydpi="96"><path
         style="display:inline;fill:#4fc4f8;fill-opacity:1;stroke-width:2;stroke-opacity:0.654722"
         d="m 157.42469,139.59045 5.16694,2.41679 3.3335,3.50018 2.83348,4.41689 1.00005,6.08365 -0.41669,5.83363 -2.25011,5.16693 -3.91687,4.08354 -4.25022,2.75014 -5.83363,1.75009 -6.41699,-0.6667 -6.33366,-2.6668 -5.3336,-4.83358 -1.91677,-6.417 0.0833,-7.00035 2.83348,-6.66701 4.08354,-3.3335 5.08359,-2.83348 6.417,-1.75009 z"
         id="path9"
         inkscape:label="Wheel" /><path
         style="fill:#4d32e2;fill-opacity:1;stroke-width:2;stroke-opacity:0.654722"
         d="m 153.6745,158.7581 9.83384,11.7506 -3.66685,2.6668 -1.91677,0.6667 z"
         id="path18"
         inkscape:label="Wheel Decoration 8" /><path
         style="fill:#4d32e2;fill-opacity:1;stroke-width:2;stroke-opacity:0.654722"
         d="m 153.75784,158.50808 -4.6669,16.58418 -3.25017,-0.41668 -2.83347,-1.50008 z"
         id="path19"
         inkscape:label="Wheel Decoration 7" /><path
         style="fill:#4d32e2;fill-opacity:1;stroke-width:2;stroke-opacity:0.654722"
         d="m 152.84113,158.34141 -15.25078,11.7506 -2.33345,-2.33345 -1.3334,-3.08349 z"
         id="path20"
         inkscape:label="Wheel Decoration 6" /><path
         style="fill:#4d32e2;fill-opacity:1;stroke-width:2;stroke-opacity:0.654722"
         d="m 152.75779,157.92472 -19.66767,0.58336 0.16668,-4.6669 1.41674,-3.00015 z"
         id="path21"
         inkscape:label="Wheel Decoration 5" /><path
         style="fill:#4d32e2;fill-opacity:1;stroke-width:2;stroke-opacity:0.654722"
         d="m 152.84113,157.59137 c -1.75009,-1.83343 -12.66731,-13.41735 -12.66731,-13.41735 l 3.83353,-2.25011 2.33345,-0.83338 z"
         id="path22"
         inkscape:label="Wheel Decoration 4" /><path
         style="fill:#4d32e2;fill-opacity:1;stroke-width:2;stroke-opacity:0.654722"
         d="m 153.34116,157.92472 2.0001,-18.33427 2.41679,0.25002 4.33355,2.0001 z"
         id="path23"
         inkscape:label="Wheel Decoration 3" /><path
         style="fill:#4d32e2;fill-opacity:1;stroke-width:2;stroke-opacity:0.654722"
         d="m 153.75784,157.67471 14.33407,-8.58377 1.3334,4.83358 0.25001,2.33345 z"
         id="path24"
         inkscape:label="Wheel Decoration 2" /><path
         style="fill:#4d32e2;fill-opacity:1;stroke-width:2;stroke-opacity:0.654722"
         d="m 153.75784,157.50803 15.0841,4.33356 -0.91671,3.16683 -1.00005,1.75009 z"
         id="path25"
         inkscape:label="Wheel Decoration 1" /></g><path
       style="display:inline;fill:#ff821a;fill-opacity:1;stroke-width:2;stroke-opacity:0.654722"
       d="m 108.08885,147.59086 49.41918,6.08364 1.91677,1.50008 0.91671,2.33345 -0.91671,1.75009 -1.16673,1.50008 -4.41689,1.16673 -42.41883,8.0004 -5.08359,-0.6667 -3.58352,-2.50012 -2.33345,-3.25017 -1.000053,-4.50023 1.166723,-4.83358 2.75014,-4.08354 z"
       id="path2"
       inkscape:label="Chain Protection"
       inkscape:export-filename="chain_protection.png"
       inkscape:export-xdpi="96"
       inkscape:export-ydpi="96" /><path
       style="display:inline;fill:#0c227d;fill-opacity:1;stroke-width:2;stroke-opacity:0.654722"
       d="m 110.83899,153.0078 -2.75014,-0.0833 -1.91677,2.0001 -1.50008,3.00015 0.16668,3.16683 2.0001,2.41679 3.41684,1.16673 3.50018,-0.58337 1.75009,-1.91676 1.25007,-3.50018 -1.08339,-3.08349 -2.08344,-2.08344 z"
       id="path13"
       inkscape:label="Pedals Base"
       inkscape:export-filename="front_pedal_spoke.png"
       inkscape:export-xdpi="96"
       inkscape:export-ydpi="96" /><path
       style="display:inline;fill:#0c227d;fill-opacity:1;stroke-width:2;stroke-opacity:0.654722"
       d="m 111.92238,157.84138 -15.167444,-7.91707 -1.333403,0.50003 -0.250012,1.16673 4.16688,2.16677 9.500479,5.41695 2.08345,1.25006 2.0001,-0.16668 0.16667,-1.41673 z"
       id="path14"
       inkscape:label="Pedal Spoke" /><path
       style="display:inline;fill:#0c227d;fill-opacity:1;stroke-width:2;stroke-opacity:0.654722"
       d="m 95.504872,151.0077 0.500025,-1.3334 1.833425,-0.41669 2.833478,0.83338 3.66686,1.3334 0.0833,1.91677 -0.83337,0.58336 0.0833,3.91686 -1.08338,2.75014 -3.416846,1.33341 -1.66675,-0.83338 0.166674,-8.16708 -0.166674,-1.08339 z"
       id="path15"
       inkscape:label="Pedal"
       inkscape:export-filename="front_pedal.png"
       inkscape:export-xdpi="96"
       inkscape:export-ydpi="96" /></g></svg>
