<?xml version="1.0" encoding="UTF-8" standalone="no"?>
<!-- Created with Inkscape (http://www.inkscape.org/) -->

<svg
   width="210mm"
   height="297mm"
   viewBox="0 0 210 297"
   version="1.1"
   id="svg1"
   xml:space="preserve"
   inkscape:version="1.4.4 (dcaf3e7d9e, 2026-05-05)"
   sodipodi:docname="door.svg"
   xmlns:inkscape="http://www.inkscape.org/namespaces/inkscape"
   xmlns:sodipodi="http://sodipodi.sourceforge.net/DTD/sodipodi-0.dtd"
   xmlns="http://www.w3.org/2000/svg"
   xmlns:svg="http://www.w3.org/2000/svg"><sodipodi:namedview
     id="namedview1"
     pagecolor="#505050"
     bordercolor="#eeeeee"
     borderopacity="1"
     inkscape:showpageshadow="0"
     inkscape:pageopacity="0"
     inkscape:pagecheckerboard="0"
     inkscape:deskcolor="#505050"
     inkscape:document-units="mm"
     inkscape:zoom="4.568294"
     inkscape:cx="254.25246"
     inkscape:cy="367.53326"
     inkscape:window-width="2743"
     inkscape:window-height="1469"
     inkscape:window-x="0"
     inkscape:window-y="0"
     inkscape:window-maximized="1"
     inkscape:current-layer="layer1" /><defs
     id="defs1" /><g
     inkscape:label="Layer 1"
     inkscape:groupmode="layer"
     id="layer1"
     style="display:inline"><rect
       style="display:none;fill:#444849;fill-opacity:1;stroke:#444849;stroke-width:0.25;stroke-opacity:1"
       id="rect18"
       width="57.82666"
       height="29.322868"
       x="57.662846"
       y="87.640976"
       inkscape:label="Behind Spinning"
       inkscape:export-filename="bg_spinners.png"
       inkscape:export-xdpi="96"
       inkscape:export-ydpi="96" /><g
       id="g16"
       transform="translate(0,-0.18429184)"
       inkscape:label="Exit"
       style="display:inline"
       inkscape:export-filename="icon_exit.png"
       inkscape:export-xdpi="96"
       inkscape:export-ydpi="96"><rect
         style="display:none;fill:#a9aaad;fill-opacity:1;stroke:#4fc4f8;stroke-width:0.1;stroke-opacity:1"
         id="rect14"
         width="16.094814"
         height="25.186543"
         x="61.062012"
         y="90.262009"
         inkscape:export-filename="replace_exit_icon.png"
         inkscape:export-xdpi="96"
         inkscape:export-ydpi="96" /><rect
         style="display:inline;fill:#a9aaad;fill-opacity:0.69999999;stroke:none;stroke-width:0.0909303;stroke-opacity:1"
         id="rect24-0-8"
         width="14.635066"
         height="22.902203"
         x="61.986237"
         y="91.056221"
         inkscape:label="Replace BG"
         ry="3.3582067"
         rx="3.1943936"
         transform="translate(0,0.18429184)" /><g
         id="g3"
         inkscape:label="SlotSymbolLeave"
         transform="translate(0.39690643,-0.00222874)"><path
           style="fill:#48cc7a;fill-opacity:1;stroke:#444849;stroke-width:0.1"
           d="m 63.969722,99.435649 0.675735,-0.348107 0.03072,-3.092006 6.132822,0.01024 0.01024,13.699024 -6.153295,-0.0102 -0.675738,0.68598 6.808557,0.0512 0.03071,1.36171 2.877,-1.37195 1.197896,0.0102 -0.01024,-15.132402 -1.50505,-0.01024 -2.559608,-1.36171 0.03072,1.351474 -6.900703,0.02048 z"
           id="path1" /><path
           style="fill:#48cc7a;fill-opacity:1;stroke:#444849;stroke-width:0.1"
           d="m 67.024815,96.902909 -0.434382,0.01447 -0.441619,0.282345 -0.419899,0.557455 -0.02172,0.506775 0.144793,0.405422 0.325784,0.398182 0.43438,0.180993 0.564695,0.05068 0.514017,-0.260628 0.231669,-0.282348 0.18823,-0.434379 -0.05792,-0.557454 -0.405421,-0.586411 -0.456099,-0.253389 z"
           id="path2" /><path
           style="fill:#48cc7a;fill-opacity:1;stroke:#444849;stroke-width:0.1"
           d="m 65.417609,99.69742 1.838876,0.02172 0.289586,0.195471 0.180991,0.144799 0.716727,1.571 1.744758,0.74569 0.217191,0.26787 -0.0072,0.36198 -0.166513,0.33302 -0.231669,0.15204 -0.231669,0.0507 -0.209952,-0.029 -1.976427,-0.81085 -0.188232,-0.24614 -0.159272,-0.20995 -0.260628,1.66512 -0.0072,0.27511 0.130312,0.22443 0.84704,0.8036 1.76648,3.21441 -0.0072,0.36198 -0.166511,0.28959 -0.318545,0.0869 -0.354745,-0.007 -0.238908,-0.15204 -1.73028,-3.04065 -0.948396,-0.65881 -0.180991,1.12214 -1.571009,2.50493 -0.18823,0.17375 -0.383704,0.0652 -0.347503,-0.13756 -0.166511,-0.26063 -0.02896,-0.3475 0.05792,-0.17375 1.426213,-2.25878 0.231669,-1.52757 -0.173752,-0.26062 0.0724,-0.54298 0.333023,-2.30221 -0.781883,0.37646 -0.637091,1.24522 -0.246149,0.19547 -0.311304,0.0145 -0.282347,-0.1086 -0.202711,-0.22443 -0.04344,-0.39094 0.195471,-0.4199 0.383702,-0.86152 z"
           id="path3" /></g></g><g
       id="g15"
       transform="translate(0.10238647,-0.06142807)"
       inkscape:label="Exercise"
       style="display:inline"
       inkscape:export-filename="icon_exercise.png"
       inkscape:export-xdpi="96"
       inkscape:export-ydpi="96"><rect
         style="display:none;fill:#a9aaad;fill-opacity:1;stroke:#4fc4f8;stroke-width:0.1;stroke-opacity:1"
         id="rect15"
         width="16.094814"
         height="25.186543"
         x="78.754021"
         y="90.139145"
         inkscape:export-filename="replace_exercise_icon.png"
         inkscape:export-xdpi="96"
         inkscape:export-ydpi="96" /><rect
         style="display:inline;fill:#a9aaad;fill-opacity:0.69999999;stroke:none;stroke-width:0.0909303;stroke-opacity:1"
         id="rect24-0"
         width="14.635066"
         height="22.902203"
         x="79.566139"
         y="91.204964"
         inkscape:label="Replace BG"
         ry="3.3582067"
         rx="3.1943936" /><path
         id="path4"
         style="display:inline;fill:#fb2538;fill-opacity:1;stroke:#444849;stroke-width:0.1"
         d="m 93.061657,96.443874 -1.171292,1.235851 -0.322797,0.150277 0.462223,-0.483381 0.354806,-0.462224 -0.0217,-0.150819 -0.171979,-0.139427 -0.999314,1.107275 -1.107275,0.333105 -0.590799,0.150277 -0.06457,0.214837 -1.118125,-0.01029 -0.01084,0.418822 h 0.236537 l 0.247387,0.580493 -0.397664,0.06456 0.60165,1.27926 -3.525268,3.25673 -0.817029,-0.10742 -0.247387,0.12912 -1.128433,-2.96703 -0.150277,0.0217 -0.343956,-0.97814 0.612501,-0.0217 -0.0217,-0.397663 -1.311262,-0.032 -0.02115,-0.386828 0.451373,-0.247388 0.773627,0.03201 v -0.161163 l -0.268552,-0.257695 -1.397521,-0.0434 -0.472531,-0.203986 h -0.795871 l -0.161128,0.279395 0.236537,0.118269 0.0217,0.182827 0.537091,0.386814 0.569641,0.01085 0.01086,0.118268 0.09711,0.01086 0.05371,0.129123 -1.214693,0.04291 -0.05371,0.11827 0.107418,0.279397 0.408515,0.11828 1.117582,-0.0646 0.386814,0.989 -0.322254,0.0586 1.246702,2.9795 -0.304352,0.0608 -0.182285,0.18283 0.243047,0.27343 0.121524,1.15502 0.213208,-0.0303 0.182286,0.36511 -1.58469,1.63514 -0.671634,0.87074 -0.05371,0.12369 0.0217,0.21484 0.123152,0.07 0.795328,-0.0163 0.139969,-0.0754 0.09115,-0.15028 0.725886,-0.95646 1.096425,-1.06441 0.709068,0.12912 3.128146,-0.61251 0.06457,0.32226 0.354263,0.27939 0.419365,0.37651 0.473073,0.15028 0.515933,0.17198 0.698761,0.0428 0.343954,-0.0966 0.429674,-0.16113 0.397663,0.95645 0.204529,-0.0217 0.290246,0.52678 0.09656,0.0754 0.902747,0.0428 0.107418,-0.17197 v -0.19314 l -0.139426,-0.20453 -0.580492,-0.93529 -0.118269,0.0217 -0.247387,-0.77362 0.171977,-0.25824 0.21538,-0.42967 0.06402,-0.45192 0.03256,-0.51593 -0.03256,-0.48339 -0.246845,-0.65589 -0.269087,-0.37597 -0.52624,-0.43022 -0.473075,-0.22568 -0.419365,-0.0857 -0.902746,-2.31112 1.150134,-0.0537 0.290246,-0.16113 0.311404,-0.49478 0.290246,-0.579957 -0.03201,-0.483925 -0.322797,-0.430215 0.473074,-0.171977 1.171835,-1.34327 z m -3.941921,2.300268 0.394952,0.0076 0.01519,0.06076 0.281566,0.04557 0.714494,-0.07595 0.440522,0.539802 -0.197475,0.372173 -0.341786,0.365113 -0.577779,-0.007 -0.273971,-0.638552 -0.17469,0.03797 z m 0.121524,2.971898 0.479042,1.27709 -0.129662,0.038 -0.440523,0.18228 -0.387898,0.29622 -0.372167,0.38789 -0.250642,0.40255 -1.292272,-0.12152 z"
         inkscape:label="TrainingSymbol" /></g><g
       id="g17"
       transform="translate(0,0.18429184)"
       inkscape:label="Undecide"
       style="display:inline"
       inkscape:export-filename="icon_undecided.png"
       inkscape:export-xdpi="96"
       inkscape:export-ydpi="96"><rect
         style="display:none;fill:#a9aaad;fill-opacity:1;stroke:#4fc4f8;stroke-width:0.1;stroke-opacity:1"
         id="rect16"
         width="16.094814"
         height="25.186543"
         x="96.650803"
         y="89.893425"
         inkscape:export-filename="replace_undecided_icon.png"
         inkscape:export-xdpi="96"
         inkscape:export-ydpi="96" /><rect
         style="display:inline;fill:#a9aaad;fill-opacity:0.69999999;stroke:none;stroke-width:0.0909303;stroke-opacity:1"
         id="rect24"
         width="14.635066"
         height="22.902203"
         x="97.380676"
         y="91.035591"
         inkscape:label="Replace BG"
         ry="3.3582067"
         rx="3.1943936" /><g
         id="g14"
         inkscape:label="UndecidedSymbol"
         transform="matrix(1.3495164,0,0,1.3495164,-33.806415,-38.008208)"><path
           style="fill:#4d32e2;fill-opacity:1;stroke:#444849;stroke-width:0.0741006"
           d="m 101.85192,106.6435 -0.24572,3.11249 0.20476,0.32763 0.40954,0.0614 0.34811,-0.2662 0.2853,-3.32547 z"
           id="path6" /><path
           style="fill:#4d32e2;fill-opacity:1;stroke:#444849;stroke-width:0.0741006"
           d="m 103.62132,106.48823 0.55745,3.25061 0.21719,0.28234 0.30407,0.0724 0.23167,-0.0724 0.18823,-0.28234 0.0362,-0.22443 -0.55746,-3.22889 z"
           id="path7" /><path
           id="path8"
           style="display:inline;fill:#4d32e2;fill-opacity:1;stroke:#444849;stroke-width:0.0741006"
           d="m 102.19531,98.640491 -0.49971,0.10852 -0.34726,0.274919 -0.18139,0.398425 -0.10128,0.427364 0.094,0.340031 -0.11576,0.24598 -0.0145,0.36225 0.0507,0.27492 0.0579,0.20257 -1.636073,1.44798 -0.05064,0.28267 0.07235,0.16639 0.137459,0.0579 2.121324,0.28215 -0.54312,2.83807 0.39119,0.0941 0.75292,0.0362 0.77463,-0.094 0.76016,-0.0941 0.70952,-0.13746 0.54312,-0.26769 -1.23817,-2.81636 -0.094,-0.46354 -0.0723,-1.07849 1.70842,0.56483 0.21704,-0.0217 0.10852,-0.16691 0.0145,-0.30386 -0.61495,-0.54312 -0.75293,-0.54312 -0.86196,-0.3762 -0.41238,-0.13023 0.10129,-0.311606 -0.14469,-0.520899 -0.34779,-0.362251 z m -0.63717,3.554819 0.0506,0.0796 0.11576,0.31833 0.0434,0.26768 -1.2237,-0.19533 0.37672,-0.34003 0.15193,0.0362 0.18087,-0.0506 z" /><path
           style="fill:none;fill-opacity:1;stroke:#444849;stroke-width:0.0741006"
           d="m 104.27843,101.23761 -0.53752,-0.28667 -0.33787,-0.10239 -0.3993,-0.087 -0.1075,-0.10239 -0.087,-0.15357 -0.0154,-0.18942 0.1075,-0.15869 0.19454,-0.1331 0.16893,0.0102"
           id="path9" /><path
           style="fill:none;fill-opacity:1;stroke:#444849;stroke-width:0.0741006"
           d="m 102.86552,100.62331 -0.23548,0.16381 -0.2406,0.0512 -0.35323,0.005 -0.2662,-0.0461 -0.21501,-0.11774 -0.19453,-0.16894 -0.16381,-0.22524 -0.0563,-0.1331"
           id="path10" /><path
           style="fill:none;fill-opacity:1;stroke:#444849;stroke-width:0.0741006"
           d="m 101.77001,100.78712 0.0666,0.34811 0.0409,0.38906 -0.0512,0.29691 -0.18941,0.25596 -0.19453,0.1587 -0.26108,0.0768 h -0.23036 l -0.0717,-0.10239 0.0256,-0.0717 0.23037,-0.087 0.087,-0.16382 0.005,-0.32763 -0.0614,-0.32251 -0.12798,-0.30715 -0.0102,-0.34299 0.0307,-0.29691 0.0921,-0.20477 v 0"
           id="path11" /><path
           style="fill:none;fill-opacity:1;stroke:#444849;stroke-width:0.0741006"
           d="m 101.9799,100.3008 0.20477,-0.22013 0.17405,-0.13822 0.20989,-0.08703 0.20989,-0.05631 0.0717,-0.01024"
           id="path12" /><path
           style="fill:none;fill-opacity:1;stroke:#4d32e2;stroke-width:0.0741006;stroke-opacity:1"
           d="m 99.791535,98.408758 0.180993,-0.282344 0.209952,-0.05068 0.31131,-0.0072 0.23167,0.173754 0.0941,0.43438 -0.32578,0.347504 -0.39095,0.18823 -0.029,0.354742 0.13032,0.217192 0.11584,0.0072 0.0796,-0.04344"
           id="path13" /><path
           style="fill:#4d32e2;fill-opacity:1;stroke:#444849;stroke-width:0.0741006"
           d="m 100.32004,100.16076 -0.13032,0.029 -0.0652,0.13755 0.0652,0.13756 0.14479,0.0145 0.1086,-0.0724 0.0362,-0.13756 z"
           id="path14" /></g></g><rect
       style="display:none;fill:#ff821a;fill-opacity:1;stroke:#444849;stroke-width:0.25;stroke-opacity:1"
       id="rect20"
       width="57.82666"
       height="29.322868"
       x="57.662846"
       y="89.115311"
       inkscape:label="Slider"
       inkscape:export-filename="slider.png"
       inkscape:export-xdpi="96"
       inkscape:export-ydpi="96" /><path
       style="display:none;fill:#a9aaad;fill-opacity:1;stroke:#4fc4f8;stroke-width:0.25;stroke-opacity:1"
       d="M 53.399766,206.18565 H 21.603159 V 11.120125 H 148.32116 V 206.06981 H 119.71509 V 27.85823 H 53.283931 Z"
       id="path21"
       sodipodi:nodetypes="ccccccccc"
       inkscape:label="Wall" /><path
       style="display:none;fill:#ff821a;fill-opacity:1;stroke:#444849;stroke-width:0.25;stroke-opacity:1"
       d="M 120.69969,206.18565 120.93136,26.641964 52.125586,26.52613 53.168097,206.30148 55.600623,206.18565 56.5273,205.95398 55.716458,30.117005 h 61.392352 l 0.23167,175.836975 0.69501,0.3475 z"
       id="path17"
       inkscape:label="Door Frame"
       inkscape:export-filename="wall_and_frame.png"
       inkscape:export-xdpi="96"
       inkscape:export-ydpi="96" /><path
       id="path18"
       style="display:none;fill:#ff821a;fill-opacity:1;stroke:#444849;stroke-width:0.25;stroke-opacity:1"
       d="m 56.024487,30.305644 0.614433,175.732426 60.57046,0.12299 -0.32763,-175.855416 z M 60.325,89.452421 h 53.19882 V 115.88957 H 60.325 Z"
       sodipodi:nodetypes="cccccccccc"
       inkscape:label="Door"
       inkscape:export-filename="door.png"
       inkscape:export-xdpi="96"
       inkscape:export-ydpi="96" /><path
       style="display:none;fill:#444849;fill-opacity:1;stroke:#4fc4f8;stroke-width:0.25;stroke-opacity:1"
       d="m 113.57586,126.40454 -1.24523,-0.0579 -0.78188,0.52125 -0.57917,1.04251 0.029,15.57976 0.75292,0.89772 0.60813,0.23167 1.24523,0.029 0.89771,-0.66605 0.31855,-0.86876 -0.029,-15.37705 -0.57917,-0.95563 z"
       id="path19"
       inkscape:label="HandleLockBase" /><g
       id="g23"
       inkscape:label="Lock"
       style="display:none"
       inkscape:export-filename="lock.png"
       inkscape:export-xdpi="96"
       inkscape:export-ydpi="96"><path
         style="fill:#444849;fill-opacity:1;stroke:#4fc4f8;stroke-width:0.25;stroke-opacity:1"
         d="m 113.31565,127.30922 -0.85596,-0.0398 -0.53746,0.3583 -0.39811,0.71662 0.0199,0.92684 0.51755,0.61708 0.41803,0.15925 0.85596,0.0199 0.61708,-0.45783 0.21897,-0.59718 -0.0199,-0.7875 -0.39812,-0.65689 z"
         id="path22"
         inkscape:label="LockBase"
         sodipodi:nodetypes="ccccccccccccc" /><path
         style="fill:#444849;fill-opacity:1;stroke:#4fc4f8;stroke-width:0.25;stroke-opacity:1"
         d="m 113.78662,127.92353 -0.51297,0.1752 -0.58354,0.33782 -0.72574,0.4709 -0.39475,0.36373 0.16944,0.27921 0.3566,0.16437 0.76893,-0.20023 0.64268,-0.3708 0.49541,-0.34634 0.24118,-0.41891 -0.12165,-0.3395 z"
         id="path23"
         inkscape:label="Lock"
         sodipodi:nodetypes="ccccccccccccc" /></g><path
       style="display:none;fill:#444849;fill-opacity:1;stroke:#4fc4f8;stroke-width:0.25;stroke-opacity:1"
       d="m 104.59867,133.06503 -0.029,1.41898 2.98275,0.029 h 5.32839 1.12939 l 0.20271,-0.72397 -0.0579,-0.26063 -0.31854,-0.40542 z"
       id="path20"
       inkscape:label="Handle"
       inkscape:export-filename="handle.png"
       inkscape:export-xdpi="96"
       inkscape:export-ydpi="96" /><rect
       style="display:none;fill:#a9aaad;fill-opacity:1;stroke:#4fc4f8;stroke-width:0.25;stroke-opacity:1"
       id="rect23"
       width="88.132416"
       height="194.61209"
       x="-66.836479"
       y="11.139414"
       inkscape:label="Side"
       inkscape:export-filename="side.png"
       inkscape:export-xdpi="96"
       inkscape:export-ydpi="96" /></g></svg>
