<?xml version="1.0" encoding="UTF-8" standalone="no"?>
<!-- Created with Inkscape (http://www.inkscape.org/) -->

<svg
   width="79.907143mm"
   height="108.54643mm"
   viewBox="0 0 79.907143 108.54643"
   version="1.1"
   id="svg1"
   xml:space="preserve"
   inkscape:version="1.4.4 (dcaf3e7d9e, 2026-05-05)"
   sodipodi:docname="fridge.svg"
   inkscape:export-filename="fridge_full.png"
   inkscape:export-xdpi="96"
   inkscape:export-ydpi="96"
   xmlns:inkscape="http://www.inkscape.org/namespaces/inkscape"
   xmlns:sodipodi="http://sodipodi.sourceforge.net/DTD/sodipodi-0.dtd"
   xmlns="http://www.w3.org/2000/svg"
   xmlns:svg="http://www.w3.org/2000/svg"><sodipodi:namedview
     id="namedview1"
     pagecolor="#505050"
     bordercolor="#eeeeee"
     borderopacity="1"
     inkscape:showpageshadow="0"
     inkscape:pageopacity="0"
     inkscape:pagecheckerboard="0"
     inkscape:deskcolor="#505050"
     inkscape:document-units="mm"
     inkscape:zoom="8.979798"
     inkscape:cx="96.828459"
     inkscape:cy="165.92801"
     inkscape:window-width="2743"
     inkscape:window-height="1469"
     inkscape:window-x="0"
     inkscape:window-y="0"
     inkscape:window-maximized="1"
     inkscape:current-layer="layer2" /><defs
     id="defs1" /><g
     inkscape:label="Fridge"
     inkscape:groupmode="layer"
     id="layer1"
     transform="translate(-57.278571,-56.925)"
     style="display:none"><g
       id="g23"
       inkscape:label="Box"
       style="display:inline"><path
         style="display:inline;fill:#a9aaad;fill-opacity:1;stroke:#000000;stroke-width:0.25"
         d="M 58.221427,59.871427 V 161.11071 l 45.610713,0.35357 V 59.989285 Z"
         id="path22"
         inkscape:label="Inside" /><g
         id="g19"
         inkscape:label="Back"
         style="display:inline"><path
           style="fill:#444849;fill-opacity:1;stroke:none;stroke-width:0.25"
           d="M 64.880357,67.649999 64.998213,124.575 64.114285,124.69286 63.348213,121.62857 63.525,69.123213 Z"
           id="path17"
           inkscape:label="Vert Vent" /><path
           style="fill:#444849;fill-opacity:1;stroke:none;stroke-width:0.25"
           d="m 98.351783,67.473213 0.05893,57.455357 1.001784,-1.11964 0.05893,-2.94643 0.412499,-51.621429 z"
           id="path18"
           inkscape:label="Vert Vent" /><path
           style="fill:#444849;fill-opacity:1;stroke:none;stroke-width:0.25"
           d="m 92.812498,68.357143 -2.298213,0.883928 -1.355357,1.473213 -0.412501,1.767859 0.471429,2.533928 1.591072,1.473213 2.651786,0.825 2.003571,-0.766069 1.767856,-1.591072 0.471429,-1.767859 -0.235715,-2.416072 -1.708928,-1.708927 -1.649999,-0.707142 z"
           id="path19"
           inkscape:label="Vent" /></g><g
         id="g22"
         inkscape:label="Shelves"
         style="display:inline"><path
           style="display:inline;fill:#444849;fill-opacity:1;stroke:none;stroke-width:0.25"
           d="m 61.285715,75.428569 -0.117859,2.121429 2.121429,1.532144 1.65,-1.414285 h 34.17857 l 1.767855,1.65 1.76786,-2.828573 v -1.060715 z"
           id="path3"
           inkscape:label="Shelf"
           inkscape:export-filename="shelf1.png"
           inkscape:export-xdpi="96"
           inkscape:export-ydpi="96" /><path
           style="display:inline;fill:#444849;fill-opacity:1;stroke:none;stroke-width:0.25"
           d="m 60.814285,87.332142 0.05893,2.00357 2.357144,0.117859 0.942856,-0.825 h 34.885714 l 2.062501,1.473213 1.29642,-1.532141 V 87.45 Z"
           id="path4"
           inkscape:label="Shelf"
           inkscape:export-filename="shelf2.png"
           inkscape:export-xdpi="96"
           inkscape:export-ydpi="96" /><path
           style="display:inline;fill:#444849;fill-opacity:1;stroke:none;stroke-width:0.25"
           d="m 60.873213,99.412498 0.05893,1.708932 3.064288,-0.825 35.474999,0.0589 1.82678,1.23749 0.23572,-2.474995 -38.42143,-0.117856 z"
           id="path5"
           inkscape:label="Shelf"
           inkscape:export-filename="shelf3.png"
           inkscape:export-xdpi="96"
           inkscape:export-ydpi="96" /><path
           style="display:inline;fill:#444849;fill-opacity:1;stroke:none;stroke-width:0.25"
           d="M 63.112498,110.1375 61.05,111.49286 v 1.65 l 1.885714,-0.70715 37.124996,-0.0589 1.76786,0.825 0.0589,-1.53214 -2.121429,-1.82678 z"
           id="path6"
           inkscape:label="Shelf"
           inkscape:export-filename="shelf4.png"
           inkscape:export-xdpi="96"
           inkscape:export-ydpi="96" /><path
           style="display:inline;fill:#444849;fill-opacity:1;stroke:none;stroke-width:0.25"
           d="m 63.760714,121.51071 -2.239285,2.41607 -0.117858,0.70715 39.658929,-0.17679 0.0589,-0.88393 -2.062503,-2.29821 z"
           id="path7"
           inkscape:label="Shelf"
           inkscape:export-filename="shelf5.png"
           inkscape:export-xdpi="96"
           inkscape:export-ydpi="96" /><path
           style="display:inline;fill:#444849;fill-opacity:1;stroke:none;stroke-width:0.25"
           d="m 61.05,137.71607 -0.05893,0.76607 40.54286,0.17679 v -1.29643 z"
           id="path9"
           inkscape:label="Shelf"
           inkscape:export-filename="shelf6.png"
           inkscape:export-xdpi="96"
           inkscape:export-ydpi="96" /></g><g
         id="g21"
         inkscape:label="Upper Box"
         style="display:inline"
         inkscape:export-filename="box1.png"
         inkscape:export-xdpi="96"
         inkscape:export-ydpi="96"><path
           style="fill:#444849;fill-opacity:1;stroke:none;stroke-width:0.25"
           d="m 61.403571,125.04643 0.05893,2.59285 h 39.835709 l 0.23572,-2.59285 -7.189286,0.17678 -13.200001,0.0589 H 67.944642 l -5.598213,-0.29464 z"
           id="path8"
           inkscape:label="Box Top" /><path
           style="fill:#444849;fill-opacity:1;stroke:none;stroke-width:0.25"
           d="m 63.819642,133.65 -0.707144,1.47321 -1.473213,0.64822 -0.117856,1.06071 39.953571,0.35357 v -1.35535 l -1.29643,-0.29465 -0.766072,-1.2375 z"
           id="path12"
           inkscape:label="Box Bottom" /><path
           style="fill:none;fill-opacity:1;stroke:#444849;stroke-width:0.25;stroke-opacity:1"
           d="m 61.521429,126.28393 0.235712,10.25357"
           id="path13"
           inkscape:label="Box Left" /><path
           style="fill:none;fill-opacity:1;stroke:#444849;stroke-width:0.25;stroke-opacity:1"
           d="m 101.35714,126.75536 -0.11786,10.13571"
           id="path14"
           inkscape:label="Box Right" /></g><g
         id="g20"
         inkscape:label="Lower Box"
         style="display:inline"
         inkscape:export-filename="box2.png"
         inkscape:export-xdpi="96"
         inkscape:export-ydpi="96"><path
           style="fill:#444849;fill-opacity:1;stroke:none;stroke-width:0.25"
           d="m 61.108928,139.60178 v 2.59286 l 40.660712,-0.11786 0.0589,-1.76785 -0.53036,-0.76608 -10.666069,0.29465 -14.201785,-0.0589 -7.77857,-0.23572 -7.071429,-0.35357 z"
           id="path10"
           inkscape:label="Box Top" /><path
           style="fill:#444849;fill-opacity:1;stroke:none;stroke-width:0.25"
           d="m 63.819642,151.21071 -2.82857,3.12322 v 1.17857 l 15.026785,0.23571 25.280353,-0.17678 -0.11785,-1.06072 -2.65179,-3.53571 z"
           id="path11"
           inkscape:label="Box Bottom" /><path
           style="fill:none;fill-opacity:1;stroke:#444849;stroke-width:0.25;stroke-opacity:1"
           d="M 61.226784,141.66428 61.05,155.04107"
           id="path15"
           inkscape:label="Box Left" /><path
           style="fill:none;fill-opacity:1;stroke:#444849;stroke-width:0.25;stroke-opacity:1"
           d="m 101.41607,141.42857 -0.29464,13.78929"
           id="path16"
           inkscape:label="Box Right" /></g><path
         style="display:inline;fill:#444849;fill-opacity:1;stroke:none;stroke-width:0.25"
         d="m 101.94643,124.81071 0.23571,30.05357 -1.76786,2.35715 L 61.992856,156.63214 59.871427,155.1 59.635715,64.821429 61.403571,62.935714 h 11.078572 l 1.767856,1.414286 6.599999,0.117856 2.121429,-1.532142 17.442853,0.117856 2.12143,1.65 -0.47143,10.607143 0.94286,-0.35357 0.23571,-14.142858 -45.139279,-0.707144 0.589285,101.003569 45.021424,-0.47143 -0.11785,-36.06428 z"
         id="path2"
         inkscape:label="Front Facing" /><path
         style="display:inline;fill:#444849;fill-opacity:1;stroke:none;stroke-width:0.25"
         d="m 102.41785,61.167856 -43.371423,-0.235715 0.235714,99.353569 45.374999,-0.47143 0.58929,4.00715 -1.76786,-0.11786 -3.535715,-1.53214 -42.664284,0.23571 V 58.692856 l 41.721428,0.117859 v -0.825 l 3.535711,-0.589288 3.41786,-0.117856 v 2.357144 z"
         id="path1"
         inkscape:label="Outer Frame" /></g><path
       style="display:inline;fill:#444849;fill-opacity:1;stroke:none;stroke-width:0.25"
       d="m 102.88928,59.046427 30.99643,-2.121427 3.06429,0.471427 0.23571,1.414288 -0.23571,105.482135 -0.47143,0.23572 -3.18214,0.94286 -30.87858,-4.24286 z"
       id="path23"
       inkscape:label="Door Back" /><path
       style="display:inline;fill:#a9aaad;fill-opacity:1;stroke:none;stroke-width:0.25"
       d="m 105.01071,61.992856 27.225,-1.65 -0.35357,103.124994 -27.69643,-4.00714 z"
       id="path24"
       inkscape:label="Door Inside" /><path
       style="display:inline;fill:#444849;fill-opacity:1;stroke:none;stroke-width:0.25"
       d="m 105.35121,125.44882 0.0155,30.50859 1.25782,2.49627 20.42546,3.24632 2.71071,-1.29643 0.23572,-33.11786 -2.71072,-1.53214 1.06072,-61.521429 -1.29643,-1.178571 -21.68572,1.178571 -1.65,3.300002 v 7.660714 l -0.94285,0.117856 0.11785,-8.132143 2.23929,-3.535714 1.06071,-1.060715 L 128.81786,61.05 130.35,62.346429 131.52857,65.175 132,70.360714 131.175,158.4 l -0.47143,2.475 -2.59286,1.29643 h -1.41428 l -20.51911,-3.4172 -1.35146,-2.66716 -0.2028,-30.85035 z"
       id="path25"
       sodipodi:nodetypes="cccccccccccccccccccccccccccc"
       inkscape:label="Door Mould" /><path
       style="display:inline;fill:#444849;fill-opacity:1;stroke:none;stroke-width:0.25"
       d="m 103.36071,67.885714 1.65,-3.123216 -0.64821,60.283932 -1.59107,-0.70715 -0.11786,-3.83035 z"
       id="path32"
       inkscape:label="Door Mould 2" /><g
       id="g27"
       inkscape:label="Door Shelf Lower"
       style="display:inline"
       inkscape:export-filename="door_shelf3.png"
       inkscape:export-xdpi="96"
       inkscape:export-ydpi="96"><path
         style="fill:#444849;fill-opacity:1;stroke:none;stroke-width:0.25"
         d="m 127.10893,120.92143 -0.58929,0.0589 -1.11964,2.41608 -1.11964,0.4125 -23.27679,-1.35536 0.23571,-2.35714 -0.35357,-0.11786 0.11786,2.8875 0.35357,1.82679 1.29643,0.47142 1.94464,-0.11785 1.11964,0.47143 20.56608,0.76607 1.70893,-0.29465 v -5.06785 z"
         id="path26"
         inkscape:label="Door Shelf Lower" /><path
         style="fill:#444849;fill-opacity:1;stroke:none;stroke-width:0.25"
         d="m 104.00893,118.21071 -1.82679,-0.0589 -1.47321,0.53036 0.11786,1.11964 2.12142,0.53036 21.39107,0.825 3.3,-0.0589 v -1.65 l -2.76964,0.17679 h -2.00357 l -11.49107,-0.35357 -9.42857,-0.53036 -0.4125,-0.17678 1.35535,-0.23572 z"
         id="path27"
         inkscape:label="Door Shelf Upper" /></g><g
       id="g29"
       inkscape:label="Door Shelf Mid"
       style="display:inline"
       inkscape:export-filename="door_shelf2.png"
       inkscape:export-xdpi="96"
       inkscape:export-ydpi="96"><path
         style="fill:#444849;fill-opacity:1;stroke:none;stroke-width:0.25"
         d="m 128.11071,98.174999 c -0.23571,0 -1.47321,-0.05893 -1.47321,-0.05893 l -0.64822,1.591069 -1.11964,0.883932 h -23.68928 l 0.11785,-2.12143 -0.29464,-0.05893 0.11786,4.24286 0.58928,0.11786 22.92322,0.4125 1.82678,-0.0589 1.76786,-0.0589 z"
         id="path28" /><path
         style="fill:#444849;fill-opacity:1;stroke:none;stroke-width:0.25"
         d="m 127.93393,96.760714 -3.35893,0.176784 -20.91964,-0.05893 0.47143,-0.235715 -1.35536,-0.176784 -1.88572,0.353571 0.0589,1.414285 23.98393,0.05893 3.3,-0.117856 z"
         id="path29" /></g><g
       id="g31"
       inkscape:label="Door Shelf Upper"
       style="display:inline"
       inkscape:export-filename="door_shelf1.png"
       inkscape:export-xdpi="96"
       inkscape:export-ydpi="96"><path
         style="fill:#444849;fill-opacity:1;stroke:none;stroke-width:0.25"
         d="m 128.46428,75.664284 -1.82678,0.176787 -0.53036,1.414285 -0.94286,1.060714 -12.61071,0.353571 -10.07678,0.412501 -1.17858,-0.117858 0.0589,-2.121427 -0.35357,-0.05893 0.17679,4.301786 0.64821,0.412501 20.09464,-0.942858 3.12322,-0.117856 3.3,0.117856 z"
         id="path30" /><path
         style="fill:#444849;fill-opacity:1;stroke:none;stroke-width:0.25"
         d="m 128.46428,74.426785 h -2.53392 l -22.68751,1.001784 0.17679,-0.176784 -1.2375,-0.05893 -1.17857,0.294643 -0.0589,1.001784 0.76607,0.412501 1.65,-0.117858 20.27143,-1.001784 1.35536,0.117856 1.88571,-0.05893 2.00357,-0.353571 z"
         id="path31" /></g></g><g
     inkscape:groupmode="layer"
     id="layer2"
     inkscape:label="Foods"><g
       id="g36"
       inkscape:label="Carrot"
       transform="rotate(-6.8658235,22.33868,76.259018)"><path
         style="fill:#ff821a;fill-opacity:1;stroke:#444849;stroke-width:0.1;stroke-opacity:1"
         d="m 10.165179,52.195981 0.721874,-0.309375 0.810268,-0.14732 1.900447,-0.206251 2.209821,-0.02946 0.313215,0.0753 0.206093,0.191724 0.103125,0.257813 -0.02394,0.386718 -0.129491,0.142947 -0.292216,0.168269 -0.766072,0.01474 h -1.44375 l -1.473214,-0.08839 -1.163839,-0.162054 -0.810268,-0.22098 z"
         id="path35"
         sodipodi:nodetypes="ccccccccccccccccc" /><path
         style="fill:#48cc7a;fill-opacity:1;stroke:#444849;stroke-width:0.1;stroke-opacity:1"
         d="m 16.470536,52.063393 1.325892,-0.132591 0.279911,-0.353571 0.383036,-0.515625 0.235714,-0.810268 0.132589,-0.07366 -0.07366,0.338839 0.147321,0.117858 0.08839,0.265179 -0.191518,0.265179 -0.162054,0.368302 -0.176785,0.235715 0.766071,-0.279911 0.147322,-0.515625 0.235714,-0.633481 0.07366,-0.338841 0.338839,-0.103124 0.0442,0.14732 -0.132589,0.383037 0.07366,0.14732 -0.235714,0.368305 -0.103125,0.250447 0.412499,-0.176787 0.206251,-0.559821 0.02946,-0.147323 0.589285,-0.27991 0.117858,-0.309375 0.265178,-0.08839 0.309375,0.14732 0.162054,0.08839 -0.02946,0.397766 0.162053,0.01474 -0.235714,0.294643 -0.368304,0.0884 -0.324107,-0.117859 -0.103125,0.103127 -0.08839,0.176784 0.235714,0.02946 0.309375,-0.117856 0.147322,0.0442 0.147321,0.20625 -0.147321,0.176787 -0.265179,0.22098 -0.20625,0.206251 -0.309375,0.02946 -0.294643,0.162054 0.206251,0.176784 -0.265179,0.176787 h 0.4125 l 0.648214,-0.559821 0.235715,-0.176787 -0.08839,0.250447 0.368303,-0.103124 0.250447,-0.07366 0.08839,0.07366 0.368304,0.02946 -0.324107,0.265178 0.02946,0.07366 0.633482,-0.294642 0.279911,-0.02946 0.250447,0.117858 -0.294643,0.235712 0.01473,0.162055 -0.250447,0.176787 -0.132589,0.07366 0.191518,0.05893 -0.294643,0.13259 -0.4125,-0.02946 0.235714,0.368303 -0.338839,-0.02946 -0.265179,-0.103127 0.117857,0.206251 -0.559821,-0.07366 -0.132589,-0.02946 0.132589,0.132588 -0.324107,-0.191516 -0.176786,-0.01474 -0.309375,0.235714 -0.01473,0.103127 0.500893,0.0442 0.677678,0.07366 -0.117857,0.176787 0.191518,0.02946 0.265179,-0.05893 -0.147322,0.206248 0.338839,0.05893 0.33884,0.07366 0.02946,0.132588 -0.589286,0.05893 -0.48616,0.103124 -0.176786,-0.132588 -0.0442,0.132588 -0.471428,0.0442 -0.20625,0.13259 -0.265179,-0.103126 -0.235714,-0.08839 0.0442,-0.353571 -0.235715,-0.117858 0.07366,0.235714 -0.176786,-0.08839 -0.162053,-0.338838 0.02946,0.324106 -0.132589,0.08839 -0.191518,-0.235714 0.0442,0.250446 -0.250446,0.01474 -0.309375,-0.08839 -0.176786,0.08839 0.456697,0.294643 -0.13259,0.147323 -0.20625,0.20625 -0.353571,0.353571 -0.220982,0.02946 -0.162054,-0.176787 0.132589,-0.191516 0.176786,-0.397769 V 53.55136 l -0.176786,-0.324107 -0.235714,-0.220982 0.117857,0.162054 -0.117857,0.117856 v 0.176787 l -0.235714,-0.07366 -0.08839,-0.103127 -0.01473,-0.338838 -0.20625,0.07366 -0.05893,-0.05893 0.250446,-0.162052 v -0.0884 l -0.309375,-0.117856 -0.633482,-0.176787 -0.368304,-0.05893 z"
         id="path36" /></g><g
       id="g34"
       inkscape:label="Carrot"
       transform="rotate(-6.8658235,25.575102,33.928525)"><path
         style="fill:#ff821a;fill-opacity:1;stroke:#444849;stroke-width:0.1;stroke-opacity:1"
         d="m 10.165179,52.195981 0.721874,-0.309375 0.810268,-0.14732 1.900447,-0.206251 2.209821,-0.02946 0.313215,0.0753 0.206093,0.191724 0.103125,0.257813 -0.02394,0.386718 -0.129491,0.142947 -0.292216,0.168269 -0.766072,0.01474 h -1.44375 l -1.473214,-0.08839 -1.163839,-0.162054 -0.810268,-0.22098 z"
         id="path33"
         sodipodi:nodetypes="ccccccccccccccccc" /><path
         style="fill:#48cc7a;fill-opacity:1;stroke:#444849;stroke-width:0.1;stroke-opacity:1"
         d="m 16.470536,52.063393 1.325892,-0.132591 0.279911,-0.353571 0.383036,-0.515625 0.235714,-0.810268 0.132589,-0.07366 -0.07366,0.338839 0.147321,0.117858 0.08839,0.265179 -0.191518,0.265179 -0.162054,0.368302 -0.176785,0.235715 0.766071,-0.279911 0.147322,-0.515625 0.235714,-0.633481 0.07366,-0.338841 0.338839,-0.103124 0.0442,0.14732 -0.132589,0.383037 0.07366,0.14732 -0.235714,0.368305 -0.103125,0.250447 0.412499,-0.176787 0.206251,-0.559821 0.02946,-0.147323 0.589285,-0.27991 0.117858,-0.309375 0.265178,-0.08839 0.309375,0.14732 0.162054,0.08839 -0.02946,0.397766 0.162053,0.01474 -0.235714,0.294643 -0.368304,0.0884 -0.324107,-0.117859 -0.103125,0.103127 -0.08839,0.176784 0.235714,0.02946 0.309375,-0.117856 0.147322,0.0442 0.147321,0.20625 -0.147321,0.176787 -0.265179,0.22098 -0.20625,0.206251 -0.309375,0.02946 -0.294643,0.162054 0.206251,0.176784 -0.265179,0.176787 h 0.4125 l 0.648214,-0.559821 0.235715,-0.176787 -0.08839,0.250447 0.368303,-0.103124 0.250447,-0.07366 0.08839,0.07366 0.368304,0.02946 -0.324107,0.265178 0.02946,0.07366 0.633482,-0.294642 0.279911,-0.02946 0.250447,0.117858 -0.294643,0.235712 0.01473,0.162055 -0.250447,0.176787 -0.132589,0.07366 0.191518,0.05893 -0.294643,0.13259 -0.4125,-0.02946 0.235714,0.368303 -0.338839,-0.02946 -0.265179,-0.103127 0.117857,0.206251 -0.559821,-0.07366 -0.132589,-0.02946 0.132589,0.132588 -0.324107,-0.191516 -0.176786,-0.01474 -0.309375,0.235714 -0.01473,0.103127 0.500893,0.0442 0.677678,0.07366 -0.117857,0.176787 0.191518,0.02946 0.265179,-0.05893 -0.147322,0.206248 0.338839,0.05893 0.33884,0.07366 0.02946,0.132588 -0.589286,0.05893 -0.48616,0.103124 -0.176786,-0.132588 -0.0442,0.132588 -0.471428,0.0442 -0.20625,0.13259 -0.265179,-0.103126 -0.235714,-0.08839 0.0442,-0.353571 -0.235715,-0.117858 0.07366,0.235714 -0.176786,-0.08839 -0.162053,-0.338838 0.02946,0.324106 -0.132589,0.08839 -0.191518,-0.235714 0.0442,0.250446 -0.250446,0.01474 -0.309375,-0.08839 -0.176786,0.08839 0.456697,0.294643 -0.13259,0.147323 -0.20625,0.20625 -0.353571,0.353571 -0.220982,0.02946 -0.162054,-0.176787 0.132589,-0.191516 0.176786,-0.397769 V 53.55136 l -0.176786,-0.324107 -0.235714,-0.220982 0.117857,0.162054 -0.117857,0.117856 v 0.176787 l -0.235714,-0.07366 -0.08839,-0.103127 -0.01473,-0.338838 -0.20625,0.07366 -0.05893,-0.05893 0.250446,-0.162052 v -0.0884 l -0.309375,-0.117856 -0.633482,-0.176787 -0.368304,-0.05893 z"
         id="path34" /></g><g
       id="g40"
       inkscape:label="Apple"><path
         style="display:inline;fill:#fb2538;fill-opacity:1;stroke:#444849;stroke-width:0.1;stroke-opacity:1"
         d="m 29.280133,62.08125 0.611386,0.05893 0.412498,0.139954 0.633482,0.338842 0.449331,0.721873 0.117856,0.559821 0.02209,0.67768 -0.147323,0.478793 -0.257813,0.552458 -0.434599,0.441962 -0.419865,0.257813 -0.427233,0.125225 -0.596651,0.11049 -0.581919,-0.02209 -0.493528,-0.05893 -0.500893,-0.213617 -0.478793,-0.375671 -0.220982,-0.331473 -0.184153,-0.522991 -0.103124,-0.405132 -0.05156,-0.456698 0.03683,-0.537723 0.191516,-0.486161 0.412501,-0.515623 0.626116,-0.383037 0.604017,-0.132588 0.530357,-0.03683 z"
         id="path37" /><path
         style="fill:#444849;fill-opacity:1;stroke:none;stroke-width:0.1;stroke-opacity:1"
         d="m 29.037052,61.757141 -0.0534,0.09392 0.04972,0.06261 0.05341,0.15653 0.03867,0.252286 0.01656,0.250447 -0.0055,0.125224 0.08103,0.01474 0.04604,0.0019 0.0074,-0.147323 0.0019,-0.309375 -0.01289,-0.202565 -0.03315,-0.202567 -0.01474,-0.02577 0.0037,-0.03315 -0.01841,-0.0442 -0.04235,-0.03131 h -0.05525 l -0.04236,0.01841 z"
         id="path38" /><path
         style="fill:none;fill-opacity:1;stroke:#444849;stroke-width:0.1;stroke-opacity:1"
         d="m 28.350405,62.27922 -0.07813,0.161464 0.08854,0.171884 0.312515,0.156258 0.6667,0.0573 0.489609,-0.04688 0.333351,-0.114591 0.07292,-0.135422 -0.0625,-0.192719 -0.312516,-0.114589"
         id="path39" /><path
         style="fill:#48cc7a;fill-opacity:1;stroke:none;stroke-width:0.1;stroke-opacity:1"
         d="m 28.98549,61.852902 -0.02946,0.09576 -0.397767,0.05893 -0.360939,0.08103 -0.14732,-0.02946 -0.331472,-0.139956 -0.279911,-0.08839 -0.243081,0.02946 -0.287276,0.0442 -0.32411,0.198884 -0.35357,0.456695 -0.228348,0.375671 -0.191518,0.353571 -0.294643,0.272545 0.279911,-0.08103 0.198884,0.02946 0.37567,0.11049 0.287277,-0.02946 0.412499,-0.169418 0.272544,-0.02209 0.36094,-0.228346 0.132588,-0.117859 0.20625,-0.346204 0.125222,-0.346205 0.05156,-0.228349 0.456697,-0.103126 0.294643,-0.0442 0.08839,-0.11049 z"
         id="path40" /></g><g
       id="g44"
       inkscape:label="Apple"
       transform="translate(6.3642857,0.17678571)"><path
         style="display:inline;fill:#fb2538;fill-opacity:1;stroke:#444849;stroke-width:0.1;stroke-opacity:1"
         d="m 29.280133,62.08125 0.611386,0.05893 0.412498,0.139954 0.633482,0.338842 0.449331,0.721873 0.117856,0.559821 0.02209,0.67768 -0.147323,0.478793 -0.257813,0.552458 -0.434599,0.441962 -0.419865,0.257813 -0.427233,0.125225 -0.596651,0.11049 -0.581919,-0.02209 -0.493528,-0.05893 -0.500893,-0.213617 -0.478793,-0.375671 -0.220982,-0.331473 -0.184153,-0.522991 -0.103124,-0.405132 -0.05156,-0.456698 0.03683,-0.537723 0.191516,-0.486161 0.412501,-0.515623 0.626116,-0.383037 0.604017,-0.132588 0.530357,-0.03683 z"
         id="path41" /><path
         style="fill:#444849;fill-opacity:1;stroke:none;stroke-width:0.1;stroke-opacity:1"
         d="m 29.037052,61.757141 -0.0534,0.09392 0.04972,0.06261 0.05341,0.15653 0.03867,0.252286 0.01656,0.250447 -0.0055,0.125224 0.08103,0.01474 0.04604,0.0019 0.0074,-0.147323 0.0019,-0.309375 -0.01289,-0.202565 -0.03315,-0.202567 -0.01474,-0.02577 0.0037,-0.03315 -0.01841,-0.0442 -0.04235,-0.03131 h -0.05525 l -0.04236,0.01841 z"
         id="path42" /><path
         style="fill:none;fill-opacity:1;stroke:#444849;stroke-width:0.1;stroke-opacity:1"
         d="m 28.350405,62.27922 -0.07813,0.161464 0.08854,0.171884 0.312515,0.156258 0.6667,0.0573 0.489609,-0.04688 0.333351,-0.114591 0.07292,-0.135422 -0.0625,-0.192719 -0.312516,-0.114589"
         id="path43" /><path
         style="fill:#48cc7a;fill-opacity:1;stroke:none;stroke-width:0.1;stroke-opacity:1"
         d="m 28.98549,61.852902 -0.02946,0.09576 -0.397767,0.05893 -0.360939,0.08103 -0.14732,-0.02946 -0.331472,-0.139956 -0.279911,-0.08839 -0.243081,0.02946 -0.287276,0.0442 -0.32411,0.198884 -0.35357,0.456695 -0.228348,0.375671 -0.191518,0.353571 -0.294643,0.272545 0.279911,-0.08103 0.198884,0.02946 0.37567,0.11049 0.287277,-0.02946 0.412499,-0.169418 0.272544,-0.02209 0.36094,-0.228346 0.132588,-0.117859 0.20625,-0.346204 0.125222,-0.346205 0.05156,-0.228349 0.456697,-0.103126 0.294643,-0.0442 0.08839,-0.11049 z"
         id="path44" /></g><g
       id="g48"
       inkscape:label="Apple"
       transform="translate(-5.1857143,0.64821428)"><path
         style="display:inline;fill:#fb2538;fill-opacity:1;stroke:#444849;stroke-width:0.1;stroke-opacity:1"
         d="m 29.280133,62.08125 0.611386,0.05893 0.412498,0.139954 0.633482,0.338842 0.449331,0.721873 0.117856,0.559821 0.02209,0.67768 -0.147323,0.478793 -0.257813,0.552458 -0.434599,0.441962 -0.419865,0.257813 -0.427233,0.125225 -0.596651,0.11049 -0.581919,-0.02209 -0.493528,-0.05893 -0.500893,-0.213617 -0.478793,-0.375671 -0.220982,-0.331473 -0.184153,-0.522991 -0.103124,-0.405132 -0.05156,-0.456698 0.03683,-0.537723 0.191516,-0.486161 0.412501,-0.515623 0.626116,-0.383037 0.604017,-0.132588 0.530357,-0.03683 z"
         id="path45" /><path
         style="fill:#444849;fill-opacity:1;stroke:none;stroke-width:0.1;stroke-opacity:1"
         d="m 29.037052,61.757141 -0.0534,0.09392 0.04972,0.06261 0.05341,0.15653 0.03867,0.252286 0.01656,0.250447 -0.0055,0.125224 0.08103,0.01474 0.04604,0.0019 0.0074,-0.147323 0.0019,-0.309375 -0.01289,-0.202565 -0.03315,-0.202567 -0.01474,-0.02577 0.0037,-0.03315 -0.01841,-0.0442 -0.04235,-0.03131 h -0.05525 l -0.04236,0.01841 z"
         id="path46" /><path
         style="fill:none;fill-opacity:1;stroke:#444849;stroke-width:0.1;stroke-opacity:1"
         d="m 28.350405,62.27922 -0.07813,0.161464 0.08854,0.171884 0.312515,0.156258 0.6667,0.0573 0.489609,-0.04688 0.333351,-0.114591 0.07292,-0.135422 -0.0625,-0.192719 -0.312516,-0.114589"
         id="path47" /><path
         style="fill:#48cc7a;fill-opacity:1;stroke:none;stroke-width:0.1;stroke-opacity:1"
         d="m 28.98549,61.852902 -0.02946,0.09576 -0.397767,0.05893 -0.360939,0.08103 -0.14732,-0.02946 -0.331472,-0.139956 -0.279911,-0.08839 -0.243081,0.02946 -0.287276,0.0442 -0.32411,0.198884 -0.35357,0.456695 -0.228348,0.375671 -0.191518,0.353571 -0.294643,0.272545 0.279911,-0.08103 0.198884,0.02946 0.37567,0.11049 0.287277,-0.02946 0.412499,-0.169418 0.272544,-0.02209 0.36094,-0.228346 0.132588,-0.117859 0.20625,-0.346204 0.125222,-0.346205 0.05156,-0.228349 0.456697,-0.103126 0.294643,-0.0442 0.08839,-0.11049 z"
         id="path48" /></g><g
       id="g52"
       inkscape:label="Apple"
       transform="translate(-10.783929,-0.29464286)"><path
         style="display:inline;fill:#fb2538;fill-opacity:1;stroke:#444849;stroke-width:0.1;stroke-opacity:1"
         d="m 29.280133,62.08125 0.611386,0.05893 0.412498,0.139954 0.633482,0.338842 0.449331,0.721873 0.117856,0.559821 0.02209,0.67768 -0.147323,0.478793 -0.257813,0.552458 -0.434599,0.441962 -0.419865,0.257813 -0.427233,0.125225 -0.596651,0.11049 -0.581919,-0.02209 -0.493528,-0.05893 -0.500893,-0.213617 -0.478793,-0.375671 -0.220982,-0.331473 -0.184153,-0.522991 -0.103124,-0.405132 -0.05156,-0.456698 0.03683,-0.537723 0.191516,-0.486161 0.412501,-0.515623 0.626116,-0.383037 0.604017,-0.132588 0.530357,-0.03683 z"
         id="path49" /><path
         style="fill:#444849;fill-opacity:1;stroke:none;stroke-width:0.1;stroke-opacity:1"
         d="m 29.037052,61.757141 -0.0534,0.09392 0.04972,0.06261 0.05341,0.15653 0.03867,0.252286 0.01656,0.250447 -0.0055,0.125224 0.08103,0.01474 0.04604,0.0019 0.0074,-0.147323 0.0019,-0.309375 -0.01289,-0.202565 -0.03315,-0.202567 -0.01474,-0.02577 0.0037,-0.03315 -0.01841,-0.0442 -0.04235,-0.03131 h -0.05525 l -0.04236,0.01841 z"
         id="path50" /><path
         style="fill:none;fill-opacity:1;stroke:#444849;stroke-width:0.1;stroke-opacity:1"
         d="m 28.350405,62.27922 -0.07813,0.161464 0.08854,0.171884 0.312515,0.156258 0.6667,0.0573 0.489609,-0.04688 0.333351,-0.114591 0.07292,-0.135422 -0.0625,-0.192719 -0.312516,-0.114589"
         id="path51" /><path
         style="fill:#48cc7a;fill-opacity:1;stroke:none;stroke-width:0.1;stroke-opacity:1"
         d="m 28.98549,61.852902 -0.02946,0.09576 -0.397767,0.05893 -0.360939,0.08103 -0.14732,-0.02946 -0.331472,-0.139956 -0.279911,-0.08839 -0.243081,0.02946 -0.287276,0.0442 -0.32411,0.198884 -0.35357,0.456695 -0.228348,0.375671 -0.191518,0.353571 -0.294643,0.272545 0.279911,-0.08103 0.198884,0.02946 0.37567,0.11049 0.287277,-0.02946 0.412499,-0.169418 0.272544,-0.02209 0.36094,-0.228346 0.132588,-0.117859 0.20625,-0.346204 0.125222,-0.346205 0.05156,-0.228349 0.456697,-0.103126 0.294643,-0.0442 0.08839,-0.11049 z"
         id="path52" /></g><g
       id="g56"
       inkscape:label="Apple"
       transform="translate(-16.794643,0.88392857)"
       inkscape:export-filename="apple.png"
       inkscape:export-xdpi="384"
       inkscape:export-ydpi="384"><path
         style="display:inline;fill:#fb2538;fill-opacity:1;stroke:#444849;stroke-width:0.1;stroke-opacity:1"
         d="m 29.280133,62.08125 0.611386,0.05893 0.412498,0.139954 0.633482,0.338842 0.449331,0.721873 0.117856,0.559821 0.02209,0.67768 -0.147323,0.478793 -0.257813,0.552458 -0.434599,0.441962 -0.419865,0.257813 -0.427233,0.125225 -0.596651,0.11049 -0.581919,-0.02209 -0.493528,-0.05893 -0.500893,-0.213617 -0.478793,-0.375671 -0.220982,-0.331473 -0.184153,-0.522991 -0.103124,-0.405132 -0.05156,-0.456698 0.03683,-0.537723 0.191516,-0.486161 0.412501,-0.515623 0.626116,-0.383037 0.604017,-0.132588 0.530357,-0.03683 z"
         id="path53" /><path
         style="fill:#444849;fill-opacity:1;stroke:none;stroke-width:0.1;stroke-opacity:1"
         d="m 29.037052,61.757141 -0.0534,0.09392 0.04972,0.06261 0.05341,0.15653 0.03867,0.252286 0.01656,0.250447 -0.0055,0.125224 0.08103,0.01474 0.04604,0.0019 0.0074,-0.147323 0.0019,-0.309375 -0.01289,-0.202565 -0.03315,-0.202567 -0.01474,-0.02577 0.0037,-0.03315 -0.01841,-0.0442 -0.04235,-0.03131 h -0.05525 l -0.04236,0.01841 z"
         id="path54" /><path
         style="fill:none;fill-opacity:1;stroke:#444849;stroke-width:0.1;stroke-opacity:1"
         d="m 28.350405,62.27922 -0.07813,0.161464 0.08854,0.171884 0.312515,0.156258 0.6667,0.0573 0.489609,-0.04688 0.333351,-0.114591 0.07292,-0.135422 -0.0625,-0.192719 -0.312516,-0.114589"
         id="path55" /><path
         style="fill:#48cc7a;fill-opacity:1;stroke:none;stroke-width:0.1;stroke-opacity:1"
         d="m 28.98549,61.852902 -0.02946,0.09576 -0.397767,0.05893 -0.360939,0.08103 -0.14732,-0.02946 -0.331472,-0.139956 -0.279911,-0.08839 -0.243081,0.02946 -0.287276,0.0442 -0.32411,0.198884 -0.35357,0.456695 -0.228348,0.375671 -0.191518,0.353571 -0.294643,0.272545 0.279911,-0.08103 0.198884,0.02946 0.37567,0.11049 0.287277,-0.02946 0.412499,-0.169418 0.272544,-0.02209 0.36094,-0.228346 0.132588,-0.117859 0.20625,-0.346204 0.125222,-0.346205 0.05156,-0.228349 0.456697,-0.103126 0.294643,-0.0442 0.08839,-0.11049 z"
         id="path56" /></g><g
       id="g66"
       inkscape:label="Soda"
       transform="translate(10.228516,-22.716888)"><path
         style="display:inline;fill:#fb2538;fill-opacity:1;stroke:none;stroke-width:0.1;stroke-opacity:1"
         d="m 47.216517,58.339285 0.0074,0.309375 -0.368303,0.596651 -0.07366,0.265179 -0.03683,7.262947 0.132591,0.132588 0.169418,0.07366 0.78817,0.132588 1.340625,0.05893 1.598438,-0.09576 0.434599,-0.05156 0.235715,-0.154689 0.117856,-0.11049 -0.01474,-7.218751 -0.06629,-0.213617 -0.4346,-0.721873 0.01474,-0.191519 -0.54509,-0.02946 -1.208034,-0.05156 -0.78817,-0.02946 -1.090179,0.09576 z"
         id="path62" /><path
         style="fill:#f3ea5a;fill-opacity:1;stroke:none;stroke-width:0.1;stroke-opacity:1"
         d="m 50.273397,58.398811 -0.02082,0.770875 0.229179,0.916712 0.375018,2.291784 -0.03087,1.51512 -0.154686,0.854464 -0.213617,0.891297 -0.707144,1.480579 0.964957,-0.07366 0.302009,-0.979689 0.13259,-1.023884 -0.02209,-0.994418 -0.125222,-1.266965 -0.272545,-1.524775 -0.103124,-1.023885 0.0074,-0.839732 0.08103,-0.707144 0.09576,-0.272545 z"
         id="path63" /><path
         style="fill:#f3ea5a;fill-opacity:1;stroke:none;stroke-width:0.1;stroke-opacity:1"
         d="m 46.958704,65.447544 0.01474,0.86183 0.103126,0.103124 0.191516,0.02209 0.162055,-0.0663 0.07366,-0.0442 -0.02209,-0.832366 -0.176786,-0.103124 -0.235712,-0.01474 z"
         id="path64" /><path
         style="fill:#4fc4f8;fill-opacity:1;stroke:none;stroke-width:0.1;stroke-opacity:1"
         d="m 47.179687,58.295089 0.03683,0.14732 0.09576,0.03683 0.493527,-0.05156 0.486162,0.01474 0.692412,-0.03683 h 0.795533 l 0.596654,0.02209 0.685043,0.03683 0.03683,-0.154686 -0.618749,-0.06629 -0.78817,-0.02209 -0.979686,-0.01474 -0.552455,0.01474 -0.478796,0.02209 -0.338838,0.02946 z"
         id="path65" /><path
         style="fill:#4fc4f8;fill-opacity:1;stroke:none;stroke-width:0.1;stroke-opacity:1"
         d="m 46.840848,66.854463 0.125222,0.09576 0.272545,0.132591 0.162055,0.235715 0.250446,0.06629 0.567188,0.0442 0.743971,0.02209 h 0.847101 l 0.662945,-0.0442 0.434599,-0.08103 0.169418,-0.250446 0.162055,-0.05893 0.132588,-0.09576 -0.611384,0.08103 -0.861829,0.05893 -0.928124,0.02209 -1.090179,-0.03683 -0.360939,-0.0442 -0.456695,-0.0663 z"
         id="path66" /></g><g
       id="g61"
       inkscape:label="Soda"
       transform="translate(16.250481,-22.774082)"><path
         style="display:inline;fill:#fb2538;fill-opacity:1;stroke:none;stroke-width:0.1;stroke-opacity:1"
         d="m 47.216517,58.339285 0.0074,0.309375 -0.368303,0.596651 -0.07366,0.265179 -0.03683,7.262947 0.132591,0.132588 0.169418,0.07366 0.78817,0.132588 1.340625,0.05893 1.598438,-0.09576 0.434599,-0.05156 0.235715,-0.154689 0.117856,-0.11049 -0.01474,-7.218751 -0.06629,-0.213617 -0.4346,-0.721873 0.01474,-0.191519 -0.54509,-0.02946 -1.208034,-0.05156 -0.78817,-0.02946 -1.090179,0.09576 z"
         id="path57" /><path
         style="fill:#f3ea5a;fill-opacity:1;stroke:none;stroke-width:0.1;stroke-opacity:1"
         d="m 50.273397,58.398811 -0.02082,0.770875 0.229179,0.916712 0.375018,2.291784 -0.03087,1.51512 -0.154686,0.854464 -0.213617,0.891297 -0.707144,1.480579 0.964957,-0.07366 0.302009,-0.979689 0.13259,-1.023884 -0.02209,-0.994418 -0.125222,-1.266965 -0.272545,-1.524775 -0.103124,-1.023885 0.0074,-0.839732 0.08103,-0.707144 0.09576,-0.272545 z"
         id="path61" /><path
         style="fill:#f3ea5a;fill-opacity:1;stroke:none;stroke-width:0.1;stroke-opacity:1"
         d="m 46.958704,65.447544 0.01474,0.86183 0.103126,0.103124 0.191516,0.02209 0.162055,-0.0663 0.07366,-0.0442 -0.02209,-0.832366 -0.176786,-0.103124 -0.235712,-0.01474 z"
         id="path60" /><path
         style="fill:#4fc4f8;fill-opacity:1;stroke:none;stroke-width:0.1;stroke-opacity:1"
         d="m 47.179687,58.295089 0.03683,0.14732 0.09576,0.03683 0.493527,-0.05156 0.486162,0.01474 0.692412,-0.03683 h 0.795533 l 0.596654,0.02209 0.685043,0.03683 0.03683,-0.154686 -0.618749,-0.06629 -0.78817,-0.02209 -0.979686,-0.01474 -0.552455,0.01474 -0.478796,0.02209 -0.338838,0.02946 z"
         id="path58" /><path
         style="fill:#4fc4f8;fill-opacity:1;stroke:none;stroke-width:0.1;stroke-opacity:1"
         d="m 46.840848,66.854463 0.125222,0.09576 0.272545,0.132591 0.162055,0.235715 0.250446,0.06629 0.567188,0.0442 0.743971,0.02209 h 0.847101 l 0.662945,-0.0442 0.434599,-0.08103 0.169418,-0.250446 0.162055,-0.05893 0.132588,-0.09576 -0.611384,0.08103 -0.861829,0.05893 -0.928124,0.02209 -1.090179,-0.03683 -0.360939,-0.0442 -0.456695,-0.0663 z"
         id="path59" /></g><g
       id="g76"
       inkscape:label="Soda"
       transform="translate(-0.60536933,-44.217985)"
       inkscape:export-filename="soda.png"
       inkscape:export-xdpi="384"
       inkscape:export-ydpi="384"><path
         style="display:inline;fill:#fb2538;fill-opacity:1;stroke:none;stroke-width:0.1;stroke-opacity:1"
         d="m 47.216517,58.339285 0.0074,0.309375 -0.368303,0.596651 -0.07366,0.265179 -0.03683,7.262947 0.132591,0.132588 0.169418,0.07366 0.78817,0.132588 1.340625,0.05893 1.598438,-0.09576 0.434599,-0.05156 0.235715,-0.154689 0.117856,-0.11049 -0.01474,-7.218751 -0.06629,-0.213617 -0.4346,-0.721873 0.01474,-0.191519 -0.54509,-0.02946 -1.208034,-0.05156 -0.78817,-0.02946 -1.090179,0.09576 z"
         id="path72" /><path
         style="fill:#f3ea5a;fill-opacity:1;stroke:none;stroke-width:0.1;stroke-opacity:1"
         d="m 50.273397,58.398811 -0.02082,0.770875 0.229179,0.916712 0.375018,2.291784 -0.03087,1.51512 -0.154686,0.854464 -0.213617,0.891297 -0.707144,1.480579 0.964957,-0.07366 0.302009,-0.979689 0.13259,-1.023884 -0.02209,-0.994418 -0.125222,-1.266965 -0.272545,-1.524775 -0.103124,-1.023885 0.0074,-0.839732 0.08103,-0.707144 0.09576,-0.272545 z"
         id="path73" /><path
         style="fill:#f3ea5a;fill-opacity:1;stroke:none;stroke-width:0.1;stroke-opacity:1"
         d="m 46.958704,65.447544 0.01474,0.86183 0.103126,0.103124 0.191516,0.02209 0.162055,-0.0663 0.07366,-0.0442 -0.02209,-0.832366 -0.176786,-0.103124 -0.235712,-0.01474 z"
         id="path74" /><path
         style="fill:#4fc4f8;fill-opacity:1;stroke:none;stroke-width:0.1;stroke-opacity:1"
         d="m 47.179687,58.295089 0.03683,0.14732 0.09576,0.03683 0.493527,-0.05156 0.486162,0.01474 0.692412,-0.03683 h 0.795533 l 0.596654,0.02209 0.685043,0.03683 0.03683,-0.154686 -0.618749,-0.06629 -0.78817,-0.02209 -0.979686,-0.01474 -0.552455,0.01474 -0.478796,0.02209 -0.338838,0.02946 z"
         id="path75" /><path
         style="fill:#4fc4f8;fill-opacity:1;stroke:none;stroke-width:0.1;stroke-opacity:1"
         d="m 46.840848,66.854463 0.125222,0.09576 0.272545,0.132591 0.162055,0.235715 0.250446,0.06629 0.567188,0.0442 0.743971,0.02209 h 0.847101 l 0.662945,-0.0442 0.434599,-0.08103 0.169418,-0.250446 0.162055,-0.05893 0.132588,-0.09576 -0.611384,0.08103 -0.861829,0.05893 -0.928124,0.02209 -1.090179,-0.03683 -0.360939,-0.0442 -0.456695,-0.0663 z"
         id="path76" /></g><g
       id="g71"
       inkscape:label="Soda"
       transform="translate(0.97804452,-0.29907752)"><path
         style="display:inline;fill:#fb2538;fill-opacity:1;stroke:none;stroke-width:0.1;stroke-opacity:1"
         d="m 47.216517,58.339285 0.0074,0.309375 -0.368303,0.596651 -0.07366,0.265179 -0.03683,7.262947 0.132591,0.132588 0.169418,0.07366 0.78817,0.132588 1.340625,0.05893 1.598438,-0.09576 0.434599,-0.05156 0.235715,-0.154689 0.117856,-0.11049 -0.01474,-7.218751 -0.06629,-0.213617 -0.4346,-0.721873 0.01474,-0.191519 -0.54509,-0.02946 -1.208034,-0.05156 -0.78817,-0.02946 -1.090179,0.09576 z"
         id="path67" /><path
         style="fill:#f3ea5a;fill-opacity:1;stroke:none;stroke-width:0.1;stroke-opacity:1"
         d="m 50.273397,58.398811 -0.02082,0.770875 0.229179,0.916712 0.375018,2.291784 -0.03087,1.51512 -0.154686,0.854464 -0.213617,0.891297 -0.707144,1.480579 0.964957,-0.07366 0.302009,-0.979689 0.13259,-1.023884 -0.02209,-0.994418 -0.125222,-1.266965 -0.272545,-1.524775 -0.103124,-1.023885 0.0074,-0.839732 0.08103,-0.707144 0.09576,-0.272545 z"
         id="path68" /><path
         style="fill:#f3ea5a;fill-opacity:1;stroke:none;stroke-width:0.1;stroke-opacity:1"
         d="m 46.958704,65.447544 0.01474,0.86183 0.103126,0.103124 0.191516,0.02209 0.162055,-0.0663 0.07366,-0.0442 -0.02209,-0.832366 -0.176786,-0.103124 -0.235712,-0.01474 z"
         id="path69" /><path
         style="fill:#4fc4f8;fill-opacity:1;stroke:none;stroke-width:0.1;stroke-opacity:1"
         d="m 47.179687,58.295089 0.03683,0.14732 0.09576,0.03683 0.493527,-0.05156 0.486162,0.01474 0.692412,-0.03683 h 0.795533 l 0.596654,0.02209 0.685043,0.03683 0.03683,-0.154686 -0.618749,-0.06629 -0.78817,-0.02209 -0.979686,-0.01474 -0.552455,0.01474 -0.478796,0.02209 -0.338838,0.02946 z"
         id="path70" /><path
         style="fill:#4fc4f8;fill-opacity:1;stroke:none;stroke-width:0.1;stroke-opacity:1"
         d="m 46.840848,66.854463 0.125222,0.09576 0.272545,0.132591 0.162055,0.235715 0.250446,0.06629 0.567188,0.0442 0.743971,0.02209 h 0.847101 l 0.662945,-0.0442 0.434599,-0.08103 0.169418,-0.250446 0.162055,-0.05893 0.132588,-0.09576 -0.611384,0.08103 -0.861829,0.05893 -0.928124,0.02209 -1.090179,-0.03683 -0.360939,-0.0442 -0.456695,-0.0663 z"
         id="path71" /></g><g
       id="g81"
       inkscape:label="Soda"
       transform="translate(8.0617394,-0.29907769)"><path
         style="display:inline;fill:#fb2538;fill-opacity:1;stroke:none;stroke-width:0.1;stroke-opacity:1"
         d="m 47.216517,58.339285 0.0074,0.309375 -0.368303,0.596651 -0.07366,0.265179 -0.03683,7.262947 0.132591,0.132588 0.169418,0.07366 0.78817,0.132588 1.340625,0.05893 1.598438,-0.09576 0.434599,-0.05156 0.235715,-0.154689 0.117856,-0.11049 -0.01474,-7.218751 -0.06629,-0.213617 -0.4346,-0.721873 0.01474,-0.191519 -0.54509,-0.02946 -1.208034,-0.05156 -0.78817,-0.02946 -1.090179,0.09576 z"
         id="path77" /><path
         style="fill:#f3ea5a;fill-opacity:1;stroke:none;stroke-width:0.1;stroke-opacity:1"
         d="m 50.273397,58.398811 -0.02082,0.770875 0.229179,0.916712 0.375018,2.291784 -0.03087,1.51512 -0.154686,0.854464 -0.213617,0.891297 -0.707144,1.480579 0.964957,-0.07366 0.302009,-0.979689 0.13259,-1.023884 -0.02209,-0.994418 -0.125222,-1.266965 -0.272545,-1.524775 -0.103124,-1.023885 0.0074,-0.839732 0.08103,-0.707144 0.09576,-0.272545 z"
         id="path78" /><path
         style="fill:#f3ea5a;fill-opacity:1;stroke:none;stroke-width:0.1;stroke-opacity:1"
         d="m 46.958704,65.447544 0.01474,0.86183 0.103126,0.103124 0.191516,0.02209 0.162055,-0.0663 0.07366,-0.0442 -0.02209,-0.832366 -0.176786,-0.103124 -0.235712,-0.01474 z"
         id="path79" /><path
         style="fill:#4fc4f8;fill-opacity:1;stroke:none;stroke-width:0.1;stroke-opacity:1"
         d="m 47.179687,58.295089 0.03683,0.14732 0.09576,0.03683 0.493527,-0.05156 0.486162,0.01474 0.692412,-0.03683 h 0.795533 l 0.596654,0.02209 0.685043,0.03683 0.03683,-0.154686 -0.618749,-0.06629 -0.78817,-0.02209 -0.979686,-0.01474 -0.552455,0.01474 -0.478796,0.02209 -0.338838,0.02946 z"
         id="path80" /><path
         style="fill:#4fc4f8;fill-opacity:1;stroke:none;stroke-width:0.1;stroke-opacity:1"
         d="m 46.840848,66.854463 0.125222,0.09576 0.272545,0.132591 0.162055,0.235715 0.250446,0.06629 0.567188,0.0442 0.743971,0.02209 h 0.847101 l 0.662945,-0.0442 0.434599,-0.08103 0.169418,-0.250446 0.162055,-0.05893 0.132588,-0.09576 -0.611384,0.08103 -0.861829,0.05893 -0.928124,0.02209 -1.090179,-0.03683 -0.360939,-0.0442 -0.456695,-0.0663 z"
         id="path81" /></g><g
       id="g85"
       inkscape:label="Condiment"
       inkscape:export-filename="ketchup.png"
       inkscape:export-xdpi="384"
       inkscape:export-ydpi="384"><path
         style="display:inline;fill:#fb2538;fill-opacity:1;stroke:none;stroke-width:0.1;stroke-opacity:1"
         d="m 62.729464,56.026338 -0.220983,0.265178 -0.412499,0.117859 -0.176786,2.268749 -0.75134,2.209821 -0.338839,1.031251 -0.08839,0.928124 0.117856,4.581697 0.220983,0.574553 0.397767,0.250447 0.972322,0.07366 3.447322,-0.05893 0.412499,-0.279911 0.132591,-0.545089 0.05893,-4.758481 -0.0884,-0.869196 -0.324107,-1.045983 -0.456694,-1.163838 -0.250447,-0.707144 -0.338841,-2.54866 -0.368303,-0.103127 -0.27991,-0.338838 z"
         id="path82" /><path
         style="fill:#f3ea5a;fill-opacity:1;stroke:none;stroke-width:0.1;stroke-opacity:1"
         d="m 62.331694,54.891963 -0.176784,0.206251 -0.05893,1.149106 2.946427,-0.01474 -0.0442,-1.075447 -0.191516,-0.309374 z"
         id="path83" /><path
         style="fill:#f3ea5a;fill-opacity:1;stroke:none;stroke-width:0.1;stroke-opacity:1"
         d="m 62.096916,56.732061 -0.166674,1.468824 h 0.63545 l 0.375018,0.260429 0.489609,0.08334 0.562528,-0.02082 0.437522,-0.187511 0.187511,-0.166674 h 0.687535 l -0.197927,-1.41674 z"
         id="path84" /><path
         style="fill:#f3ea5a;fill-opacity:1;stroke:none;stroke-width:0.1;stroke-opacity:1"
         d="m 61.701063,62.180255 0.208346,0.552111 -0.15626,0.156258 -0.406271,0.0625 -0.04167,0.104175 0.885463,3.698105 2.875147,-0.03125 0.875043,-3.666852 -0.07292,-0.104175 -0.385437,-0.03125 -0.145841,-0.18751 0.197927,-0.520859 -0.0625,-0.135424 -0.687536,-0.260429 -0.697952,-0.166677 -0.500026,-0.02082 -0.416687,0.04167 -0.489609,0.08334 -0.625033,0.208346 z"
         id="path85" /></g><g
       id="g88"
       inkscape:label="Pickles"
       inkscape:export-filename="pickles.png"
       inkscape:export-xdpi="384"
       inkscape:export-ydpi="384"><path
         style="display:inline;fill:#48cc7a;fill-opacity:1;stroke:none;stroke-width:0.1;stroke-opacity:1"
         d="m 10.062054,9.3401784 -0.0442,0.2209821 -0.1031251,0.1325893 -0.044196,0.029464 0.1620531,0.1325893 -0.01473,0.1767859 -0.1325889,0.176786 -0.5598213,0.191518 -0.2504463,0.279911 -0.058929,0.559821 0.029464,0.559821 0.1031248,5.686607 -0.073661,0.309375 0.029464,0.500893 0.2946429,0.559822 0.4566963,0.20625 1.0017855,0.20625 1.075447,0.132589 0.928125,0.01473 0.751339,-0.01473 1.208036,-0.132589 1.045982,-0.250447 0.471429,-0.265178 0.206249,-0.324107 0.08839,-0.456697 -0.01473,-0.368304 -0.08839,-0.368303 0.05893,-5.318304 0.05893,-0.574553 -0.07366,-0.61875 -0.265178,-0.338839 -0.397768,-0.265179 -0.279911,-0.103125 -0.05893,-0.1620539 0.08839,-0.1031248 0.05893,-0.073661 -0.117857,-0.2357144 -0.353572,-0.103125 z"
         id="path86" /><path
         style="display:inline;fill:#4fc4f8;fill-opacity:1;stroke:none;stroke-width:0.1;stroke-opacity:1"
         d="m 9.8263391,8.9424107 -0.014732,0.6040178 0.6334819,0.058929 1.134375,0.1031251 1.016518,-0.014732 1.546875,-0.044196 1.149107,-0.088393 0.530357,-0.1473213 0.01473,-0.530357 -0.191518,-0.088393 -0.05893,-0.073661 L 14.776335,8.603572 14.069192,8.618304 12.81696,8.603572 H 12.154014 L 11.417406,8.618304 10.562942,8.677233 10.091514,8.72143 9.9294599,8.8245547 Z"
         id="path87" /><path
         style="display:inline;fill:#f3ea5a;fill-opacity:1;stroke:none;stroke-width:0.1;stroke-opacity:1"
         d="m 10.562946,12.316071 0.08839,1.959375 -0.7808033,0.05893 0.058929,2.475 1.0754463,0.4125 0.456697,0.132589 0.103125,0.132589 0.338839,0.103125 2.033036,-0.01473 0.176786,-0.147321 1.03125,-0.265179 0.589285,-0.309374 0.02947,-2.460268 -0.795536,-0.147322 0.02946,-1.85625 -0.559821,-0.162053 -0.54509,0.05893 -1.045982,0.235715 -0.648214,0.147321 -0.677678,0.01473 -0.530358,-0.191518 z"
         id="path88" /></g><g
       id="g91"
       inkscape:label="Pickles"
       transform="translate(9.833835,-0.16667517)"><path
         style="display:inline;fill:#48cc7a;fill-opacity:1;stroke:none;stroke-width:0.1;stroke-opacity:1"
         d="m 10.062054,9.3401784 -0.0442,0.2209821 -0.1031251,0.1325893 -0.044196,0.029464 0.1620531,0.1325893 -0.01473,0.1767859 -0.1325889,0.176786 -0.5598213,0.191518 -0.2504463,0.279911 -0.058929,0.559821 0.029464,0.559821 0.1031248,5.686607 -0.073661,0.309375 0.029464,0.500893 0.2946429,0.559822 0.4566963,0.20625 1.0017855,0.20625 1.075447,0.132589 0.928125,0.01473 0.751339,-0.01473 1.208036,-0.132589 1.045982,-0.250447 0.471429,-0.265178 0.206249,-0.324107 0.08839,-0.456697 -0.01473,-0.368304 -0.08839,-0.368303 0.05893,-5.318304 0.05893,-0.574553 -0.07366,-0.61875 -0.265178,-0.338839 -0.397768,-0.265179 -0.279911,-0.103125 -0.05893,-0.1620539 0.08839,-0.1031248 0.05893,-0.073661 -0.117857,-0.2357144 -0.353572,-0.103125 z"
         id="path89" /><path
         style="display:inline;fill:#4fc4f8;fill-opacity:1;stroke:none;stroke-width:0.1;stroke-opacity:1"
         d="m 9.8263391,8.9424107 -0.014732,0.6040178 0.6334819,0.058929 1.134375,0.1031251 1.016518,-0.014732 1.546875,-0.044196 1.149107,-0.088393 0.530357,-0.1473213 0.01473,-0.530357 -0.191518,-0.088393 -0.05893,-0.073661 L 14.776335,8.603572 14.069192,8.618304 12.81696,8.603572 H 12.154014 L 11.417406,8.618304 10.562942,8.677233 10.091514,8.72143 9.9294599,8.8245547 Z"
         id="path90" /><path
         style="display:inline;fill:#f3ea5a;fill-opacity:1;stroke:none;stroke-width:0.1;stroke-opacity:1"
         d="m 10.562946,12.316071 0.08839,1.959375 -0.7808033,0.05893 0.058929,2.475 1.0754463,0.4125 0.456697,0.132589 0.103125,0.132589 0.338839,0.103125 2.033036,-0.01473 0.176786,-0.147321 1.03125,-0.265179 0.589285,-0.309374 0.02947,-2.460268 -0.795536,-0.147322 0.02946,-1.85625 -0.559821,-0.162053 -0.54509,0.05893 -1.045982,0.235715 -0.648214,0.147321 -0.677678,0.01473 -0.530358,-0.191518 z"
         id="path91" /></g><g
       id="g98"
       inkscape:label="Chinese Leftovers"
       transform="translate(-3.7501913,11.833937)"><path
         style="display:inline;fill:#f3ea5a;fill-opacity:1;stroke:none;stroke-width:0.1;stroke-opacity:1"
         d="m 32.230811,41.710461 1.645917,0.812541 2.395956,-0.583364 0.791707,-3.79186 0.750038,-1.500076 -0.166676,-0.08334 -0.354185,0.229177 H 36.96022 l -0.08334,-0.541695 -0.208343,0.04167 -0.354185,-0.541695 -0.354184,-0.04167 -0.166677,0.6667 -0.583362,0.0625 -0.625033,1.000051 -1.770922,-1.875094 -0.583364,0.104172 -0.333351,1.250063 -0.166674,-0.229179 -0.208344,-0.229177 -0.125008,0.104172 0.04167,0.250013 -0.395854,-0.08334 0.583364,1.354235 z"
         id="path92" /><path
         style="fill:#fb2538;fill-opacity:1;stroke:none;stroke-width:0.0211347;stroke-opacity:1"
         d="m 34.399959,40.287974 -0.0045,0.02688 0.229421,0.0219 -0.459436,0.03829 3.95e-4,0.0351 0.0081,0.0034 0.768197,-0.048 1.336707,0.124104 0.01271,-0.07316 -0.005,-0.0158 -0.97912,-0.06075 0.624324,-0.02973 0.011,-0.0051 0.006,-0.06211 -0.02848,-0.01965 -1.031097,0.09295 z"
         id="path93" /><path
         style="fill:none;fill-opacity:1;stroke:#444849;stroke-width:0.1;stroke-opacity:1"
         d="m 31.593081,38.023659 2.217187,0.699778 0.132588,3.764063"
         id="path94" /><path
         style="fill:none;fill-opacity:1;stroke:#444849;stroke-width:0.1;stroke-opacity:1"
         d="m 34.57634,37.508037 -0.75134,1.193302 3.218973,-0.522991 -0.08839,-1.392187"
         id="path95" /><path
         style="fill:none;fill-opacity:1;stroke:#444849;stroke-width:0.1;stroke-opacity:1"
         d="m 33.847098,38.708705 -1.65,-1.657366 -0.353571,-0.08839"
         id="path96" /><path
         style="fill:none;fill-opacity:1;stroke:#444849;stroke-width:0.1;stroke-opacity:1"
         d="M 34.568974,37.500668 32.92634,37.765847"
         id="path97" /><path
         style="fill:none;fill-opacity:1;stroke:#444849;stroke-width:0.1;stroke-opacity:1"
         d="m 35.740178,36.417858 0.93549,-0.132591"
         id="path98" /></g><g
       id="g105"
       inkscape:label="Chinese Leftovers"
       transform="translate(4.8335799,11.833937)"
       inkscape:export-filename="takeaway.png"
       inkscape:export-xdpi="384"
       inkscape:export-ydpi="384"><path
         style="display:inline;fill:#f3ea5a;fill-opacity:1;stroke:none;stroke-width:0.1;stroke-opacity:1"
         d="m 32.230811,41.710461 1.645917,0.812541 2.395956,-0.583364 0.791707,-3.79186 0.750038,-1.500076 -0.166676,-0.08334 -0.354185,0.229177 H 36.96022 l -0.08334,-0.541695 -0.208343,0.04167 -0.354185,-0.541695 -0.354184,-0.04167 -0.166677,0.6667 -0.583362,0.0625 -0.625033,1.000051 -1.770922,-1.875094 -0.583364,0.104172 -0.333351,1.250063 -0.166674,-0.229179 -0.208344,-0.229177 -0.125008,0.104172 0.04167,0.250013 -0.395854,-0.08334 0.583364,1.354235 z"
         id="path99" /><path
         style="fill:#fb2538;fill-opacity:1;stroke:none;stroke-width:0.0211347;stroke-opacity:1"
         d="m 34.399959,40.287974 -0.0045,0.02688 0.229421,0.0219 -0.459436,0.03829 3.95e-4,0.0351 0.0081,0.0034 0.768197,-0.048 1.336707,0.124104 0.01271,-0.07316 -0.005,-0.0158 -0.97912,-0.06075 0.624324,-0.02973 0.011,-0.0051 0.006,-0.06211 -0.02848,-0.01965 -1.031097,0.09295 z"
         id="path100" /><path
         style="fill:none;fill-opacity:1;stroke:#444849;stroke-width:0.1;stroke-opacity:1"
         d="m 31.593081,38.023659 2.217187,0.699778 0.132588,3.764063"
         id="path101" /><path
         style="fill:none;fill-opacity:1;stroke:#444849;stroke-width:0.1;stroke-opacity:1"
         d="m 34.57634,37.508037 -0.75134,1.193302 3.218973,-0.522991 -0.08839,-1.392187"
         id="path102" /><path
         style="fill:none;fill-opacity:1;stroke:#444849;stroke-width:0.1;stroke-opacity:1"
         d="m 33.847098,38.708705 -1.65,-1.657366 -0.353571,-0.08839"
         id="path103" /><path
         style="fill:none;fill-opacity:1;stroke:#444849;stroke-width:0.1;stroke-opacity:1"
         d="M 34.568974,37.500668 32.92634,37.765847"
         id="path104" /><path
         style="fill:none;fill-opacity:1;stroke:#444849;stroke-width:0.1;stroke-opacity:1"
         d="m 35.740178,36.417858 0.93549,-0.132591"
         id="path105" /></g><g
       id="g107"
       inkscape:label="Avocado"
       transform="translate(-7.2503699,53.169379)"><path
         style="fill:#444849;fill-opacity:1;stroke:#48cc7a;stroke-width:0.1;stroke-opacity:1"
         d="m 15.675,40.660714 0.883928,-0.854464 0.883929,-0.795536 1.001786,-0.08839 0.736607,0.117856 0.677678,0.795536 0.20625,0.618749 -0.117857,0.648216 L 19.3875,41.603572 18.533035,42.045535 17.325,42.074999 16.411607,41.927679 15.822321,41.485714 15.675,41.132143 Z"
         id="path106" /><path
         style="fill:none;fill-opacity:1;stroke:#48cc7a;stroke-width:0.1;stroke-opacity:1"
         d="m 15.925446,41.507812 0.228348,-0.02209 0.184152,-0.206251 -0.05893,-0.287276 -0.235715,-0.103124 -0.191517,0.02209 -0.139956,0.117856 v 0"
         id="path107" /></g><g
       id="g109"
       inkscape:label="Avocado"
       transform="translate(-4.416892,54.586118)"><path
         style="fill:#444849;fill-opacity:1;stroke:#48cc7a;stroke-width:0.1;stroke-opacity:1"
         d="m 15.675,40.660714 0.883928,-0.854464 0.883929,-0.795536 1.001786,-0.08839 0.736607,0.117856 0.677678,0.795536 0.20625,0.618749 -0.117857,0.648216 L 19.3875,41.603572 18.533035,42.045535 17.325,42.074999 16.411607,41.927679 15.822321,41.485714 15.675,41.132143 Z"
         id="path108" /><path
         style="fill:none;fill-opacity:1;stroke:#48cc7a;stroke-width:0.1;stroke-opacity:1"
         d="m 15.925446,41.507812 0.228348,-0.02209 0.184152,-0.206251 -0.05893,-0.287276 -0.235715,-0.103124 -0.191517,0.02209 -0.139956,0.117856 v 0"
         id="path109" /></g><g
       id="g111"
       inkscape:label="Avocado"
       transform="translate(-8.3337585,55.336156)"><path
         style="fill:#444849;fill-opacity:1;stroke:#48cc7a;stroke-width:0.1;stroke-opacity:1"
         d="m 15.675,40.660714 0.883928,-0.854464 0.883929,-0.795536 1.001786,-0.08839 0.736607,0.117856 0.677678,0.795536 0.20625,0.618749 -0.117857,0.648216 L 19.3875,41.603572 18.533035,42.045535 17.325,42.074999 16.411607,41.927679 15.822321,41.485714 15.675,41.132143 Z"
         id="path110" /><path
         style="fill:none;fill-opacity:1;stroke:#48cc7a;stroke-width:0.1;stroke-opacity:1"
         d="m 15.925446,41.507812 0.228348,-0.02209 0.184152,-0.206251 -0.05893,-0.287276 -0.235715,-0.103124 -0.191517,0.02209 -0.139956,0.117856 v 0"
         id="path111" /></g><g
       id="g113"
       inkscape:label="Avocado"
       transform="translate(-1.0084269,55.267117)"
       inkscape:export-filename="avocado.png"
       inkscape:export-xdpi="96"
       inkscape:export-ydpi="96"><path
         style="fill:#444849;fill-opacity:1;stroke:#48cc7a;stroke-width:0.1;stroke-opacity:1"
         d="m 15.675,40.660714 0.883928,-0.854464 0.883929,-0.795536 1.001786,-0.08839 0.736607,0.117856 0.677678,0.795536 0.20625,0.618749 -0.117857,0.648216 L 19.3875,41.603572 18.533035,42.045535 17.325,42.074999 16.411607,41.927679 15.822321,41.485714 15.675,41.132143 Z"
         id="path112" /><path
         style="fill:none;fill-opacity:1;stroke:#48cc7a;stroke-width:0.1;stroke-opacity:1"
         d="m 15.925446,41.507812 0.228348,-0.02209 0.184152,-0.206251 -0.05893,-0.287276 -0.235715,-0.103124 -0.191517,0.02209 -0.139956,0.117856 v 0"
         id="path113" /></g><g
       id="g124"
       inkscape:label="Eggs"
       transform="translate(-0.71919858,-54.960855)"><path
         style="display:inline;fill:#4fc4f8;fill-opacity:1;stroke:none;stroke-width:0.1;stroke-opacity:1"
         d="m 28.329911,88.849553 -1.340625,0.08839 -0.309375,0.515626 -0.206251,0.89866 0.176787,0.530357 0.14732,0.162055 -0.103124,0.235714 -0.162055,0.22098 0.0442,0.839735 0.132591,0.441962 0.383035,0.39777 -0.471427,0.338838 -0.206251,0.05893 -0.368304,1.959375 0.633483,0.368305 12.095088,-0.01474 0.648216,-0.191519 0.250444,-0.309374 -0.42723,-1.826787 -0.456698,-0.324107 -0.648213,-0.13259 0.604017,-0.397767 0.220983,-0.235715 -0.01474,-0.987054 -0.02946,-0.191516 -0.191519,-0.117859 0.0442,-0.500893 0.176787,-0.14732 -0.08839,-0.839732 -0.456695,-0.633484 -0.250446,-0.250444 -0.913392,0.05893 -0.279914,-0.294643 -0.456694,-0.0442 -0.338839,0.02946 -0.117858,0.235712 -1.29643,0.103127 -5.200446,0.0442 -0.353571,-0.162055 -0.02946,-0.162052 -0.707143,-0.05893 -0.0442,0.14732 z"
         id="path114"
         inkscape:label="Carton Back"
         inkscape:export-filename="egg_carton_bg.png"
         inkscape:export-xdpi="384"
         inkscape:export-ydpi="384" /><path
         style="display:inline;fill:#444849;fill-opacity:1;stroke:none;stroke-width:0.1;stroke-opacity:1"
         d="m 28.329911,89.718749 -0.383037,0.279911 -0.07366,0.677677 0.02946,1.311161 0.604017,0.39777 1.959377,0.08839 4.449106,-0.07366 2.283481,0.02946 0.60402,-0.353571 0.07366,-0.736608 -0.05893,-0.95759 -0.353573,-0.530358 -0.279911,-0.14732 z"
         id="path115"
         inkscape:label="Lid Detail" /><path
         style="display:inline;fill:none;fill-opacity:1;stroke:#444849;stroke-width:0.1;stroke-opacity:1"
         d="m 83.796427,150.62143 0.604018,-0.48616 1.281697,-0.16206 9.472768,0.0295 0.766072,0.11786 0.515626,0.33883 0.132588,0.35357"
         id="path118"
         transform="translate(-57.278572,-56.925001)"
         inkscape:label="Fold" /><path
         style="display:inline;fill:#f3ea5a;fill-opacity:1;stroke:#ff821a;stroke-width:0.0906255;stroke-opacity:1"
         d="m 32.98771,92.253942 -0.336454,0.127284 -0.487076,0.306118 -0.308225,0.413292 -0.08064,0.540698 0.04773,0.641542 0.271007,0.598927 0.426452,0.27946 0.551839,0.09745 0.44008,-0.340262 0.391433,-0.770063 -0.01676,-0.990741 -0.428108,-0.675122 z"
         id="path123"
         inkscape:label="Egg" /><path
         style="display:inline;fill:#f3ea5a;fill-opacity:1;stroke:#ff821a;stroke-width:0.0906255;stroke-opacity:1"
         d="m 30.291728,92.195014 -0.336454,0.127284 -0.487076,0.306118 -0.308225,0.413292 -0.08064,0.540698 0.04773,0.641542 0.271007,0.598927 0.426452,0.27946 0.551839,0.09745 0.44008,-0.340262 0.391433,-0.770063 -0.01676,-0.990741 -0.428108,-0.675122 z"
         id="path124"
         inkscape:label="Egg" /><path
         style="display:inline;fill:#444849;fill-opacity:1;stroke:none;stroke-width:0.1;stroke-opacity:1"
         d="m 26.488392,93.858481 0.265179,0.486161 0.530357,0.117856 0.67768,-0.02946 0.456695,-1.045982 0.471429,-0.265179 0.500893,0.294643 0.338839,1.016518 0.456697,0.132591 0.441963,-0.08839 0.397769,-1.134374 0.486162,-0.220983 0.471426,0.250447 0.427233,0.95759 0.309375,0.206251 0.353571,-0.0442 0.515625,-1.149106 0.456697,-0.294643 0.397767,0.338839 0.530357,1.016518 0.338839,0.132591 0.220983,-0.02947 0.648215,-1.119642 0.324107,-0.324107 0.559821,0.235715 0.456698,1.060714 0.383034,0.162052 0.397767,-0.01474 0.559821,-0.235712 0.206251,-0.265179 v -0.103126 l 0.206251,-0.08839 0.235714,1.134374 h -0.294642 l -0.456698,-0.35357 -0.574553,0.05893 -0.721876,0.07366 -0.604017,0.338838 -0.810268,-0.397766 -1.016519,0.103124 -0.486158,0.162054 -0.235715,0.162055 -0.883928,-0.265179 -0.898663,-0.07366 -0.471426,0.13259 -0.471429,0.206251 -0.810268,-0.250447 -0.780804,0.0442 -0.574554,0.103124 -0.368305,0.147323 -1.031248,-0.353573 -0.721876,-0.01474 -0.633481,0.162055 -0.412501,0.191519 -0.147321,0.07366 z"
         id="path117"
         inkscape:label="Mid Divider"
         inkscape:export-filename="egg_carton_mid.png"
         inkscape:export-xdpi="384"
         inkscape:export-ydpi="384" /><path
         style="display:inline;fill:#f3ea5a;fill-opacity:1;stroke:#ff821a;stroke-width:0.1;stroke-opacity:1"
         d="m 30.200893,93.65223 -0.368305,0.176787 -0.515625,0.383035 -0.294643,0.471429 -0.01474,0.574553 0.147322,0.662948 0.397767,0.589285 0.530357,0.235715 0.648216,0.02946 0.456695,-0.412501 0.338841,-0.854464 -0.162054,-1.031251 -0.589286,-0.648213 z"
         id="path119"
         inkscape:label="Egg" /><path
         style="display:inline;fill:#f3ea5a;fill-opacity:1;stroke:#ff821a;stroke-width:0.0906255;stroke-opacity:1"
         d="m 27.273236,93.812962 -0.294927,0.205962 -0.397055,0.416292 -0.197371,0.476296 0.05452,0.543953 0.203718,0.610208 0.409705,0.514101 0.481994,0.166256 0.558878,-0.04096 0.343116,-0.437858 0.190477,-0.842577 -0.259385,-0.95633 -0.5807,-0.549412 z"
         id="path120"
         inkscape:label="Egg" /><path
         style="display:inline;fill:#f3ea5a;fill-opacity:1;stroke:#ff821a;stroke-width:0.0906255;stroke-opacity:1"
         d="m 33.046638,93.624032 -0.336454,0.127284 -0.487076,0.306118 -0.308225,0.413292 -0.08064,0.540698 0.04773,0.641542 0.271007,0.598927 0.426452,0.27946 0.551839,0.09745 0.44008,-0.340262 0.391433,-0.770063 -0.01676,-0.990741 -0.428108,-0.675122 z"
         id="path121"
         inkscape:label="Egg" /><path
         style="display:inline;fill:#f3ea5a;fill-opacity:1;stroke:#ff821a;stroke-width:0.0906255;stroke-opacity:1"
         d="m 35.698424,93.535639 -0.336454,0.127284 -0.487076,0.306118 -0.308225,0.413292 -0.08064,0.540698 0.04773,0.641542 0.271007,0.598927 0.426452,0.27946 0.551839,0.09745 0.44008,-0.340262 0.391433,-0.770063 -0.01676,-0.990741 -0.428108,-0.675122 z"
         id="path122"
         inkscape:label="Egg"
         inkscape:export-filename="egg.png"
         inkscape:export-xdpi="384"
         inkscape:export-ydpi="384" /><path
         style="display:inline;fill:#444849;fill-opacity:1;stroke:none;stroke-width:0.1;stroke-opacity:1"
         d="m 26.105357,95.213838 -0.07366,0.368303 0.48616,0.294642 0.441966,1.178574 0.35357,0.132588 0.604018,0.0442 0.486161,-0.22098 0.368302,-0.869199 h 0.294646 l 0.397766,0.854467 0.427234,0.250444 0.618749,-0.05893 0.574553,-0.220983 0.338839,-0.869196 0.324107,0.02946 0.383037,0.854467 0.412498,0.162052 h 0.589286 l 0.515625,-0.132588 0.397769,-0.898663 0.250447,-0.07366 0.441963,0.957591 0.397769,0.14732 0.574553,-0.01474 0.486161,-0.191518 0.456695,-0.869196 h 0.250447 l 0.383037,0.810268 0.456695,0.191518 0.574553,0.01474 0.383037,-0.147323 0.456698,-1.163839 0.27991,-0.103124 L 39.6,95.420087 39.52634,94.919194 h -0.235714 l 0.103124,0.265178 -0.309375,0.294643 -0.162052,0.250446 -1.487948,0.05893 -0.07366,-0.412498 -0.633481,-0.324109 -0.486162,0.397769 -0.147322,0.368302 -1.266963,-0.02946 -0.162054,-0.42723 -0.530358,-0.309377 -0.471429,0.397769 -0.103124,0.338838 -1.384821,0.01474 -0.132591,-0.353571 -0.545089,-0.353571 -0.574553,0.368303 -0.176784,0.324107 -1.311162,0.02946 -0.162054,-0.397767 -0.441963,-0.279911 -0.574553,0.279911 -0.117859,0.383035 -1.429017,0.02946 -0.103124,-0.191516 -0.353573,-0.206251 v -0.294643 z"
         id="path116"
         inkscape:export-filename="egg_carton_fg.png"
         inkscape:export-xdpi="384"
         inkscape:export-ydpi="384" /></g><g
       id="g126"
       inkscape:label="Carrot"
       transform="rotate(-6.8658235,382.91255,-88.574778)"><path
         style="fill:#ff821a;fill-opacity:1;stroke:#444849;stroke-width:0.1;stroke-opacity:1"
         d="m 10.165179,52.195981 0.721874,-0.309375 0.810268,-0.14732 1.900447,-0.206251 2.209821,-0.02946 0.313215,0.0753 0.206093,0.191724 0.103125,0.257813 -0.02394,0.386718 -0.129491,0.142947 -0.292216,0.168269 -0.766072,0.01474 h -1.44375 l -1.473214,-0.08839 -1.163839,-0.162054 -0.810268,-0.22098 z"
         id="path125"
         sodipodi:nodetypes="ccccccccccccccccc" /><path
         style="fill:#48cc7a;fill-opacity:1;stroke:#444849;stroke-width:0.1;stroke-opacity:1"
         d="m 16.470536,52.063393 1.325892,-0.132591 0.279911,-0.353571 0.383036,-0.515625 0.235714,-0.810268 0.132589,-0.07366 -0.07366,0.338839 0.147321,0.117858 0.08839,0.265179 -0.191518,0.265179 -0.162054,0.368302 -0.176785,0.235715 0.766071,-0.279911 0.147322,-0.515625 0.235714,-0.633481 0.07366,-0.338841 0.338839,-0.103124 0.0442,0.14732 -0.132589,0.383037 0.07366,0.14732 -0.235714,0.368305 -0.103125,0.250447 0.412499,-0.176787 0.206251,-0.559821 0.02946,-0.147323 0.589285,-0.27991 0.117858,-0.309375 0.265178,-0.08839 0.309375,0.14732 0.162054,0.08839 -0.02946,0.397766 0.162053,0.01474 -0.235714,0.294643 -0.368304,0.0884 -0.324107,-0.117859 -0.103125,0.103127 -0.08839,0.176784 0.235714,0.02946 0.309375,-0.117856 0.147322,0.0442 0.147321,0.20625 -0.147321,0.176787 -0.265179,0.22098 -0.20625,0.206251 -0.309375,0.02946 -0.294643,0.162054 0.206251,0.176784 -0.265179,0.176787 h 0.4125 l 0.648214,-0.559821 0.235715,-0.176787 -0.08839,0.250447 0.368303,-0.103124 0.250447,-0.07366 0.08839,0.07366 0.368304,0.02946 -0.324107,0.265178 0.02946,0.07366 0.633482,-0.294642 0.279911,-0.02946 0.250447,0.117858 -0.294643,0.235712 0.01473,0.162055 -0.250447,0.176787 -0.132589,0.07366 0.191518,0.05893 -0.294643,0.13259 -0.4125,-0.02946 0.235714,0.368303 -0.338839,-0.02946 -0.265179,-0.103127 0.117857,0.206251 -0.559821,-0.07366 -0.132589,-0.02946 0.132589,0.132588 -0.324107,-0.191516 -0.176786,-0.01474 -0.309375,0.235714 -0.01473,0.103127 0.500893,0.0442 0.677678,0.07366 -0.117857,0.176787 0.191518,0.02946 0.265179,-0.05893 -0.147322,0.206248 0.338839,0.05893 0.33884,0.07366 0.02946,0.132588 -0.589286,0.05893 -0.48616,0.103124 -0.176786,-0.132588 -0.0442,0.132588 -0.471428,0.0442 -0.20625,0.13259 -0.265179,-0.103126 -0.235714,-0.08839 0.0442,-0.353571 -0.235715,-0.117858 0.07366,0.235714 -0.176786,-0.08839 -0.162053,-0.338838 0.02946,0.324106 -0.132589,0.08839 -0.191518,-0.235714 0.0442,0.250446 -0.250446,0.01474 -0.309375,-0.08839 -0.176786,0.08839 0.456697,0.294643 -0.13259,0.147323 -0.20625,0.20625 -0.353571,0.353571 -0.220982,0.02946 -0.162054,-0.176787 0.132589,-0.191516 0.176786,-0.397769 V 53.55136 l -0.176786,-0.324107 -0.235714,-0.220982 0.117857,0.162054 -0.117857,0.117856 v 0.176787 l -0.235714,-0.07366 -0.08839,-0.103127 -0.01473,-0.338838 -0.20625,0.07366 -0.05893,-0.05893 0.250446,-0.162052 v -0.0884 l -0.309375,-0.117856 -0.633482,-0.176787 -0.368304,-0.05893 z"
         id="path126" /></g><g
       id="g128"
       inkscape:label="Carrot"
       transform="rotate(-6.8658235,373.97361,-54.605065)"><path
         style="fill:#ff821a;fill-opacity:1;stroke:#444849;stroke-width:0.1;stroke-opacity:1"
         d="m 10.165179,52.195981 0.721874,-0.309375 0.810268,-0.14732 1.900447,-0.206251 2.209821,-0.02946 0.313215,0.0753 0.206093,0.191724 0.103125,0.257813 -0.02394,0.386718 -0.129491,0.142947 -0.292216,0.168269 -0.766072,0.01474 h -1.44375 l -1.473214,-0.08839 -1.163839,-0.162054 -0.810268,-0.22098 z"
         id="path127"
         sodipodi:nodetypes="ccccccccccccccccc" /><path
         style="fill:#48cc7a;fill-opacity:1;stroke:#444849;stroke-width:0.1;stroke-opacity:1"
         d="m 16.470536,52.063393 1.325892,-0.132591 0.279911,-0.353571 0.383036,-0.515625 0.235714,-0.810268 0.132589,-0.07366 -0.07366,0.338839 0.147321,0.117858 0.08839,0.265179 -0.191518,0.265179 -0.162054,0.368302 -0.176785,0.235715 0.766071,-0.279911 0.147322,-0.515625 0.235714,-0.633481 0.07366,-0.338841 0.338839,-0.103124 0.0442,0.14732 -0.132589,0.383037 0.07366,0.14732 -0.235714,0.368305 -0.103125,0.250447 0.412499,-0.176787 0.206251,-0.559821 0.02946,-0.147323 0.589285,-0.27991 0.117858,-0.309375 0.265178,-0.08839 0.309375,0.14732 0.162054,0.08839 -0.02946,0.397766 0.162053,0.01474 -0.235714,0.294643 -0.368304,0.0884 -0.324107,-0.117859 -0.103125,0.103127 -0.08839,0.176784 0.235714,0.02946 0.309375,-0.117856 0.147322,0.0442 0.147321,0.20625 -0.147321,0.176787 -0.265179,0.22098 -0.20625,0.206251 -0.309375,0.02946 -0.294643,0.162054 0.206251,0.176784 -0.265179,0.176787 h 0.4125 l 0.648214,-0.559821 0.235715,-0.176787 -0.08839,0.250447 0.368303,-0.103124 0.250447,-0.07366 0.08839,0.07366 0.368304,0.02946 -0.324107,0.265178 0.02946,0.07366 0.633482,-0.294642 0.279911,-0.02946 0.250447,0.117858 -0.294643,0.235712 0.01473,0.162055 -0.250447,0.176787 -0.132589,0.07366 0.191518,0.05893 -0.294643,0.13259 -0.4125,-0.02946 0.235714,0.368303 -0.338839,-0.02946 -0.265179,-0.103127 0.117857,0.206251 -0.559821,-0.07366 -0.132589,-0.02946 0.132589,0.132588 -0.324107,-0.191516 -0.176786,-0.01474 -0.309375,0.235714 -0.01473,0.103127 0.500893,0.0442 0.677678,0.07366 -0.117857,0.176787 0.191518,0.02946 0.265179,-0.05893 -0.147322,0.206248 0.338839,0.05893 0.33884,0.07366 0.02946,0.132588 -0.589286,0.05893 -0.48616,0.103124 -0.176786,-0.132588 -0.0442,0.132588 -0.471428,0.0442 -0.20625,0.13259 -0.265179,-0.103126 -0.235714,-0.08839 0.0442,-0.353571 -0.235715,-0.117858 0.07366,0.235714 -0.176786,-0.08839 -0.162053,-0.338838 0.02946,0.324106 -0.132589,0.08839 -0.191518,-0.235714 0.0442,0.250446 -0.250446,0.01474 -0.309375,-0.08839 -0.176786,0.08839 0.456697,0.294643 -0.13259,0.147323 -0.20625,0.20625 -0.353571,0.353571 -0.220982,0.02946 -0.162054,-0.176787 0.132589,-0.191516 0.176786,-0.397769 V 53.55136 l -0.176786,-0.324107 -0.235714,-0.220982 0.117857,0.162054 -0.117857,0.117856 v 0.176787 l -0.235714,-0.07366 -0.08839,-0.103127 -0.01473,-0.338838 -0.20625,0.07366 -0.05893,-0.05893 0.250446,-0.162052 v -0.0884 l -0.309375,-0.117856 -0.633482,-0.176787 -0.368304,-0.05893 z"
         id="path128" /></g><g
       id="g130"
       inkscape:label="Carrot"
       transform="rotate(-6.8658235,386.80307,-54.821343)"><path
         style="fill:#ff821a;fill-opacity:1;stroke:#444849;stroke-width:0.1;stroke-opacity:1"
         d="m 10.165179,52.195981 0.721874,-0.309375 0.810268,-0.14732 1.900447,-0.206251 2.209821,-0.02946 0.313215,0.0753 0.206093,0.191724 0.103125,0.257813 -0.02394,0.386718 -0.129491,0.142947 -0.292216,0.168269 -0.766072,0.01474 h -1.44375 l -1.473214,-0.08839 -1.163839,-0.162054 -0.810268,-0.22098 z"
         id="path129"
         sodipodi:nodetypes="ccccccccccccccccc" /><path
         style="fill:#48cc7a;fill-opacity:1;stroke:#444849;stroke-width:0.1;stroke-opacity:1"
         d="m 16.470536,52.063393 1.325892,-0.132591 0.279911,-0.353571 0.383036,-0.515625 0.235714,-0.810268 0.132589,-0.07366 -0.07366,0.338839 0.147321,0.117858 0.08839,0.265179 -0.191518,0.265179 -0.162054,0.368302 -0.176785,0.235715 0.766071,-0.279911 0.147322,-0.515625 0.235714,-0.633481 0.07366,-0.338841 0.338839,-0.103124 0.0442,0.14732 -0.132589,0.383037 0.07366,0.14732 -0.235714,0.368305 -0.103125,0.250447 0.412499,-0.176787 0.206251,-0.559821 0.02946,-0.147323 0.589285,-0.27991 0.117858,-0.309375 0.265178,-0.08839 0.309375,0.14732 0.162054,0.08839 -0.02946,0.397766 0.162053,0.01474 -0.235714,0.294643 -0.368304,0.0884 -0.324107,-0.117859 -0.103125,0.103127 -0.08839,0.176784 0.235714,0.02946 0.309375,-0.117856 0.147322,0.0442 0.147321,0.20625 -0.147321,0.176787 -0.265179,0.22098 -0.20625,0.206251 -0.309375,0.02946 -0.294643,0.162054 0.206251,0.176784 -0.265179,0.176787 h 0.4125 l 0.648214,-0.559821 0.235715,-0.176787 -0.08839,0.250447 0.368303,-0.103124 0.250447,-0.07366 0.08839,0.07366 0.368304,0.02946 -0.324107,0.265178 0.02946,0.07366 0.633482,-0.294642 0.279911,-0.02946 0.250447,0.117858 -0.294643,0.235712 0.01473,0.162055 -0.250447,0.176787 -0.132589,0.07366 0.191518,0.05893 -0.294643,0.13259 -0.4125,-0.02946 0.235714,0.368303 -0.338839,-0.02946 -0.265179,-0.103127 0.117857,0.206251 -0.559821,-0.07366 -0.132589,-0.02946 0.132589,0.132588 -0.324107,-0.191516 -0.176786,-0.01474 -0.309375,0.235714 -0.01473,0.103127 0.500893,0.0442 0.677678,0.07366 -0.117857,0.176787 0.191518,0.02946 0.265179,-0.05893 -0.147322,0.206248 0.338839,0.05893 0.33884,0.07366 0.02946,0.132588 -0.589286,0.05893 -0.48616,0.103124 -0.176786,-0.132588 -0.0442,0.132588 -0.471428,0.0442 -0.20625,0.13259 -0.265179,-0.103126 -0.235714,-0.08839 0.0442,-0.353571 -0.235715,-0.117858 0.07366,0.235714 -0.176786,-0.08839 -0.162053,-0.338838 0.02946,0.324106 -0.132589,0.08839 -0.191518,-0.235714 0.0442,0.250446 -0.250446,0.01474 -0.309375,-0.08839 -0.176786,0.08839 0.456697,0.294643 -0.13259,0.147323 -0.20625,0.20625 -0.353571,0.353571 -0.220982,0.02946 -0.162054,-0.176787 0.132589,-0.191516 0.176786,-0.397769 V 53.55136 l -0.176786,-0.324107 -0.235714,-0.220982 0.117857,0.162054 -0.117857,0.117856 v 0.176787 l -0.235714,-0.07366 -0.08839,-0.103127 -0.01473,-0.338838 -0.20625,0.07366 -0.05893,-0.05893 0.250446,-0.162052 v -0.0884 l -0.309375,-0.117856 -0.633482,-0.176787 -0.368304,-0.05893 z"
         id="path130" /></g><g
       id="g132"
       inkscape:label="Carrot"
       transform="rotate(-6.8658235,381.85183,-70.892493)"
       inkscape:export-filename="carrot.png"
       inkscape:export-xdpi="96"
       inkscape:export-ydpi="96"><path
         style="fill:#ff821a;fill-opacity:1;stroke:#444849;stroke-width:0.1;stroke-opacity:1"
         d="m 10.165179,52.195981 0.721874,-0.309375 0.810268,-0.14732 1.900447,-0.206251 2.209821,-0.02946 0.313215,0.0753 0.206093,0.191724 0.103125,0.257813 -0.02394,0.386718 -0.129491,0.142947 -0.292216,0.168269 -0.766072,0.01474 h -1.44375 l -1.473214,-0.08839 -1.163839,-0.162054 -0.810268,-0.22098 z"
         id="path131"
         sodipodi:nodetypes="ccccccccccccccccc" /><path
         style="fill:#48cc7a;fill-opacity:1;stroke:#444849;stroke-width:0.1;stroke-opacity:1"
         d="m 16.470536,52.063393 1.325892,-0.132591 0.279911,-0.353571 0.383036,-0.515625 0.235714,-0.810268 0.132589,-0.07366 -0.07366,0.338839 0.147321,0.117858 0.08839,0.265179 -0.191518,0.265179 -0.162054,0.368302 -0.176785,0.235715 0.766071,-0.279911 0.147322,-0.515625 0.235714,-0.633481 0.07366,-0.338841 0.338839,-0.103124 0.0442,0.14732 -0.132589,0.383037 0.07366,0.14732 -0.235714,0.368305 -0.103125,0.250447 0.412499,-0.176787 0.206251,-0.559821 0.02946,-0.147323 0.589285,-0.27991 0.117858,-0.309375 0.265178,-0.08839 0.309375,0.14732 0.162054,0.08839 -0.02946,0.397766 0.162053,0.01474 -0.235714,0.294643 -0.368304,0.0884 -0.324107,-0.117859 -0.103125,0.103127 -0.08839,0.176784 0.235714,0.02946 0.309375,-0.117856 0.147322,0.0442 0.147321,0.20625 -0.147321,0.176787 -0.265179,0.22098 -0.20625,0.206251 -0.309375,0.02946 -0.294643,0.162054 0.206251,0.176784 -0.265179,0.176787 h 0.4125 l 0.648214,-0.559821 0.235715,-0.176787 -0.08839,0.250447 0.368303,-0.103124 0.250447,-0.07366 0.08839,0.07366 0.368304,0.02946 -0.324107,0.265178 0.02946,0.07366 0.633482,-0.294642 0.279911,-0.02946 0.250447,0.117858 -0.294643,0.235712 0.01473,0.162055 -0.250447,0.176787 -0.132589,0.07366 0.191518,0.05893 -0.294643,0.13259 -0.4125,-0.02946 0.235714,0.368303 -0.338839,-0.02946 -0.265179,-0.103127 0.117857,0.206251 -0.559821,-0.07366 -0.132589,-0.02946 0.132589,0.132588 -0.324107,-0.191516 -0.176786,-0.01474 -0.309375,0.235714 -0.01473,0.103127 0.500893,0.0442 0.677678,0.07366 -0.117857,0.176787 0.191518,0.02946 0.265179,-0.05893 -0.147322,0.206248 0.338839,0.05893 0.33884,0.07366 0.02946,0.132588 -0.589286,0.05893 -0.48616,0.103124 -0.176786,-0.132588 -0.0442,0.132588 -0.471428,0.0442 -0.20625,0.13259 -0.265179,-0.103126 -0.235714,-0.08839 0.0442,-0.353571 -0.235715,-0.117858 0.07366,0.235714 -0.176786,-0.08839 -0.162053,-0.338838 0.02946,0.324106 -0.132589,0.08839 -0.191518,-0.235714 0.0442,0.250446 -0.250446,0.01474 -0.309375,-0.08839 -0.176786,0.08839 0.456697,0.294643 -0.13259,0.147323 -0.20625,0.20625 -0.353571,0.353571 -0.220982,0.02946 -0.162054,-0.176787 0.132589,-0.191516 0.176786,-0.397769 V 53.55136 l -0.176786,-0.324107 -0.235714,-0.220982 0.117857,0.162054 -0.117857,0.117856 v 0.176787 l -0.235714,-0.07366 -0.08839,-0.103127 -0.01473,-0.338838 -0.20625,0.07366 -0.05893,-0.05893 0.250446,-0.162052 v -0.0884 l -0.309375,-0.117856 -0.633482,-0.176787 -0.368304,-0.05893 z"
         id="path132" /></g></g></svg>
