<?xml version="1.0" encoding="UTF-8" standalone="no"?>
<!-- Created with Inkscape (http://www.inkscape.org/) -->

<svg
   width="79.907143mm"
   height="108.54643mm"
   viewBox="0 0 79.907143 108.54643"
   version="1.1"
   id="svg1"
   xml:space="preserve"
   inkscape:version="1.4.4 (dcaf3e7d9e, 2026-05-05)"
   sodipodi:docname="fridge.svg"
   inkscape:export-filename="fridge_full.png"
   inkscape:export-xdpi="96"
   inkscape:export-ydpi="96"
   xmlns:inkscape="http://www.inkscape.org/namespaces/inkscape"
   xmlns:sodipodi="http://sodipodi.sourceforge.net/DTD/sodipodi-0.dtd"
   xmlns="http://www.w3.org/2000/svg"
   xmlns:svg="http://www.w3.org/2000/svg"><sodipodi:namedview
     id="namedview1"
     pagecolor="#505050"
     bordercolor="#eeeeee"
     borderopacity="1"
     inkscape:showpageshadow="0"
     inkscape:pageopacity="0"
     inkscape:pagecheckerboard="0"
     inkscape:deskcolor="#505050"
     inkscape:document-units="mm"
     inkscape:zoom="2.2449495"
     inkscape:cx="65.703037"
     inkscape:cy="248.55793"
     inkscape:window-width="2743"
     inkscape:window-height="1469"
     inkscape:window-x="0"
     inkscape:window-y="0"
     inkscape:window-maximized="1"
     inkscape:current-layer="layer1" /><defs
     id="defs1" /><g
     inkscape:label="Fridge"
     inkscape:groupmode="layer"
     id="layer1"
     transform="translate(-57.278571,-56.925)"><g
       id="g23"
       inkscape:label="Box"
       style="display:inline"><path
         style="display:inline;fill:#a9aaad;fill-opacity:1;stroke:#000000;stroke-width:0.25"
         d="M 58.221427,59.871427 V 161.11071 l 45.610713,0.35357 V 59.989285 Z"
         id="path22"
         inkscape:label="Inside" /><g
         id="g19"
         inkscape:label="Back"
         style="display:inline"><path
           style="fill:#444849;fill-opacity:1;stroke:none;stroke-width:0.25"
           d="M 64.880357,67.649999 64.998213,124.575 64.114285,124.69286 63.348213,121.62857 63.525,69.123213 Z"
           id="path17"
           inkscape:label="Vert Vent" /><path
           style="fill:#444849;fill-opacity:1;stroke:none;stroke-width:0.25"
           d="m 98.351783,67.473213 0.05893,57.455357 1.001784,-1.11964 0.05893,-2.94643 0.412499,-51.621429 z"
           id="path18"
           inkscape:label="Vert Vent" /><path
           style="fill:#444849;fill-opacity:1;stroke:none;stroke-width:0.25"
           d="m 92.812498,68.357143 -2.298213,0.883928 -1.355357,1.473213 -0.412501,1.767859 0.471429,2.533928 1.591072,1.473213 2.651786,0.825 2.003571,-0.766069 1.767856,-1.591072 0.471429,-1.767859 -0.235715,-2.416072 -1.708928,-1.708927 -1.649999,-0.707142 z"
           id="path19"
           inkscape:label="Vent" /></g><g
         id="g22"
         inkscape:label="Shelves"
         style="display:inline"><path
           style="display:inline;fill:#444849;fill-opacity:1;stroke:none;stroke-width:0.25"
           d="m 61.285715,75.428569 -0.117859,2.121429 2.121429,1.532144 1.65,-1.414285 h 34.17857 l 1.767855,1.65 1.76786,-2.828573 v -1.060715 z"
           id="path3"
           inkscape:label="Shelf"
           inkscape:export-filename="shelf1.png"
           inkscape:export-xdpi="96"
           inkscape:export-ydpi="96" /><path
           style="display:inline;fill:#444849;fill-opacity:1;stroke:none;stroke-width:0.25"
           d="m 60.814285,87.332142 0.05893,2.00357 2.357144,0.117859 0.942856,-0.825 h 34.885714 l 2.062501,1.473213 1.29642,-1.532141 V 87.45 Z"
           id="path4"
           inkscape:label="Shelf"
           inkscape:export-filename="shelf2.png"
           inkscape:export-xdpi="96"
           inkscape:export-ydpi="96" /><path
           style="display:inline;fill:#444849;fill-opacity:1;stroke:none;stroke-width:0.25"
           d="m 60.873213,99.412498 0.05893,1.708932 3.064288,-0.825 35.474999,0.0589 1.82678,1.23749 0.23572,-2.474995 -38.42143,-0.117856 z"
           id="path5"
           inkscape:label="Shelf"
           inkscape:export-filename="shelf3.png"
           inkscape:export-xdpi="96"
           inkscape:export-ydpi="96" /><path
           style="display:inline;fill:#444849;fill-opacity:1;stroke:none;stroke-width:0.25"
           d="M 63.112498,110.1375 61.05,111.49286 v 1.65 l 1.885714,-0.70715 37.124996,-0.0589 1.76786,0.825 0.0589,-1.53214 -2.121429,-1.82678 z"
           id="path6"
           inkscape:label="Shelf"
           inkscape:export-filename="shelf4.png"
           inkscape:export-xdpi="96"
           inkscape:export-ydpi="96" /><path
           style="display:inline;fill:#444849;fill-opacity:1;stroke:none;stroke-width:0.25"
           d="m 63.760714,121.51071 -2.239285,2.41607 -0.117858,0.70715 39.658929,-0.17679 0.0589,-0.88393 -2.062503,-2.29821 z"
           id="path7"
           inkscape:label="Shelf"
           inkscape:export-filename="shelf5.png"
           inkscape:export-xdpi="96"
           inkscape:export-ydpi="96" /><path
           style="display:inline;fill:#444849;fill-opacity:1;stroke:none;stroke-width:0.25"
           d="m 61.05,137.71607 -0.05893,0.76607 40.54286,0.17679 v -1.29643 z"
           id="path9"
           inkscape:label="Shelf"
           inkscape:export-filename="shelf6.png"
           inkscape:export-xdpi="96"
           inkscape:export-ydpi="96" /></g><g
         id="g21"
         inkscape:label="Upper Box"
         style="display:inline"
         inkscape:export-filename="box1.png"
         inkscape:export-xdpi="96"
         inkscape:export-ydpi="96"><path
           style="fill:#444849;fill-opacity:1;stroke:none;stroke-width:0.25"
           d="m 61.403571,125.04643 0.05893,2.59285 h 39.835709 l 0.23572,-2.59285 -7.189286,0.17678 -13.200001,0.0589 H 67.944642 l -5.598213,-0.29464 z"
           id="path8"
           inkscape:label="Box Top" /><path
           style="fill:#444849;fill-opacity:1;stroke:none;stroke-width:0.25"
           d="m 63.819642,133.65 -0.707144,1.47321 -1.473213,0.64822 -0.117856,1.06071 39.953571,0.35357 v -1.35535 l -1.29643,-0.29465 -0.766072,-1.2375 z"
           id="path12"
           inkscape:label="Box Bottom" /><path
           style="fill:none;fill-opacity:1;stroke:#444849;stroke-width:0.25;stroke-opacity:1"
           d="m 61.521429,126.28393 0.235712,10.25357"
           id="path13"
           inkscape:label="Box Left" /><path
           style="fill:none;fill-opacity:1;stroke:#444849;stroke-width:0.25;stroke-opacity:1"
           d="m 101.35714,126.75536 -0.11786,10.13571"
           id="path14"
           inkscape:label="Box Right" /></g><g
         id="g20"
         inkscape:label="Lower Box"
         style="display:inline"
         inkscape:export-filename="box2.png"
         inkscape:export-xdpi="96"
         inkscape:export-ydpi="96"><path
           style="fill:#444849;fill-opacity:1;stroke:none;stroke-width:0.25"
           d="m 61.108928,139.60178 v 2.59286 l 40.660712,-0.11786 0.0589,-1.76785 -0.53036,-0.76608 -10.666069,0.29465 -14.201785,-0.0589 -7.77857,-0.23572 -7.071429,-0.35357 z"
           id="path10"
           inkscape:label="Box Top" /><path
           style="fill:#444849;fill-opacity:1;stroke:none;stroke-width:0.25"
           d="m 63.819642,151.21071 -2.82857,3.12322 v 1.17857 l 15.026785,0.23571 25.280353,-0.17678 -0.11785,-1.06072 -2.65179,-3.53571 z"
           id="path11"
           inkscape:label="Box Bottom" /><path
           style="fill:none;fill-opacity:1;stroke:#444849;stroke-width:0.25;stroke-opacity:1"
           d="M 61.226784,141.66428 61.05,155.04107"
           id="path15"
           inkscape:label="Box Left" /><path
           style="fill:none;fill-opacity:1;stroke:#444849;stroke-width:0.25;stroke-opacity:1"
           d="m 101.41607,141.42857 -0.29464,13.78929"
           id="path16"
           inkscape:label="Box Right" /></g><path
         style="display:inline;fill:#444849;fill-opacity:1;stroke:none;stroke-width:0.25"
         d="m 101.94643,124.81071 0.23571,30.05357 -1.76786,2.35715 L 61.992856,156.63214 59.871427,155.1 59.635715,64.821429 61.403571,62.935714 h 11.078572 l 1.767856,1.414286 6.599999,0.117856 2.121429,-1.532142 17.442853,0.117856 2.12143,1.65 -0.47143,10.607143 0.94286,-0.35357 0.23571,-14.142858 -45.139279,-0.707144 0.589285,101.003569 45.021424,-0.47143 -0.11785,-36.06428 z"
         id="path2"
         inkscape:label="Front Facing" /><path
         style="display:inline;fill:#444849;fill-opacity:1;stroke:none;stroke-width:0.25"
         d="m 102.41785,61.167856 -43.371423,-0.235715 0.235714,99.353569 45.374999,-0.47143 0.58929,4.00715 -1.76786,-0.11786 -3.535715,-1.53214 -42.664284,0.23571 V 58.692856 l 41.721428,0.117859 v -0.825 l 3.535711,-0.589288 3.41786,-0.117856 v 2.357144 z"
         id="path1"
         inkscape:label="Outer Frame" /></g><path
       style="display:inline;fill:#444849;fill-opacity:1;stroke:none;stroke-width:0.25"
       d="m 102.88928,59.046427 30.99643,-2.121427 3.06429,0.471427 0.23571,1.414288 -0.23571,105.482135 -0.47143,0.23572 -3.18214,0.94286 -30.87858,-4.24286 z"
       id="path23"
       inkscape:label="Door Back" /><path
       style="display:inline;fill:#a9aaad;fill-opacity:1;stroke:none;stroke-width:0.25"
       d="m 105.01071,61.992856 27.225,-1.65 -0.35357,103.124994 -27.69643,-4.00714 z"
       id="path24"
       inkscape:label="Door Inside" /><path
       style="display:inline;fill:#444849;fill-opacity:1;stroke:none;stroke-width:0.25"
       d="m 105.35121,125.44882 0.0155,30.50859 1.25782,2.49627 20.42546,3.24632 2.71071,-1.29643 0.23572,-33.11786 -2.71072,-1.53214 1.06072,-61.521429 -1.29643,-1.178571 -21.68572,1.178571 -1.65,3.300002 v 7.660714 l -0.94285,0.117856 0.11785,-8.132143 2.23929,-3.535714 1.06071,-1.060715 L 128.81786,61.05 130.35,62.346429 131.52857,65.175 132,70.360714 131.175,158.4 l -0.47143,2.475 -2.59286,1.29643 h -1.41428 l -20.51911,-3.4172 -1.35146,-2.66716 -0.2028,-30.85035 z"
       id="path25"
       sodipodi:nodetypes="cccccccccccccccccccccccccccc"
       inkscape:label="Door Mould" /><path
       style="display:inline;fill:#444849;fill-opacity:1;stroke:none;stroke-width:0.25"
       d="m 103.36071,67.885714 1.65,-3.123216 -0.64821,60.283932 -1.59107,-0.70715 -0.11786,-3.83035 z"
       id="path32"
       inkscape:label="Door Mould 2" /><g
       id="g27"
       inkscape:label="Door Shelf Lower"
       style="display:inline"
       inkscape:export-filename="door_shelf3.png"
       inkscape:export-xdpi="96"
       inkscape:export-ydpi="96"><path
         style="fill:#444849;fill-opacity:1;stroke:none;stroke-width:0.25"
         d="m 127.10893,120.92143 -0.58929,0.0589 -1.11964,2.41608 -1.11964,0.4125 -23.27679,-1.35536 0.23571,-2.35714 -0.35357,-0.11786 0.11786,2.8875 0.35357,1.82679 1.29643,0.47142 1.94464,-0.11785 1.11964,0.47143 20.56608,0.76607 1.70893,-0.29465 v -5.06785 z"
         id="path26"
         inkscape:label="Door Shelf Lower" /><path
         style="fill:#444849;fill-opacity:1;stroke:none;stroke-width:0.25"
         d="m 104.00893,118.21071 -1.82679,-0.0589 -1.47321,0.53036 0.11786,1.11964 2.12142,0.53036 21.39107,0.825 3.3,-0.0589 v -1.65 l -2.76964,0.17679 h -2.00357 l -11.49107,-0.35357 -9.42857,-0.53036 -0.4125,-0.17678 1.35535,-0.23572 z"
         id="path27"
         inkscape:label="Door Shelf Upper" /></g><g
       id="g29"
       inkscape:label="Door Shelf Mid"
       style="display:inline"
       inkscape:export-filename="door_shelf2.png"
       inkscape:export-xdpi="96"
       inkscape:export-ydpi="96"><path
         style="fill:#444849;fill-opacity:1;stroke:none;stroke-width:0.25"
         d="m 128.11071,98.174999 c -0.23571,0 -1.47321,-0.05893 -1.47321,-0.05893 l -0.64822,1.591069 -1.11964,0.883932 h -23.68928 l 0.11785,-2.12143 -0.29464,-0.05893 0.11786,4.24286 0.58928,0.11786 22.92322,0.4125 1.82678,-0.0589 1.76786,-0.0589 z"
         id="path28" /><path
         style="fill:#444849;fill-opacity:1;stroke:none;stroke-width:0.25"
         d="m 127.93393,96.760714 -3.35893,0.176784 -20.91964,-0.05893 0.47143,-0.235715 -1.35536,-0.176784 -1.88572,0.353571 0.0589,1.414285 23.98393,0.05893 3.3,-0.117856 z"
         id="path29" /></g><g
       id="g31"
       inkscape:label="Door Shelf Upper"
       style="display:inline"
       inkscape:export-filename="door_shelf1.png"
       inkscape:export-xdpi="96"
       inkscape:export-ydpi="96"><path
         style="fill:#444849;fill-opacity:1;stroke:none;stroke-width:0.25"
         d="m 128.46428,75.664284 -1.82678,0.176787 -0.53036,1.414285 -0.94286,1.060714 -12.61071,0.353571 -10.07678,0.412501 -1.17858,-0.117858 0.0589,-2.121427 -0.35357,-0.05893 0.17679,4.301786 0.64821,0.412501 20.09464,-0.942858 3.12322,-0.117856 3.3,0.117856 z"
         id="path30" /><path
         style="fill:#444849;fill-opacity:1;stroke:none;stroke-width:0.25"
         d="m 128.46428,74.426785 h -2.53392 l -22.68751,1.001784 0.17679,-0.176784 -1.2375,-0.05893 -1.17857,0.294643 -0.0589,1.001784 0.76607,0.412501 1.65,-0.117858 20.27143,-1.001784 1.35536,0.117856 1.88571,-0.05893 2.00357,-0.353571 z"
         id="path31" /></g></g></svg>
