<?xml version="1.0" encoding="UTF-8" standalone="no"?>
<!-- Created with Inkscape (http://www.inkscape.org/) -->

<svg
   width="210mm"
   height="297mm"
   viewBox="0 0 210 297"
   version="1.1"
   id="svg1"
   inkscape:version="1.4.4 (dcaf3e7d9e, 2026-05-05)"
   sodipodi:docname="time_wheel.svg"
   xml:space="preserve"
   xmlns:inkscape="http://www.inkscape.org/namespaces/inkscape"
   xmlns:sodipodi="http://sodipodi.sourceforge.net/DTD/sodipodi-0.dtd"
   xmlns="http://www.w3.org/2000/svg"
   xmlns:svg="http://www.w3.org/2000/svg"><sodipodi:namedview
     id="namedview1"
     pagecolor="#505050"
     bordercolor="#eeeeee"
     borderopacity="1"
     inkscape:showpageshadow="0"
     inkscape:pageopacity="0"
     inkscape:pagecheckerboard="0"
     inkscape:deskcolor="#505050"
     inkscape:document-units="mm"
     inkscape:zoom="1.587419"
     inkscape:cx="413.56441"
     inkscape:cy="903.35318"
     inkscape:window-width="2743"
     inkscape:window-height="1469"
     inkscape:window-x="0"
     inkscape:window-y="0"
     inkscape:window-maximized="1"
     inkscape:current-layer="layer1" /><defs
     id="defs1" /><g
     inkscape:label="Layer 1"
     inkscape:groupmode="layer"
     id="layer1"><g
       id="g23"
       inkscape:label="Wheel"
       style="display:inline"
       inkscape:export-filename="wheel.png"
       inkscape:export-xdpi="96"
       inkscape:export-ydpi="96"><path
         style="display:inline;fill:#4fc4f8;fill-opacity:1;stroke-width:0.25"
         d="m 102.53571,42.664284 h 14.14286 l 12.25714,2.828573 12.96429,5.892856 10.13571,8.721428 8.48572,10.607143 6.83571,16.735714 1.41429,19.564282 -4.95,17.44286 -6.6,11.07857 -9.66429,11.07857 -12.49285,7.77857 -20.74286,5.65714 L 95.935713,157.92857 77.55,150.62142 65.528571,139.54285 57.749999,126.34285 53.271428,113.61428 51.149999,98.52857 55.157143,81.321428 64.821427,65.057141 77.07857,52.092857 90.042857,45.728569 Z"
         id="path2" /><path
         style="display:inline;fill:#444849;fill-opacity:1;stroke-width:0.25"
         d="m 55.157142,121.275 54.819418,-18.15479 52.13594,26.16907 -5.3625,8.95714 -7.36607,9.60536 -8.54464,4.30179 -10.37144,4.83214 -9.48749,2.41607 -10.85132,1.01767 -14.370112,-1.01766 -13.553572,-5.18572 -8.426787,-6.42321 -6.010713,-4.36072 -4.667142,-5.68071 -3.111428,-4.33714 -3.182142,-6.01071 z"
         id="path3"
         sodipodi:nodetypes="ccccccccccccccccc" /><path
         style="display:inline;fill:none;fill-opacity:1;stroke:#444849;stroke-width:0.25;stroke-opacity:1"
         d="M 51.149998,97.232141 109.84286,103.36071 63.05357,68.00357"
         id="path4" /><path
         style="display:inline;fill:none;fill-opacity:1;stroke:#444849;stroke-width:0.25;stroke-opacity:1"
         d="M 119.00607,43.002194 109.67226,103.3386 141.34054,51.335953"
         id="path5" /><path
         style="display:inline;fill:none;fill-opacity:1;stroke:#444849;stroke-width:0.25;stroke-opacity:1"
         d="m 168.34192,107.67216 -58.66966,-4.66691"
         id="path6" /><path
         id="path4-0"
         style="display:inline;fill:#fb2538;fill-opacity:1;stroke:#444849;stroke-width:0.168516"
         d="m 157.21391,92.114898 -2.61655,-1.17765 -0.41829,-0.430194 1.02569,0.467131 0.9324,0.307967 0.22791,-0.118275 0.12639,-0.35103 -2.31651,-0.975394 -1.14464,-1.576892 -0.56704,-0.856611 -0.3777,0.01646 -0.60429,-1.784775 -0.67238,0.215299 0.1313,0.376364 -0.78631,0.715848 -0.32346,-0.596906 -1.70147,1.667389 -7.13863,-3.801303 -0.28261,-1.359609 -0.34276,-0.321952 4.09448,-3.442414 -0.11795,-0.22707 1.36541,-1.090223 0.37452,0.962519 0.62067,-0.255295 -0.67695,-2.104134 0.60372,-0.248432 0.64418,0.580878 0.3785,1.248681 0.25643,-0.08946 0.26095,-0.570338 -0.70669,-2.247699 0.0623,-0.865081 -0.44176,-1.26631 -0.53399,-0.101295 -0.0568,0.442015 -0.27884,0.136043 -0.31733,1.069285 0.29893,0.912378 -0.18212,0.08303 0.0366,0.160518 -0.17564,0.157124 -0.74254,-1.908884 -0.21799,-0.01981 -0.38493,0.325998 0.0386,0.715652 0.72314,1.742327 -1.35889,1.164452 -0.27211,-0.480214 -4.04869,3.637514 -0.26569,-0.450508 -0.39209,-0.188541 -0.30014,0.538481 -1.7703,0.834506 0.16655,0.322419 -0.47973,0.492696 -3.48134,-1.613771 -1.75825,-0.585298 -0.22661,-0.01679 -0.32978,0.153813 -0.0431,0.234791 0.46743,1.256413 0.19766,0.180854 0.28968,0.06153 1.92476,0.624034 2.30221,1.153696 0.18815,1.199887 2.71095,4.637213 -0.47689,0.281667 -0.24789,0.718749 -0.36629,0.876265 0.0233,0.836133 0.0127,0.916369 0.31977,1.135559 0.34463,0.493643 0.49488,0.59421 -1.30108,1.163653 0.14807,0.313387 -0.67705,0.754213 -0.0663,0.195551 0.43301,1.460134 0.33325,0.07549 0.30728,-0.107187 0.24804,-0.335397 1.16592,-1.442781 -0.10012,-0.176142 1.09357,-0.82305 0.50637,0.130295 0.80321,0.104195 0.75457,-0.149024 0.83898,-0.234549 0.75105,-0.32016 0.90657,-0.756831 0.44884,-0.63685 0.39243,-1.076107 0.0965,-0.878 -0.0965,-0.714811 3.17614,-2.719252 0.72387,1.800195 0.41748,0.372365 0.9601,0.220836 1.0839,0.139875 0.75222,-0.319512 0.50533,-0.752409 0.53624,0.657246 2.78776,1.118882 z m -5.84809,-4.995178 0.20713,0.632626 -0.0883,0.05789 0.0837,0.473287 0.51746,1.094685 -0.61435,1.000558 -0.70179,-0.107611 -0.77065,-0.341158 -0.30959,-0.923199 0.86394,-0.790364 -0.15739,-0.256874 z m -4.66116,1.843014 -1.76608,1.471103 -0.13244,-0.185211 -0.53455,-0.59974 -0.68664,-0.452761 -0.82377,-0.376846 -0.77963,-0.175348 -0.52397,-2.1236 z"
         inkscape:label="TrainingSymbol" /><path
         id="path7"
         style="display:inline;fill:#fb2538;fill-opacity:1;stroke:#444849;stroke-width:0.168516"
         d="m 100.20869,52.355274 -1.014213,2.684126 -0.403608,0.443999 0.403054,-1.052517 0.24994,-0.949602 -0.132091,-0.220193 -0.358152,-0.104516 -0.830825,2.372197 -1.503382,1.239617 -0.820049,0.618749 0.0397,0.375956 -1.744156,0.713095 0.256314,0.657844 0.367559,-0.154238 0.762932,0.74071 -0.575842,0.359624 1.769045,1.59552 -3.354285,7.359267 -1.339615,0.365831 -0.300222,0.36195 -3.688129,-3.874632 -0.219372,0.131715 -1.172274,-1.295642 0.937618,-0.433111 -0.293048,-0.603762 -2.058433,0.805293 -0.285153,-0.587274 0.540088,-0.678741 1.22299,-0.454706 -0.105086,-0.250431 -0.58533,-0.225318 -2.199893,0.843822 -0.867273,-0.0089 -1.236689,0.518952 -0.0682,0.539214 0.444678,0.02954 0.152962,0.26993 1.086803,0.250854 0.892229,-0.354582 0.09408,0.176656 0.157956,-0.04643 0.167647,0.165625 -1.859512,0.858724 -0.0063,0.218798 0.349094,0.364112 0.71192,-0.08258 1.694466,-0.829104 1.245959,1.284567 -0.462538,0.301186 3.880036,3.816896 -0.433283,0.29293 -0.164028,0.402955 0.555949,0.266403 0.941987,1.715527 0.311545,-0.186106 0.521316,0.448483 -1.396227,3.574136 -0.475865,1.790974 -0.0028,0.227219 0.173838,0.319676 0.236999,0.02848 1.225229,-0.543933 0.168332,-0.208432 0.04357,-0.292922 0.504267,-1.959549 1.009669,-2.368908 1.186017,-0.261716 4.461387,-2.991499 0.310512,0.458634 0.732656,0.203144 0.89717,0.311599 0.83309,-0.07495 0.91384,-0.06918 1.11371,-0.389132 0.47148,-0.374382 0.56259,-0.530547 1.2416,1.226912 0.30367,-0.16709 0.79449,0.629306 0.19927,0.05418 1.43068,-0.522145 0.0548,-0.337267 -0.12592,-0.300094 -0.35003,-0.226897 -1.51188,-1.074826 -0.16963,0.110842 -0.88887,-1.040807 0.0989,-0.513421 0.0545,-0.808099 -0.19519,-0.743971 -0.28579,-0.822942 -0.36582,-0.729889 -0.81124,-0.858225 -0.6633,-0.408753 -1.09824,-0.325378 -0.88228,-0.0422 -0.70751,0.140271 -2.909767,-3.002572 1.752183,-0.833403 0.345944,-0.439632 0.16125,-0.971888 0.0728,-1.090443 -0.36524,-0.731109 -0.782116,-0.458025 0.622962,-0.575703 0.945004,-2.851396 z m -4.625403,6.144722 0.618662,-0.245716 0.06322,0.08451 0.467224,-0.112788 1.060726,-0.583912 1.03651,0.551544 -0.06417,0.707079 -0.293033,0.790213 -0.902373,0.365865 -0.84209,-0.813595 -0.246688,0.172914 z m 2.126676,4.538761 1.577115,1.672094 -0.1767,0.143598 -0.565667,0.570489 -0.4096,0.713226 -0.325379,0.845413 -0.126983,0.78895 -2.087286,0.653808 z"
         inkscape:label="TrainingSymbol" /><path
         id="path8"
         style="display:inline;fill:#fb2538;fill-opacity:1;stroke:#444849;stroke-width:0.11405"
         d="m 58.986713,103.07058 1.601046,1.09899 0.226856,0.33683 -0.626949,-0.43447 -0.583966,-0.31724 -0.166006,0.0514 -0.12639,0.21859 1.425539,0.92821 0.572718,1.1879 0.274654,0.6387 0.253541,0.0345 0.18787,1.26136 0.473707,-0.0626 -0.04219,-0.26645 0.609779,-0.38222 0.143622,0.43645 1.333731,-0.90589 4.297335,3.3902 0.02472,0.93951 0.189572,0.25565 -3.14098,1.80033 0.0513,0.1654 -1.040487,0.56191 -0.13374,-0.68608 -0.444081,0.0954 0.197822,1.4828 -0.431957,0.0929 -0.359184,-0.46433 -0.10193,-0.87716 -0.181539,0.0287 -0.242386,0.34847 0.200367,1.58199 -0.145508,0.56868 0.141949,0.89651 0.343468,0.13168 0.09104,-0.28755 0.202066,-0.0571 0.339938,-0.67401 -0.08935,-0.64361 0.131275,-0.0334 -0.0051,-0.11132 0.135862,-0.0836 0.264948,1.36066 0.142817,0.0395 0.29556,-0.17083 0.06038,-0.48128 -0.272122,-1.24738 1.045071,-0.61212 0.123455,0.35256 3.13394,-1.93578 0.12273,0.332 0.238466,0.17272 0.264656,-0.32254 1.279415,-0.34291 -0.0722,-0.23476 0.378775,-0.27045 2.124566,1.49345 1.100642,0.60127 0.148921,0.0385 0.238127,-0.0628 0.05685,-0.1512 -0.160224,-0.893 -0.109906,-0.14422 -0.185531,-0.0758 -1.206884,-0.64708 -1.39458,-1.04524 0.01899,-0.82177 -1.247891,-3.41448 0.351482,-0.13027 0.251535,-0.44889 0.349327,-0.53957 0.08491,-0.55969 0.101716,-0.61186 -0.07643,-0.79476 -0.17016,-0.37022 -0.258144,-0.45527 1.006481,-0.61855 -0.06097,-0.22652 0.541631,-0.4209 0.06771,-0.12226 -0.112813,-1.02455 -0.212876,-0.0903 -0.21755,0.0345 -0.205531,0.19355 -0.950031,0.82071 0.04559,0.12935 -0.82733,0.41666 -0.321571,-0.14768 -0.522416,-0.16598 -0.520494,0.009 -0.586972,0.0554 -0.538725,0.12286 -0.694799,0.39504 -0.375521,0.37018 -0.390774,0.66951 -0.169845,0.57317 -0.0217,0.48767 -2.442387,1.42912 -0.265583,-1.28602 -0.233276,-0.29821 -0.612899,-0.26254 -0.705067,-0.22349 -0.539411,0.12236 -0.427041,0.44034 -0.278102,-0.50222 -1.722145,-1.08044 z m 3.294233,4.03016 -0.06155,-0.4463 0.06574,-0.0279 0.0011,-0.3253 -0.21297,-0.79131 0.529503,-0.59252 0.454459,0.15607 0.472247,0.31989 0.09515,0.6521 -0.670435,0.42251 0.07392,0.19001 z m 3.326062,-0.66695 1.353149,-0.76739 0.06589,0.13928 0.283904,0.46372 0.402867,0.38412 0.503326,0.35005 0.498156,0.21055 0.0936,1.47736 z"
         inkscape:label="TrainingSymbol" /><g
         id="g34"
         inkscape:label="Carrot"
         transform="matrix(-2.1926669,-0.86712682,0.86712682,-2.1926669,67.755626,219.47718)"
         style="display:inline"><path
           style="fill:#ff821a;fill-opacity:1;stroke:#444849;stroke-width:0.1;stroke-opacity:1"
           d="m 10.165179,52.195981 0.721874,-0.309375 0.810268,-0.14732 1.900447,-0.206251 2.209821,-0.02946 0.313215,0.0753 0.206093,0.191724 0.103125,0.257813 -0.02394,0.386718 -0.129491,0.142947 -0.292216,0.168269 -0.766072,0.01474 h -1.44375 l -1.473214,-0.08839 -1.163839,-0.162054 -0.810268,-0.22098 z"
           id="path33"
           sodipodi:nodetypes="ccccccccccccccccc" /><path
           style="fill:#48cc7a;fill-opacity:1;stroke:#444849;stroke-width:0.1;stroke-opacity:1"
           d="m 16.470536,52.063393 1.325892,-0.132591 0.279911,-0.353571 0.383036,-0.515625 0.235714,-0.810268 0.132589,-0.07366 -0.07366,0.338839 0.147321,0.117858 0.08839,0.265179 -0.191518,0.265179 -0.162054,0.368302 -0.176785,0.235715 0.766071,-0.279911 0.147322,-0.515625 0.235714,-0.633481 0.07366,-0.338841 0.338839,-0.103124 0.0442,0.14732 -0.132589,0.383037 0.07366,0.14732 -0.235714,0.368305 -0.103125,0.250447 0.412499,-0.176787 0.206251,-0.559821 0.02946,-0.147323 0.589285,-0.27991 0.117858,-0.309375 0.265178,-0.08839 0.309375,0.14732 0.162054,0.08839 -0.02946,0.397766 0.162053,0.01474 -0.235714,0.294643 -0.368304,0.0884 -0.324107,-0.117859 -0.103125,0.103127 -0.08839,0.176784 0.235714,0.02946 0.309375,-0.117856 0.147322,0.0442 0.147321,0.20625 -0.147321,0.176787 -0.265179,0.22098 -0.20625,0.206251 -0.309375,0.02946 -0.294643,0.162054 0.206251,0.176784 -0.265179,0.176787 h 0.4125 l 0.648214,-0.559821 0.235715,-0.176787 -0.08839,0.250447 0.368303,-0.103124 0.250447,-0.07366 0.08839,0.07366 0.368304,0.02946 -0.324107,0.265178 0.02946,0.07366 0.633482,-0.294642 0.279911,-0.02946 0.250447,0.117858 -0.294643,0.235712 0.01473,0.162055 -0.250447,0.176787 -0.132589,0.07366 0.191518,0.05893 -0.294643,0.13259 -0.4125,-0.02946 0.235714,0.368303 -0.338839,-0.02946 -0.265179,-0.103127 0.117857,0.206251 -0.559821,-0.07366 -0.132589,-0.02946 0.132589,0.132588 -0.324107,-0.191516 -0.176786,-0.01474 -0.309375,0.235714 -0.01473,0.103127 0.500893,0.0442 0.677678,0.07366 -0.117857,0.176787 0.191518,0.02946 0.265179,-0.05893 -0.147322,0.206248 0.338839,0.05893 0.33884,0.07366 0.02946,0.132588 -0.589286,0.05893 -0.48616,0.103124 -0.176786,-0.132588 -0.0442,0.132588 -0.471428,0.0442 -0.20625,0.13259 -0.265179,-0.103126 -0.235714,-0.08839 0.0442,-0.353571 -0.235715,-0.117858 0.07366,0.235714 -0.176786,-0.08839 -0.162053,-0.338838 0.02946,0.324106 -0.132589,0.08839 -0.191518,-0.235714 0.0442,0.250446 -0.250446,0.01474 -0.309375,-0.08839 -0.176786,0.08839 0.456697,0.294643 -0.13259,0.147323 -0.20625,0.20625 -0.353571,0.353571 -0.220982,0.02946 -0.162054,-0.176787 0.132589,-0.191516 0.176786,-0.397769 V 53.55136 l -0.176786,-0.324107 -0.235714,-0.220982 0.117857,0.162054 -0.117857,0.117856 v 0.176787 l -0.235714,-0.07366 -0.08839,-0.103127 -0.01473,-0.338838 -0.20625,0.07366 -0.05893,-0.05893 0.250446,-0.162052 v -0.0884 l -0.309375,-0.117856 -0.633482,-0.176787 -0.368304,-0.05893 z"
           id="path34" /></g><g
         id="g10"
         inkscape:label="Carrot"
         transform="matrix(0.86712682,-2.1926669,2.1926669,0.86712682,-6.2534276,57.589531)"
         style="display:inline"><path
           style="fill:#ff821a;fill-opacity:1;stroke:#444849;stroke-width:0.1;stroke-opacity:1"
           d="m 10.165179,52.195981 0.721874,-0.309375 0.810268,-0.14732 1.900447,-0.206251 2.209821,-0.02946 0.313215,0.0753 0.206093,0.191724 0.103125,0.257813 -0.02394,0.386718 -0.129491,0.142947 -0.292216,0.168269 -0.766072,0.01474 h -1.44375 l -1.473214,-0.08839 -1.163839,-0.162054 -0.810268,-0.22098 z"
           id="path9"
           sodipodi:nodetypes="ccccccccccccccccc" /><path
           style="fill:#48cc7a;fill-opacity:1;stroke:#444849;stroke-width:0.1;stroke-opacity:1"
           d="m 16.470536,52.063393 1.325892,-0.132591 0.279911,-0.353571 0.383036,-0.515625 0.235714,-0.810268 0.132589,-0.07366 -0.07366,0.338839 0.147321,0.117858 0.08839,0.265179 -0.191518,0.265179 -0.162054,0.368302 -0.176785,0.235715 0.766071,-0.279911 0.147322,-0.515625 0.235714,-0.633481 0.07366,-0.338841 0.338839,-0.103124 0.0442,0.14732 -0.132589,0.383037 0.07366,0.14732 -0.235714,0.368305 -0.103125,0.250447 0.412499,-0.176787 0.206251,-0.559821 0.02946,-0.147323 0.589285,-0.27991 0.117858,-0.309375 0.265178,-0.08839 0.309375,0.14732 0.162054,0.08839 -0.02946,0.397766 0.162053,0.01474 -0.235714,0.294643 -0.368304,0.0884 -0.324107,-0.117859 -0.103125,0.103127 -0.08839,0.176784 0.235714,0.02946 0.309375,-0.117856 0.147322,0.0442 0.147321,0.20625 -0.147321,0.176787 -0.265179,0.22098 -0.20625,0.206251 -0.309375,0.02946 -0.294643,0.162054 0.206251,0.176784 -0.265179,0.176787 h 0.4125 l 0.648214,-0.559821 0.235715,-0.176787 -0.08839,0.250447 0.368303,-0.103124 0.250447,-0.07366 0.08839,0.07366 0.368304,0.02946 -0.324107,0.265178 0.02946,0.07366 0.633482,-0.294642 0.279911,-0.02946 0.250447,0.117858 -0.294643,0.235712 0.01473,0.162055 -0.250447,0.176787 -0.132589,0.07366 0.191518,0.05893 -0.294643,0.13259 -0.4125,-0.02946 0.235714,0.368303 -0.338839,-0.02946 -0.265179,-0.103127 0.117857,0.206251 -0.559821,-0.07366 -0.132589,-0.02946 0.132589,0.132588 -0.324107,-0.191516 -0.176786,-0.01474 -0.309375,0.235714 -0.01473,0.103127 0.500893,0.0442 0.677678,0.07366 -0.117857,0.176787 0.191518,0.02946 0.265179,-0.05893 -0.147322,0.206248 0.338839,0.05893 0.33884,0.07366 0.02946,0.132588 -0.589286,0.05893 -0.48616,0.103124 -0.176786,-0.132588 -0.0442,0.132588 -0.471428,0.0442 -0.20625,0.13259 -0.265179,-0.103126 -0.235714,-0.08839 0.0442,-0.353571 -0.235715,-0.117858 0.07366,0.235714 -0.176786,-0.08839 -0.162053,-0.338838 0.02946,0.324106 -0.132589,0.08839 -0.191518,-0.235714 0.0442,0.250446 -0.250446,0.01474 -0.309375,-0.08839 -0.176786,0.08839 0.456697,0.294643 -0.13259,0.147323 -0.20625,0.20625 -0.353571,0.353571 -0.220982,0.02946 -0.162054,-0.176787 0.132589,-0.191516 0.176786,-0.397769 V 53.55136 l -0.176786,-0.324107 -0.235714,-0.220982 0.117857,0.162054 -0.117857,0.117856 v 0.176787 l -0.235714,-0.07366 -0.08839,-0.103127 -0.01473,-0.338838 -0.20625,0.07366 -0.05893,-0.05893 0.250446,-0.162052 v -0.0884 l -0.309375,-0.117856 -0.633482,-0.176787 -0.368304,-0.05893 z"
           id="path10" /></g><g
         id="g12"
         inkscape:label="Carrot"
         transform="matrix(2.2839614,0.58584744,-0.58584744,2.2839614,139.89758,-15.917715)"
         style="display:inline"><path
           style="fill:#ff821a;fill-opacity:1;stroke:#444849;stroke-width:0.1;stroke-opacity:1"
           d="m 10.165179,52.195981 0.721874,-0.309375 0.810268,-0.14732 1.900447,-0.206251 2.209821,-0.02946 0.313215,0.0753 0.206093,0.191724 0.103125,0.257813 -0.02394,0.386718 -0.129491,0.142947 -0.292216,0.168269 -0.766072,0.01474 h -1.44375 l -1.473214,-0.08839 -1.163839,-0.162054 -0.810268,-0.22098 z"
           id="path11"
           sodipodi:nodetypes="ccccccccccccccccc" /><path
           style="fill:#48cc7a;fill-opacity:1;stroke:#444849;stroke-width:0.1;stroke-opacity:1"
           d="m 16.470536,52.063393 1.325892,-0.132591 0.279911,-0.353571 0.383036,-0.515625 0.235714,-0.810268 0.132589,-0.07366 -0.07366,0.338839 0.147321,0.117858 0.08839,0.265179 -0.191518,0.265179 -0.162054,0.368302 -0.176785,0.235715 0.766071,-0.279911 0.147322,-0.515625 0.235714,-0.633481 0.07366,-0.338841 0.338839,-0.103124 0.0442,0.14732 -0.132589,0.383037 0.07366,0.14732 -0.235714,0.368305 -0.103125,0.250447 0.412499,-0.176787 0.206251,-0.559821 0.02946,-0.147323 0.589285,-0.27991 0.117858,-0.309375 0.265178,-0.08839 0.309375,0.14732 0.162054,0.08839 -0.02946,0.397766 0.162053,0.01474 -0.235714,0.294643 -0.368304,0.0884 -0.324107,-0.117859 -0.103125,0.103127 -0.08839,0.176784 0.235714,0.02946 0.309375,-0.117856 0.147322,0.0442 0.147321,0.20625 -0.147321,0.176787 -0.265179,0.22098 -0.20625,0.206251 -0.309375,0.02946 -0.294643,0.162054 0.206251,0.176784 -0.265179,0.176787 h 0.4125 l 0.648214,-0.559821 0.235715,-0.176787 -0.08839,0.250447 0.368303,-0.103124 0.250447,-0.07366 0.08839,0.07366 0.368304,0.02946 -0.324107,0.265178 0.02946,0.07366 0.633482,-0.294642 0.279911,-0.02946 0.250447,0.117858 -0.294643,0.235712 0.01473,0.162055 -0.250447,0.176787 -0.132589,0.07366 0.191518,0.05893 -0.294643,0.13259 -0.4125,-0.02946 0.235714,0.368303 -0.338839,-0.02946 -0.265179,-0.103127 0.117857,0.206251 -0.559821,-0.07366 -0.132589,-0.02946 0.132589,0.132588 -0.324107,-0.191516 -0.176786,-0.01474 -0.309375,0.235714 -0.01473,0.103127 0.500893,0.0442 0.677678,0.07366 -0.117857,0.176787 0.191518,0.02946 0.265179,-0.05893 -0.147322,0.206248 0.338839,0.05893 0.33884,0.07366 0.02946,0.132588 -0.589286,0.05893 -0.48616,0.103124 -0.176786,-0.132588 -0.0442,0.132588 -0.471428,0.0442 -0.20625,0.13259 -0.265179,-0.103126 -0.235714,-0.08839 0.0442,-0.353571 -0.235715,-0.117858 0.07366,0.235714 -0.176786,-0.08839 -0.162053,-0.338838 0.02946,0.324106 -0.132589,0.08839 -0.191518,-0.235714 0.0442,0.250446 -0.250446,0.01474 -0.309375,-0.08839 -0.176786,0.08839 0.456697,0.294643 -0.13259,0.147323 -0.20625,0.20625 -0.353571,0.353571 -0.220982,0.02946 -0.162054,-0.176787 0.132589,-0.191516 0.176786,-0.397769 V 53.55136 l -0.176786,-0.324107 -0.235714,-0.220982 0.117857,0.162054 -0.117857,0.117856 v 0.176787 l -0.235714,-0.07366 -0.08839,-0.103127 -0.01473,-0.338838 -0.20625,0.07366 -0.05893,-0.05893 0.250446,-0.162052 v -0.0884 l -0.309375,-0.117856 -0.633482,-0.176787 -0.368304,-0.05893 z"
           id="path12" /></g><path
         id="path13"
         style="display:inline;fill:#a9aaad;fill-opacity:1;stroke:#fb2538;stroke-width:0.168516;stroke-opacity:1"
         d="m 134.76443,149.36254 0.18,-2.8637 0.25519,-0.54307 -0.0757,1.12451 0.0403,0.98112 0.19101,0.17161 0.37305,-0.005 0.0965,-2.51164 1.07235,-1.62691 0.60182,-0.83255 -0.14854,-0.34765 1.45731,-1.19449 -0.43844,-0.55338 -0.30594,0.25551 -0.94703,-0.48359 0.44462,-0.51306 -2.16003,-1.00472 1.04172,-8.02027 1.17279,-0.74362 0.1805,-0.43423 4.6645,2.61867 0.17094,-0.19039 1.50146,0.8936 -0.76878,0.68969 0.45765,0.49088 1.73058,-1.37503 0.44524,0.47744 -0.31659,0.80756 -1.03518,0.79426 0.17408,0.20845 0.62571,0.0432 1.85447,-1.45346 0.83152,-0.2466 1.02937,-0.85969 -0.0934,-0.53541 -0.4337,0.10255 -0.22557,-0.21301 -1.11252,0.0799 -0.7485,0.60128 -0.14187,-0.14117 -0.13732,0.0908 -0.20894,-0.109 1.52475,-1.36761 -0.0583,-0.21099 -0.44074,-0.24535 -0.65615,0.28829 -1.37572,1.29075 -1.56863,-0.86135 0.35351,-0.42389 -4.83095,-2.50705 0.32799,-0.40741 0.0382,-0.43338 -0.60971,-0.0911 -1.40484,-1.36264 -0.24303,0.26949 -0.63015,-0.27533 0.28338,-3.82671 -0.0719,-1.85171 -0.0641,-0.21799 -0.26017,-0.25441 -0.2349,0.0424 -1.01109,0.8802 -0.0995,0.24872 0.0445,0.29278 0.0943,2.02119 -0.26836,2.56109 -1.0566,0.59893 -3.38436,4.17123 -0.43165,-0.34703 -0.75999,0.0213 -0.94913,-0.034 -0.77421,0.31665 -0.85311,0.33483 -0.95001,0.69943 -0.34052,0.49649 -0.38169,0.67252 -1.54752,-0.80751 -0.2411,0.249 -0.94443,-0.36782 -0.20638,0.007 -1.21386,0.91979 0.0468,0.33849 0.2086,0.24979 0.40129,0.11393 1.76109,0.58267 0.12955,-0.15582 1.15564,0.73337 0.0565,0.5198 0.18553,0.78841 0.40538,0.65364 0.51517,0.70251 0.56429,0.59003 1.02777,0.5817 0.75416,0.19561 1.14537,-0.0119 0.85566,-0.21914 0.63497,-0.34213 3.66411,2.01409 -1.42961,1.31183 -0.20135,0.52192 0.13167,0.97633 0.25108,1.06365 0.5641,0.59137 0.88223,0.20776 -0.42611,0.73345 -0.0648,3.00322 z m 2.6138,-7.23326 -0.51906,0.41679 -0.0853,-0.0622 -0.4134,0.24518 -0.84211,0.87003 -1.15287,-0.22233 -0.14661,-0.69468 0.0477,-0.84145 0.75487,-0.61506 1.04411,0.52997 0.18493,-0.23782 z m -3.36741,-3.71263 -1.99912,-1.13436 0.12666,-0.18921 0.37288,-0.71161 0.18174,-0.80215 0.0623,-0.90371 -0.11065,-0.79142 1.80272,-1.23873 z"
         inkscape:label="Night TrainingSymbol"
         inkscape:export-filename="night_exercise.png"
         inkscape:export-xdpi="96"
         inkscape:export-ydpi="96" /><path
         style="display:inline;fill:#a9aaad;fill-opacity:1;stroke:#fb2538;stroke-width:0.25;stroke-opacity:1"
         d="m 109.71846,103.30475 12.4994,55.33096"
         id="path14"
         sodipodi:nodetypes="cc"
         inkscape:label="Night Line"
         inkscape:export-filename="night_line.png"
         inkscape:export-xdpi="96"
         inkscape:export-ydpi="96" /><g
         id="g26"
         transform="rotate(-171.52207,99.130585,134.22243)"
         style="display:inline"
         inkscape:label="Bed"
         inkscape:export-filename="bed.png"
         inkscape:export-xdpi="96"
         inkscape:export-ydpi="96"><path
           style="fill:#0c227d;fill-opacity:1;stroke:#4d32e2;stroke-width:0.137267;stroke-opacity:1"
           d="m 66.833294,129.96479 2.128066,8.94768 0.814635,5.70785 3.450897,0.59732 0.186654,1.72938 0.471802,0.075 0.589537,-0.0794 -0.16834,-1.59331 25.659775,4.7176 0.16485,1.22443 0.51105,0.0235 0.57124,-0.21538 -0.21281,-0.89477 2.332,0.51711 7.07783,-5.38532 0.1038,0.77093 0.70466,0.0898 0.43517,-0.19709 0.27471,-0.3602 -0.3131,-1.29679 3.55548,-2.74107 -0.29216,-1.4843 -0.54158,-0.25028 -0.29221,-3.88519 -0.39332,-0.17789 -0.58869,-1.62907 -0.7474,-0.40726 -4.30903,-0.11242 -0.16658,-0.20843 -0.62006,-0.14738 -8.789852,0.21382 -1.731979,0.51021 -12.122134,0.15456 -0.555553,-1.72586 -0.412524,-1.0064 0.03836,-0.7439 -0.21802,-0.24767 -0.961043,0.4064 -0.798002,-2.15492 -0.796238,-0.77005 -13.263702,1.27785 z"
           id="path25"
           inkscape:label="Bed Silhuette" /><path
           style="fill:#0c227d;fill-opacity:1;stroke:#4d32e2;stroke-width:0.25;stroke-opacity:1"
           d="m 113.67321,136.18393 -11.9625,6.42321 -28.992852,-2.475 -0.412502,-1.76786 12.257144,-4.00714"
           id="path26"
           sodipodi:nodetypes="ccccc" /></g><path
         style="display:inline;fill:#444849;fill-opacity:1;stroke:#4fc4f8;stroke-width:0.25;stroke-opacity:1"
         d="m 113.85103,98.080618 -2.27527,-1.47818 -0.70753,-6.998692 -0.58542,-1.592981 -0.43913,1.588556 -0.737,6.901186 -1.63502,1.025297 -2.43486,1.708689 -1.11625,2.620287 0.30325,2.82213 1.58524,2.20202 2.27245,1.36036 3.42251,0.15395 2.91742,-1.24867 1.35473,-2.50809 0.26895,-3.54317 z"
         id="path27"
         sodipodi:nodetypes="ccccccccccccccccc"
         inkscape:label="Mid Pointer"
         inkscape:export-filename="wheel_center.png"
         inkscape:export-xdpi="96"
         inkscape:export-ydpi="96" /></g></g></svg>
