<?xml version="1.0" encoding="UTF-8" standalone="no"?>
<!-- Created with Inkscape (http://www.inkscape.org/) -->

<svg
   width="210mm"
   height="297mm"
   viewBox="0 0 210 297"
   version="1.1"
   id="svg1"
   xml:space="preserve"
   inkscape:version="1.4.4 (dcaf3e7d9e, 2026-05-05)"
   sodipodi:docname="freedom.svg"
   xmlns:inkscape="http://www.inkscape.org/namespaces/inkscape"
   xmlns:sodipodi="http://sodipodi.sourceforge.net/DTD/sodipodi-0.dtd"
   xmlns="http://www.w3.org/2000/svg"
   xmlns:svg="http://www.w3.org/2000/svg"><sodipodi:namedview
     id="namedview1"
     pagecolor="#505050"
     bordercolor="#eeeeee"
     borderopacity="1"
     inkscape:showpageshadow="0"
     inkscape:pageopacity="0"
     inkscape:pagecheckerboard="0"
     inkscape:deskcolor="#505050"
     inkscape:document-units="mm"
     inkscape:zoom="0.10094599"
     inkscape:cx="-5849.6628"
     inkscape:cy="-3170.012"
     inkscape:window-width="2743"
     inkscape:window-height="1469"
     inkscape:window-x="0"
     inkscape:window-y="0"
     inkscape:window-maximized="1"
     inkscape:current-layer="layer1" /><defs
     id="defs1" /><g
     inkscape:label="Layer 1"
     inkscape:groupmode="layer"
     id="layer1"><path
       style="fill:#ff821a;stroke:#f3ea5a;stroke-width:0.499999;fill-opacity:1;stroke-opacity:1"
       d="m 51.835997,121.80012 0.231671,-3.06962 0.752925,-4.57547 1.853353,-3.70671 3.127534,-2.20086 3.301288,-1.79543 4.517552,-0.9846 3.41712,0.11584 3.417123,0.57917 2.316691,0.9846 2.606281,1.21626 3.475038,-0.57917 1.332097,-1.3321 0.69501,-2.3167 -0.810844,-1.62168 -0.463339,-2.43253 0.115835,-2.027104 0.231669,-0.810842 0.463338,-2.490444 0.347507,-0.521258 0.0036,-0.283623 0.552876,-0.593828 0.532399,-0.307155 0.614305,-0.04095 0.798597,0.327631 0.839552,0.532397 0.757645,1.126228 0.71669,1.412904 0.163814,1.146705 0.02048,2.33436 -0.06143,1.269569 -0.04095,1.24909 -0.04095,0.36858 0.348107,0.77812 2.805332,0.83955 1.986253,0.86003 0.778121,0.57335 1.228614,1.78149 0.798597,1.22861 0.798598,0.83955 0.204769,0.18429 0.245721,0.34811 0.368583,0.65526 0.327631,1.0648 -0.08191,0.51192 -0.307152,0.0819 -0.143338,0.36859 0.163814,0.32763 -0.204769,0.63478 -0.655259,0.65526 -0.08191,0.18429 -0.860028,0.28668 -1.474335,0.63478 -0.532397,0.10238 -0.880507,-0.0409 -0.98289,0.0819 -0.18429,0.51192 -1.146704,0.59383 -0.655259,2.39579 -1.187659,1.39243 -0.921459,1.02384 -1.290043,1.12623 -0.798597,1.29004 -1.556242,0.59383 -1.638149,0.69622 -1.208135,0.3481 -0.900983,0.28668 -0.307152,1.26956 -0.225245,0.61431 0.348107,0.7986 0.491445,0.36858 1.924825,1.18766 0.266197,0.40954 -0.655259,0.51192 0.900983,1.02384 -0.348107,0.36859 -1.146704,0.12285 -1.43338,0.14334 -1.290042,-0.0409 0.06143,0.22525 -0.430016,0.18429 -3.52202,0.041 -0.98289,-0.041 -2.559608,-0.14334 -0.409535,-0.20477 -4.853017,-0.18429 -3.030577,-0.32763 -0.573352,-0.18429 -0.204769,-0.1843 -0.348107,-0.77812 -0.204766,-0.6143 0.08191,-0.34811 v -0.45049 l -0.348107,-0.77812 -0.860028,-0.86003 -0.450493,-0.38906 -0.368583,-0.14334 -0.409536,0.51192 -0.880507,0.2662 -1.330994,0.10239 -0.880507,-0.041 -1.924825,-0.81907 -1.187656,-0.92146 -0.941938,-0.75764 -0.798597,-0.88051 -0.409538,-0.73717 -0.368583,-1.00336 -0.2662,-0.73717 0.184293,-0.71669 0.470968,-0.0614 0.757643,0.14334 0.614307,0.2662 0.06143,-0.24572 z"
       id="path1"
       inkscape:label="Bunny"
       inkscape:export-filename="bunny.png"
       inkscape:export-xdpi="96"
       inkscape:export-ydpi="96" /><g
       id="g169"
       inkscape:label="Ice cream"
       inkscape:export-filename="ice_cream.png"
       inkscape:export-xdpi="96"
       inkscape:export-ydpi="96"><path
         style="fill:#4d32e2;stroke:#fb2538;stroke-width:0.499999;fill-opacity:1"
         d="m 127.61181,75.846301 5.4059,37.185989 1.80196,0.16381 9.17363,-40.298466 0.39457,-0.616823 0.60813,0.347504 0.63709,-0.115835 0.69501,-0.405421 0.26063,-0.868759 -0.1448,-0.637091 -0.695,-0.434379 -0.37647,-0.260631 -0.28958,0.05792 -0.86876,-4.025252 0.0579,-0.810842 -0.17376,-0.608132 0.37647,0.260628 0.029,0.405421 0.95564,-0.20271 0.57917,-0.723967 0.43438,-0.781886 -0.0869,-0.434379 0.20271,-0.405421 -0.0869,-0.637091 -0.3475,-0.579173 -0.17375,-0.579172 -0.43438,-0.318546 -0.26063,-0.810842 -0.34751,-0.608131 -0.3475,-0.144793 -0.0579,-0.202711 -0.14479,-0.984596 -0.28959,-0.43438 -0.3475,-0.376463 -0.43438,-0.173751 0.11583,-0.347504 -0.3475,-1.274181 0.0869,-0.550214 -0.23167,-0.579173 -0.0869,-0.8398 -0.37646,-0.897718 -0.55022,-0.897721 -0.20271,-0.202711 0.31855,-0.173752 0.17375,-0.318545 -0.23167,-0.347503 -0.40542,-0.05792 h -0.28959 l -0.52125,-0.231669 -0.34751,-0.521255 -0.63709,-0.289587 -0.89772,-0.579173 -1.30313,-0.608131 -1.3321,-0.521256 -1.62169,-0.289586 -1.53481,0.02896 -1.53481,0.115835 -1.27418,0.347504 -1.3321,0.695007 -0.95563,0.666049 -1.10043,0.723966 -1.07147,1.245222 -0.86876,1.361059 -0.89772,1.505849 -0.3475,0.43438 -0.34751,0.260628 0.26063,0.868759 -0.37646,0.43438 0.14479,0.492297 -0.11583,0.666049 v 0.608131 1.303142 l 0.26062,0.43438 0.0869,0.347503 -0.43438,0.318545 0.0869,0.666049 -0.11584,0.202711 -0.28958,0.20271 0.40542,0.492297 0.63709,0.579173 0.60813,0.723966 0.9846,0.637091 0.37646,0.260627 -0.69501,1.013556 -0.92668,1.303139 -0.37646,1.390015 -0.46334,0.868759 -0.37646,1.50585 0.20271,0.839803 0.31854,0.810842 -0.43438,0.318545 -0.8398,0.521256 -0.0869,0.723966 0.17375,0.752925 0.3475,0.550214 0.34751,0.05792 0.17375,0.347504 0.17375,0.463338 0.46334,0.289587 0.28958,-0.115835 -0.0579,0.463338 0.40542,0.260628 0.28958,0.521259 0.75293,-0.115835 0.55022,-0.463341 0.31854,-0.347504 0.23167,0.463341 0.43438,-0.05792 0.20271,-0.492297 z"
         id="path2" /><path
         style="fill:none;stroke:#fb2538;stroke-width:0.499999"
         d="m 127.59185,75.755848 1.79543,0.347504 1.6796,-0.115835 1.50586,-0.405421 1.91127,-0.289586 2.43252,-0.347504 1.50586,-0.289586 h 1.62168 l 0.69501,0.868759 1.27418,-0.347504 0.75292,-0.463338 0.69501,-0.868759 0.57918,-0.984594"
         id="path3" /><path
         style="fill:none;stroke:#fb2538;stroke-width:0.499999"
         d="m 125.85433,63.940716 0.98459,0.405423 0.52126,-0.115834 h 0.52125 l -0.46333,0.810842 0.75292,0.579173 0.92668,0.05792 0.92667,-0.289586 0.46334,-0.637091 -0.11583,-0.347503 1.27418,-0.23167 0.92668,0.347504 1.21626,0.231669 1.27418,0.23167 0.52126,0.868759 0.57917,0.579173 1.04251,0.05792 0.11584,-0.579173 0.69501,-0.173752 0.52125,0.231669 1.6796,-0.05792 0.57918,-0.115834 0.92667,-0.115835 0.28959,0.173752 0.57917,-0.521256 0.57917,0.289587 0.34751,-0.05792 0.40542,-0.521255"
         id="path4" /></g><g
       id="g168"
       inkscape:label="Ice cream stand"
       inkscape:export-filename="ice_cream_stand.png"
       inkscape:export-xdpi="96"
       inkscape:export-ydpi="96"><path
         id="path5"
         style="fill:#4d32e2;fill-opacity:1;stroke:#fb2538;stroke-width:0.499999"
         d="M 81.663232 171.2035 L 80.852429 173.86794 L 80.273653 178.32762 L 80.273653 182.03437 L 78.82568 189.67938 L 60.813342 188.69443 L 61.624146 231.90109 L 61.334241 232.47987 L 61.739901 233.5227 L 63.882922 233.11704 L 65.388774 232.30623 L 69.269157 232.19048 L 70.890763 232.59614 L 72.165104 233.5227 L 75.58195 233.11704 L 80.678796 232.9434 L 80.678796 234.85492 L 80.041626 235.95511 L 75.118929 236.24449 L 74.018221 237.11369 L 72.222982 237.17157 L 69.500667 236.70803 L 63.767167 237.0553 L 60.639193 237.75035 L 58.901831 239.08256 L 59.191736 240.18327 L 60.523437 240.58842 L 61.797778 240.067 L 65.851794 238.7353 L 68.168449 238.50327 L 70.832886 239.31407 L 72.686003 240.29903 L 73.497323 240.29903 L 80.215259 239.89337 L 80.389408 256.11047 L 80.041626 260.45439 L 81.547477 268.04152 L 82.590308 268.44666 L 82.951526 271.05219 L 83.218176 271.2775 L 86.576111 270.90905 L 86.944564 275.02456 L 87.477348 275.24987 L 88.398739 274.84059 L 88.378068 270.74523 L 126.6362 266.854 L 128.89497 269.40216 L 131.35632 271.632 L 135.06307 272.84846 L 137.78539 273.10891 L 140.30461 272.64589 L 143.08481 271.74775 L 146.8205 269.17065 L 149.10821 266.56461 L 150.26628 264.62416 L 151.8884 264.56628 L 152.72815 243.57118 L 153.62576 243.22391 L 154.95798 242.29684 L 155.73985 241.57337 L 156.57959 241.60231 L 156.89792 235.08643 L 157.50615 234.85492 L 157.50615 233.26225 L 155.88454 232.65402 L 156.0003 230.53993 L 155.62358 229.64231 L 155.71091 226.19601 L 155.97136 226.36965 L 156.63747 226.34071 L 156.69535 225.93556 L 157.18782 226.22495 L 157.07155 229.9317 L 175.14176 230.62675 L 176.87964 194.60208 L 158.66473 194.02278 L 158.2012 200.39397 L 157.70872 200.24928 L 157.59296 199.29326 L 157.10049 199.11963 L 157.44827 194.13905 L 157.88235 193.50188 L 158.11438 192.74896 L 159.73599 192.6332 L 161.12608 192.86471 L 160.66254 183.82961 L 149.89008 177.11115 L 81.663232 171.2035 z M 90.876107 190.14808 L 92.145797 190.5987 L 93.947754 191.29478 L 95.258268 192.31849 L 97.10105 192.35932 L 98.452905 191.78623 L 100.54115 191.0488 L 101.85166 190.84417 L 103.08053 191.17179 L 105.08713 192.40066 L 106.02919 192.85076 L 107.58568 193.01458 L 109.55145 192.07303 L 111.02578 191.29478 L 112.58176 191.37643 L 114.83433 192.6053 L 116.34949 193.30138 L 117.25072 193.62901 L 118.39742 192.97375 L 119.87175 192.03169 L 121.42773 191.99087 L 123.02505 192.48231 L 124.49938 193.46519 L 126.17834 193.99798 L 127.85731 193.54736 L 130.02824 192.48231 L 131.46123 192.52365 L 133.01772 193.42437 L 134.04143 194.48942 L 136.82627 194.98086 L 137.03091 196.0454 L 136.66246 213.73734 L 103.63347 213.47121 L 103.26501 216.11291 L 101.54471 224.54908 L 101.34007 224.32378 L 99.046667 224.36512 L 98.657544 224.54908 L 98.309245 226.35104 L 97.306205 226.33089 L 96.957906 221.49811 L 97.183215 221.35496 L 96.834916 219.30703 L 96.118164 219.22538 L 95.258268 219.22538 L 94.664506 219.00007 L 93.845435 218.95924 L 92.719405 218.93857 L 91.818168 219.00007 L 91.019767 218.77476 L 89.832243 218.65177 L 89.565592 219.02074 L 88.624048 219.08172 L 88.275749 218.81558 L 87.231368 218.85693 L 87.722811 191.49942 L 88.378068 191.0488 L 89.524768 190.55736 L 90.876107 190.14808 z M 154.05985 192.05391 L 154.17612 193.84915 L 154.34975 194.19693 L 152.72815 229.46816 L 152.38036 229.87382 L 152.20673 231.26392 L 148.32635 229.75807 L 148.4421 227.67292 L 147.97856 224.13981 L 146.87837 219.27499 L 146.18333 216.20541 L 145.48828 214.5838 L 145.08313 214.2939 L 143.40313 214.00451 L 138.65407 213.773 L 139.58063 195.93429 L 139.87053 195.18137 L 141.0286 195.00774 L 142.12931 194.48632 L 142.99799 193.26986 L 143.98243 192.98047 L 145.02474 193.90703 L 146.35696 194.42844 L 147.68918 194.25481 L 147.86281 193.32825 L 148.61573 192.22754 L 149.89008 192.6332 L 150.93239 193.55976 L 152.14885 193.73339 L 153.3648 192.80684 L 154.05985 192.05391 z " /><path
         style="fill:none;fill-opacity:1;stroke:#fb2538;stroke-width:0.499999"
         d="m 126.49142,266.5934 -1.04251,-2.60627 -0.81085,-3.64879 0.6371,-4.45964 1.15834,-3.64879 2.25878,-3.41712 3.12753,-2.95378 2.83795,-1.62169 3.64879,-1.21626 2.95378,-0.0579 3.6488,1.3321 2.89586,1.62168 2.60628,3.9963 1.3321,2.37461 0.57917,2.43253 -0.11583,3.76462 -0.63709,2.54836 -1.27418,3.47504"
         id="path7" /></g><path
       style="fill:#a9aaad;fill-opacity:1;stroke:#4fc4f8;stroke-width:0.499999;stroke-opacity:1"
       d="m 172.74282,122.66665 0.0819,-0.34811 0.25596,-0.11262 0.32763,-0.1331 0.44025,0.041 0.52216,0.19453 0.38906,0.47096 0.51192,0.55288 0.28668,0.46073 0.21501,0.16381 0.41977,0.0922 0.62455,-0.0717 0.28667,-0.27644 0.24572,-0.15357 0.47097,-0.56312 0.27644,-0.23548 0.63478,-0.73717 0.64502,-0.92146 0.5324,-0.63478 0.32763,-0.56311 0.46073,-0.5324 0.9317,-0.69622 1.17742,-0.64502 3.26606,-1.31052 4.87349,-2.11935 -0.25596,0.67573 2.43675,-0.55287 1.56648,-0.36858 0.10238,0.0614 -0.19453,0.23548 -1.78148,0.94194 0.0614,0.20477 0.90098,-0.13311 0.33787,0.0512 -0.35835,0.41977 -1.17742,0.59383 -0.23548,0.0717 0.15357,0.16382 h 0.68598 l -0.041,0.35834 -0.39929,0.30715 -0.81908,0.43002 -0.12286,0.14334 0.57335,0.0102 -0.0614,0.44025 -0.27644,0.41977 -0.73716,0.32763 0.0102,0.10239 0.27644,0.23548 -0.0717,0.46073 -0.5324,0.33787 -0.63478,0.31739 0.16381,0.14334 v 0.43001 l -0.45049,0.41978 -0.43001,0.22524 -0.28668,0.0307 -0.0205,0.49144 -0.29691,0.40954 -0.43002,0.11262 -0.3481,0.14334 -0.11262,0.37882 -0.3174,0.35835 -0.41977,0.0512 -0.45049,-0.041 -0.0922,-0.16382 0.11262,0.56312 -0.27643,0.31739 -0.10239,0.22524 h -0.29691 l 0.0102,0.32763 -0.1843,0.22525 -0.10238,0.18429 -0.28668,0.0409 -0.14334,0.34811 -0.17405,0.29692 -0.30715,0.15357 -0.16382,0.24572 -0.041,0.24573 -0.33787,0.11262 -0.15358,-0.10239 -0.215,0.44026 -0.17406,0.31739 -0.37882,0.0614 -0.10238,-0.0409 -0.15358,0.28667 -0.17405,0.28668 -0.2662,0.10238 -0.48121,-0.10238 0.0307,0.27643 -0.45049,0.14334 -0.28668,-0.0512 -0.16381,0.0512 0.0717,0.23549 -0.27644,0.12286 -0.16382,0.0409 0.17406,0.54264 0.68597,0.7474 0.38906,0.41978 3.79846,2.52889 0.20477,0.3993 0.30715,0.24572 -0.0819,0.27644 -0.15357,0.22525 -0.1331,0.29691 0.0307,0.19453 -0.16381,0.14334 -0.36859,-0.1331 -0.215,0.12286 -0.41978,-0.0614 -0.37882,-0.25596 h -0.35834 l -0.11263,0.12286 0.43002,0.71669 0.16381,0.61431 -0.23548,0.51192 -0.30716,0.0717 -0.24572,0.20477 -0.5324,0.0205 -0.56311,-0.17406 -0.20477,0.33787 -0.62454,0.29691 -0.45049,0.0819 -0.68598,-0.17405 -0.30715,-0.22525 -0.2662,-0.49144 -0.1331,-0.19453 -0.37882,0.24572 -0.43002,0.17406 -0.47097,0.17405 -0.24572,-0.25596 -0.41977,-0.0102 -0.30716,-0.1331 -0.24572,-0.17406 -0.0512,-0.46073 0.0102,-1.546 0.0307,-0.90098 -0.0512,-1.51529 0.0205,-0.15358 -0.31739,-0.10238 -0.35835,-0.25596 -0.25596,-0.21501 -0.0307,0.32763 -0.56312,0.18429 -0.35834,0.0102 v 0.23549 l -0.19453,0.16381 -0.41978,0.0102 -0.32763,0.041 -0.041,0.22524 -0.45049,0.0307 -0.2662,-0.0102 -0.0717,0.18429 -0.19453,0.10238 -0.35834,0.0102 -0.29692,-0.0512 h -0.28668 l -0.0921,0.23549 -0.50168,-0.0307 -0.35835,0.0512 -0.12286,0.18429 -0.5324,0.0819 -0.32763,-0.12286 -0.33787,0.25596 -0.15357,0.34811 -0.36859,0.22524 -0.54263,0.0205 -0.29692,-0.0102 -0.31739,0.29691 -0.54264,0.11263 -0.17405,-0.0819 -0.23548,0.0102 -0.33787,0.35834 -0.46073,0.16382 h -0.38906 l -0.21501,-0.1331 -0.041,-0.29691 -0.58359,0.4812 -0.56312,0.23549 -0.44025,-0.0307 -0.18429,-0.23548 -0.29692,0.24572 -0.65526,0.18429 -0.31739,-0.20477 0.0102,-0.35834 -0.0205,-0.19454 -0.27643,0.29692 -0.67574,0.28668 -0.45049,0.0819 -0.29692,-0.14333 0.1843,-0.3174 -0.11263,-0.10238 -0.27644,0.15358 -0.43001,0.30715 -0.59383,0.2662 -0.37882,0.11262 0.0307,-0.21501 0.20476,-0.2662 0.0819,-0.18429 -0.16381,-0.0717 -0.36859,0.30716 -0.50168,0.20477 -0.46073,0.17405 -0.23548,0.0819 0.0921,-0.21501 0.77812,-0.92146 0.68598,-0.94193 0.0717,-0.21501 h -0.34811 l -0.46073,0.12286 -0.38906,-0.0205 3.37868,-2.76438 1.92483,-1.75077 0.62454,-0.54264 0.73717,-0.52216 0.87027,-0.53239 1.33099,-0.5324 0.52216,-0.20477 0.95218,-0.2662 0.62454,0.0717 0.87027,-0.20477 0.72693,-0.16381 0.55287,-0.13311 0.5324,-0.0512 0.0922,-0.0409 -0.17406,-0.75764 -0.0717,-0.35835 0.0512,-0.5324 -0.20477,-0.3993 -0.17406,-0.25596 -0.22524,-0.0102 -0.28668,0.0205 -0.0717,-0.12286 0.1331,-0.19453 0.0717,-0.17405 0.21501,-0.10239 0.0409,-0.14334 0.1331,-0.0921 z"
       id="path8"
       inkscape:label="Bird"
       inkscape:export-filename="bird.png"
       inkscape:export-xdpi="96"
       inkscape:export-ydpi="96" /><g
       id="g164"
       inkscape:label="Bench"
       inkscape:export-filename="park_bench.png"
       inkscape:export-xdpi="96"
       inkscape:export-ydpi="96"><path
         id="path9"
         style="fill:#ff821a;fill-opacity:1;stroke:#444849;stroke-width:0.499999;stroke-opacity:1"
         d="M 12.799736 31.99908 L 12.191504 32.520496 L 11.786361 33.244482 L 11.959993 34.142102 L 12.162565 34.952905 L 12.857613 35.24281 L 13.187309 36.285124 L 13.596586 38.414709 L 14.415658 41.281201 L 14.825452 44.14821 L 15.15308 47.424495 L 15.15308 50.209338 L 15.15308 55.205416 L 14.415658 57.66263 L 14.170194 61.10273 L 14.088029 64.624996 L 13.842566 65.116439 L 13.432772 65.771696 L 14.497823 66.344788 L 15.644523 66.426953 L 16.872872 66.344788 L 16.709058 65.525716 L 16.29978 65.034273 L 16.29978 63.314482 L 16.217615 61.594173 L 16.381429 59.95603 L 16.791223 58.317887 L 17.282666 58.072424 L 17.937923 58.80933 L 18.756995 60.447473 L 19.002458 61.512524 L 19.657715 61.840153 L 20.149158 61.512524 L 20.722766 61.34871 L 21.541838 62.986853 L 22.278743 64.952625 L 21.951115 67.246025 L 21.541838 67.819116 L 21.214209 68.638188 L 22.524723 68.802002 L 23.916886 69.047982 L 25.145752 68.556539 L 24.572144 67.573653 L 24.408329 66.017159 L 23.671423 62.740873 L 23.507609 61.266545 L 23.507609 58.973145 L 23.916886 56.679744 L 24.080701 54.959953 L 23.425444 51.92913 L 23.999052 51.519853 L 23.753072 50.78243 L 73.470968 49.226453 L 73.634782 49.471916 L 73.307153 52.17511 L 72.651896 54.46851 L 72.160453 57.007373 L 72.078288 59.300773 L 71.996639 61.34871 L 71.505196 62.085616 L 72.242102 62.167782 L 72.897359 62.413245 L 74.371688 62.49541 L 75.354574 62.331596 L 74.945296 61.840153 L 74.453853 60.857267 L 74.044059 59.05531 L 74.371688 57.089539 L 75.026945 55.779024 L 75.764368 55.041602 L 77.074882 55.041602 L 78.221582 55.860673 L 79.613745 57.417167 L 79.941374 58.154073 L 80.678796 58.481702 L 81.416219 58.317887 L 81.825496 57.826444 L 82.644568 58.154073 L 84.037248 58.80933 L 84.774154 59.95603 L 85.593225 62.003967 L 85.183948 63.150667 L 84.446525 64.297367 L 84.937968 64.461182 L 85.839205 64.952625 L 87.149719 64.870459 L 88.378068 65.034273 L 88.951676 64.54283 L 88.378068 64.133553 L 88.132605 62.577059 L 87.641162 60.119845 L 86.985905 58.400053 L 87.231368 56.843559 L 87.804976 54.713973 L 87.802393 53.42878 L 87.860787 51.575146 L 87.310433 49.490519 L 86.644324 48.100423 L 85.254228 46.565633 L 85.717765 46.131034 L 86.557507 45.088721 L 87.281494 43.669686 L 87.426188 41.179399 L 86.73114 39.267887 L 85.775643 37.646281 L 83.372172 36.661845 L 82.12677 36.806539 L 80.736674 37.124866 L 79.375517 38.225574 L 78.043815 39.21001 L 77.261951 39.876119 L 76.305937 39.644609 L 75.668766 39.470459 L 74.771147 38.659656 L 74.250248 36.545573 L 73.14954 33.621204 L 72.396615 32.288985 L 71.354301 32.202169 L 70.688192 32.549434 L 70.253593 33.099788 L 37.472648 33.157666 L 14.566036 33.389176 L 14.131954 32.955094 L 13.697355 32.202169 L 12.799736 31.99908 z M 82.235291 37.759452 L 83.136011 37.882442 L 84.405701 38.578524 L 85.306421 39.806873 L 85.757039 41.322542 L 85.797864 42.87852 L 85.224772 44.189034 L 84.937968 43.042334 L 84.405701 42.182438 L 83.627454 42.141614 L 82.808382 42.633057 L 82.153125 43.779757 L 82.276115 45.008105 L 82.972196 45.868001 L 81.825496 46.19563 L 77.484676 46.482434 L 77.361686 45.581714 L 77.934778 43.165324 L 79.204468 40.58512 L 80.269519 38.906152 L 81.538692 38.087081 L 82.235291 37.759452 z M 75.191276 41.322542 L 76.951892 41.568005 L 76.419625 42.633057 L 75.805192 44.721301 L 75.723543 43.452128 L 75.191276 41.322542 z M 83.054362 48.980473 L 83.750444 49.594906 L 84.856319 49.717896 L 84.937968 49.922534 L 85.388586 51.356038 L 85.101782 53.4448 L 84.364876 54.713973 L 83.299825 55.7382 L 81.620858 56.188302 L 80.965601 55.983663 L 80.514982 55.942839 L 79.94189 55.410571 L 78.713025 53.649438 L 77.976119 52.338924 L 77.484676 50.823771 L 77.279521 49.471916 L 78.385396 49.349443 L 79.409106 49.103463 L 83.054362 48.980473 z M 75.477563 50.496143 L 76.091996 52.912016 L 74.945296 53.07583 L 75.027462 52.2981 L 75.477563 50.496143 z M 21.009054 50.741606 L 21.459672 52.420573 L 21.664311 54.632324 L 21.336682 56.475106 L 20.76359 58.686857 L 20.149158 59.096134 L 19.780705 58.523043 L 18.961633 56.966549 L 18.634005 55.36923 L 17.937923 52.953357 L 17.937923 51.315214 L 18.347201 51.1514 L 18.920809 51.356038 L 19.657715 50.946244 L 20.476786 50.987585 L 21.009054 50.741606 z " /><path
         style="fill:none;fill-opacity:1;stroke:#444849;stroke-width:0.499999;stroke-opacity:1"
         d="m 85.080537,56.831367 -0.463338,0.289586 0.0724,0.405421 0.361985,0.23167 z"
         id="path15" /><path
         style="fill:none;fill-opacity:1;stroke:#444849;stroke-width:0.499999;stroke-opacity:1"
         d="m 14.508288,33.621003 0.463338,1.766478 0.608132,3.185451 0.347504,1.447935 0.521256,0.318545 0.579173,-0.897721 0.63709,-1.534808 0.637091,-0.781884 1.158346,-0.376462 1.592727,0.231669 0.579172,1.216263 0.637091,1.158346 0.347504,2.316694 0.318545,1.911271 -0.260628,1.969188 -0.376462,1.303142 -0.43438,0.752924 0.608132,0.723966 0.781883,1.100429 0.23167,0.926677 0.144793,0.376462"
         id="path16" /><path
         style="fill:none;fill-opacity:1;stroke:#444849;stroke-width:0.499999;stroke-opacity:1"
         d="m 20.155226,47.318448 -0.463339,-1.013553 -0.115834,-1.390017 0.08688,-1.216263 0.347504,-0.781884 0.723966,-0.08688 0.550215,0.521256 0.115834,-0.955636 -0.405421,-1.969187 -0.550214,-1.534811 -0.66605,-0.723966 -0.63709,0.05792 -0.608132,1.505852 -0.347504,1.766477 -0.289586,2.606279 -0.289587,2.113983 0.02896,1.332098 0.231669,0.897718 0.43438,-0.02896 1.042512,-0.752924 0.434379,-0.260628 z"
         id="path17" /></g><g
       id="g27"
       inkscape:label="Bike"
       inkscape:export-filename="bike.png"
       inkscape:export-xdpi="96"
       inkscape:export-ydpi="96"><g
         id="g66"
         inkscape:label="Wheel"
         style="display:inline"><path
           id="path27"
           style="fill:#4d32e2;fill-opacity:1;stroke:#fb2538;stroke-width:0.499999"
           d="m 131.53047,-57.280225 -3.3016,0.347266 -2.83807,0.695048 -3.59048,1.390096 -2.54868,1.679484 -2.7218,2.953825 -1.3901,2.606559 -1.50585,3.474724 -0.63717,2.838069 -0.28939,2.43241 0.11576,2.953825 0.63717,2.258777 0.57877,2.085144 1.10071,2.780192 1.62161,1.910994 1.85312,2.143022 2.43292,1.447973 2.77968,1.332219 3.24373,1.332218 4.11189,0.578776 3.76463,-0.405143 4.63331,-1.737362 2.02726,-1.216463 3.24322,-2.722314 2.89594,-3.996139 1.33222,-3.243213 0.75293,-3.011702 0.11575,-3.24373 -0.75292,-4.111893 -1.04232,-3.243213 -2.02726,-2.953825 -2.89595,-3.185336 -3.64887,-2.143021 -3.82251,-1.390096 z m -2.01434,2.402438 3.01015,0.163814 3.01015,0.491443 2.68252,0.962215 2.47737,1.351339 2.12959,1.822628 2.04793,2.129585 1.1467,2.477885 1.12603,2.764173 0.3483,2.641699 0.0615,2.887162 -0.42995,2.784843 -1.1467,2.682524 -1.37201,2.334224 -2.02727,2.150256 -2.15025,1.945101 -2.62103,1.392163 -2.5802,0.982886 -2.88717,0.389124 -1.02371,0.08217 0.0207,-0.593762 -0.0207,-0.696598 -0.26613,-0.245463 -0.28681,0.306958 0.10232,1.29036 -1.31051,-0.08216 -2.805,-0.655258 -2.60087,-0.880566 -2.47737,-1.412834 -2.2934,-1.761132 -1.80196,-2.108916 -1.35185,-2.436543 -0.81907,-2.437061 -0.49145,-2.948657 -0.0817,-3.112472 0.65526,-2.457214 0.73691,-2.538863 1.72031,-2.784843 2.62102,-3.112472 3.5016,-2.027266 2.68252,-1.085205 z" /><path
           style="fill:#4d32e2;fill-opacity:1;stroke:#fb2538;stroke-width:0.499999"
           d="m 124.76553,-50.803098 0.36858,0.552874 2.3958,-0.12286 0.7986,-0.430014 2.49817,-0.778121 0.0819,-0.675738 -3.15344,0.204769 z"
           id="path29" /><path
           style="fill:none;fill-opacity:1;stroke:#fb2538;stroke-width:0.499999"
           d="m 132.32149,-22.85218 -0.12286,-14.251896"
           id="path31" /><path
           style="fill:none;fill-opacity:1;stroke:#fb2538;stroke-width:0.499999"
           d="m 135.18825,-23.425532 -3.03057,-14.169989"
           id="path32" /><path
           style="fill:none;fill-opacity:1;stroke:#fb2538;stroke-width:0.499999"
           d="m 137.80929,-24.326514 -7.33071,-13.391869"
           id="path33" /><path
           style="fill:none;fill-opacity:1;stroke:#fb2538;stroke-width:0.499999"
           d="m 140.14365,-25.677987 -9.25554,-12.081351"
           id="path34" /><path
           style="fill:none;fill-opacity:1;stroke:#fb2538;stroke-width:0.499999"
           d="M 142.51897,-27.520905 131.91196,-39.110808"
           id="path35" /><path
           style="fill:none;fill-opacity:1;stroke:#fb2538;stroke-width:0.499999"
           d="m 144.23903,-29.44573 -12.20421,-9.378402"
           id="path36" /><path
           style="fill:none;fill-opacity:1;stroke:#fb2538;stroke-width:0.499999"
           d="M 145.63145,-31.780093 130.1919,-37.636476"
           id="path37" /><path
           style="fill:none;fill-opacity:1;stroke:#fb2538;stroke-width:0.499999"
           d="m 146.81911,-34.48304 -15.07097,-3.399157"
           id="path38" /><path
           style="fill:none;fill-opacity:1;stroke:#fb2538;stroke-width:0.499999"
           d="M 147.39246,-37.145031 131.2567,-39.151763"
           id="path39" /><path
           style="fill:none;fill-opacity:1;stroke:#fb2538;stroke-width:0.499999"
           d="m 147.14674,-39.970839 -16.25863,0.450493"
           id="path40" /><path
           style="fill:none;fill-opacity:1;stroke:#fb2538;stroke-width:0.499999"
           d="m 146.94197,-42.632831 -14.98906,5.242079"
           id="path41" /><path
           style="fill:none;fill-opacity:1;stroke:#fb2538;stroke-width:0.499999"
           d="m 145.83622,-45.417684 -14.25189,7.207856"
           id="path42" /><path
           style="fill:none;fill-opacity:1;stroke:#fb2538;stroke-width:0.499999"
           d="m 144.64856,-47.833954 -13.47377,8.641236"
           id="path43" /><path
           style="fill:none;fill-opacity:1;stroke:#fb2538;stroke-width:0.499999"
           d="m 142.76469,-50.045455 -12.24516,10.402247"
           id="path44" /><path
           style="fill:none;fill-opacity:1;stroke:#fb2538;stroke-width:0.499999"
           d="m 140.43033,-51.806466 -8.06788,13.842362"
           id="path45" /><path
           style="fill:none;fill-opacity:1;stroke:#fb2538;stroke-width:0.499999"
           d="m 137.93215,-53.035078 -6.14306,14.456667"
           id="path46" /><path
           style="fill:none;fill-opacity:1;stroke:#fb2538;stroke-width:0.499999"
           d="m 135.35207,-54.386551 -4.58682,15.030019"
           id="path47" /><path
           style="fill:none;fill-opacity:1;stroke:#fb2538;stroke-width:0.499999"
           d="m 132.52626,-54.550365 -2.66199,15.890047"
           id="path48" /><path
           style="fill:none;fill-opacity:1;stroke:#fb2538;stroke-width:0.499999"
           d="m 129.45473,-54.755134 2.78485,15.521464"
           id="path49" /><path
           style="fill:none;fill-opacity:1;stroke:#fb2538;stroke-width:0.499999"
           d="m 126.75179,-54.181782 5.28303,15.480509"
           id="path50" /><path
           style="fill:none;fill-opacity:1;stroke:#fb2538;stroke-width:0.499999"
           d="m 124.04884,-53.157937 5.77448,13.678543"
           id="path51" /><path
           style="fill:none;fill-opacity:1;stroke:#fb2538;stroke-width:0.499999"
           d="m 121.34589,-51.929326 9.70604,12.286118"
           id="path52" /><path
           style="fill:none;fill-opacity:1;stroke:#fb2538;stroke-width:0.499999"
           d="m 119.54393,-49.922593 11.79467,9.951754"
           id="path53" /><path
           style="fill:none;fill-opacity:1;stroke:#fb2538;stroke-width:0.499999"
           d="m 117.90578,-47.629185 13.14615,7.658346"
           id="path54" /><path
           style="fill:none;fill-opacity:1;stroke:#fb2538;stroke-width:0.499999"
           d="m 116.22668,-45.294822 14.29285,7.658346"
           id="path55" /><path
           style="fill:none;fill-opacity:1;stroke:#fb2538;stroke-width:0.499999"
           d="m 114.99807,-42.796645 16.50435,5.242076"
           id="path56" /><path
           style="fill:none;fill-opacity:1;stroke:#fb2538;stroke-width:0.499999"
           d="m 114.87521,-39.76607 15.93099,0.450493"
           id="path57"
           sodipodi:nodetypes="cc" /><path
           style="fill:none;fill-opacity:1;stroke:#fb2538;stroke-width:0.499999"
           d="m 114.87521,-36.940262 15.56241,-2.375315"
           id="path58" /><path
           style="fill:none;fill-opacity:1;stroke:#fb2538;stroke-width:0.499999"
           d="m 115.36665,-34.40113 15.76719,-2.825808"
           id="path59" /><path
           style="fill:none;fill-opacity:1;stroke:#fb2538;stroke-width:0.499999"
           d="m 116.26763,-31.657231 14.82525,-6.184014"
           id="path60" /><path
           style="fill:none;fill-opacity:1;stroke:#fb2538;stroke-width:0.499999"
           d="m 117.78292,-29.240961 12.36803,-9.378405"
           id="path61" /><path
           style="fill:none;fill-opacity:1;stroke:#fb2538;stroke-width:0.499999"
           d="m 119.54393,-27.070415 11.54895,-13.391867"
           id="path62" /><path
           style="fill:none;fill-opacity:1;stroke:#fb2538;stroke-width:0.499999"
           d="m 121.67352,-25.350357 10.03367,-11.794674"
           id="path63" /><path
           style="fill:none;fill-opacity:1;stroke:#fb2538;stroke-width:0.499999"
           d="m 124.25361,-24.039838 7.20786,-13.63759"
           id="path64" /><path
           style="fill:none;fill-opacity:1;stroke:#fb2538;stroke-width:0.499999"
           d="m 126.83369,-23.220763 3.56298,-14.866203"
           id="path65" /><path
           style="fill:none;fill-opacity:1;stroke:#fb2538;stroke-width:0.499999"
           d="m 129.70045,-22.647411 0.32763,-16.340538"
           id="path66" /><path
           style="fill:#4d32e2;fill-opacity:1;stroke:#fb2538;stroke-width:0.499999"
           d="m 131.08137,-39.572006 0.44886,-0.02896 0.3475,0.05792 0.36198,0.275106 0.23167,0.637093 0.13032,0.535734 -0.15928,0.376462 -0.31854,0.43438 -0.31855,0.08688 -0.8398,0.02896 -0.53573,-0.361981 -0.27511,-0.405421 0.029,-0.550215 0.40542,-0.680529 z"
           id="path30" /></g><g
         id="g105"
         inkscape:label="Wheel"
         transform="translate(-59.423168,0.81084243)"
         style="display:inline"><path
           id="path67"
           style="fill:#4d32e2;fill-opacity:1;stroke:#fb2538;stroke-width:0.499999"
           d="m 131.53047,-57.280225 -3.3016,0.347266 -2.83807,0.695048 -3.59048,1.390096 -2.54868,1.679484 -2.7218,2.953825 -1.3901,2.606559 -1.50585,3.474724 -0.63717,2.838069 -0.28939,2.43241 0.11576,2.953825 0.63717,2.258777 0.57877,2.085144 1.10071,2.780192 1.62161,1.910994 1.85312,2.143022 2.43292,1.447973 2.77968,1.332219 3.24373,1.332218 4.11189,0.578776 3.76463,-0.405143 4.63331,-1.737362 2.02726,-1.216463 3.24322,-2.722314 2.89594,-3.996139 1.33222,-3.243213 0.75293,-3.011702 0.11575,-3.24373 -0.75292,-4.111893 -1.04232,-3.243213 -2.02726,-2.953825 -2.89595,-3.185336 -3.64887,-2.143021 -3.82251,-1.390096 z m -2.01434,2.402438 3.01015,0.163814 3.01015,0.491443 2.68252,0.962215 2.47737,1.351339 2.12959,1.822628 2.04793,2.129585 1.1467,2.477885 1.12603,2.764173 0.3483,2.641699 0.0615,2.887162 -0.42995,2.784843 -1.1467,2.682524 -1.37201,2.334224 -2.02727,2.150256 -2.15025,1.945101 -2.62103,1.392163 -2.5802,0.982886 -2.88717,0.389124 -1.02371,0.08217 0.0207,-0.593762 -0.0207,-0.696598 -0.26613,-0.245463 -0.28681,0.306958 0.10232,1.29036 -1.31051,-0.08216 -2.805,-0.655258 -2.60087,-0.880566 -2.47737,-1.412834 -2.2934,-1.761132 -1.80196,-2.108916 -1.35185,-2.436543 -0.81907,-2.437061 -0.49145,-2.948657 -0.0817,-3.112472 0.65526,-2.457214 0.73691,-2.538863 1.72031,-2.784843 2.62102,-3.112472 3.5016,-2.027266 2.68252,-1.085205 z" /><path
           style="fill:#4d32e2;fill-opacity:1;stroke:#fb2538;stroke-width:0.499999"
           d="m 124.76553,-50.803098 0.36858,0.552874 2.3958,-0.12286 0.7986,-0.430014 2.49817,-0.778121 0.0819,-0.675738 -3.15344,0.204769 z"
           id="path68" /><path
           style="fill:none;fill-opacity:1;stroke:#fb2538;stroke-width:0.499999"
           d="m 132.32149,-22.85218 -0.12286,-14.251896"
           id="path69" /><path
           style="fill:none;fill-opacity:1;stroke:#fb2538;stroke-width:0.499999"
           d="m 135.18825,-23.425532 -3.03057,-14.169989"
           id="path70" /><path
           style="fill:none;fill-opacity:1;stroke:#fb2538;stroke-width:0.499999"
           d="m 137.80929,-24.326514 -7.33071,-13.391869"
           id="path71" /><path
           style="fill:none;fill-opacity:1;stroke:#fb2538;stroke-width:0.499999"
           d="m 140.14365,-25.677987 -9.25554,-12.081351"
           id="path72" /><path
           style="fill:none;fill-opacity:1;stroke:#fb2538;stroke-width:0.499999"
           d="M 142.51897,-27.520905 131.91196,-39.110808"
           id="path73" /><path
           style="fill:none;fill-opacity:1;stroke:#fb2538;stroke-width:0.499999"
           d="m 144.23903,-29.44573 -12.20421,-9.378402"
           id="path74" /><path
           style="fill:none;fill-opacity:1;stroke:#fb2538;stroke-width:0.499999"
           d="M 145.63145,-31.780093 130.1919,-37.636476"
           id="path75" /><path
           style="fill:none;fill-opacity:1;stroke:#fb2538;stroke-width:0.499999"
           d="m 146.81911,-34.48304 -15.07097,-3.399157"
           id="path76" /><path
           style="fill:none;fill-opacity:1;stroke:#fb2538;stroke-width:0.499999"
           d="M 147.39246,-37.145031 131.2567,-39.151763"
           id="path77" /><path
           style="fill:none;fill-opacity:1;stroke:#fb2538;stroke-width:0.499999"
           d="m 147.14674,-39.970839 -16.25863,0.450493"
           id="path78" /><path
           style="fill:none;fill-opacity:1;stroke:#fb2538;stroke-width:0.499999"
           d="m 146.94197,-42.632831 -14.98906,5.242079"
           id="path79" /><path
           style="fill:none;fill-opacity:1;stroke:#fb2538;stroke-width:0.499999"
           d="m 145.83622,-45.417684 -14.25189,7.207856"
           id="path80" /><path
           style="fill:none;fill-opacity:1;stroke:#fb2538;stroke-width:0.499999"
           d="m 144.64856,-47.833954 -13.47377,8.641236"
           id="path81" /><path
           style="fill:none;fill-opacity:1;stroke:#fb2538;stroke-width:0.499999"
           d="m 142.76469,-50.045455 -12.24516,10.402247"
           id="path82" /><path
           style="fill:none;fill-opacity:1;stroke:#fb2538;stroke-width:0.499999"
           d="m 140.43033,-51.806466 -8.06788,13.842362"
           id="path83" /><path
           style="fill:none;fill-opacity:1;stroke:#fb2538;stroke-width:0.499999"
           d="m 137.93215,-53.035078 -6.14306,14.456667"
           id="path84" /><path
           style="fill:none;fill-opacity:1;stroke:#fb2538;stroke-width:0.499999"
           d="m 135.35207,-54.386551 -4.58682,15.030019"
           id="path85" /><path
           style="fill:none;fill-opacity:1;stroke:#fb2538;stroke-width:0.499999"
           d="m 132.52626,-54.550365 -2.66199,15.890047"
           id="path86" /><path
           style="fill:none;fill-opacity:1;stroke:#fb2538;stroke-width:0.499999"
           d="m 129.45473,-54.755134 2.78485,15.521464"
           id="path87" /><path
           style="fill:none;fill-opacity:1;stroke:#fb2538;stroke-width:0.499999"
           d="m 126.75179,-54.181782 5.28303,15.480509"
           id="path88" /><path
           style="fill:none;fill-opacity:1;stroke:#fb2538;stroke-width:0.499999"
           d="m 124.04884,-53.157937 5.77448,13.678543"
           id="path89" /><path
           style="fill:none;fill-opacity:1;stroke:#fb2538;stroke-width:0.499999"
           d="m 121.34589,-51.929326 9.70604,12.286118"
           id="path90" /><path
           style="fill:none;fill-opacity:1;stroke:#fb2538;stroke-width:0.499999"
           d="m 119.54393,-49.922593 11.79467,9.951754"
           id="path91" /><path
           style="fill:none;fill-opacity:1;stroke:#fb2538;stroke-width:0.499999"
           d="m 117.90578,-47.629185 13.14615,7.658346"
           id="path92" /><path
           style="fill:none;fill-opacity:1;stroke:#fb2538;stroke-width:0.499999"
           d="m 116.22668,-45.294822 14.29285,7.658346"
           id="path93" /><path
           style="fill:none;fill-opacity:1;stroke:#fb2538;stroke-width:0.499999"
           d="m 114.99807,-42.796645 16.50435,5.242076"
           id="path94" /><path
           style="fill:none;fill-opacity:1;stroke:#fb2538;stroke-width:0.499999"
           d="m 114.87521,-39.76607 15.93099,0.450493"
           id="path95"
           sodipodi:nodetypes="cc" /><path
           style="fill:none;fill-opacity:1;stroke:#fb2538;stroke-width:0.499999"
           d="m 114.87521,-36.940262 15.56241,-2.375315"
           id="path96" /><path
           style="fill:none;fill-opacity:1;stroke:#fb2538;stroke-width:0.499999"
           d="m 115.36665,-34.40113 15.76719,-2.825808"
           id="path97" /><path
           style="fill:none;fill-opacity:1;stroke:#fb2538;stroke-width:0.499999"
           d="m 116.26763,-31.657231 14.82525,-6.184014"
           id="path98" /><path
           style="fill:none;fill-opacity:1;stroke:#fb2538;stroke-width:0.499999"
           d="m 117.78292,-29.240961 12.36803,-9.378405"
           id="path99" /><path
           style="fill:none;fill-opacity:1;stroke:#fb2538;stroke-width:0.499999"
           d="m 119.54393,-27.070415 11.54895,-13.391867"
           id="path100" /><path
           style="fill:none;fill-opacity:1;stroke:#fb2538;stroke-width:0.499999"
           d="m 121.67352,-25.350357 10.03367,-11.794674"
           id="path101" /><path
           style="fill:none;fill-opacity:1;stroke:#fb2538;stroke-width:0.499999"
           d="m 124.25361,-24.039838 7.20786,-13.63759"
           id="path102" /><path
           style="fill:none;fill-opacity:1;stroke:#fb2538;stroke-width:0.499999"
           d="m 126.83369,-23.220763 3.56298,-14.866203"
           id="path103" /><path
           style="fill:none;fill-opacity:1;stroke:#fb2538;stroke-width:0.499999"
           d="m 129.70045,-22.647411 0.32763,-16.340538"
           id="path104" /><path
           style="fill:#4d32e2;fill-opacity:1;stroke:#fb2538;stroke-width:0.499999"
           d="m 131.08137,-39.572006 0.44886,-0.02896 0.3475,0.05792 0.36198,0.275106 0.23167,0.637093 0.13032,0.535734 -0.15928,0.376462 -0.31854,0.43438 -0.31855,0.08688 -0.8398,0.02896 -0.53573,-0.361981 -0.27511,-0.405421 0.029,-0.550215 0.40542,-0.680529 z"
           id="path105" /></g><g
         id="g111"
         inkscape:label="Frame"><path
           style="fill:none;fill-opacity:1;stroke:#fb2538;stroke-width:0.499999"
           d="m 119.25725,-79.040693 3.39916,1.638149 1.84292,2.006733 1.0648,2.129594 0.40954,1.474332 -0.69622,1.842918 -1.88387,1.556243 -4.05442,2.621039 -4.423,3.112481"
           id="path106" /><path
           style="fill:none;fill-opacity:1;stroke:#fb2538;stroke-width:0.499999"
           d="m 119.2163,-78.917833 5.40589,3.071529 1.47434,2.293411 0.94193,3.030574 0.81908,3.767744 0.16381,2.539129 -0.98289,3.030577 -1.59719,1.474335 -4.3411,2.907713 -2.41627,0.655262 -1.84291,1.638149"
           id="path108" /><path
           style="fill:none;fill-opacity:1;stroke:#fb2538;stroke-width:0.499999"
           d="m 117.04575,-76.911101 2.49818,-1.269564 2.90771,-1.023844 2.58009,-0.65526 1.26956,0.204769 0.65526,1.433381 -0.20476,1.801963 -2.1296,7.371672 -1.59719,6.347828 -0.24572,3.890603"
           id="path107" /><path
           id="path6"
           style="display:inline;fill:#4d32e2;fill-opacity:1;stroke:#fb2538;stroke-width:0.499999"
           d="m 110.36122,-84.515771 -0.68058,0.289388 -0.31832,0.651639 -0.0145,0.723987 0.59376,0.622701 h 0.98444 l 0.91208,0.376205 1.78129,0.478007 1.62161,0.332796 0.28939,0.564823 0.26096,0.188102 -0.4346,0.07286 -0.63717,-0.145211 -0.85421,-0.434082 -0.76739,0.04341 -1.92598,-0.202572 -1.38958,0.07235 -0.85473,-0.130741 -0.28939,0.463537 -0.0868,0.723987 0.44856,0.63717 0.33331,0.07235 0.73845,-0.159163 0.66611,0.289388 1.7229,0.05788 0.75292,-0.04341 0.49248,0.246497 0.0579,0.361735 0.68057,-0.01447 0.0145,-0.463538 0.1447,-0.347266 0.8108,0.07235 0.68058,0.274919 0.26045,0.391191 -0.37621,0.608231 -0.49247,0.361735 -0.42013,0.188103 -0.9555,-0.05788 -0.60823,0.130741 -0.65112,0.318327 -0.37672,0.24598 0.10128,0.420129 0.34778,-0.01447 0.0579,-0.333313 0.37621,-0.23151 0.83974,-0.173633 0.60823,0.188102 -0.66611,1.086239 -0.50643,0.491959 -0.4346,0.289905 0.78187,2.171444 1.33221,3.446301 -0.11575,0.217041 0.10129,0.318843 -0.15917,0.26045 0.1881,0.07235 0.0434,0.376721 -0.23202,0.159163 0.15968,0.188103 0.47749,0.101285 -0.10129,0.709518 -3.98167,6.472473 -3.85144,6.225976 -2.2009,3.141928 -1.70843,1.53479 -9.860376,7.066235 -5.154724,-13.784688 0.202572,-0.130225 -0.26045,-0.564823 -0.130741,0.04393 -3.358968,-8.832536 -0.02894,-0.275436 -0.403076,-0.333313 0.655257,-0.573608 1.1467,-1.638143 2.457214,-1.1467 1.310515,-0.819071 -0.245463,-1.065052 -1.1467,-0.819071 -1.884123,-0.163814 -3.030306,0.573608 -3.112472,0.573092 -2.248441,0.185001 -2.258777,-0.549837 -0.579293,0.593762 0.01447,0.24598 0.289388,2.18643 2.389001,0.767395 0.362252,0.08682 -0.420129,0.521416 0.130224,0.332796 0.550354,0.01447 v 0.188102 l -0.868681,0.304375 0.02894,0.491959 1.462443,2.374532 0.637171,0.0584 0.08682,-0.17415 0.04341,-1.013375 0.666109,1.230933 0.608232,-0.130742 -0.05788,-0.506429 0.303858,-1.144116 0.188102,-0.390674 0.362252,0.477491 0.491959,-0.05788 0.362252,0.217558 0.202572,-0.101803 0.217558,-0.159163 3.286621,8.890413 -0.666109,0.303858 0.101285,0.506945 0.188103,0.173633 0.521415,-0.188102 0.579293,1.491382 -0.333313,0.506946 -9.541537,-5.038969 0.04341,-0.188102 0.65164,-0.101286 0.564307,-0.362252 0.289905,-0.63717 0.173632,-0.89762 -0.217041,-0.564823 h -0.506945 l -1.447974,1.969388 -18.620569,-0.622701 -0.159163,0.217041 0.115755,0.333313 -0.49196,0.01447 -0.08682,2.360062 0.47749,0.173633 0.304374,-0.101286 0.332796,-0.274918 0.05788,-0.144694 -0.101286,-1.925981 3.170866,0.08682 1.462443,3.619934 -1.997811,0.998905 -2.649967,1.680001 -2.070675,2.02675 -1.824178,2.345593 -0.347782,0.420129 -0.361735,0.130225 0.173633,0.434599 -0.66611,1.389579 -0.752925,1.954919 -0.130225,0.810804 0.825273,-0.492477 0.88315,-0.274918 0.521415,-1.433505 0.57981,-1.087789 12.992488,6.020305 -0.306958,0.337964 -0.337964,0.419612 -0.420129,0.614433 -0.112138,0.593762 -0.14366,0.778247 0.0615,0.870231 0.614432,1.156519 0.214974,0.286804 0.02015,0.337964 -0.266133,0.317293 -0.09198,0.604098 0.214974,0.327628 0.286804,0.307475 -0.04082,0.235128 0.06149,0.368453 0.460437,0.102836 0.255799,-0.460954 0.133325,-0.255798 0.194303,-0.266134 0.256315,0.470773 0.890385,-0.184485 0.522449,0.0925 0.01033,0.665075 0.460437,0.460954 0.450619,0.327629 0.348299,0.01034 0.460437,0.01033 0.399459,2.211235 0.552938,0.573608 -0.235645,0.440283 0.409794,0.173633 0.511597,-0.317293 0.778247,0.01034 0.521932,-0.05116 5.262728,-0.01034 12.091768,-0.368453 2.22157,0.266134 1.21853,0.05116 1.617473,-0.368453 1.320848,-1.09554 1.20819,-1.566313 0.38913,-1.075386 0.25579,-1.402498 0.0103,-0.778248 -0.30748,-1.463993 -0.30695,-0.890902 -0.4098,-0.706416 -0.35812,-0.470773 6.73706,-6.644555 0.22531,0.163814 0.35812,-0.04134 0.20464,-0.286288 -0.0713,-0.358634 -0.14366,-0.132809 8.22172,-7.883756 0.21498,0.204639 0.29662,-0.08165 0.14366,-0.24598 -0.10232,-0.481108 2.30322,-2.24224 0.20516,-0.204639 0.36845,0.08165 0.13281,0.429948 0.13332,0.532784 -0.10232,0.327629 -0.39946,0.419612 0.42013,0.12299 0.65526,-0.102319 0.17363,0.542602 -1.58698,1.085206 -1.74046,1.638142 -1.82211,2.108916 -0.96274,1.331185 -1.09554,2.057755 -0.72657,1.996777 -0.59428,1.730127 -0.26613,0.460437 0.0718,0.12299 -0.24546,0.276469 0.16381,0.29714 -0.19482,0.245463 0.10232,0.276469 -0.0408,3.901054 0.36845,-0.0615 0.91157,-0.624769 -0.0718,-0.788065 -0.0103,-1.26969 0.17415,-1.433504 16.95503,3.173966 -0.0413,0.419613 0.37931,0.153996 0.16381,0.143143 0.39894,0.358118 0.48111,0.06149 0.44028,-0.05116 0.28681,-0.276469 0.16381,-0.368453 -0.092,-0.460953 -0.45062,-0.439767 -0.40979,-0.133325 -1.13637,-1.085205 -1.85311,-2.46755 -0.13281,-0.491443 -0.13333,-0.214974 3.26595,-13.576432 0.75758,-0.02015 1.08572,0.12299 0.30696,-0.256315 0.40928,-0.470772 0.12299,-0.225309 -0.34779,-0.10232 -1.92494,-0.12299 0.10232,-0.542602 0.1328,-0.634587 1.7508,-0.12299 0.86041,-0.163814 0.23513,-0.163814 -0.10232,-0.348299 -0.30696,-0.143144 -10.3203,0.634586 h -0.50177 l -0.32763,-0.470772 -0.29714,-1.136365 -0.29662,-0.655257 -0.24598,-0.12299 -0.23513,0.235645 0.0408,0.685746 0.5426,1.361674 0.64493,0.614433 -1.26969,0.942061 -0.63459,0.481108 -0.30851,-0.404627 -1.2454,-3.504178 -1.53479,-3.764629 -1.20148,-3.05511 0.15917,-0.144694 v -0.130225 l 0.14469,-0.260449 -0.28939,-0.05788 h -0.23203 l -0.0723,-0.246496 -0.21704,-0.24598 -0.10129,-0.202572 -0.1881,-0.07235 -1.8247,-4.547009 0.17364,-0.694531 0.42013,-0.593762 0.34726,-0.535885 0.17415,0.04341 -0.27543,0.738456 0.6227,0.130225 0.33331,-0.05788 0.3328,-0.666109 0.21704,-0.767395 -0.0289,-0.723987 1.12965,-1.201477 0.60771,-0.362252 0.40566,-0.04341 0.0145,-0.550354 -0.31833,-0.217041 -0.50694,-0.01447 -0.56483,-0.188102 0.20257,-0.535885 0.27544,-0.463021 0.39067,-0.839742 -0.15916,-0.304374 -0.89762,-0.02894 -0.24598,-0.550354 -1.2454,-0.202571 -0.36225,-0.521416 z m 6.19756,19.184875 2.37453,5.878711 -11.77189,11.366231 -1.07125,-1.12913 -0.11576,-0.289905 1.20148,-1.244885 1.33222,-1.897042 0.39119,-0.08682 0.17363,-0.361735 -0.13023,-0.188619 5.18315,-8.397937 0.36225,0.08682 0.23151,-0.564306 -0.20257,-0.17415 1.70946,-2.905766 z m -51.89296,6.070947 5.467367,0.214974 0.24598,0.389124 6.153112,0.255798 -0.573608,1.791622 -1.392163,-0.286287 -2.989482,-0.286805 -2.856673,0.17415 -2.795178,0.532267 z m 66.46623,0.170016 -0.3545,1.020609 -1.91875,0.166398 -2.49029,0.355017 -1.64382,0.549838 -1.01338,0.326078 -0.23874,-0.781864 0.15193,-0.232028 -0.40566,-0.296622 -0.10129,-0.412378 0.76739,-0.412895 z m -53.053612,1.212329 8.97878,4.975407 -0.90072,0.952396 -0.337964,-0.255798 0.440284,-0.522449 0.01033,-0.317293 -0.266134,-0.214974 -0.460954,0.327629 -0.306958,-0.0615 h -0.337963 l -0.12299,0.306958 0.12299,0.409794 -0.624769,0.235644 -0.716752,-0.645438 -2.006595,-1.453658 -2.569869,-1.423169 -1.423169,-0.624252 z m 52.771452,0.843359 -3.35948,12.799736 -3.57601,-7.210413 0.53537,-0.188619 0.11575,0.260966 1.04283,-0.535884 0.0579,-0.419613 0.10129,-0.260966 -0.30386,-0.303858 -0.4346,-0.318843 0.0434,-0.231511 -0.50695,-1.056783 -0.41961,-1.158585 1.34669,-0.521415 3.05511,-0.622185 z m -59.843371,0.927075 2.635498,0.217041 1.99781,0.303858 -3.923791,13.494783 -1.30328,-0.04341 -5.444112,-12.92996 1.897042,-0.535885 2.084627,-0.419612 z m 5.227071,0.825273 1.346688,0.47749 2.562634,1.187525 2.17196,1.491382 1.158586,1.056783 -1.332219,1.201993 -0.521415,0.376205 -0.303857,-0.07235 -0.434599,0.333313 0.04341,0.173633 -0.04341,0.390673 0.478007,0.593763 0.274919,0.289904 0.188619,-0.15968 0.376204,0.347783 -1.143599,1.071252 -3.89537,3.08405 -3.431315,2.432926 -0.810803,-0.15968 -0.695048,-0.01447 0.23151,-0.448551 -0.188102,-0.304374 z m -11.895398,0.465088 5.447212,12.716536 0.10232,0.819072 -0.24598,0.0615 -13.555762,-6.388758 0.880567,-1.351855 1.1467,-1.372009 1.924947,-1.822111 2.04742,-1.556494 z m 56.868368,0.736389 2.14302,5.603792 1.31723,2.273247 2.91042,3.95273 2.57762,3.344499 -16.97003,-3.301091 0.65164,-1.983858 0.94103,-2.67839 1.07177,-1.752347 1.80971,-2.475818 1.79575,-1.650545 z m -32.795936,1.216463 4.271574,11.178129 -2.533695,-0.07235 -0.304375,-1.115177 -0.767395,-2.389002 -1.53479,-2.8236 -1.433504,-2.056205 0.449068,-0.564307 0.434082,0.101286 0.217558,-0.217041 -0.159163,-0.318843 0.694531,-0.998906 z m -3.344499,3.590996 1.187008,1.592667 1.129647,2.215369 0.969967,2.287716 0.347782,1.244885 -11.236007,-0.173633 3.706751,-2.997233 1.665014,-1.419035 1.433505,-1.78077 z m 20.010145,0.666109 1.28881,1.201477 -0.0289,0.362252 -6.877621,6.544303 -2.056206,-0.839742 -2.186429,-0.274919 2.302185,-1.679484 0.14521,0.26045 0.463021,-0.274919 -0.101286,-0.347782 6.675046,-4.85035 z m -29.50879,7.746297 0.08682,0.47749 0.08682,0.347783 13.393498,0.188102 0.173633,1.375626 -0.08682,1.042314 0.376722,0.04341 -0.01447,0.318844 -15.058512,-1.839164 -0.130225,-0.419613 -0.232027,-0.463538 z m 14.92002,0.971517 2.313554,0.0925 -1.09554,0.90072 -1.07487,1.453658 0.02067,-1.064535 -0.12299,-1.269689 z m -15.904456,2.981213 1.751831,0.24598 -0.04341,0.391191 0.912089,0.173633 -0.01447,-0.521416 9.6144,0.984953 0.05788,0.419613 0.521415,0.07235 0.115755,-0.376205 2.490287,0.347266 0.145211,1.216463 0.347266,1.259872 1.013375,1.780769 0.767395,0.637171 -15.145329,0.419612 0.15968,-0.274918 0.01447,-0.65164 -0.246496,-0.434082 -0.202572,-0.752926 -0.752925,-0.492476 -0.926559,-0.04341 -0.318843,-0.723987 0.01447,-0.564823 -0.332796,-0.65164 -0.680579,-0.593246 -0.506946,-0.333313 0.232028,-0.173632 0.46302,-0.40566 0.188103,-0.535368 z"
           inkscape:label="bike frame" /></g><path
         style="fill:#4d32e2;fill-opacity:1;stroke:#fb2538;stroke-width:0.499999"
         d="m 95.997952,-35.879778 -0.839801,-0.02896 -0.579173,0.347503 -0.144793,0.810843 0.810842,1.447932 1.158346,2.83795 0.695008,1.940229 0.897718,1.853356 0.115834,0.926676 0.173755,0.463338 0.579173,0.405421 0.463338,-0.144793 0.376462,-0.347504 0.05792,-0.868759 -0.43438,-0.89772 -1.12939,-3.156492 -0.955635,-3.011702 -0.723966,-1.998147 z"
         id="path109"
         inkscape:label="pedal spoke" /><path
         style="fill:#4d32e2;fill-opacity:1;stroke:#fb2538;stroke-width:0.499999"
         d="m 100.5155,-26.265503 -0.3475,-0.260627 -1.187305,0.02896 -1.737521,-0.08688 -0.260628,0.202709 -0.347504,0.810843 -0.02896,1.100429 2.808991,0.260628 0.695007,-0.115835 0.60813,-0.897718 z"
         id="path110"
         inkscape:label="pedal" /></g><g
       id="g167"
       inkscape:label="House"
       inkscape:export-filename="house.png"
       inkscape:export-xdpi="96"
       inkscape:export-ydpi="96"><path
         style="fill:#a9aaad;fill-opacity:1;stroke:#fb2538;stroke-width:0.499999"
         d="m 298.62168,159.85179 28.26364,-25.02028 63.94074,10.42512 -0.23166,-116.992979 -164.94853,0.463339 -5.3284,91.04602 65.33074,8.80343 -4.40171,2.3167 -0.23167,2.54836 -59.77068,22.00858 v 5.32839 z"
         id="path111" /><path
         style="fill:none;fill-opacity:1;stroke:#fb2538;stroke-width:0.499999"
         d="m 326.97457,134.73776 -0.0819,-21.13212 -1.22862,-0.24572 -0.40952,-54.796091 -32.51726,7.617394 -0.73719,45.622457 1.55626,0.16381 v 6.88023 l -1.80198,0.65526 -0.24571,3.68583 -4.83254,1.39243 -0.0819,3.76774"
         id="path112" /><path
         style="fill:none;fill-opacity:1;stroke:#fb2538;stroke-width:0.499999"
         d="m 293.39251,118.84772 2.12958,-0.32763 -0.1638,-3.35821 3.93155,-0.81907 0.32763,-3.44012 12.12231,-1.39242 13.43282,0.49144"
         id="path113" /><path
         style="fill:none;fill-opacity:1;stroke:#fb2538;stroke-width:0.499999"
         d="m 326.64693,121.55066 -1.39242,0.81908 0.1638,4.91444 -3.11248,1.96578 0.32764,5.07827 -4.01347,2.53913 0.24572,4.423"
         id="path114" /><path
         style="fill:none;fill-opacity:1;stroke:#fb2538;stroke-width:0.499999"
         d="m 316.4904,109.10073 0.24572,-25.309404 8.60028,-1.064797"
         id="path115" /><path
         style="fill:none;fill-opacity:1;stroke:#fb2538;stroke-width:0.499999"
         d="m 292.98296,66.181223 19.16634,11.057506 13.10521,-2.375315"
         id="path116" /><path
         style="fill:none;fill-opacity:1;stroke:#fb2538;stroke-width:0.499999"
         d="m 280.94257,133.67297 37.75935,7.86311"
         id="path117" /><path
         style="fill:none;fill-opacity:1;stroke:#fb2538;stroke-width:0.499999"
         d="m 286.43037,128.5947 35.87546,5.56971"
         id="path118" /><path
         style="fill:none;fill-opacity:1;stroke:#fb2538;stroke-width:0.499999"
         d="m 286.67609,124.58124 35.30211,4.34109"
         id="path119" /><path
         style="fill:none;fill-opacity:1;stroke:#fb2538;stroke-width:0.499999"
         d="m 291.34482,123.27072 34.15541,3.93156"
         id="path120" /><path
         style="fill:none;fill-opacity:1;stroke:#fb2538;stroke-width:0.499999"
         d="m 291.83626,119.50298 33.0087,2.86676"
         id="path121" /><path
         style="fill:none;fill-opacity:1;stroke:#fb2538;stroke-width:0.499999"
         d="m 295.52209,118.43818 30.79721,2.53913"
         id="path122" /><path
         style="fill:none;fill-opacity:1;stroke:#fb2538;stroke-width:0.499999"
         d="m 295.76781,115.16188 30.79721,1.55624"
         id="path123" /><path
         style="fill:none;fill-opacity:1;stroke:#fb2538;stroke-width:0.499999"
         d="m 299.86319,110.90269 25.30941,1.22861"
         id="path124" /><path
         style="fill:none;fill-opacity:1;stroke:#fb2538;stroke-width:0.499999"
         d="m 221.15013,109.26454 70.60421,2.62104"
         id="path128" /><path
         style="fill:none;fill-opacity:1;stroke:#fb2538;stroke-width:0.499999"
         d="m 325.00879,112.86847 65.19833,2.94867"
         id="path129" /><g
         id="g133"
         inkscape:label="Windows"
         style="fill:#4fc4f8;fill-opacity:1"><path
           style="fill:#4fc4f8;fill-opacity:1;stroke:#fb2538;stroke-width:0.499999"
           d="m 348.43431,50.454993 1.63814,42.264245 40.95375,-1.474332 0.1638,-53.076033 z"
           id="path125" /><path
           style="fill:#4fc4f8;fill-opacity:1;stroke:#fb2538;stroke-width:0.499999"
           d="m 254.73218,72.570006 23.75318,-5.569707 v 29.322868 l -23.42555,1.146704 z"
           id="path126" /><path
           style="fill:#4fc4f8;fill-opacity:1;stroke:#fb2538;stroke-width:0.499999"
           d="m 240.6441,77.156822 -0.81907,21.459754 -13.92427,0.491445 0.98289,-19.166345 z"
           id="path127" /><path
           style="fill:#4fc4f8;fill-opacity:1;stroke:#fb2538;stroke-width:0.499999"
           d="m 228.35798,65.034519 13.26901,-5.405893 1.1467,-20.313049 -13.76045,7.044042 z"
           id="path130" /><path
           style="fill:#4fc4f8;fill-opacity:1;stroke:#fb2538;stroke-width:0.499999"
           d="m 257.68085,30.305758 -0.49144,23.261717 22.60646,-8.846005 -0.16381,-22.934087 z"
           id="path131" /><path
           style="fill:#4fc4f8;fill-opacity:1;stroke:#fb2538;stroke-width:0.499999"
           d="m 296.99643,24.572236 0.32763,13.924268 21.29594,-8.518377 -0.49143,-6.880225 z"
           id="path132" /><path
           style="fill:#4fc4f8;fill-opacity:1;stroke:#fb2538;stroke-width:0.499999"
           d="m 238.84214,26.210386 -8.84601,5.405891 0.65526,-7.37167 8.51838,-3.767743 z"
           id="path133" /></g></g><g
       id="g162"
       inkscape:label="Path to horizon"
       inkscape:export-filename="path_to_horizon.png"
       inkscape:export-xdpi="96"
       inkscape:export-ydpi="96"><path
         style="display:inline;fill:#48cc7a;fill-opacity:1;stroke:#fb2538;stroke-width:0.499999"
         d="m -228.19423,53.052262 13.20515,-0.231669 9.96178,0.926677 29.65367,-0.463339 14.82683,-1.621684 h 28.49532 l 27.1053,0.695008 16.680189,-1.158346 11.815133,0.695007 11.815132,0.23167 11.583464,-0.926677 h 12.51014 l 9.498441,0.231669 0.231669,108.884552 -193.675508,-3.93838 z"
         id="path135" /><path
         style="display:inline;fill:#444849;fill-opacity:1;stroke:#fb2538;stroke-width:0.499999"
         d="m -143.86662,158.28803 -21.0819,-16.27477 -12.74181,-7.64509 -3.0117,-6.48674 8.57176,-7.64508 28.49532,-8.57176 14.13183,-6.0234 5.32839,-6.486743 -0.46334,-7.181749 -8.80343,-2.78003 -9.49844,-1.390015 -6.48674,-1.390018 -2.08502,-2.78003 5.79173,-3.011702 18.30187,-3.011699 14.82684,-3.243371 2.31669,-2.54836 -5.09672,-1.621685 -9.73011,-0.695007 -8.57177,-0.926679 -4.63338,-1.621685 -0.23167,-1.621684 2.08502,-2.316691 1.85336,-2.780033 0.46334,-2.78003 1.62168,-3.243371 0.92668,-3.47504 1.85335,0.69501 -0.69501,2.78003 -1.39001,2.780033 -1.39002,2.78003 0.69501,1.621684 -2.08502,3.011702 0.46334,2.316691 5.56006,1.390015 11.35179,0.92668 h 6.95008 l 5.09672,2.316691 1.15835,2.548361 -6.48674,2.085025 -12.74181,2.78003 -9.0351,2.085025 -6.95008,1.158346 -1.39002,3.243368 7.87676,1.158346 15.29017,2.548364 8.10843,1.390015 7.87675,7.876754 0.69501,6.023402 -4.40172,6.25507 -9.73011,6.25507 -3.24337,3.70671 4.86506,4.17005 13.900154,5.32839 22.935258,3.70671 17.838533,3.0117 15.98518,5.79173 7.645085,2.78003 2.085023,2.31669 3.706709,5.56007 -1.212147,7.66155 z"
         id="path134"
         sodipodi:nodetypes="cccccccccccccccccccccccccccccccccccccccccccccccccccccccccccccc" /><path
         style="display:inline;fill:none;fill-opacity:1;stroke:#fb2538;stroke-width:0.499999"
         d="m -227.15172,86.065131 6.60258,-0.810842 27.68448,-0.926676 18.4177,-0.463339 12.62598,-1.042511 6.0234,0.695008 2.20086,-1.737519 4.86505,-0.810842 2.54836,-0.115835"
         id="path136" /><path
         style="display:inline;fill:none;fill-opacity:1;stroke:#fb2538;stroke-width:0.499999"
         d="m -134.25234,81.547583 h 3.12754 l 1.73751,2.200857 5.09673,2.085022 10.54095,0.810845 17.143526,1.042511 14.363494,0.926677 13.089313,0.810842 8.571764,0.695007 15.29017,0.810842 7.645088,-0.231669 h 6.834243"
         id="path137" /><path
         style="display:inline;fill:none;fill-opacity:1;stroke:#fb2538;stroke-width:0.499999"
         d="m -30.927847,105.17785 -6.602573,1.04251 -10.193449,1.96919 -21.197739,1.27418 -14.131824,0.23167 -11.583464,1.04251 -11.467624,2.6642 -4.28588,0.3475"
         id="path138" /><path
         style="display:inline;fill:none;fill-opacity:1;stroke:#fb2538;stroke-width:0.499999"
         d="m -227.15172,116.52964 5.09673,-4.74922 c 0,0 11.46763,-5.56006 11.93097,-5.44423 0.46333,0.11584 9.15093,-0.92667 9.15093,-0.92667 l 16.10102,-0.57918 c 0,0 18.76521,-1.15834 19.22854,-1.04251 0.46334,0.11583 13.66849,-2.54836 13.66849,-2.54836 l 7.64509,-4.517552 4.98089,-4.980889 0.11583,-2.085023 -8.57176,-0.695007 -7.29758,-1.969188 -2.78003,-0.69501 1.27418,-2.548361"
         id="path139" /><path
         style="display:inline;fill:none;fill-opacity:1;stroke:#fb2538;stroke-width:0.499999"
         d="m -94.173557,110.50624 5.907566,-4.40172 0.463338,-5.32839 -4.05421,-6.370903 -9.845947,-3.127537 -4.17005,-1.621684 -9.0351,-1.853353 -6.95007,-0.463339 -6.48674,-1.274183 -6.71841,-1.042511 -2.43253,-1.27418 0.3475,-2.200857"
         id="path140" /><path
         style="display:inline;fill:none;fill-opacity:1;stroke:#fb2538;stroke-width:0.499999"
         d="m -227.73089,102.28198 11.12013,-0.23167 16.91185,-0.23167 15.0585,-1.15834 15.29018,0.695 11.58346,-0.92667 7.64509,-0.463341"
         id="path150" /><g
         id="g166"
         style="display:inline"><path
           style="fill:#444849;fill-opacity:1;stroke:#fb2538;stroke-width:0.499999"
           d="m -227.73089,76.798362 c 0,0 5.09673,0.810842 5.79173,0.810842 0.69501,0 14.47933,-0.926676 14.47933,-0.926676 l 16.44852,-1.969188 14.94267,-1.274183 1.96919,-1.274181 -0.11584,-4.517551 -3.3592,-0.115835 -2.20086,2.316695 -2.54836,-1.274183 -3.93838,0.231671 -0.81084,1.50585 -1.62169,-1.390015 -4.98089,0.810842 -2.78003,2.664195 -3.12753,-1.158345 -2.3167,-0.23167 -3.7067,0.463339 -1.15835,0.926676 -3.0117,-1.042511 -3.12754,0.463339 -1.15834,1.042511 -1.85336,-1.737519 -5.56006,-0.115835 h -3.24337 l -3.24337,0.579173 z"
           id="path141" /><path
           style="fill:#444849;fill-opacity:1;stroke:#fb2538;stroke-width:0.499999"
           d="m -208.73401,84.675116 4.28588,-3.590872 3.0117,-2.664198 6.13924,-1.27418 4.51755,-0.347504 4.86505,-1.042511 4.63339,2.432526 4.28588,0.347504 0.92668,1.27418 2.43253,-2.895864 7.18174,-1.737519 5.90757,0.463338 -0.23167,-2.895867 4.05421,2.895867 0.34751,3.475038 2.54836,1.505852 -1.04251,1.621684 -3.35921,0.926677 -5.44423,-0.347504 -14.36349,1.27418 -13.90016,-0.115834 -12.16263,0.695007 z"
           id="path142" /><path
           style="fill:#444849;fill-opacity:1;stroke:#fb2538;stroke-width:0.499999"
           d="m -147.92083,80.2734 -0.81084,-2.78003 1.62168,-2.085023 2.6642,-1.042514 3.47504,0.463341 2.89587,1.50585 1.73752,1.853353 -1.50585,0.926677 -7.06592,1.158346 z"
           id="path143" /><path
           style="fill:#444849;fill-opacity:1;stroke:#fb2538;stroke-width:0.499999"
           d="m -119.19384,85.833462 -0.46334,-1.737519 0.81085,-2.895864 1.85335,0.695007 3.24337,-2.316694 0.3475,4.054213 3.47504,-1.505849 5.21256,-0.347504 3.70671,-1.042511 3.359205,-0.347507 1.969188,1.853356 4.98089,-1.621684 5.560062,0.579173 0.579173,3.011699 0.231669,3.011702 -1.505849,1.27418 -17.606868,-1.390015 -10.88845,-0.926679 z"
           id="path144" /><path
           style="fill:#444849;fill-opacity:1;stroke:#fb2538;stroke-width:0.499999"
           d="m -81.084244,88.49766 -1.042512,-3.243371 -1.158345,-3.243368 1.853353,-1.737521 h 1.737521 l 1.042512,-1.737519 2.316691,-0.347504 -0.695007,-2.085022 1.27418,-0.695008 -0.463338,-3.243371 1.621684,-1.390015 1.737521,-1.158346 0.579173,-1.158348 2.200857,0.579176 0.810842,1.505849 0.115835,-2.432529 2.432529,0.579176 1.621684,3.475037 3.011702,0.115835 3.822541,1.27418 2.432529,2.432529 2.548361,3.127534 2.432526,1.505852 -0.579173,3.822541 -1.853353,2.20086 -3.243369,-1.274183 1.621684,1.853356 -1.737518,1.737519 -2.20086,1.158345 z"
           id="path145" /><path
           style="fill:#444849;fill-opacity:1;stroke:#fb2538;stroke-width:0.499999"
           d="m -50.735571,90.582683 2.548364,-2.548361 2.432526,-3.938379 4.401717,1.042512 3.47504,-0.115835 3.127534,-1.390015 2.085025,0.926677 1.737518,0.231669 0.115835,6.023401 -4.517551,-0.347504 -8.455927,0.579173 z"
           id="path146" /><path
           style="fill:#444849;fill-opacity:1;stroke:#fb2538;stroke-width:0.499999"
           d="m -32.665365,67.879094 -26.294464,-1.969188 -7.065912,-1.621684 -7.760919,0.231669 -7.065915,-0.463338 -7.297581,0.115834 -7.065913,-0.579172 -5.675901,-0.810843 2.085027,-0.46334 1.158348,-1.737519 3.359203,0.231669 1.853356,0.579173 0.463338,2.432529 h 2.664196 l 0.231669,-2.548364 2.316691,-0.695007 3.243371,0.926676 1.737519,2.20086 1.390018,-0.347504 0.695007,-1.390017 1.969188,-0.926677 2.200857,0.810842 1.042514,1.621687 2.432526,0.115835 3.127534,-2.085026 3.011702,0.810843 0.115834,1.274183 1.969188,-0.115835 1.737522,-1.505852 1.969188,0.810844 1.390015,3.0117 1.969187,-0.463339 0.695011,-1.969188 4.633383,0.115835 1.621687,1.50585 2.200857,0.115834 3.243371,-1.158346 1.27418,-0.695007 2.200857,2.085022 2.085023,0.579173 2.432528,-1.505849 2.432527,1.737518 z"
           id="path147" /><path
           style="fill:#444849;fill-opacity:1;stroke:#fb2538;stroke-width:0.499999"
           d="m -132.51482,58.49649 6.71841,1.158346 9.3826,0.810842 8.91927,-0.579173 6.37091,-0.231669 7.065907,0.231669 -0.347504,-1.853353 2.664196,-0.231669 0.115835,-1.158347 1.737519,0.579174 3.24337,0.347503 1.73752,-0.579173 1.390015,-1.853354 1.274181,1.50585 1.73752,0.579174 0.926677,-1.505851 2.085023,2.200858 1.505851,-0.347504 4.980889,0.926678 1.274181,0.810842 4.170047,0.115835 1.158346,-0.695008 1.390016,-1.274181 2.200858,-0.463339 2.664196,0.23167 1.621685,-0.579174 1.042512,0.810843 3.24337,-0.463339 1.50585,-0.810842 1.73752,-1.042512 2.780031,1.042512 1.042511,-1.274181 2.085024,0.926677 3.359204,0.115835 1.042512,-1.505851 h 1.50585 l 0.695008,0.463339 1.158346,-1.390016 1.274181,-0.347504 1.274181,0.23167 1.390016,0.115834 v 3.011701 l -1.73752,-0.695008 -1.737519,0.115835 -2.664197,0.463338 -2.200858,0.695008 h -3.938377 l -2.548362,1.042512 -2.664197,-0.23167 -2.780031,0.23167 -4.285882,0.347504 -1.274181,0.695007 3.359205,0.463339 1.158346,0.926677 -4.285881,-0.463339 -2.895866,-0.115834 -6.602574,0.231669 -6.255071,-0.463338 -7.413416,-0.579174 -3.475039,0.115835 -5.791732,-0.463339 -4.633385,1.042511"
           id="path148" /><path
           style="fill:#444849;fill-opacity:1;stroke:#fb2538;stroke-width:0.499999"
           d="m -47.608034,60.697347 2.432526,-1.390015 c 0,0 2.548363,0.810842 3.011702,0.926677 0.463338,0.115835 2.200857,-1.390015 2.200857,-1.390015 l 1.96919,0.695008 2.664196,-1.390015 2.200857,2.432526 2.085025,0.115834 -0.115835,2.20086 -2.548363,-0.69501 h -5.907567 l -4.401714,-0.579173 z"
           id="path149" /><path
           style="fill:#444849;fill-opacity:1;stroke:#fb2538;stroke-width:0.499999"
           d="m -228.31006,66.952417 5.90756,-0.695007 16.10102,0.926677 11.35179,-1.042512 9.0351,-1.158345 h 2.89587 l -4.28588,-1.621685 -3.35921,-0.810844 -3.59087,-0.695008 -4.05421,0.695008 -4.17005,-0.695008 -4.98089,0.463339 -4.51755,0.810844 -0.92668,2.085023 -1.04251,-0.463339 -1.50585,-1.390015 -5.44423,-0.231669 -0.695,1.969188 -1.85336,-1.27418 -2.89586,-0.347504 -1.73752,1.042511 z"
           id="path151" /><path
           style="fill:#444849;fill-opacity:1;stroke:#fb2538;stroke-width:0.499999"
           d="m -228.54173,57.569814 6.71841,-1.621687 6.13923,-0.347504 4.86506,-0.115834 12.0468,0.579172 7.64509,0.810845 6.13923,1.274181 3.82254,1.853353 6.48674,0.926677 3.59088,0.463338 6.60257,-1.50585 6.83425,-0.231669 1.27418,-1.158346 -2.3167,-0.810842 -5.21255,0.579173 -3.35921,0.926677 -3.70671,-1.969188 -4.51755,-2.548364 h -5.09672 l -5.56007,-1.158345 -13.66848,0.347503 -5.90757,0.23167 -4.63338,0.115834 -3.12754,-1.27418 -3.70671,0.231669 -4.28588,0.463338 -7.29758,0.926677 z"
           id="path152" /></g><g
         id="g165"
         inkscape:label="Poles"
         style="display:inline"><path
           style="fill:#444849;fill-opacity:1;stroke:#fb2538;stroke-width:0.499999"
           d="m -200.50945,110.90269 -0.49144,-85.347564 h -7.86312 l 0.49145,-4.259188 2.2934,0.819075 -0.16381,1.965779 5.56971,-0.163815 -0.49145,-4.259188 2.78485,-0.491445 0.65526,0.491445 -0.16381,4.095373 4.75063,-0.32763 0.32763,-2.948668 h 1.14671 l 0.81907,0.655259 0.81907,4.750633 h -8.19074 l 2.29341,85.019934 -1.80197,0.98289 z"
           id="path153"
           inkscape:export-filename="pole1.png"
           inkscape:export-xdpi="96"
           inkscape:export-ydpi="96" /><path
           style="fill:#444849;fill-opacity:1;stroke:#fb2538;stroke-width:0.499999"
           d="m -140.68116,92.783542 -0.92668,-0.347503 V 54.036856 l 1.15835,-0.115834 0.75292,0.289586 0.28959,37.935842 z"
           id="path154"
           inkscape:export-filename="pole2.png"
           inkscape:export-xdpi="96"
           inkscape:export-ydpi="96" /><path
           style="display:inline;fill:#444849;fill-opacity:1;stroke:#fb2538;stroke-width:0.499999"
           d="M -130.66147,86.470555 V 67.879094 l 0.69501,-0.289586 0.28959,0.695007 0.52125,18.475627 c 0,0 -0.3475,0.231669 -0.57917,0.289586 -0.23167,0.05792 -0.92668,-0.579173 -0.92668,-0.579173 z"
           id="path155"
           inkscape:export-filename="pole3.png"
           inkscape:export-xdpi="96"
           inkscape:export-ydpi="96" /><path
           style="display:inline;fill:#444849;fill-opacity:1;stroke:#fb2538;stroke-width:0.499999"
           d="m -127.07059,84.153861 -0.0579,-13.205148 0.17375,-2.374609 -0.695,-0.752927 -0.40543,1.505852 -0.11583,14.710997 z"
           id="path156"
           inkscape:export-filename="pole4.png"
           inkscape:export-xdpi="96"
           inkscape:export-ydpi="96" /><path
           style="display:inline;fill:#444849;fill-opacity:1;stroke:#fb2538;stroke-width:0.499999"
           d="m -125.79641,76.740445 v -4.3438 l 0.11583,-3.648789 h -0.695 l -0.0579,8.282175 z"
           id="path157"
           inkscape:export-filename="pole5.png"
           inkscape:export-xdpi="96"
           inkscape:export-ydpi="96" /></g></g><g
       id="g163"
       inkscape:label="Path Side"
       inkscape:export-filename="side_path_hills.png"
       inkscape:export-xdpi="96"
       inkscape:export-ydpi="96"><path
         style="display:none;fill:#444849;fill-opacity:1;stroke:#48cc7a;stroke-width:0.499999;stroke-opacity:1"
         d="m -193.90717,262.24961 8.10842,-1.39002 4.63338,-1.62168 8.3401,-1.39002 11.58346,-0.46334 8.57176,-3.93837 11.81513,-4.40172 15.29018,-2.54836 14.13182,-4.40172 6.25507,-3.47504 8.340097,-5.56006 8.571762,-3.0117 17.838533,-0.92668 8.571765,2.3167 18.070203,3.47504 8.340092,6.7184 12.74181,3.93838 17.1435257,4.17005 12.7418096,2.54836 4.6333857,3.93838 9.035101,0.23167 13.436818,-6.48674 3.938376,-3.93838 6.718411,-3.47504 -0.463341,30.81203 -477.702018,-2.54837 1.15834,-18.76522 7.87676,-9.0351 9.03509,-7.18175 12.27847,-5.79173 2.78003,-3.93838 10.19344,-3.7067 8.10845,1.85335 4.63338,4.40172 9.96178,4.40171 18.53353,3.93838 6.95007,-2.54836 6.48674,-1.15835 7.64511,-3.70671 9.73011,-1.15834 9.26676,0.695 12.27847,2.08503 7.64508,5.32839 9.7301,0.92668 5.3284,1.15834 8.34011,3.0117 16.91185,6.95008 c 0,0 8.10842,2.78003 9.0351,3.0117 0.92667,0.23167 11.35179,4.63339 11.35179,4.63339 l 12.27847,4.86505 11.12013,1.15835 z"
         id="path162"
         inkscape:label="hills" /><path
         style="display:none;fill:#48cc7a;fill-opacity:1;stroke:#0c227d;stroke-width:0.499999;stroke-opacity:1"
         d="m -268.8522,263.40796 3.01173,-1.85336 c 0,0 3.47503,-0.3475 3.70669,0.11584 0.23167,0.46334 3.70671,1.39001 3.70671,1.39001 l 3.93838,-0.3475 3.12754,0.11583 2.89586,0.81084 4.98089,-2.31669 5.09672,0.81085 5.6759,3.24335 4.40172,0.34751 5.09672,-1.04251 2.08503,-2.78002 7.52925,-1.73752 0.81084,1.85335 c 0,0 3.0117,-1.96919 3.47504,-1.73752 0.46334,0.23167 4.63338,2.08502 4.63338,2.08502 l 2.54836,-1.85335 6.02341,1.62169 c 0,0 1.96918,2.78001 2.43252,3.01168 0.46334,0.23167 5.21256,0.69501 5.21256,0.69501 l 5.56006,-1.62167 c 0,0 3.12754,2.54835 3.82255,3.01169 0.695,0.46333 2.78003,-2.43253 2.78003,-2.43253 l 8.22426,-0.695 2.78003,2.66419 4.51755,-0.11584 1.96919,-2.20084 6.25507,-1.27418 1.27418,2.66418 8.45593,0.92668 6.60257,-2.54835 5.21256,-0.34751 c 0,0 0.69501,1.39001 1.39001,1.73751 0.69501,0.34751 7.76093,-1.27417 7.76093,-1.27417 l 4.40171,0.695 5.90757,-0.81083 0.92667,-1.73752 6.0234,1.04251 5.212564,2.20085 8.571764,-3.01169 3.011699,2.54835 8.803434,-0.695 0.926676,-3.47504 5.791732,-0.695 c 0,0 2.316692,-1.62169 3.243368,-0.92668 0.92668,0.69501 8.340096,4.63338 8.340096,4.63338 l 6.486739,-1.39001 6.25507,-2.78003 c 0,0 7.181747,0.92667 8.108423,1.62168 0.926677,0.69501 8.340096,2.78003 8.340096,2.78003 l 5.328392,-5.79173 6.486739,1.85336 6.023401,-0.23167 5.5600626,3.0117 2.5483621,-0.46334 3.4750389,-2.54836 6.023401,-1.39002 7.6450854,-0.46334 6.023401,4.17005 10.425118,-2.08502 5.328393,-0.92668 3.243369,1.39001 v 12.04682 l 0.695007,5.09672 -455.230111,-1.15835 0.46334,-16.68019 5.79173,-1.62169 c 0,0 3.0117,-3.0117 4.17005,-2.08502 1.15834,0.92667 4.40171,1.85335 4.40171,1.85335 l 7.41341,3.0117 7.18175,-0.695 1.85338,-3.47504 7.18174,-2.08503 7.64508,1.62169 5.79173,3.93838 7.87675,-2.54837 1.15835,-2.31669 8.10842,-0.69501 8.34009,3.0117 11.35179,0.69501 c 0,0 -0.23167,3.93838 1.85338,4.17005 2.08502,0.23167 4.63338,-0.69501 4.63338,-0.69501 l 5.56006,-4.40172 9.96178,1.39002 3.47503,3.0117 9.73011,-1.15835 4.86505,-1.85335 9.26677,1.39002 z"
         id="path161"
         inkscape:label="trees"
         inkscape:export-filename="side_paths_trees.png"
         inkscape:export-xdpi="96"
         inkscape:export-ydpi="96" /><path
         style="display:none;fill:#48cc7a;fill-opacity:1;stroke:#444849;stroke-width:0.499999;stroke-opacity:1"
         d="m -268.98409,273.89852 23.91698,0.65526 34.07351,0.65527 25.88275,0.9829 20.96831,-1.63817 26.86565,-0.32763 23.58934,-0.65524 22.606461,-0.65527 56.352328,1.96578 33.4182417,-1.63815 19.6577893,0.65525 h 18.674899 l 0.327631,23.26174 -453.43966,1.96577 -0.32763,-25.55512 17.03673,-0.65527 19.00254,1.31051 30.46957,-0.98288 19.98543,1.63815 42.9195,0.65526 z"
         id="path160"
         inkscape:label="fields"
         inkscape:export-filename="side_path_fields.png"
         inkscape:export-xdpi="96"
         inkscape:export-ydpi="96" /><path
         style="display:none;fill:#444849;fill-opacity:1;stroke:#a9aaad;stroke-width:0.499999;stroke-opacity:1"
         d="m -264.39726,295.84972 153.98601,-0.65526 h 75.682489 l 59.628627,1.31053 h 12.122303 l 1.638149,23.26172 -451.473888,3.27628 1e-5,-24.89985 z"
         id="path159"
         sodipodi:nodetypes="ccccccccc"
         inkscape:label="road"
         inkscape:export-filename="side_path_road.png"
         inkscape:export-xdpi="96"
         inkscape:export-ydpi="96" /><path
         style="display:inline;fill:#48cc7a;fill-opacity:1;stroke:#a9aaad;stroke-width:0.499999;stroke-opacity:1"
         d="m -399.70839,320.42197 66.50887,-0.65526 35.38402,-1.96578 41.93661,0.32764 h 43.9024 l 23.58934,-0.9829 15.72624,0.65526 25.55512,-1.31053 18.01964,0.9829 41.936619,1.63814 72.733819,-0.98287 44.557656,0.65524 0.655259,15.39861 -431.816103,0.98288 z"
         id="path158"
         inkscape:label="grass fg"
         inkscape:export-filename="side_path_grass.png"
         inkscape:export-xdpi="96"
         inkscape:export-ydpi="96" /></g></g></svg>
