<?xml version="1.0" encoding="UTF-8" standalone="no"?>
<!-- Created with Inkscape (http://www.inkscape.org/) -->

<svg
   width="210mm"
   height="297mm"
   viewBox="0 0 210 297"
   version="1.1"
   id="svg1"
   xml:space="preserve"
   inkscape:version="1.4.4 (dcaf3e7d9e, 2026-05-05)"
   sodipodi:docname="freedom.svg"
   xmlns:inkscape="http://www.inkscape.org/namespaces/inkscape"
   xmlns:sodipodi="http://sodipodi.sourceforge.net/DTD/sodipodi-0.dtd"
   xmlns="http://www.w3.org/2000/svg"
   xmlns:svg="http://www.w3.org/2000/svg"><sodipodi:namedview
     id="namedview1"
     pagecolor="#505050"
     bordercolor="#eeeeee"
     borderopacity="1"
     inkscape:showpageshadow="0"
     inkscape:pageopacity="0"
     inkscape:pagecheckerboard="0"
     inkscape:deskcolor="#505050"
     inkscape:document-units="mm"
     inkscape:zoom="2.284147"
     inkscape:cx="75.520533"
     inkscape:cy="139.22046"
     inkscape:window-width="2743"
     inkscape:window-height="1469"
     inkscape:window-x="0"
     inkscape:window-y="0"
     inkscape:window-maximized="1"
     inkscape:current-layer="layer1" /><defs
     id="defs1" /><g
     inkscape:label="Layer 1"
     inkscape:groupmode="layer"
     id="layer1"><path
       style="fill:#4d32e2;stroke:#fb2538;stroke-width:0.499999"
       d="m 51.835997,121.80012 0.231671,-3.06962 0.752925,-4.57547 1.853353,-3.70671 3.127534,-2.20086 3.301288,-1.79543 4.517552,-0.9846 3.41712,0.11584 3.417123,0.57917 2.316691,0.9846 2.606281,1.21626 3.475038,-0.57917 1.332097,-1.3321 0.69501,-2.3167 -0.810844,-1.62168 -0.463339,-2.43253 0.115835,-2.027104 0.231669,-0.810842 0.463338,-2.490444 0.347507,-0.521258 0.0036,-0.283623 0.552876,-0.593828 0.532399,-0.307155 0.614305,-0.04095 0.798597,0.327631 0.839552,0.532397 0.757645,1.126228 0.71669,1.412904 0.163814,1.146705 0.02048,2.33436 -0.06143,1.269569 -0.04095,1.24909 -0.04095,0.36858 0.348107,0.77812 2.805332,0.83955 1.986253,0.86003 0.778121,0.57335 1.228614,1.78149 0.798597,1.22861 0.798598,0.83955 0.204769,0.18429 0.245721,0.34811 0.368583,0.65526 0.327631,1.0648 -0.08191,0.51192 -0.307152,0.0819 -0.143338,0.36859 0.163814,0.32763 -0.204769,0.63478 -0.655259,0.65526 -0.08191,0.18429 -0.860028,0.28668 -1.474335,0.63478 -0.532397,0.10238 -0.880507,-0.0409 -0.98289,0.0819 -0.18429,0.51192 -1.146704,0.59383 -0.655259,2.39579 -1.187659,1.39243 -0.921459,1.02384 -1.290043,1.12623 -0.798597,1.29004 -1.556242,0.59383 -1.638149,0.69622 -1.208135,0.3481 -0.900983,0.28668 -0.307152,1.26956 -0.225245,0.61431 0.348107,0.7986 0.491445,0.36858 1.924825,1.18766 0.266197,0.40954 -0.655259,0.51192 0.900983,1.02384 -0.348107,0.36859 -1.146704,0.12285 -1.43338,0.14334 -1.290042,-0.0409 0.06143,0.22525 -0.430016,0.18429 -3.52202,0.041 -0.98289,-0.041 -2.559608,-0.14334 -0.409535,-0.20477 -4.853017,-0.18429 -3.030577,-0.32763 -0.573352,-0.18429 -0.204769,-0.1843 -0.348107,-0.77812 -0.204766,-0.6143 0.08191,-0.34811 v -0.45049 l -0.348107,-0.77812 -0.860028,-0.86003 -0.450493,-0.38906 -0.368583,-0.14334 -0.409536,0.51192 -0.880507,0.2662 -1.330994,0.10239 -0.880507,-0.041 -1.924825,-0.81907 -1.187656,-0.92146 -0.941938,-0.75764 -0.798597,-0.88051 -0.409538,-0.73717 -0.368583,-1.00336 -0.2662,-0.73717 0.184293,-0.71669 0.470968,-0.0614 0.757643,0.14334 0.614307,0.2662 0.06143,-0.24572 z"
       id="path1" /><path
       style="fill:#4d32e2;stroke:#fb2538;stroke-width:0.499999;fill-opacity:1"
       d="m 127.61181,75.846301 5.4059,37.185989 1.80196,0.16381 9.17363,-40.298466 0.39457,-0.616823 0.60813,0.347504 0.63709,-0.115835 0.69501,-0.405421 0.26063,-0.868759 -0.1448,-0.637091 -0.695,-0.434379 -0.37647,-0.260631 -0.28958,0.05792 -0.86876,-4.025252 0.0579,-0.810842 -0.17376,-0.608132 0.37647,0.260628 0.029,0.405421 0.95564,-0.20271 0.57917,-0.723967 0.43438,-0.781886 -0.0869,-0.434379 0.20271,-0.405421 -0.0869,-0.637091 -0.3475,-0.579173 -0.17375,-0.579172 -0.43438,-0.318546 -0.26063,-0.810842 -0.34751,-0.608131 -0.3475,-0.144793 -0.0579,-0.202711 -0.14479,-0.984596 -0.28959,-0.43438 -0.3475,-0.376463 -0.43438,-0.173751 0.11583,-0.347504 -0.3475,-1.274181 0.0869,-0.550214 -0.23167,-0.579173 -0.0869,-0.8398 -0.37646,-0.897718 -0.55022,-0.897721 -0.20271,-0.202711 0.31855,-0.173752 0.17375,-0.318545 -0.23167,-0.347503 -0.40542,-0.05792 h -0.28959 l -0.52125,-0.231669 -0.34751,-0.521255 -0.63709,-0.289587 -0.89772,-0.579173 -1.30313,-0.608131 -1.3321,-0.521256 -1.62169,-0.289586 -1.53481,0.02896 -1.53481,0.115835 -1.27418,0.347504 -1.3321,0.695007 -0.95563,0.666049 -1.10043,0.723966 -1.07147,1.245222 -0.86876,1.361059 -0.89772,1.505849 -0.3475,0.43438 -0.34751,0.260628 0.26063,0.868759 -0.37646,0.43438 0.14479,0.492297 -0.11583,0.666049 v 0.608131 1.303142 l 0.26062,0.43438 0.0869,0.347503 -0.43438,0.318545 0.0869,0.666049 -0.11584,0.202711 -0.28958,0.20271 0.40542,0.492297 0.63709,0.579173 0.60813,0.723966 0.9846,0.637091 0.37646,0.260627 -0.69501,1.013556 -0.92668,1.303139 -0.37646,1.390015 -0.46334,0.868759 -0.37646,1.50585 0.20271,0.839803 0.31854,0.810842 -0.43438,0.318545 -0.8398,0.521256 -0.0869,0.723966 0.17375,0.752925 0.3475,0.550214 0.34751,0.05792 0.17375,0.347504 0.17375,0.463338 0.46334,0.289587 0.28958,-0.115835 -0.0579,0.463338 0.40542,0.260628 0.28958,0.521259 0.75293,-0.115835 0.55022,-0.463341 0.31854,-0.347504 0.23167,0.463341 0.43438,-0.05792 0.20271,-0.492297 z"
       id="path2" /><path
       style="fill:none;stroke:#fb2538;stroke-width:0.499999"
       d="m 127.59185,75.755848 1.79543,0.347504 1.6796,-0.115835 1.50586,-0.405421 1.91127,-0.289586 2.43252,-0.347504 1.50586,-0.289586 h 1.62168 l 0.69501,0.868759 1.27418,-0.347504 0.75292,-0.463338 0.69501,-0.868759 0.57918,-0.984594"
       id="path3" /><path
       style="fill:none;stroke:#fb2538;stroke-width:0.499999"
       d="m 125.85433,63.940716 0.98459,0.405423 0.52126,-0.115834 h 0.52125 l -0.46333,0.810842 0.75292,0.579173 0.92668,0.05792 0.92667,-0.289586 0.46334,-0.637091 -0.11583,-0.347503 1.27418,-0.23167 0.92668,0.347504 1.21626,0.231669 1.27418,0.23167 0.52126,0.868759 0.57917,0.579173 1.04251,0.05792 0.11584,-0.579173 0.69501,-0.173752 0.52125,0.231669 1.6796,-0.05792 0.57918,-0.115834 0.92667,-0.115835 0.28959,0.173752 0.57917,-0.521256 0.57917,0.289587 0.34751,-0.05792 0.40542,-0.521255"
       id="path4" /><path
       id="path5"
       style="fill:#4d32e2;fill-opacity:1;stroke:#fb2538;stroke-width:0.499999"
       d="M 81.663232 171.2035 L 80.852429 173.86794 L 80.273653 178.32762 L 80.273653 182.03437 L 78.82568 189.67938 L 60.813342 188.69443 L 61.624146 231.90109 L 61.334241 232.47987 L 61.739901 233.5227 L 63.882922 233.11704 L 65.388774 232.30623 L 69.269157 232.19048 L 70.890763 232.59614 L 72.165104 233.5227 L 75.58195 233.11704 L 80.678796 232.9434 L 80.678796 234.85492 L 80.041626 235.95511 L 75.118929 236.24449 L 74.018221 237.11369 L 72.222982 237.17157 L 69.500667 236.70803 L 63.767167 237.0553 L 60.639193 237.75035 L 58.901831 239.08256 L 59.191736 240.18327 L 60.523437 240.58842 L 61.797778 240.067 L 65.851794 238.7353 L 68.168449 238.50327 L 70.832886 239.31407 L 72.686003 240.29903 L 73.497323 240.29903 L 80.215259 239.89337 L 80.389408 256.11047 L 80.041626 260.45439 L 81.547477 268.04152 L 82.590308 268.44666 L 82.951526 271.05219 L 83.218176 271.2775 L 86.576111 270.90905 L 86.944564 275.02456 L 87.477348 275.24987 L 88.398739 274.84059 L 88.378068 270.74523 L 126.6362 266.854 L 128.89497 269.40216 L 131.35632 271.632 L 135.06307 272.84846 L 137.78539 273.10891 L 140.30461 272.64589 L 143.08481 271.74775 L 146.8205 269.17065 L 149.10821 266.56461 L 150.26628 264.62416 L 151.8884 264.56628 L 152.72815 243.57118 L 153.62576 243.22391 L 154.95798 242.29684 L 155.73985 241.57337 L 156.57959 241.60231 L 156.89792 235.08643 L 157.50615 234.85492 L 157.50615 233.26225 L 155.88454 232.65402 L 156.0003 230.53993 L 155.62358 229.64231 L 155.71091 226.19601 L 155.97136 226.36965 L 156.63747 226.34071 L 156.69535 225.93556 L 157.18782 226.22495 L 157.07155 229.9317 L 175.14176 230.62675 L 176.87964 194.60208 L 158.66473 194.02278 L 158.2012 200.39397 L 157.70872 200.24928 L 157.59296 199.29326 L 157.10049 199.11963 L 157.44827 194.13905 L 157.88235 193.50188 L 158.11438 192.74896 L 159.73599 192.6332 L 161.12608 192.86471 L 160.66254 183.82961 L 149.89008 177.11115 L 81.663232 171.2035 z M 90.876107 190.14808 L 92.145797 190.5987 L 93.947754 191.29478 L 95.258268 192.31849 L 97.10105 192.35932 L 98.452905 191.78623 L 100.54115 191.0488 L 101.85166 190.84417 L 103.08053 191.17179 L 105.08713 192.40066 L 106.02919 192.85076 L 107.58568 193.01458 L 109.55145 192.07303 L 111.02578 191.29478 L 112.58176 191.37643 L 114.83433 192.6053 L 116.34949 193.30138 L 117.25072 193.62901 L 118.39742 192.97375 L 119.87175 192.03169 L 121.42773 191.99087 L 123.02505 192.48231 L 124.49938 193.46519 L 126.17834 193.99798 L 127.85731 193.54736 L 130.02824 192.48231 L 131.46123 192.52365 L 133.01772 193.42437 L 134.04143 194.48942 L 136.82627 194.98086 L 137.03091 196.0454 L 136.66246 213.73734 L 103.63347 213.47121 L 103.26501 216.11291 L 101.54471 224.54908 L 101.34007 224.32378 L 99.046667 224.36512 L 98.657544 224.54908 L 98.309245 226.35104 L 97.306205 226.33089 L 96.957906 221.49811 L 97.183215 221.35496 L 96.834916 219.30703 L 96.118164 219.22538 L 95.258268 219.22538 L 94.664506 219.00007 L 93.845435 218.95924 L 92.719405 218.93857 L 91.818168 219.00007 L 91.019767 218.77476 L 89.832243 218.65177 L 89.565592 219.02074 L 88.624048 219.08172 L 88.275749 218.81558 L 87.231368 218.85693 L 87.722811 191.49942 L 88.378068 191.0488 L 89.524768 190.55736 L 90.876107 190.14808 z M 154.05985 192.05391 L 154.17612 193.84915 L 154.34975 194.19693 L 152.72815 229.46816 L 152.38036 229.87382 L 152.20673 231.26392 L 148.32635 229.75807 L 148.4421 227.67292 L 147.97856 224.13981 L 146.87837 219.27499 L 146.18333 216.20541 L 145.48828 214.5838 L 145.08313 214.2939 L 143.40313 214.00451 L 138.65407 213.773 L 139.58063 195.93429 L 139.87053 195.18137 L 141.0286 195.00774 L 142.12931 194.48632 L 142.99799 193.26986 L 143.98243 192.98047 L 145.02474 193.90703 L 146.35696 194.42844 L 147.68918 194.25481 L 147.86281 193.32825 L 148.61573 192.22754 L 149.89008 192.6332 L 150.93239 193.55976 L 152.14885 193.73339 L 153.3648 192.80684 L 154.05985 192.05391 z " /><path
       style="fill:none;fill-opacity:1;stroke:#fb2538;stroke-width:0.499999"
       d="m 126.49142,266.5934 -1.04251,-2.60627 -0.81085,-3.64879 0.6371,-4.45964 1.15834,-3.64879 2.25878,-3.41712 3.12753,-2.95378 2.83795,-1.62169 3.64879,-1.21626 2.95378,-0.0579 3.6488,1.3321 2.89586,1.62168 2.60628,3.9963 1.3321,2.37461 0.57917,2.43253 -0.11583,3.76462 -0.63709,2.54836 -1.27418,3.47504"
       id="path7" /><path
       style="fill:#4d32e2;fill-opacity:1;stroke:#fb2538;stroke-width:0.499999"
       d="m 172.74282,122.66665 0.0819,-0.34811 0.25596,-0.11262 0.32763,-0.1331 0.44025,0.041 0.52216,0.19453 0.38906,0.47096 0.51192,0.55288 0.28668,0.46073 0.21501,0.16381 0.41977,0.0922 0.62455,-0.0717 0.28667,-0.27644 0.24572,-0.15357 0.47097,-0.56312 0.27644,-0.23548 0.63478,-0.73717 0.64502,-0.92146 0.5324,-0.63478 0.32763,-0.56311 0.46073,-0.5324 0.9317,-0.69622 1.17742,-0.64502 3.26606,-1.31052 4.87349,-2.11935 -0.25596,0.67573 2.43675,-0.55287 1.56648,-0.36858 0.10238,0.0614 -0.19453,0.23548 -1.78148,0.94194 0.0614,0.20477 0.90098,-0.13311 0.33787,0.0512 -0.35835,0.41977 -1.17742,0.59383 -0.23548,0.0717 0.15357,0.16382 h 0.68598 l -0.041,0.35834 -0.39929,0.30715 -0.81908,0.43002 -0.12286,0.14334 0.57335,0.0102 -0.0614,0.44025 -0.27644,0.41977 -0.73716,0.32763 0.0102,0.10239 0.27644,0.23548 -0.0717,0.46073 -0.5324,0.33787 -0.63478,0.31739 0.16381,0.14334 v 0.43001 l -0.45049,0.41978 -0.43001,0.22524 -0.28668,0.0307 -0.0205,0.49144 -0.29691,0.40954 -0.43002,0.11262 -0.3481,0.14334 -0.11262,0.37882 -0.3174,0.35835 -0.41977,0.0512 -0.45049,-0.041 -0.0922,-0.16382 0.11262,0.56312 -0.27643,0.31739 -0.10239,0.22524 h -0.29691 l 0.0102,0.32763 -0.1843,0.22525 -0.10238,0.18429 -0.28668,0.0409 -0.14334,0.34811 -0.17405,0.29692 -0.30715,0.15357 -0.16382,0.24572 -0.041,0.24573 -0.33787,0.11262 -0.15358,-0.10239 -0.215,0.44026 -0.17406,0.31739 -0.37882,0.0614 -0.10238,-0.0409 -0.15358,0.28667 -0.17405,0.28668 -0.2662,0.10238 -0.48121,-0.10238 0.0307,0.27643 -0.45049,0.14334 -0.28668,-0.0512 -0.16381,0.0512 0.0717,0.23549 -0.27644,0.12286 -0.16382,0.0409 0.17406,0.54264 0.68597,0.7474 0.38906,0.41978 3.79846,2.52889 0.20477,0.3993 0.30715,0.24572 -0.0819,0.27644 -0.15357,0.22525 -0.1331,0.29691 0.0307,0.19453 -0.16381,0.14334 -0.36859,-0.1331 -0.215,0.12286 -0.41978,-0.0614 -0.37882,-0.25596 h -0.35834 l -0.11263,0.12286 0.43002,0.71669 0.16381,0.61431 -0.23548,0.51192 -0.30716,0.0717 -0.24572,0.20477 -0.5324,0.0205 -0.56311,-0.17406 -0.20477,0.33787 -0.62454,0.29691 -0.45049,0.0819 -0.68598,-0.17405 -0.30715,-0.22525 -0.2662,-0.49144 -0.1331,-0.19453 -0.37882,0.24572 -0.43002,0.17406 -0.47097,0.17405 -0.24572,-0.25596 -0.41977,-0.0102 -0.30716,-0.1331 -0.24572,-0.17406 -0.0512,-0.46073 0.0102,-1.546 0.0307,-0.90098 -0.0512,-1.51529 0.0205,-0.15358 -0.31739,-0.10238 -0.35835,-0.25596 -0.25596,-0.21501 -0.0307,0.32763 -0.56312,0.18429 -0.35834,0.0102 v 0.23549 l -0.19453,0.16381 -0.41978,0.0102 -0.32763,0.041 -0.041,0.22524 -0.45049,0.0307 -0.2662,-0.0102 -0.0717,0.18429 -0.19453,0.10238 -0.35834,0.0102 -0.29692,-0.0512 h -0.28668 l -0.0921,0.23549 -0.50168,-0.0307 -0.35835,0.0512 -0.12286,0.18429 -0.5324,0.0819 -0.32763,-0.12286 -0.33787,0.25596 -0.15357,0.34811 -0.36859,0.22524 -0.54263,0.0205 -0.29692,-0.0102 -0.31739,0.29691 -0.54264,0.11263 -0.17405,-0.0819 -0.23548,0.0102 -0.33787,0.35834 -0.46073,0.16382 h -0.38906 l -0.21501,-0.1331 -0.041,-0.29691 -0.58359,0.4812 -0.56312,0.23549 -0.44025,-0.0307 -0.18429,-0.23548 -0.29692,0.24572 -0.65526,0.18429 -0.31739,-0.20477 0.0102,-0.35834 -0.0205,-0.19454 -0.27643,0.29692 -0.67574,0.28668 -0.45049,0.0819 -0.29692,-0.14333 0.1843,-0.3174 -0.11263,-0.10238 -0.27644,0.15358 -0.43001,0.30715 -0.59383,0.2662 -0.37882,0.11262 0.0307,-0.21501 0.20476,-0.2662 0.0819,-0.18429 -0.16381,-0.0717 -0.36859,0.30716 -0.50168,0.20477 -0.46073,0.17405 -0.23548,0.0819 0.0921,-0.21501 0.77812,-0.92146 0.68598,-0.94193 0.0717,-0.21501 h -0.34811 l -0.46073,0.12286 -0.38906,-0.0205 3.37868,-2.76438 1.92483,-1.75077 0.62454,-0.54264 0.73717,-0.52216 0.87027,-0.53239 1.33099,-0.5324 0.52216,-0.20477 0.95218,-0.2662 0.62454,0.0717 0.87027,-0.20477 0.72693,-0.16381 0.55287,-0.13311 0.5324,-0.0512 0.0922,-0.0409 -0.17406,-0.75764 -0.0717,-0.35835 0.0512,-0.5324 -0.20477,-0.3993 -0.17406,-0.25596 -0.22524,-0.0102 -0.28668,0.0205 -0.0717,-0.12286 0.1331,-0.19453 0.0717,-0.17405 0.21501,-0.10239 0.0409,-0.14334 0.1331,-0.0921 z"
       id="path8" /><path
       id="path9"
       style="fill:#4d32e2;fill-opacity:1;stroke:#fb2538;stroke-width:0.499999"
       d="M 12.799736 31.99908 L 12.191504 32.520496 L 11.786361 33.244482 L 11.959993 34.142102 L 12.162565 34.952905 L 12.857613 35.24281 L 13.187309 36.285124 L 13.596586 38.414709 L 14.415658 41.281201 L 14.825452 44.14821 L 15.15308 47.424495 L 15.15308 50.209338 L 15.15308 55.205416 L 14.415658 57.66263 L 14.170194 61.10273 L 14.088029 64.624996 L 13.842566 65.116439 L 13.432772 65.771696 L 14.497823 66.344788 L 15.644523 66.426953 L 16.872872 66.344788 L 16.709058 65.525716 L 16.29978 65.034273 L 16.29978 63.314482 L 16.217615 61.594173 L 16.381429 59.95603 L 16.791223 58.317887 L 17.282666 58.072424 L 17.937923 58.80933 L 18.756995 60.447473 L 19.002458 61.512524 L 19.657715 61.840153 L 20.149158 61.512524 L 20.722766 61.34871 L 21.541838 62.986853 L 22.278743 64.952625 L 21.951115 67.246025 L 21.541838 67.819116 L 21.214209 68.638188 L 22.524723 68.802002 L 23.916886 69.047982 L 25.145752 68.556539 L 24.572144 67.573653 L 24.408329 66.017159 L 23.671423 62.740873 L 23.507609 61.266545 L 23.507609 58.973145 L 23.916886 56.679744 L 24.080701 54.959953 L 23.425444 51.92913 L 23.999052 51.519853 L 23.753072 50.78243 L 73.470968 49.226453 L 73.634782 49.471916 L 73.307153 52.17511 L 72.651896 54.46851 L 72.160453 57.007373 L 72.078288 59.300773 L 71.996639 61.34871 L 71.505196 62.085616 L 72.242102 62.167782 L 72.897359 62.413245 L 74.371688 62.49541 L 75.354574 62.331596 L 74.945296 61.840153 L 74.453853 60.857267 L 74.044059 59.05531 L 74.371688 57.089539 L 75.026945 55.779024 L 75.764368 55.041602 L 77.074882 55.041602 L 78.221582 55.860673 L 79.613745 57.417167 L 79.941374 58.154073 L 80.678796 58.481702 L 81.416219 58.317887 L 81.825496 57.826444 L 82.644568 58.154073 L 84.037248 58.80933 L 84.774154 59.95603 L 85.593225 62.003967 L 85.183948 63.150667 L 84.446525 64.297367 L 84.937968 64.461182 L 85.839205 64.952625 L 87.149719 64.870459 L 88.378068 65.034273 L 88.951676 64.54283 L 88.378068 64.133553 L 88.132605 62.577059 L 87.641162 60.119845 L 86.985905 58.400053 L 87.231368 56.843559 L 87.804976 54.713973 L 87.802393 53.42878 L 87.860787 51.575146 L 87.310433 49.490519 L 86.644324 48.100423 L 85.254228 46.565633 L 85.717765 46.131034 L 86.557507 45.088721 L 87.281494 43.669686 L 87.426188 41.179399 L 86.73114 39.267887 L 85.775643 37.646281 L 83.372172 36.661845 L 82.12677 36.806539 L 80.736674 37.124866 L 79.375517 38.225574 L 78.043815 39.21001 L 77.261951 39.876119 L 76.305937 39.644609 L 75.668766 39.470459 L 74.771147 38.659656 L 74.250248 36.545573 L 73.14954 33.621204 L 72.396615 32.288985 L 71.354301 32.202169 L 70.688192 32.549434 L 70.253593 33.099788 L 37.472648 33.157666 L 14.566036 33.389176 L 14.131954 32.955094 L 13.697355 32.202169 L 12.799736 31.99908 z M 82.235291 37.759452 L 83.136011 37.882442 L 84.405701 38.578524 L 85.306421 39.806873 L 85.757039 41.322542 L 85.797864 42.87852 L 85.224772 44.189034 L 84.937968 43.042334 L 84.405701 42.182438 L 83.627454 42.141614 L 82.808382 42.633057 L 82.153125 43.779757 L 82.276115 45.008105 L 82.972196 45.868001 L 81.825496 46.19563 L 77.484676 46.482434 L 77.361686 45.581714 L 77.934778 43.165324 L 79.204468 40.58512 L 80.269519 38.906152 L 81.538692 38.087081 L 82.235291 37.759452 z M 75.191276 41.322542 L 76.951892 41.568005 L 76.419625 42.633057 L 75.805192 44.721301 L 75.723543 43.452128 L 75.191276 41.322542 z M 83.054362 48.980473 L 83.750444 49.594906 L 84.856319 49.717896 L 84.937968 49.922534 L 85.388586 51.356038 L 85.101782 53.4448 L 84.364876 54.713973 L 83.299825 55.7382 L 81.620858 56.188302 L 80.965601 55.983663 L 80.514982 55.942839 L 79.94189 55.410571 L 78.713025 53.649438 L 77.976119 52.338924 L 77.484676 50.823771 L 77.279521 49.471916 L 78.385396 49.349443 L 79.409106 49.103463 L 83.054362 48.980473 z M 75.477563 50.496143 L 76.091996 52.912016 L 74.945296 53.07583 L 75.027462 52.2981 L 75.477563 50.496143 z M 21.009054 50.741606 L 21.459672 52.420573 L 21.664311 54.632324 L 21.336682 56.475106 L 20.76359 58.686857 L 20.149158 59.096134 L 19.780705 58.523043 L 18.961633 56.966549 L 18.634005 55.36923 L 17.937923 52.953357 L 17.937923 51.315214 L 18.347201 51.1514 L 18.920809 51.356038 L 19.657715 50.946244 L 20.476786 50.987585 L 21.009054 50.741606 z " /><path
       style="fill:none;fill-opacity:1;stroke:#fb2538;stroke-width:0.499999"
       d="m 85.080537,56.831367 -0.463338,0.289586 0.0724,0.405421 0.361985,0.23167 z"
       id="path15" /><path
       style="fill:none;fill-opacity:1;stroke:#fb2538;stroke-width:0.499999"
       d="m 14.508288,33.621003 0.463338,1.766478 0.608132,3.185451 0.347504,1.447935 0.521256,0.318545 0.579173,-0.897721 0.63709,-1.534808 0.637091,-0.781884 1.158346,-0.376462 1.592727,0.231669 0.579172,1.216263 0.637091,1.158346 0.347504,2.316694 0.318545,1.911271 -0.260628,1.969188 -0.376462,1.303142 -0.43438,0.752924 0.608132,0.723966 0.781883,1.100429 0.23167,0.926677 0.144793,0.376462"
       id="path16" /><path
       style="fill:none;fill-opacity:1;stroke:#fb2538;stroke-width:0.499999"
       d="m 20.155226,47.318448 -0.463339,-1.013553 -0.115834,-1.390017 0.08688,-1.216263 0.347504,-0.781884 0.723966,-0.08688 0.550215,0.521256 0.115834,-0.955636 -0.405421,-1.969187 -0.550214,-1.534811 -0.66605,-0.723966 -0.63709,0.05792 -0.608132,1.505852 -0.347504,1.766477 -0.289586,2.606279 -0.289587,2.113983 0.02896,1.332098 0.231669,0.897718 0.43438,-0.02896 1.042512,-0.752924 0.434379,-0.260628 z"
       id="path17" /></g></svg>
