<?xml version="1.0" encoding="UTF-8" standalone="no"?>
<!-- Created with Inkscape (http://www.inkscape.org/) -->

<svg
   width="210mm"
   height="297mm"
   viewBox="0 0 210 297"
   version="1.1"
   id="svg1"
   inkscape:version="1.4.4 (dcaf3e7d9e, 2026-05-05)"
   sodipodi:docname="ui.svg"
   xml:space="preserve"
   xmlns:inkscape="http://www.inkscape.org/namespaces/inkscape"
   xmlns:sodipodi="http://sodipodi.sourceforge.net/DTD/sodipodi-0.dtd"
   xmlns="http://www.w3.org/2000/svg"
   xmlns:svg="http://www.w3.org/2000/svg"><sodipodi:namedview
     id="namedview1"
     pagecolor="#505050"
     bordercolor="#eeeeee"
     borderopacity="1"
     inkscape:showpageshadow="0"
     inkscape:pageopacity="0"
     inkscape:pagecheckerboard="0"
     inkscape:deskcolor="#505050"
     inkscape:document-units="mm"
     inkscape:zoom="8.9797979"
     inkscape:cx="364.98594"
     inkscape:cy="414.15186"
     inkscape:window-width="2743"
     inkscape:window-height="1469"
     inkscape:window-x="0"
     inkscape:window-y="0"
     inkscape:window-maximized="1"
     inkscape:current-layer="layer1" /><defs
     id="defs1" /><g
     inkscape:label="Layer 1"
     inkscape:groupmode="layer"
     id="layer1"><rect
       style="fill:none;fill-opacity:0.74902;stroke-width:2;stroke-opacity:0.654722"
       id="rect1"
       width="65.182846"
       height="4.8887119"
       x="0"
       y="0"
       inkscape:label="Area"
       inkscape:export-filename="/home/martin/barFG.png"
       inkscape:export-xdpi="155.87"
       inkscape:export-ydpi="155.87" /><rect
       style="display:inline;fill:#444849;fill-opacity:0.74901962;stroke:#f3ea5a;stroke-width:0.25;stroke-opacity:1"
       id="rect2"
       width="64.606544"
       height="4.3125095"
       x="0.24434416"
       y="0.31338331"
       ry="0.8839286"
       inkscape:label="Bar BG" /><rect
       style="display:inline;fill:#48cc7a;fill-opacity:0.74902;stroke:#f3ea5a;stroke-width:0.25;stroke-opacity:1"
       id="rect3"
       width="64.606544"
       height="4.3125095"
       x="0.24434416"
       y="0.31338331"
       ry="0.8839286"
       inkscape:label="Bar FG" /><g
       id="g7"
       inkscape:label="Happiness"
       inkscape:export-filename="happiness_negative.png"
       inkscape:export-xdpi="96"
       inkscape:export-ydpi="96"><circle
         style="fill:#f3ea5a;stroke:#ff821a;stroke-width:0.1"
         id="path1"
         cx="61.874996"
         cy="38.067856"
         r="7.1892858" /><path
         style="fill:#ff821a;fill-opacity:1;stroke:#ff821a;stroke-width:0.1"
         d="m 57.690444,35.543479 3.145993,-0.02082 -0.02085,1.229228 -0.458356,0.916715 -0.687536,0.354185 -1.062553,0.08334 -0.6667,-0.479192 -0.354187,-0.583364 z"
         id="path2" /><path
         style="fill:#ff821a;fill-opacity:1;stroke:#ff821a;stroke-width:0.1"
         d="m 66.419919,35.543479 -3.145993,-0.02082 0.02085,1.229228 0.458356,0.916715 0.687536,0.354185 1.062553,0.08334 0.6667,-0.479192 0.354187,-0.583364 z"
         id="path3" /><path
         style="display:none;fill:#ff821a;fill-opacity:1;stroke:#ff821a;stroke-width:0.1"
         d="m 57.857117,40.877085 0.895879,0.85421 1.604248,0.583364 1.645917,0.18751 1.229231,-0.145841 1.437574,-0.395854 0.770871,-0.604197 0.708369,-0.770874 -0.770872,0.354184 -2.000101,0.708369 -1.791759,0.145841 -1.645917,-0.312515 -1.375071,-0.500026 z"
         id="path4" /><path
         style="display:none;fill:#ff821a;fill-opacity:1;stroke:#ff821a;stroke-width:0.1"
         d="m 57.44043,39.731193 0.166674,0.791707 0.208344,0.375018 1.020886,0.916715 1.541746,0.520859 1.562579,0.18751 1.625084,-0.250013 1.229228,-0.354184 1.333402,-1.2709 0.604197,-1.29173 -1.625082,0.583361 -2.687637,0.708369 -2.08344,-0.291679 -1.9376,-0.37502 z"
         id="path5" /><path
         style="display:none;fill:#ff821a;fill-opacity:1;stroke:#ff821a;stroke-width:0.1"
         d="m 57.44043,41.439613 3.166827,-0.04167 2.812645,-0.125005 2.166776,-0.229179 1.187561,-0.02082 0.291682,0.145841 -2.645968,0.145841 -3.250166,0.166674 -2.687637,0.166675 -1.145892,-0.02082 z"
         id="path6" /><path
         style="display:inline;fill:#ff821a;fill-opacity:1;stroke:#ff821a;stroke-width:0.1"
         d="m 57.857117,42.689676 0.979217,-0.85421 1.916764,-0.562528 1.958435,-0.250012 1.645917,0.125005 1.083387,0.312518 1.187561,0.750038 0.0625,0.333348 -1.125056,-0.312515 -1.916766,-0.604197 -2.812643,0.333351 -1.89593,0.583361 z"
         id="path7" /></g><g
       id="g10"
       inkscape:label="Stomach"
       inkscape:export-filename="stomach3.png"
       inkscape:export-xdpi="96"
       inkscape:export-ydpi="96"><path
         style="fill:#ff821a;fill-opacity:1;stroke:#ff821a;stroke-width:0.1"
         d="m 81.7125,30.668229 -0.312515,-0.208343 h -0.583364 l -0.520859,0.104172 -0.166674,0.895879 0.187508,1.270899 0.541694,0.708369 0.562528,0.625034 0.41669,0.541692 0.104172,0.604199 -0.145841,1.104223 -0.583364,0.937546 -0.729203,0.687535 -0.791707,0.333352 -0.395854,-0.0625 -0.81254,-0.354184 -0.41669,-0.04167 -0.583361,0.166675 -0.625033,0.250012 -0.562528,0.0625 -0.708369,-0.0625 -0.6042,0.395854 -0.500026,0.85421 -0.270846,0.85421 -0.102073,0.57577 v 0.390401 l 0.243078,0.773438 0.766072,1.215403 0.964956,1.090179 0.257813,0.265178 0.220983,-0.0074 0.272544,-0.139957 0.279911,-0.228348 0.169418,-0.324107 0.01474,-0.279911 -0.235715,-0.176786 -0.721873,-0.758704 -0.493527,-0.714509 -0.213617,-0.50826 0.01474,-0.42723 0.16942,-0.147323 0.677677,-0.272545 0.316741,-0.368302 0.132591,-0.272545 0.132588,-0.250447 0.125224,-0.05156 0.139954,0.06629 0.09576,0.75134 0.235715,0.522989 0.604017,0.721876 0.692409,0.486161 0.979689,0.338839 1.318527,0.103126 1.421651,-0.0663 1.311161,-0.353571 1.237499,-0.626115 1.185939,-0.766072 0.743972,-0.729242 0.788169,-1.053349 0.530358,-1.075446 0.250446,-0.788167 0.213617,-0.972323 0.117856,-0.802902 -0.03683,-0.773438 -0.309375,-1.060714 -0.213616,-0.405133 -0.633482,-0.662948 -0.648213,-0.368303 -0.928126,-0.147322 -0.810268,0.0442 -0.832366,0.294643 -0.817634,0.419865 -0.640847,0.360939 -0.139957,0.0442 -0.257813,-0.0074 -0.18415,-0.0442 -0.235714,-0.139957 -0.176787,-0.265179 -0.302009,-0.567187 -0.250446,-0.648213 -0.08839,-0.522992 z"
         id="path8"
         inkscape:export-filename="stomach.png"
         inkscape:export-xdpi="96"
         inkscape:export-ydpi="96" /><path
         id="path10"
         style="display:none;fill:#48cc7a;fill-opacity:1;stroke:#f3ea5a;stroke-width:0.1;stroke-opacity:1"
         d="m 83.73344,34.710106 1.406322,-1.145892 1.406322,1.145892 v 1.666751 H 83.73344 Z"
         sodipodi:nodetypes="cccccc" /><path
         id="path9"
         style="display:none;fill:#48cc7a;fill-opacity:1;stroke:#f3ea5a;stroke-width:0.1;stroke-opacity:1"
         d="m 83.73344,36.303937 1.406322,-1.145892 1.406322,1.145892 v 1.666751 H 83.73344 Z"
         sodipodi:nodetypes="cccccc" /><path
         id="rect8"
         style="display:none;fill:#48cc7a;fill-opacity:1;stroke:#f3ea5a;stroke-width:0.1;stroke-opacity:1"
         d="m 83.73344,37.897768 1.406322,-1.145892 1.406322,1.145892 v 1.666751 H 83.73344 Z"
         sodipodi:nodetypes="cccccc" /></g><g
       id="g64"
       inkscape:label="Good Wheel Slice"
       inkscape:export-filename="../levels/eating/spinwheel/good_slice.png"
       inkscape:export-xdpi="96"
       inkscape:export-ydpi="96"><path
         style="fill:#48cc7a;fill-opacity:1;stroke:#f3ea5a;stroke-width:1;stroke-opacity:1"
         id="path11"
         sodipodi:type="arc"
         sodipodi:cx="132.5901"
         sodipodi:cy="157.09134"
         sodipodi:rx="59.586372"
         sodipodi:ry="59.586372"
         sodipodi:start="0"
         sodipodi:end="0.52359878"
         sodipodi:arc-type="slice"
         d="m 192.17648,157.09134 a 59.586372,59.586372 0 0 1 -7.98306,29.79319 L 132.5901,157.09134 Z"
         inkscape:label="Wheel Slice" /><g
         id="g19"
         inkscape:label="Escape Fridge"
         transform="rotate(105,120.8371,204.29311)"><path
           style="display:inline;fill:#808080;fill-opacity:1;stroke:#f3ea5a;stroke-width:0.25;stroke-opacity:1"
           d="m 66.54506,149.09094 v 20.91773 l 0.208346,0.45836 0.218913,-0.001 0.243081,-0.28728 0.02209,-0.23572 7.660714,0.0368 0.265178,0.4125 0.267539,0.007 0.171884,-0.3021 0.01564,-0.16668 0.009,-20.83389 z"
           id="path18" /><path
           style="display:inline;fill:#808080;fill-opacity:1;stroke:#f3ea5a;stroke-width:0.25;stroke-opacity:1"
           d="m 67.831585,151.33584 h -0.536487 v 0.45836 l 0.03646,0.0521 0.03646,7.38579 -0.07292,0.0365 v 0.43752 l 0.07813,0.0312 h 0.333351 l 0.119798,-0.0521 v -0.39065 l -0.114589,-0.0729 -0.03646,0.005 -0.02082,-7.33371 0.05209,-0.0417 v -0.0781 h 0.145841 z"
           id="path19" /><path
           id="rect19"
           style="fill:#48cc7a;fill-opacity:1;stroke:#f3ea5a;stroke-width:0.25"
           d="m 71.625294,158.04524 h 7.218751 l -0.203869,-1.05833 2.504464,2.69479 -2.504464,2.6948 0.203869,-1.05833 h -7.218751 z"
           sodipodi:nodetypes="cccccccc" /></g></g><g
       id="g65"
       inkscape:label="Bad Wheel Slice"
       transform="translate(21.685714,13.907143)"
       inkscape:export-filename="../levels/eating/spinwheel/bad_sllice.png"
       inkscape:export-xdpi="96"
       inkscape:export-ydpi="96"><path
         style="fill:#fb2538;fill-opacity:1;stroke:#f3ea5a;stroke-width:1;stroke-opacity:1"
         id="path21"
         sodipodi:type="arc"
         sodipodi:cx="110.25617"
         sodipodi:cy="186.90919"
         sodipodi:rx="59.586372"
         sodipodi:ry="59.586372"
         sodipodi:start="0"
         sodipodi:end="0.52359878"
         sodipodi:arc-type="slice"
         d="m 169.84254,186.90919 a 59.586372,59.586372 0 0 1 -7.98306,29.79319 l -51.60331,-29.79319 z"
         inkscape:label="Wheel Slice" /><g
         id="g25"
         inkscape:label="Stomach"
         inkscape:export-filename="stomach3.png"
         inkscape:export-xdpi="96"
         inkscape:export-ydpi="96"
         transform="matrix(0.17069279,1.2229095,-1.2229095,0.17069279,188.03463,91.708498)"><path
           style="fill:#ff821a;fill-opacity:1;stroke:#444849;stroke-width:0.1;stroke-opacity:1"
           d="m 81.7125,30.668229 -0.312515,-0.208343 h -0.583364 l -0.520859,0.104172 -0.166674,0.895879 0.187508,1.270899 0.541694,0.708369 0.562528,0.625034 0.41669,0.541692 0.104172,0.604199 -0.145841,1.104223 -0.583364,0.937546 -0.729203,0.687535 -0.791707,0.333352 -0.395854,-0.0625 -0.81254,-0.354184 -0.41669,-0.04167 -0.583361,0.166675 -0.625033,0.250012 -0.562528,0.0625 -0.708369,-0.0625 -0.6042,0.395854 -0.500026,0.85421 -0.270846,0.85421 -0.102073,0.57577 v 0.390401 l 0.243078,0.773438 0.766072,1.215403 0.964956,1.090179 0.257813,0.265178 0.220983,-0.0074 0.272544,-0.139957 0.279911,-0.228348 0.169418,-0.324107 0.01474,-0.279911 -0.235715,-0.176786 -0.721873,-0.758704 -0.493527,-0.714509 -0.213617,-0.50826 0.01474,-0.42723 0.16942,-0.147323 0.677677,-0.272545 0.316741,-0.368302 0.132591,-0.272545 0.132588,-0.250447 0.125224,-0.05156 0.139954,0.06629 0.09576,0.75134 0.235715,0.522989 0.604017,0.721876 0.692409,0.486161 0.979689,0.338839 1.318527,0.103126 1.421651,-0.0663 1.311161,-0.353571 1.237499,-0.626115 1.185939,-0.766072 0.743972,-0.729242 0.788169,-1.053349 0.530358,-1.075446 0.250446,-0.788167 0.213617,-0.972323 0.117856,-0.802902 -0.03683,-0.773438 -0.309375,-1.060714 -0.213616,-0.405133 -0.633482,-0.662948 -0.648213,-0.368303 -0.928126,-0.147322 -0.810268,0.0442 -0.832366,0.294643 -0.817634,0.419865 -0.640847,0.360939 -0.139957,0.0442 -0.257813,-0.0074 -0.18415,-0.0442 -0.235714,-0.139957 -0.176787,-0.265179 -0.302009,-0.567187 -0.250446,-0.648213 -0.08839,-0.522992 z"
           id="path22" /><path
           style="fill:#444849;fill-opacity:1;stroke:#f3ea5a;stroke-width:0.25;stroke-opacity:1"
           d="m 176.31878,172.87048 1.78666,-2.35831 2.05358,-0.51714 3.0356,0.10122 1.98297,1.46803 0.61385,1.81281 -3.6117,-1.45135 -3.49826,-0.0634 z"
           id="path23"
           sodipodi:nodetypes="ccccccccc"
           transform="matrix(0.80987098,0,0,0.80987098,-63.137337,-98.973553)" /><path
           style="fill:#444849;fill-opacity:1;stroke:#f3ea5a;stroke-width:0.25;stroke-opacity:1"
           d="m 177.82145,167.68476 1.78666,-2.35831 2.05358,-0.51714 c 0.36243,1.90772 -1.35968,2.48606 -1.35968,2.48606 z"
           id="path24"
           sodipodi:nodetypes="ccccc"
           transform="matrix(0.80987098,0,0,0.80987098,-63.137337,-98.973553)" /><path
           style="fill:#444849;fill-opacity:1;stroke:#f3ea5a;stroke-width:0.25;stroke-opacity:1"
           d="m 187.67775,167.86155 -1.78666,-2.35831 -2.05358,-0.51714 c -0.36243,1.90772 1.35968,2.48606 1.35968,2.48606 z"
           id="path25"
           sodipodi:nodetypes="ccccc"
           transform="matrix(0.80987098,0,0,0.80987098,-63.137337,-98.973553)" /></g></g><path
       id="rect65"
       style="fill:#444849;stroke:#4fc4f8;stroke-width:0.25;fill-opacity:1;stroke-opacity:1"
       d="m 88.337837,159.50813 h 1.500077 v 1.79176 l -0.529167,6.25032 -0.220872,2.12511 -0.220871,-2.12511 -0.529167,-6.25032 z"
       sodipodi:nodetypes="cccccccc"
       inkscape:export-filename="../levels/eating/spinwheel/pointer.png"
       inkscape:export-xdpi="96"
       inkscape:export-ydpi="96" /><g
       id="g15"
       inkscape:label="Mouse"
       inkscape:export-filename="mouse.png"
       inkscape:export-xdpi="96"
       inkscape:export-ydpi="96"
       transform="matrix(1.5943926,0,0,1.5943926,-60.830006,-56.384979)"><path
         style="fill:#a9aaad;fill-opacity:1;stroke:#4d32e2;stroke-width:0.1"
         d="m 103.53653,94.921508 0.0521,0.260432 0.43752,0.270846 0.69795,0.458356 0.19793,0.406271 0.0521,0.552111 -0.0833,0.593781 -0.26043,0.572947 -0.56253,0.01042 -0.47919,0.09376 -0.41669,0.177091 -0.43752,0.312518 -0.1771,0.520859 -0.11458,0.37502 -0.0313,5.26068 0.15626,0.69796 0.26043,0.57294 0.38544,0.44794 0.61461,0.35419 0.93755,0.14584 0.57295,-0.0521 0.59378,-0.22918 0.38543,-0.20834 0.26043,-0.34377 0.26043,-0.32293 0.14584,-0.38544 0.12501,-0.54169 0.0521,-5.229435 -0.1771,-0.718789 -0.33335,-0.458356 -0.47919,-0.333348 -0.41669,-0.125008 -0.51044,-0.05209 h -0.32293 l 0.14584,-0.614614 0.10417,-0.322934 -0.0209,-0.541695 -0.13542,-0.572945 -0.27085,-0.229179 -0.43752,-0.270846 -0.35418,-0.270846 -0.1771,-0.18751 -0.0312,-0.04167 z"
         id="path12" /><path
         style="display:inline;fill:none;fill-opacity:1;stroke:#4d32e2;stroke-width:0.1"
         d="m 102.39064,101.45309 2.3647,-0.0729 0.0208,-3.354338 -0.45835,0.02085 -0.55212,0.04167 -0.41669,0.114588 -0.46877,0.26043 -0.18751,0.260429 -0.16667,0.593781 -0.10417,0.270848 z"
         id="path13"
         inkscape:label="Left Btn" /><path
         style="fill:none;stroke:#4d32e2;stroke-width:0.1"
         d="m 104.75534,101.35934 2.35429,0.10417 0.0729,-1.687586 -0.10417,-0.406273 -0.2396,-0.604197 -0.32293,-0.343768 -0.40627,-0.270846 -0.38544,-0.114588 -0.59378,-0.06251 -0.38543,0.06251 z"
         id="path14" /><path
         style="fill:#444849;fill-opacity:1;stroke:#4d32e2;stroke-width:0.1"
         d="m 104.77618,98.567527 -0.29168,0.208346 -0.13543,0.468773 -0.0104,1.010464 0.11459,0.46878 0.30209,0.26043 0.28127,-0.12501 0.18751,-0.56253 0.0104,-0.645863 -0.0312,-0.479192 -0.0417,-0.354185 z"
         id="path15"
         sodipodi:nodetypes="cccccccccccc" /></g></g></svg>
