<?xml version="1.0" encoding="UTF-8" standalone="no"?>
<!-- Created with Inkscape (http://www.inkscape.org/) -->

<svg
   width="210mm"
   height="297mm"
   viewBox="0 0 210 297"
   version="1.1"
   id="svg1"
   inkscape:version="1.4.4 (dcaf3e7d9e, 2026-05-05)"
   sodipodi:docname="bed_room.svg"
   xml:space="preserve"
   xmlns:inkscape="http://www.inkscape.org/namespaces/inkscape"
   xmlns:sodipodi="http://sodipodi.sourceforge.net/DTD/sodipodi-0.dtd"
   xmlns="http://www.w3.org/2000/svg"
   xmlns:svg="http://www.w3.org/2000/svg"><sodipodi:namedview
     id="namedview1"
     pagecolor="#505050"
     bordercolor="#eeeeee"
     borderopacity="1"
     inkscape:showpageshadow="0"
     inkscape:pageopacity="0"
     inkscape:pagecheckerboard="0"
     inkscape:deskcolor="#505050"
     inkscape:document-units="mm"
     inkscape:zoom="25.398704"
     inkscape:cx="205.69947"
     inkscape:cy="538.92513"
     inkscape:window-width="2743"
     inkscape:window-height="1469"
     inkscape:window-x="0"
     inkscape:window-y="0"
     inkscape:window-maximized="1"
     inkscape:current-layer="layer1" /><defs
     id="defs1" /><g
     inkscape:label="Layer 1"
     inkscape:groupmode="layer"
     id="layer1"><g
       id="g7"
       inkscape:label="Bedroom"
       inkscape:export-filename="bedroom.png"
       inkscape:export-xdpi="96"
       inkscape:export-ydpi="96"
       style="display:none"><path
         style="fill:#444849;stroke:#4fc4f8;stroke-width:0.25"
         d="m 17.167542,163.34166 81.837508,-19.16764 81.83751,17.00087 0.33335,19.83434 -165.508444,-5.00025 z"
         id="path1"
         inkscape:label="Floor" /><path
         id="path2"
         style="fill:#4d32e2;fill-opacity:1;stroke:#4fc4f8;stroke-width:0.25"
         d="m 181.00911,76.670772 -7.83363,0.02377 v 42.478027 l -73.503528,3.50056 0.15813,-45.754828 -82.662654,0.252181 v 86.504277 l 79.837504,-15.66726 84.004178,13.16716 z"
         inkscape:label="Wall" /><path
         style="fill:#a9aaad;fill-opacity:1;stroke:#4fc4f8;stroke-width:0.25"
         d="m 116.00592,75.1705 0.16667,69.67022 -19.667667,-2.6668 V 74.170449 Z"
         id="path3"
         inkscape:label="Drapes" /><path
         style="fill:#444849;stroke:#4fc4f8;stroke-width:0.25"
         d="m 128.83991,121.5062 -0.16668,-46.502374 h 1.3334 l -0.0833,46.502374 z"
         id="path4"
         inkscape:label="Window divider" /></g><g
       id="g24"
       inkscape:label="Bed"
       transform="translate(-14.6128,-108.8385)"
       style="display:none"><path
         style="fill:#0c227d;fill-opacity:1;stroke:#4d32e2;stroke-width:0.25;stroke-opacity:1"
         d="m 146.96786,269.00894 0.0589,0.97231 0.70715,0.23572 1.00178,0.23572 1.06072,-0.1768 0.50089,-0.26519 v -0.5598 l -0.26518,-0.14732 0.0589,-2.12143 z"
         id="path22" /><path
         style="fill:#0c227d;fill-opacity:1;stroke:#4d32e2;stroke-width:0.25;stroke-opacity:1"
         d="m 127.52143,274.48928 -0.11786,1.47322 -0.4125,0.17677 -0.0589,0.58931 0.47143,0.17677 0.825,0.23571 H 128.7 l 0.70714,-0.11784 0.58929,-0.1768 -0.0589,-0.47143 -0.0589,-0.29464 h -0.4125 l -0.0589,-0.94284 z"
         id="path24" /><path
         style="fill:#0c227d;fill-opacity:1;stroke:#4d32e2;stroke-width:0.25;stroke-opacity:1"
         d="m 80.732142,259.28571 -0.05893,2.68125 -0.147322,0.11786 -0.02946,0.4125 0.265178,0.23571 0.471429,0.0884 0.353571,0.0295 0.559821,-0.0295 0.206251,-0.11785 0.206251,-0.23572 -0.02946,-0.55982 -0.294646,0.0295 0.02947,-2.18036 z"
         id="path23" /><path
         style="fill:#a9aaad;fill-opacity:1;stroke:#4fc4f8;stroke-width:0.25;stroke-opacity:1"
         d="m 72.95357,230.175 1.532143,16.85357 0.117856,10.13571 59.163061,19.49402 23.57265,-13.71902 -0.23571,-2.59286 -0.825,-0.35357 0.23571,-7.30714 -1.29642,-0.70714 -0.11786,-2.71071 -1.29643,-0.825 -42.54643,-5.18572 -9.54643,-0.47143 -2.00357,-11.66786 -0.707141,-0.825 L 74.721428,229.35 Z"
         id="path15"
         sodipodi:nodetypes="ccccccccccccccccc" /><path
         style="fill:#444849;fill-opacity:1;stroke:#444849;stroke-width:0.25;stroke-opacity:1"
         d="m 74.603569,254.45357 55.569741,16.2269 3.04182,0.50003 2.08344,-0.29167 20.83439,-10.91724 0.41669,0.33335 -22.62615,11.91728 z"
         id="path16" /><path
         style="fill:none;fill-opacity:1;stroke:#4fc4f8;stroke-width:0.25;stroke-opacity:1"
         d="m 156.34131,252.84623 -21.00107,8.08375 -5.0836,-0.25002 -55.419489,-11.83394"
         id="path17" /><path
         style="fill:#4fc4f8;fill-opacity:1;stroke:#4fc4f8;stroke-width:0.25;stroke-opacity:1"
         d="m 155.75794,252.26287 -21.25108,7.66705 -2.25011,0.0833 -2.41679,-0.58336 -53.002707,-10.66721 v -2.66681 l 0.833374,-0.83337 2.500128,-0.50002 20.584385,-2.4168 10.08385,0.75004 0.50002,0.25001 42.58551,4.91692 1.3334,1.3334 z"
         id="path18" /><path
         style="fill:#ff821a;fill-opacity:1;stroke:none;stroke-width:0.25;stroke-opacity:1"
         d="m 106.33876,254.59632 16.83419,3.41684 0.12501,-3.41684 0.70837,-2.04177 3.87519,-2.04177 8.50044,-2.20845 5.00025,-1.12506 3.25017,-0.16667 1.54174,0.16667 v -0.50002 l -1.29173,-0.5417 -15.87581,-1.54174 -1.50008,0.0833 -3.70852,0.37501 -4.08354,0.62504 -3.70852,0.58336 -3.62519,0.91671 -3.25016,1.04172 -1.50008,0.95839 -0.6667,0.7917 -0.20835,1.04172 -0.37501,2.16678 z"
         id="path19" /><path
         style="fill:#0c227d;fill-opacity:1;stroke:#4d32e2;stroke-width:0.25;stroke-opacity:1"
         d="m 80.466964,231.76607 1.620535,2.82857 1.561608,3.53571 1.119643,4.06608 0.471426,2.06249 0.294646,0.35358 1.060712,-0.0884 3.417858,-0.825 6.983037,-1.23749 3.771431,0.0589 -1.41429,-3.94821 -1.149107,-3.06429 -1.090178,-2.76964 -0.353571,-1.44375 -0.648216,-0.0884 -0.883928,0.50089 -2.298213,0.55982 -3.948216,-0.14732 -4.773212,-0.23571 -3.093752,-0.23572 z"
         id="path21" /><path
         style="fill:#0c227d;fill-opacity:1;stroke:#4d32e2;stroke-width:0.25;stroke-opacity:1"
         d="m 86.713392,236.06785 0.14732,3.00536 0.736608,2.15089 0.147323,0.67768 -0.795536,1.59108 0.97232,1.06071 1.738394,0.0295 5.716072,-0.94285 2.681248,-0.32411 2.474999,-0.35357 1.79732,0.0295 1.47322,-0.0295 -0.53036,-3.59465 -0.50089,-2.09196 0.17678,-1.56161 -0.55982,-0.29464 -1.50268,0.64821 -2.622319,0.64822 -3.624106,-0.35357 -3.565178,0.0884 -2.062502,0.0589 -0.795536,-0.53036 -0.942855,-0.14732 z"
         id="path20" /></g><g
       id="g6"
       inkscape:label="Bedstand"
       style="display:none"><path
         style="fill:#444849;fill-opacity:1;stroke:#ff821a;stroke-width:0.25;stroke-opacity:1"
         d="m 40.72036,144.03991 -0.117856,14.85 5.892858,3.47679 17.324999,-3.94822 -0.353571,-14.14285 -6.717858,-2.35715 z"
         id="path5" /><path
         style="fill:none;stroke:#ff821a;stroke-width:0.25;stroke-opacity:1"
         d="m 41.132861,144.51134 5.480356,2.18036 16.500002,-2.29822"
         id="path6" /></g><g
       id="g59"
       inkscape:label="Alarm Clock"
       inkscape:export-filename="alarm_clock_big_no_colon.png"
       inkscape:export-xdpi="96"
       inkscape:export-ydpi="96"><path
         style="fill:#444849;fill-opacity:1;stroke:#ff821a;stroke-width:1;stroke-opacity:1"
         d="m 44.668945,229.51171 17.250881,26.58469 1.083386,0.91671 1.666754,0.0833 1.833427,-0.33335 102.755237,-18.75096 -3.00015,-26.8347 -1.25006,-1.3334 -32.75167,-16.33417 -83.087576,9.16713 -0.333349,0.58337 -2.416791,0.25001 -0.916713,0.75004 z"
         id="path7"
         inkscape:label="Clock Base" /><path
         style="fill:none;fill-opacity:1;stroke:#ff821a;stroke-width:1;stroke-opacity:1"
         d="m 62.586525,256.51308 v -31.33493 l 1.416738,-1.41674 1.916766,-0.50002 97.838321,-13.7507"
         id="path8"
         inkscape:label="Line 3" /><path
         style="display:inline;fill:#0c227d;fill-opacity:1;stroke:none;stroke-width:1;stroke-opacity:1"
         d="m 65.169991,225.5115 0.166674,28.33478 100.921815,-17.58423 -2.91682,-24.75126 z"
         id="path9"
         inkscape:label="Front" /><path
         style="fill:none;fill-opacity:1;stroke:#ff821a;stroke-width:1;stroke-opacity:1"
         d="m 45.585657,204.51043 17.084207,20.1677"
         id="path10"
         inkscape:label="Line 2" /><path
         style="fill:none;fill-opacity:1;stroke:#ff821a;stroke-width:1;stroke-opacity:1"
         d="M 49.085838,202.84368 64.419953,220.8446 159.67481,207.42725"
         id="path11"
         inkscape:label="Line 1" /><path
         style="fill:#0c227d;fill-opacity:1;stroke:none;stroke-width:1;stroke-opacity:1"
         d="m 141.84057,204.73961 1.43757,0.95838 7.1462,-0.89588 -1.83343,-1.10422 z"
         id="path26"
         inkscape:label="OnOff Grove" /><g
         id="g38"
         inkscape:label="Buttons"><path
           style="fill:#444849;fill-opacity:1;stroke:#ff821a;stroke-width:0.25;stroke-opacity:1"
           d="m 65.753355,214.76095 -0.02082,-1.06255 0.395854,-0.50003 30.209873,-4.10437 0.625033,0.58336 0.125005,0.37502 0.166677,1.64592 -30.730734,4.04187 z"
           id="path12" /><path
           style="fill:#444849;fill-opacity:1;stroke:#ff821a;stroke-width:0.25;stroke-opacity:1"
           d="m 100.33845,210.11488 0.0208,-0.89588 0.18752,-0.56252 9.938,-1.29174 0.62503,0.58337 0.22918,1.66675 -9.83383,1.43757 z"
           id="path13" /><path
           style="fill:#444849;fill-opacity:1;stroke:#ff821a;stroke-width:0.25;stroke-opacity:1"
           d="m 114.23499,208.38563 -0.0208,-1.08339 0.39585,-0.54169 9.79217,-1.29174 0.58336,0.72921 0.10418,1.66675 -9.72967,1.43757 z"
           id="path14" /><path
           style="fill:#444849;fill-opacity:1;stroke:#ff821a;stroke-width:0.25;stroke-opacity:1"
           d="m 127.88152,206.69804 -0.0208,-0.83337 0.33336,-0.6667 9.54215,-1.39591 0.54169,0.70837 0.18751,1.50008 -9.39631,1.31256 z"
           id="path25" /><path
           style="fill:#444849;fill-opacity:1;stroke:#ff821a;stroke-width:0.25;stroke-opacity:1"
           d="m 142.00724,204.69794 0.0208,-1.3334 3.50018,-0.37502 1.47924,0.87504 0.0625,1.54175 -3.18766,0.29168 z"
           id="path27" /></g><g
         id="g36"
         inkscape:label="Number"><path
           style="fill:#fb2538;fill-opacity:1;stroke:#ff821a;stroke-width:0.25;stroke-opacity:1"
           d="m 134.26875,221.0116 -0.20625,5.74554 0.55982,0.64822 0.73661,-0.55983 0.0295,-4.74375 z"
           id="path28" /><path
           style="fill:#fb2538;fill-opacity:1;stroke:#ff821a;stroke-width:0.25;stroke-opacity:1"
           d="m 134.76964,220.56964 0.94286,1.38482 3.65357,-0.50089 1.35536,-1.56161 z"
           id="path29" /><path
           style="fill:#fb2538;fill-opacity:1;stroke:#ff821a;stroke-width:0.25;stroke-opacity:1"
           d="m 139.57232,221.68928 1.35536,-1.29642 -0.0295,5.3625 -0.64821,0.825 -0.85447,-0.61876 z"
           id="path30" /><path
           style="display:none;fill:#fb2538;fill-opacity:1;stroke:#ff821a;stroke-width:0.25;stroke-opacity:1"
           d="m 134.91696,227.64107 0.58929,-0.73661 3.83036,-0.53035 0.3241,0.55982 -0.50089,0.825 -3.88929,0.53035 z"
           id="path31" /><path
           style="fill:#fb2538;fill-opacity:1;stroke:#ff821a;stroke-width:0.25;stroke-opacity:1"
           d="m 133.85625,228.70178 -0.20625,5.8634 1.32589,-1.2375 0.14732,-4.50804 -0.61875,-0.70714 z"
           id="path32" /><path
           style="fill:#fb2538;fill-opacity:1;stroke:#ff821a;stroke-width:0.25;stroke-opacity:1"
           d="m 134.09196,234.85982 1.06072,-1.41429 3.59464,-0.61875 1.20804,0.94286 z"
           id="path33" /><path
           style="fill:#fb2538;fill-opacity:1;stroke:#ff821a;stroke-width:0.25;stroke-opacity:1"
           d="m 139.36607,228.08303 -0.23571,4.24286 1.41428,1.17857 0.0884,-5.53928 -0.55983,-0.85447 z"
           id="path34" /></g><g
         id="g37"
         inkscape:label="Colon"
         style="display:none"><path
           style="fill:#fb2538;fill-opacity:1;stroke:#ff821a;stroke-width:0.25;stroke-opacity:1"
           d="m 116.56071,233.03303 -0.91339,0.29465 -0.4125,0.67768 0.0589,0.88392 0.35357,0.94286 0.61875,0.17679 1.03125,-0.17679 0.38303,-0.67768 0.26518,-0.70714 -0.11785,-0.79554 -0.70715,-0.55982 z"
           id="path35" /><path
           style="fill:#fb2538;fill-opacity:1;stroke:#ff821a;stroke-width:0.25;stroke-opacity:1"
           d="m 116.17768,225.60803 -0.38304,0.85447 0.0884,0.64821 0.29464,0.55982 0.4125,0.44197 0.85446,0.0589 0.64822,-0.44197 0.35357,-0.58928 0.11786,-0.88393 -0.29465,-0.64822 -0.50089,-0.44196 -0.73661,-0.20625 -0.61875,0.32411 z"
           id="path36" /></g><g
         id="g44"
         inkscape:label="Number"
         transform="translate(-10.253571,1.65)"><path
           style="display:none;fill:#fb2538;fill-opacity:1;stroke:#ff821a;stroke-width:0.25;stroke-opacity:1"
           d="m 134.26875,221.0116 -0.20625,5.74554 0.55982,0.64822 0.73661,-0.55983 0.0295,-4.74375 z"
           id="path38" /><path
           style="fill:#fb2538;fill-opacity:1;stroke:#ff821a;stroke-width:0.25;stroke-opacity:1"
           d="m 134.76964,220.56964 0.94286,1.38482 3.65357,-0.50089 1.35536,-1.56161 z"
           id="path39" /><path
           style="fill:#fb2538;fill-opacity:1;stroke:#ff821a;stroke-width:0.25;stroke-opacity:1"
           d="m 139.57232,221.68928 1.35536,-1.29642 -0.0295,5.3625 -0.64821,0.825 -0.85447,-0.61876 z"
           id="path40" /><path
           style="display:inline;fill:#fb2538;fill-opacity:1;stroke:#ff821a;stroke-width:0.25;stroke-opacity:1"
           d="m 134.91696,227.64107 0.58929,-0.73661 3.83036,-0.53035 0.3241,0.55982 -0.50089,0.825 -3.88929,0.53035 z"
           id="path41" /><path
           style="display:none;fill:#fb2538;fill-opacity:1;stroke:#ff821a;stroke-width:0.25;stroke-opacity:1"
           d="m 133.85625,228.70178 -0.20625,5.8634 1.32589,-1.2375 0.14732,-4.50804 -0.61875,-0.70714 z"
           id="path42" /><path
           style="fill:#fb2538;fill-opacity:1;stroke:#ff821a;stroke-width:0.25;stroke-opacity:1"
           d="m 134.09196,234.85982 1.06072,-1.41429 3.59464,-0.61875 1.20804,0.94286 z"
           id="path43" /><path
           style="display:inline;fill:#fb2538;fill-opacity:1;stroke:#ff821a;stroke-width:0.25;stroke-opacity:1"
           d="m 139.36607,228.08303 -0.23571,4.24286 1.41428,1.17857 0.0884,-5.53928 -0.55983,-0.85447 z"
           id="path44" /></g><g
         id="g51"
         inkscape:label="Number"
         transform="translate(-30.171428,4.95)"><path
           style="fill:#fb2538;fill-opacity:1;stroke:#ff821a;stroke-width:0.25;stroke-opacity:1"
           d="m 134.26875,221.0116 -0.20625,5.74554 0.55982,0.64822 0.73661,-0.55983 0.0295,-4.74375 z"
           id="path45" /><path
           style="fill:#fb2538;fill-opacity:1;stroke:#ff821a;stroke-width:0.25;stroke-opacity:1"
           d="m 134.76964,220.56964 0.94286,1.38482 3.65357,-0.50089 1.35536,-1.56161 z"
           id="path46" /><path
           style="display:none;fill:#fb2538;fill-opacity:1;stroke:#ff821a;stroke-width:0.25;stroke-opacity:1"
           d="m 139.57232,221.68928 1.35536,-1.29642 -0.0295,5.3625 -0.64821,0.825 -0.85447,-0.61876 z"
           id="path47" /><path
           style="fill:#fb2538;fill-opacity:1;stroke:#ff821a;stroke-width:0.25;stroke-opacity:1"
           d="m 134.91696,227.64107 0.58929,-0.73661 3.83036,-0.53035 0.3241,0.55982 -0.50089,0.825 -3.88929,0.53035 z"
           id="path48" /><path
           style="display:none;fill:#fb2538;fill-opacity:1;stroke:#ff821a;stroke-width:0.25;stroke-opacity:1"
           d="m 133.85625,228.70178 -0.20625,5.8634 1.32589,-1.2375 0.14732,-4.50804 -0.61875,-0.70714 z"
           id="path49" /><path
           style="fill:#fb2538;fill-opacity:1;stroke:#ff821a;stroke-width:0.25;stroke-opacity:1"
           d="m 134.09196,234.85982 1.06072,-1.41429 3.59464,-0.61875 1.20804,0.94286 z"
           id="path50" /><path
           style="fill:#fb2538;fill-opacity:1;stroke:#ff821a;stroke-width:0.25;stroke-opacity:1"
           d="m 139.36607,228.08303 -0.23571,4.24286 1.41428,1.17857 0.0884,-5.53928 -0.55983,-0.85447 z"
           id="path51" /></g><g
         id="g58"
         inkscape:label="Number"
         transform="translate(-39.953571,6.6)"><path
           style="fill:#fb2538;fill-opacity:1;stroke:#ff821a;stroke-width:0.25;stroke-opacity:1"
           d="m 134.26875,221.0116 -0.20625,5.74554 0.55982,0.64822 0.73661,-0.55983 0.0295,-4.74375 z"
           id="path52" /><path
           style="fill:#fb2538;fill-opacity:1;stroke:#ff821a;stroke-width:0.25;stroke-opacity:1"
           d="m 134.76964,220.56964 0.94286,1.38482 3.65357,-0.50089 1.35536,-1.56161 z"
           id="path53" /><path
           style="display:inline;fill:#fb2538;fill-opacity:1;stroke:#ff821a;stroke-width:0.25;stroke-opacity:1"
           d="m 139.57232,221.68928 1.35536,-1.29642 -0.0295,5.3625 -0.64821,0.825 -0.85447,-0.61876 z"
           id="path54" /><path
           style="display:none;fill:#fb2538;fill-opacity:1;stroke:#ff821a;stroke-width:0.25;stroke-opacity:1"
           d="m 134.91696,227.64107 0.58929,-0.73661 3.83036,-0.53035 0.3241,0.55982 -0.50089,0.825 -3.88929,0.53035 z"
           id="path55" /><path
           style="fill:#fb2538;fill-opacity:1;stroke:#ff821a;stroke-width:0.25;stroke-opacity:1"
           d="m 133.85625,228.70178 -0.20625,5.8634 1.32589,-1.2375 0.14732,-4.50804 -0.61875,-0.70714 z"
           id="path56" /><path
           style="fill:#fb2538;fill-opacity:1;stroke:#ff821a;stroke-width:0.25;stroke-opacity:1"
           d="m 134.09196,234.85982 1.06072,-1.41429 3.59464,-0.61875 1.20804,0.94286 z"
           id="path57" /><path
           style="fill:#fb2538;fill-opacity:1;stroke:#ff821a;stroke-width:0.25;stroke-opacity:1"
           d="m 139.36607,228.08303 -0.23571,4.24286 1.41428,1.17857 0.0884,-5.53928 -0.55983,-0.85447 z"
           id="path58" /></g></g><g
       id="g100"
       inkscape:label="Alarm Clock Small"
       transform="matrix(0.06383572,0,0,0.06383572,49.011855,128.81562)"
       style="display:inline"
       inkscape:export-filename="alarm_clock_small_0145.png"
       inkscape:export-xdpi="96"
       inkscape:export-ydpi="96"><path
         style="fill:#444849;fill-opacity:1;stroke:#ff821a;stroke-width:1;stroke-opacity:1"
         d="m 44.668945,229.51171 17.250881,26.58469 1.083386,0.91671 1.666754,0.0833 1.833427,-0.33335 102.755237,-18.75096 -3.00015,-26.8347 -1.25006,-1.3334 -32.75167,-16.33417 -83.087576,9.16713 -0.333349,0.58337 -2.416791,0.25001 -0.916713,0.75004 z"
         id="path59"
         inkscape:label="Clock Base" /><path
         style="fill:none;fill-opacity:1;stroke:#ff821a;stroke-width:1;stroke-opacity:1"
         d="m 62.586525,256.51308 v -31.33493 l 1.416738,-1.41674 1.916766,-0.50002 97.838321,-13.7507"
         id="path60"
         inkscape:label="Line 3" /><path
         style="display:inline;fill:#0c227d;fill-opacity:1;stroke:none;stroke-width:1;stroke-opacity:1"
         d="m 65.169991,225.5115 0.166674,28.33478 100.921815,-17.58423 -2.91682,-24.75126 z"
         id="path61"
         inkscape:label="Front" /><path
         style="fill:none;fill-opacity:1;stroke:#ff821a;stroke-width:1;stroke-opacity:1"
         d="m 45.585657,204.51043 17.084207,20.1677"
         id="path62"
         inkscape:label="Line 2" /><path
         style="fill:none;fill-opacity:1;stroke:#ff821a;stroke-width:1;stroke-opacity:1"
         d="M 49.085838,202.84368 64.419953,220.8446 159.67481,207.42725"
         id="path63"
         inkscape:label="Line 1" /><path
         style="fill:#0c227d;fill-opacity:1;stroke:none;stroke-width:1;stroke-opacity:1"
         d="m 141.84057,204.73961 1.43757,0.95838 7.1462,-0.89588 -1.83343,-1.10422 z"
         id="path64"
         inkscape:label="OnOff Grove" /><g
         id="g69"
         inkscape:label="Buttons"><path
           style="fill:#444849;fill-opacity:1;stroke:#ff821a;stroke-width:0.25;stroke-opacity:1"
           d="m 65.753355,214.76095 -0.02082,-1.06255 0.395854,-0.50003 30.209873,-4.10437 0.625033,0.58336 0.125005,0.37502 0.166677,1.64592 -30.730734,4.04187 z"
           id="path65" /><path
           style="fill:#444849;fill-opacity:1;stroke:#ff821a;stroke-width:0.25;stroke-opacity:1"
           d="m 100.33845,210.11488 0.0208,-0.89588 0.18752,-0.56252 9.938,-1.29174 0.62503,0.58337 0.22918,1.66675 -9.83383,1.43757 z"
           id="path66" /><path
           style="fill:#444849;fill-opacity:1;stroke:#ff821a;stroke-width:0.25;stroke-opacity:1"
           d="m 114.23499,208.38563 -0.0208,-1.08339 0.39585,-0.54169 9.79217,-1.29174 0.58336,0.72921 0.10418,1.66675 -9.72967,1.43757 z"
           id="path67" /><path
           style="fill:#444849;fill-opacity:1;stroke:#ff821a;stroke-width:0.25;stroke-opacity:1"
           d="m 127.88152,206.69804 -0.0208,-0.83337 0.33336,-0.6667 9.54215,-1.39591 0.54169,0.70837 0.18751,1.50008 -9.39631,1.31256 z"
           id="path68" /><path
           style="fill:#444849;fill-opacity:1;stroke:#ff821a;stroke-width:0.25;stroke-opacity:1"
           d="m 142.00724,204.69794 0.0208,-1.3334 3.50018,-0.37502 1.47924,0.87504 0.0625,1.54175 -3.18766,0.29168 z"
           id="path69" /></g><g
         id="g76"
         inkscape:label="Number"><path
           style="fill:#fb2538;fill-opacity:1;stroke:#ff821a;stroke-width:0.25;stroke-opacity:1"
           d="m 134.26875,221.0116 -0.20625,5.74554 0.55982,0.64822 0.73661,-0.55983 0.0295,-4.74375 z"
           id="path70" /><path
           style="fill:#fb2538;fill-opacity:1;stroke:#ff821a;stroke-width:0.25;stroke-opacity:1"
           d="m 134.76964,220.56964 0.94286,1.38482 3.65357,-0.50089 1.35536,-1.56161 z"
           id="path71" /><path
           style="display:none;fill:#fb2538;fill-opacity:1;stroke:#ff821a;stroke-width:0.25;stroke-opacity:1"
           d="m 139.57232,221.68928 1.35536,-1.29642 -0.0295,5.3625 -0.64821,0.825 -0.85447,-0.61876 z"
           id="path72" /><path
           style="display:inline;fill:#fb2538;fill-opacity:1;stroke:#ff821a;stroke-width:0.25;stroke-opacity:1"
           d="m 134.91696,227.64107 0.58929,-0.73661 3.83036,-0.53035 0.3241,0.55982 -0.50089,0.825 -3.88929,0.53035 z"
           id="path73" /><path
           style="display:none;fill:#fb2538;fill-opacity:1;stroke:#ff821a;stroke-width:0.25;stroke-opacity:1"
           d="m 133.85625,228.70178 -0.20625,5.8634 1.32589,-1.2375 0.14732,-4.50804 -0.61875,-0.70714 z"
           id="path74" /><path
           style="fill:#fb2538;fill-opacity:1;stroke:#ff821a;stroke-width:0.25;stroke-opacity:1"
           d="m 134.09196,234.85982 1.06072,-1.41429 3.59464,-0.61875 1.20804,0.94286 z"
           id="path75" /><path
           style="fill:#fb2538;fill-opacity:1;stroke:#ff821a;stroke-width:0.25;stroke-opacity:1"
           d="m 139.36607,228.08303 -0.23571,4.24286 1.41428,1.17857 0.0884,-5.53928 -0.55983,-0.85447 z"
           id="path76" /></g><g
         id="g78"
         inkscape:label="Colon"><path
           style="fill:#fb2538;fill-opacity:1;stroke:#ff821a;stroke-width:0.25;stroke-opacity:1"
           d="m 116.56071,233.03303 -0.91339,0.29465 -0.4125,0.67768 0.0589,0.88392 0.35357,0.94286 0.61875,0.17679 1.03125,-0.17679 0.38303,-0.67768 0.26518,-0.70714 -0.11785,-0.79554 -0.70715,-0.55982 z"
           id="path77" /><path
           style="fill:#fb2538;fill-opacity:1;stroke:#ff821a;stroke-width:0.25;stroke-opacity:1"
           d="m 116.17768,225.60803 -0.38304,0.85447 0.0884,0.64821 0.29464,0.55982 0.4125,0.44197 0.85446,0.0589 0.64822,-0.44197 0.35357,-0.58928 0.11786,-0.88393 -0.29465,-0.64822 -0.50089,-0.44196 -0.73661,-0.20625 -0.61875,0.32411 z"
           id="path78" /></g><g
         id="g85"
         inkscape:label="Number"
         transform="translate(-10.253571,1.65)"><path
           style="fill:#fb2538;fill-opacity:1;stroke:#ff821a;stroke-width:0.25;stroke-opacity:1"
           d="m 134.26875,221.0116 -0.20625,5.74554 0.55982,0.64822 0.73661,-0.55983 0.0295,-4.74375 z"
           id="path79" /><path
           style="display:none;fill:#fb2538;fill-opacity:1;stroke:#ff821a;stroke-width:0.25;stroke-opacity:1"
           d="m 134.76964,220.56964 0.94286,1.38482 3.65357,-0.50089 1.35536,-1.56161 z"
           id="path80" /><path
           style="fill:#fb2538;fill-opacity:1;stroke:#ff821a;stroke-width:0.25;stroke-opacity:1"
           d="m 139.57232,221.68928 1.35536,-1.29642 -0.0295,5.3625 -0.64821,0.825 -0.85447,-0.61876 z"
           id="path81" /><path
           style="display:inline;fill:#fb2538;fill-opacity:1;stroke:#ff821a;stroke-width:0.25;stroke-opacity:1"
           d="m 134.91696,227.64107 0.58929,-0.73661 3.83036,-0.53035 0.3241,0.55982 -0.50089,0.825 -3.88929,0.53035 z"
           id="path82" /><path
           style="display:none;fill:#fb2538;fill-opacity:1;stroke:#ff821a;stroke-width:0.25;stroke-opacity:1"
           d="m 133.85625,228.70178 -0.20625,5.8634 1.32589,-1.2375 0.14732,-4.50804 -0.61875,-0.70714 z"
           id="path83" /><path
           style="display:none;fill:#fb2538;fill-opacity:1;stroke:#ff821a;stroke-width:0.25;stroke-opacity:1"
           d="m 134.09196,234.85982 1.06072,-1.41429 3.59464,-0.61875 1.20804,0.94286 z"
           id="path84" /><path
           style="fill:#fb2538;fill-opacity:1;stroke:#ff821a;stroke-width:0.25;stroke-opacity:1"
           d="m 139.36607,228.08303 -0.23571,4.24286 1.41428,1.17857 0.0884,-5.53928 -0.55983,-0.85447 z"
           id="path85" /></g><g
         id="g92"
         inkscape:label="Number"
         transform="translate(-30.171428,4.95)"><path
           style="display:none;fill:#fb2538;fill-opacity:1;stroke:#ff821a;stroke-width:0.25;stroke-opacity:1"
           d="m 134.26875,221.0116 -0.20625,5.74554 0.55982,0.64822 0.73661,-0.55983 0.0295,-4.74375 z"
           id="path86" /><path
           style="display:none;fill:#fb2538;fill-opacity:1;stroke:#ff821a;stroke-width:0.25;stroke-opacity:1"
           d="m 134.76964,220.56964 0.94286,1.38482 3.65357,-0.50089 1.35536,-1.56161 z"
           id="path87" /><path
           style="display:inline;fill:#fb2538;fill-opacity:1;stroke:#ff821a;stroke-width:0.25;stroke-opacity:1"
           d="m 139.57232,221.68928 1.35536,-1.29642 -0.0295,5.3625 -0.64821,0.825 -0.85447,-0.61876 z"
           id="path88" /><path
           style="display:none;fill:#fb2538;fill-opacity:1;stroke:#ff821a;stroke-width:0.25;stroke-opacity:1"
           d="m 134.91696,227.64107 0.58929,-0.73661 3.83036,-0.53035 0.3241,0.55982 -0.50089,0.825 -3.88929,0.53035 z"
           id="path89" /><path
           style="display:none;fill:#fb2538;fill-opacity:1;stroke:#ff821a;stroke-width:0.25;stroke-opacity:1"
           d="m 133.85625,228.70178 -0.20625,5.8634 1.32589,-1.2375 0.14732,-4.50804 -0.61875,-0.70714 z"
           id="path90" /><path
           style="display:none;fill:#fb2538;fill-opacity:1;stroke:#ff821a;stroke-width:0.25;stroke-opacity:1"
           d="m 134.09196,234.85982 1.06072,-1.41429 3.59464,-0.61875 1.20804,0.94286 z"
           id="path91" /><path
           style="display:inline;fill:#fb2538;fill-opacity:1;stroke:#ff821a;stroke-width:0.25;stroke-opacity:1"
           d="m 139.36607,228.08303 -0.23571,4.24286 1.41428,1.17857 0.0884,-5.53928 -0.55983,-0.85447 z"
           id="path92" /></g><g
         id="g99"
         inkscape:label="Number"
         transform="translate(-39.953571,6.6)"><path
           style="display:inline;fill:#fb2538;fill-opacity:1;stroke:#ff821a;stroke-width:0.25;stroke-opacity:1"
           d="m 134.26875,221.0116 -0.20625,5.74554 0.55982,0.64822 0.73661,-0.55983 0.0295,-4.74375 z"
           id="path93" /><path
           style="fill:#fb2538;fill-opacity:1;stroke:#ff821a;stroke-width:0.25;stroke-opacity:1"
           d="m 134.76964,220.56964 0.94286,1.38482 3.65357,-0.50089 1.35536,-1.56161 z"
           id="path94" /><path
           style="display:inline;fill:#fb2538;fill-opacity:1;stroke:#ff821a;stroke-width:0.25;stroke-opacity:1"
           d="m 139.57232,221.68928 1.35536,-1.29642 -0.0295,5.3625 -0.64821,0.825 -0.85447,-0.61876 z"
           id="path95" /><path
           style="display:none;fill:#fb2538;fill-opacity:1;stroke:#ff821a;stroke-width:0.25;stroke-opacity:1"
           d="m 134.91696,227.64107 0.58929,-0.73661 3.83036,-0.53035 0.3241,0.55982 -0.50089,0.825 -3.88929,0.53035 z"
           id="path96" /><path
           style="fill:#fb2538;fill-opacity:1;stroke:#ff821a;stroke-width:0.25;stroke-opacity:1"
           d="m 133.85625,228.70178 -0.20625,5.8634 1.32589,-1.2375 0.14732,-4.50804 -0.61875,-0.70714 z"
           id="path97" /><path
           style="fill:#fb2538;fill-opacity:1;stroke:#ff821a;stroke-width:0.25;stroke-opacity:1"
           d="m 134.09196,234.85982 1.06072,-1.41429 3.59464,-0.61875 1.20804,0.94286 z"
           id="path98" /><path
           style="display:inline;fill:#fb2538;fill-opacity:1;stroke:#ff821a;stroke-width:0.25;stroke-opacity:1"
           d="m 139.36607,228.08303 -0.23571,4.24286 1.41428,1.17857 0.0884,-5.53928 -0.55983,-0.85447 z"
           id="path99" /></g></g></g></svg>
